<?xml version="1.0" encoding="UTF-8"?>
<svg xmlns="http://www.w3.org/2000/svg" xmlns:xlink="http://www.w3.org/1999/xlink" width="20px" height="20px" viewBox="0 0 20 20" version="1.1">
<g id="surface1">
<path style=" stroke:none;fill-rule:nonzero;fill:rgb(0%,0%,0%);fill-opacity:1;" d="M 10 4.304688 C 10.09375 4.304688 10.1875 4.308594 10.28125 4.3125 C 10.371094 4.316406 10.464844 4.324219 10.558594 4.332031 C 10.652344 4.339844 10.742188 4.351562 10.835938 4.367188 C 10.929688 4.378906 11.019531 4.394531 11.109375 4.414062 C 11.203125 4.433594 11.292969 4.453125 11.382812 4.476562 C 11.472656 4.496094 11.5625 4.523438 11.652344 4.550781 C 11.742188 4.578125 11.832031 4.605469 11.917969 4.636719 C 12.007812 4.667969 12.09375 4.703125 12.179688 4.738281 C 12.265625 4.773438 12.351562 4.8125 12.433594 4.851562 C 12.519531 4.890625 12.601562 4.933594 12.683594 4.976562 C 12.765625 5.019531 12.847656 5.066406 12.929688 5.113281 C 13.007812 5.164062 13.085938 5.210938 13.164062 5.265625 C 13.242188 5.316406 13.316406 5.371094 13.394531 5.425781 C 13.46875 5.480469 13.542969 5.539062 13.613281 5.597656 C 13.683594 5.65625 13.753906 5.71875 13.824219 5.78125 C 13.894531 5.84375 13.960938 5.90625 14.027344 5.972656 C 14.09375 6.039062 14.15625 6.105469 14.21875 6.175781 C 14.28125 6.246094 14.34375 6.316406 14.402344 6.386719 C 14.460938 6.457031 14.519531 6.53125 14.574219 6.605469 C 14.628906 6.683594 14.683594 6.757812 14.734375 6.835938 C 14.789062 6.914062 14.835938 6.992188 14.886719 7.070312 C 14.933594 7.152344 14.980469 7.234375 15.023438 7.316406 C 15.066406 7.398438 15.109375 7.480469 15.148438 7.566406 C 15.1875 7.648438 15.226562 7.734375 15.261719 7.820312 C 15.296875 7.90625 15.332031 7.992188 15.363281 8.082031 C 15.394531 8.167969 15.421875 8.257812 15.449219 8.347656 C 15.476562 8.4375 15.503906 8.527344 15.523438 8.617188 C 15.546875 8.707031 15.566406 8.796875 15.585938 8.890625 C 15.605469 8.980469 15.621094 9.070312 15.632812 9.164062 C 15.648438 9.257812 15.660156 9.347656 15.667969 9.441406 C 15.675781 9.535156 15.683594 9.628906 15.6875 9.71875 C 15.691406 9.8125 15.695312 9.90625 15.695312 10 C 15.695312 10.09375 15.691406 10.1875 15.6875 10.28125 C 15.683594 10.371094 15.675781 10.464844 15.667969 10.558594 C 15.660156 10.652344 15.648438 10.742188 15.632812 10.835938 C 15.621094 10.929688 15.605469 11.019531 15.585938 11.109375 C 15.566406 11.203125 15.546875 11.292969 15.523438 11.382812 C 15.503906 11.472656 15.476562 11.5625 15.449219 11.652344 C 15.421875 11.742188 15.394531 11.832031 15.363281 11.917969 C 15.332031 12.007812 15.296875 12.09375 15.261719 12.179688 C 15.226562 12.265625 15.1875 12.351562 15.148438 12.433594 C 15.109375 12.519531 15.066406 12.601562 15.023438 12.683594 C 14.980469 12.765625 14.933594 12.847656 14.886719 12.929688 C 14.835938 13.007812 14.789062 13.085938 14.734375 13.164062 C 14.683594 13.242188 14.628906 13.316406 14.574219 13.394531 C 14.519531 13.46875 14.460938 13.542969 14.402344 13.613281 C 14.34375 13.683594 14.28125 13.753906 14.21875 13.824219 C 14.15625 13.894531 14.09375 13.960938 14.027344 14.027344 C 13.960938 14.09375 13.894531 14.15625 13.824219 14.21875 C 13.753906 14.28125 13.683594 14.34375 13.613281 14.402344 C 13.542969 14.460938 13.46875 14.519531 13.394531 14.574219 C 13.316406 14.628906 13.242188 14.683594 13.164062 14.734375 C 13.085938 14.789062 13.007812 14.835938 12.929688 14.886719 C 12.847656 14.933594 12.765625 14.980469 12.683594 15.023438 C 12.601562 15.066406 12.519531 15.109375 12.433594 15.148438 C 12.351562 15.1875 12.265625 15.226562 12.179688 15.261719 C 12.09375 15.296875 12.007812 15.332031 11.917969 15.363281 C 11.832031 15.394531 11.742188 15.421875 11.652344 15.449219 C 11.5625 15.476562 11.472656 15.503906 11.382812 15.523438 C 11.292969 15.546875 11.203125 15.566406 11.109375 15.585938 C 11.019531 15.605469 10.929688 15.621094 10.835938 15.632812 C 10.742188 15.648438 10.652344 15.660156 10.558594 15.667969 C 10.464844 15.675781 10.371094 15.683594 10.28125 15.6875 C 10.1875 15.691406 10.09375 15.695312 10 15.695312 C 9.90625 15.695312 9.8125 15.691406 9.71875 15.6875 C 9.628906 15.683594 9.535156 15.675781 9.441406 15.667969 C 9.347656 15.660156 9.257812 15.648438 9.164062 15.632812 C 9.070312 15.621094 8.980469 15.605469 8.890625 15.585938 C 8.796875 15.566406 8.707031 15.546875 8.617188 15.523438 C 8.527344 15.503906 8.4375 15.476562 8.347656 15.449219 C 8.257812 15.421875 8.167969 15.394531 8.082031 15.363281 C 7.992188 15.332031 7.90625 15.296875 7.820312 15.261719 C 7.734375 15.226562 7.648438 15.1875 7.566406 15.148438 C 7.480469 15.109375 7.398438 15.066406 7.316406 15.023438 C 7.234375 14.980469 7.152344 14.933594 7.070312 14.886719 C 6.992188 14.835938 6.914062 14.789062 6.835938 14.734375 C 6.757812 14.683594 6.683594 14.628906 6.605469 14.574219 C 6.53125 14.519531 6.457031 14.460938 6.386719 14.402344 C 6.316406 14.34375 6.246094 14.28125 6.175781 14.21875 C 6.105469 14.15625 6.039062 14.09375 5.972656 14.027344 C 5.90625 13.960938 5.84375 13.894531 5.78125 13.824219 C 5.71875 13.753906 5.65625 13.683594 5.597656 13.613281 C 5.539062 13.542969 5.480469 13.46875 5.425781 13.394531 C 5.371094 13.316406 5.316406 13.242188 5.265625 13.164062 C 5.210938 13.085938 5.164062 13.007812 5.113281 12.929688 C 5.066406 12.847656 5.019531 12.765625 4.976562 12.683594 C 4.933594 12.601562 4.890625 12.519531 4.851562 12.433594 C 4.8125 12.351562 4.773438 12.265625 4.738281 12.179688 C 4.703125 12.09375 4.667969 12.007812 4.636719 11.917969 C 4.605469 11.832031 4.578125 11.742188 4.550781 11.652344 C 4.523438 11.5625 4.496094 11.472656 4.476562 11.382812 C 4.453125 11.292969 4.433594 11.203125 4.414062 11.109375 C 4.394531 11.019531 4.378906 10.929688 4.367188 10.835938 C 4.351562 10.742188 4.339844 10.652344 4.332031 10.558594 C 4.324219 10.464844 4.316406 10.371094 4.3125 10.28125 C 4.308594 10.1875 4.304688 10.09375 4.304688 10 C 4.304688 9.90625 4.308594 9.8125 4.3125 9.71875 C 4.316406 9.628906 4.324219 9.535156 4.332031 9.441406 C 4.339844 9.347656 4.351562 9.257812 4.367188 9.164062 C 4.378906 9.070312 4.394531 8.980469 4.414062 8.890625 C 4.433594 8.796875 4.453125 8.707031 4.476562 8.617188 C 4.496094 8.527344 4.523438 8.4375 4.550781 8.347656 C 4.578125 8.257812 4.605469 8.167969 4.636719 8.082031 C 4.667969 7.992188 4.703125 7.90625 4.738281 7.820312 C 4.773438 7.734375 4.8125 7.648438 4.851562 7.566406 C 4.890625 7.480469 4.933594 7.398438 4.976562 7.316406 C 5.019531 7.234375 5.066406 7.152344 5.113281 7.070312 C 5.164062 6.992188 5.210938 6.914062 5.265625 6.835938 C 5.316406 6.757812 5.371094 6.683594 5.425781 6.605469 C 5.480469 6.53125 5.539062 6.457031 5.597656 6.386719 C 5.65625 6.316406 5.71875 6.246094 5.78125 6.175781 C 5.84375 6.105469 5.90625 6.039062 5.972656 5.972656 C 6.039062 5.90625 6.105469 5.84375 6.175781 5.78125 C 6.246094 5.71875 6.316406 5.65625 6.386719 5.597656 C 6.457031 5.539062 6.53125 5.480469 6.605469 5.425781 C 6.683594 5.371094 6.757812 5.316406 6.835938 5.265625 C 6.914062 5.210938 6.992188 5.164062 7.070312 5.113281 C 7.152344 5.066406 7.234375 5.019531 7.316406 4.976562 C 7.398438 4.933594 7.480469 4.890625 7.566406 4.851562 C 7.648438 4.8125 7.734375 4.773438 7.820312 4.738281 C 7.90625 4.703125 7.992188 4.667969 8.082031 4.636719 C 8.167969 4.605469 8.257812 4.578125 8.347656 4.550781 C 8.4375 4.523438 8.527344 4.496094 8.617188 4.476562 C 8.707031 4.453125 8.796875 4.433594 8.890625 4.414062 C 8.980469 4.394531 9.070312 4.378906 9.164062 4.367188 C 9.257812 4.351562 9.347656 4.339844 9.441406 4.332031 C 9.535156 4.324219 9.628906 4.316406 9.71875 4.3125 C 9.8125 4.308594 9.90625 4.304688 10 4.304688 L 10 6.582031 C 9.945312 6.582031 9.886719 6.585938 9.832031 6.585938 C 9.777344 6.589844 9.71875 6.59375 9.664062 6.597656 C 9.609375 6.605469 9.554688 6.613281 9.5 6.621094 C 9.441406 6.628906 9.386719 6.636719 9.332031 6.648438 C 9.277344 6.660156 9.222656 6.671875 9.167969 6.683594 C 9.117188 6.699219 9.0625 6.714844 9.007812 6.730469 C 8.953125 6.746094 8.902344 6.765625 8.847656 6.78125 C 8.796875 6.800781 8.742188 6.820312 8.691406 6.84375 C 8.640625 6.863281 8.589844 6.886719 8.539062 6.910156 C 8.488281 6.933594 8.4375 6.960938 8.390625 6.984375 C 8.339844 7.011719 8.292969 7.039062 8.242188 7.070312 C 8.195312 7.097656 8.148438 7.128906 8.101562 7.160156 C 8.054688 7.191406 8.007812 7.222656 7.964844 7.253906 C 7.917969 7.289062 7.875 7.324219 7.832031 7.359375 C 7.789062 7.394531 7.746094 7.429688 7.707031 7.46875 C 7.664062 7.503906 7.625 7.542969 7.582031 7.582031 C 7.542969 7.625 7.503906 7.664062 7.46875 7.707031 C 7.429688 7.746094 7.394531 7.789062 7.359375 7.832031 C 7.324219 7.875 7.289062 7.917969 7.253906 7.964844 C 7.222656 8.007812 7.191406 8.054688 7.160156 8.101562 C 7.128906 8.148438 7.097656 8.195312 7.070312 8.242188 C 7.039062 8.292969 7.011719 8.339844 6.984375 8.390625 C 6.960938 8.4375 6.933594 8.488281 6.910156 8.539062 C 6.886719 8.589844 6.863281 8.640625 6.84375 8.691406 C 6.820312 8.742188 6.800781 8.796875 6.78125 8.847656 C 6.765625 8.902344 6.746094 8.953125 6.730469 9.007812 C 6.714844 9.0625 6.699219 9.117188 6.683594 9.167969 C 6.671875 9.222656 6.660156 9.277344 6.648438 9.332031 C 6.636719 9.386719 6.628906 9.441406 6.621094 9.5 C 6.613281 9.554688 6.605469 9.609375 6.597656 9.664062 C 6.59375 9.71875 6.589844 9.777344 6.585938 9.832031 C 6.585938 9.886719 6.582031 9.945312 6.582031 10 C 6.582031 10.054688 6.585938 10.113281 6.585938 10.167969 C 6.589844 10.222656 6.59375 10.28125 6.597656 10.335938 C 6.605469 10.390625 6.613281 10.445312 6.621094 10.5 C 6.628906 10.558594 6.636719 10.613281 6.648438 10.667969 C 6.660156 10.722656 6.671875 10.777344 6.683594 10.832031 C 6.699219 10.882812 6.714844 10.9375 6.730469 10.992188 C 6.746094 11.046875 6.765625 11.097656 6.78125 11.152344 C 6.800781 11.203125 6.820312 11.257812 6.84375 11.308594 C 6.863281 11.359375 6.886719 11.410156 6.910156 11.460938 C 6.933594 11.511719 6.960938 11.5625 6.984375 11.609375 C 7.011719 11.660156 7.039062 11.707031 7.070312 11.757812 C 7.097656 11.804688 7.128906 11.851562 7.160156 11.898438 C 7.191406 11.945312 7.222656 11.992188 7.253906 12.035156 C 7.289062 12.082031 7.324219 12.125 7.359375 12.167969 C 7.394531 12.210938 7.429688 12.253906 7.46875 12.292969 C 7.503906 12.335938 7.542969 12.375 7.582031 12.417969 C 7.625 12.457031 7.664062 12.496094 7.707031 12.53125 C 7.746094 12.570312 7.789062 12.605469 7.832031 12.640625 C 7.875 12.675781 7.917969 12.710938 7.964844 12.746094 C 8.007812 12.777344 8.054688 12.808594 8.101562 12.839844 C 8.148438 12.871094 8.195312 12.902344 8.242188 12.929688 C 8.292969 12.960938 8.339844 12.988281 8.390625 13.015625 C 8.4375 13.039062 8.488281 13.066406 8.539062 13.089844 C 8.589844 13.113281 8.640625 13.136719 8.691406 13.15625 C 8.742188 13.179688 8.796875 13.199219 8.847656 13.21875 C 8.902344 13.234375 8.953125 13.253906 9.007812 13.269531 C 9.0625 13.285156 9.117188 13.300781 9.167969 13.316406 C 9.222656 13.328125 9.277344 13.339844 9.332031 13.351562 C 9.386719 13.363281 9.441406 13.371094 9.5 13.378906 C 9.554688 13.386719 9.609375 13.394531 9.664062 13.402344 C 9.71875 13.40625 9.777344 13.410156 9.832031 13.414062 C 9.886719 13.414062 9.945312 13.417969 10 13.417969 C 10.054688 13.417969 10.113281 13.414062 10.167969 13.414062 C 10.222656 13.410156 10.28125 13.40625 10.335938 13.402344 C 10.390625 13.394531 10.445312 13.386719 10.5 13.378906 C 10.558594 13.371094 10.613281 13.363281 10.667969 13.351562 C 10.722656 13.339844 10.777344 13.328125 10.832031 13.316406 C 10.882812 13.300781 10.9375 13.285156 10.992188 13.269531 C 11.046875 13.253906 11.097656 13.234375 11.152344 13.21875 C 11.203125 13.199219 11.257812 13.179688 11.308594 13.15625 C 11.359375 13.136719 11.410156 13.113281 11.460938 13.089844 C 11.511719 13.066406 11.5625 13.039062 11.609375 13.015625 C 11.660156 12.988281 11.707031 12.960938 11.757812 12.929688 C 11.804688 12.902344 11.851562 12.871094 11.898438 12.839844 C 11.945312 12.808594 11.992188 12.777344 12.035156 12.746094 C 12.082031 12.710938 12.125 12.675781 12.167969 12.640625 C 12.210938 12.605469 12.253906 12.570312 12.292969 12.53125 C 12.335938 12.496094 12.375 12.457031 12.417969 12.417969 C 12.457031 12.375 12.496094 12.335938 12.53125 12.292969 C 12.570312 12.253906 12.605469 12.210938 12.640625 12.167969 C 12.675781 12.125 12.710938 12.082031 12.746094 12.035156 C 12.777344 11.992188 12.808594 11.945312 12.839844 11.898438 C 12.871094 11.851562 12.902344 11.804688 12.929688 11.757812 C 12.960938 11.707031 12.988281 11.660156 13.015625 11.609375 C 13.039062 11.5625 13.066406 11.511719 13.089844 11.460938 C 13.113281 11.410156 13.136719 11.359375 13.15625 11.308594 C 13.179688 11.257812 13.199219 11.203125 13.21875 11.152344 C 13.234375 11.097656 13.253906 11.046875 13.269531 10.992188 C 13.285156 10.9375 13.300781 10.882812 13.316406 10.832031 C 13.328125 10.777344 13.339844 10.722656 13.351562 10.667969 C 13.363281 10.613281 13.371094 10.558594 13.378906 10.5 C 13.386719 10.445312 13.394531 10.390625 13.402344 10.335938 C 13.40625 10.28125 13.410156 10.222656 13.414062 10.167969 C 13.414062 10.113281 13.417969 10.054688 13.417969 10 C 13.417969 9.945312 13.414062 9.886719 13.414062 9.832031 C 13.410156 9.777344 13.40625 9.71875 13.402344 9.664062 C 13.394531 9.609375 13.386719 9.554688 13.378906 9.5 C 13.371094 9.441406 13.363281 9.386719 13.351562 9.332031 C 13.339844 9.277344 13.328125 9.222656 13.316406 9.167969 C 13.300781 9.117188 13.285156 9.0625 13.269531 9.007812 C 13.253906 8.953125 13.234375 8.902344 13.21875 8.847656 C 13.199219 8.796875 13.179688 8.742188 13.15625 8.691406 C 13.136719 8.640625 13.113281 8.589844 13.089844 8.539062 C 13.066406 8.488281 13.039062 8.4375 13.015625 8.390625 C 12.988281 8.339844 12.960938 8.292969 12.929688 8.242188 C 12.902344 8.195312 12.871094 8.148438 12.839844 8.101562 C 12.808594 8.054688 12.777344 8.007812 12.746094 7.964844 C 12.710938 7.917969 12.675781 7.875 12.640625 7.832031 C 12.605469 7.789062 12.570312 7.746094 12.53125 7.707031 C 12.496094 7.664062 12.457031 7.625 12.417969 7.582031 C 12.375 7.542969 12.335938 7.503906 12.292969 7.46875 C 12.253906 7.429688 12.210938 7.394531 12.167969 7.359375 C 12.125 7.324219 12.082031 7.289062 12.035156 7.253906 C 11.992188 7.222656 11.945312 7.191406 11.898438 7.160156 C 11.851562 7.128906 11.804688 7.097656 11.757812 7.070312 C 11.707031 7.039062 11.660156 7.011719 11.609375 6.984375 C 11.5625 6.960938 11.511719 6.933594 11.460938 6.910156 C 11.410156 6.886719 11.359375 6.863281 11.308594 6.84375 C 11.257812 6.820312 11.203125 6.800781 11.152344 6.78125 C 11.097656 6.765625 11.046875 6.746094 10.992188 6.730469 C 10.9375 6.714844 10.882812 6.699219 10.832031 6.683594 C 10.777344 6.671875 10.722656 6.660156 10.667969 6.648438 C 10.613281 6.636719 10.558594 6.628906 10.5 6.621094 C 10.445312 6.613281 10.390625 6.605469 10.335938 6.597656 C 10.28125 6.59375 10.222656 6.589844 10.167969 6.585938 C 10.113281 6.585938 10.054688 6.582031 10 6.582031 Z M 10 4.304688 "/>
<path style=" stroke:none;fill-rule:nonzero;fill:rgb(42.352941%,89.803922%,90.980392%);fill-opacity:1;" d="M 11.421875 4.484375 C 11.574219 4.523438 11.726562 4.570312 11.871094 4.621094 C 12.019531 4.671875 12.167969 4.730469 12.308594 4.792969 C 12.453125 4.855469 12.59375 4.925781 12.730469 5 C 12.867188 5.078125 13 5.15625 13.132812 5.242188 C 13.261719 5.328125 13.390625 5.421875 13.511719 5.515625 C 13.636719 5.613281 13.753906 5.714844 13.871094 5.820312 C 13.984375 5.925781 14.09375 6.039062 14.199219 6.152344 C 14.304688 6.269531 14.40625 6.386719 14.503906 6.511719 C 14.597656 6.636719 14.6875 6.761719 14.773438 6.894531 C 14.859375 7.027344 14.9375 7.160156 15.015625 7.296875 C 15.089844 7.4375 15.15625 7.578125 15.21875 7.71875 C 15.28125 7.863281 15.339844 8.007812 15.390625 8.15625 C 15.441406 8.304688 15.484375 8.453125 15.523438 8.605469 C 15.5625 8.757812 15.59375 8.910156 15.617188 9.066406 C 15.644531 9.21875 15.664062 9.375 15.675781 9.53125 C 15.6875 9.6875 15.695312 9.84375 15.695312 10 C 15.695312 10.15625 15.6875 10.3125 15.675781 10.46875 C 15.664062 10.625 15.644531 10.78125 15.617188 10.933594 C 15.59375 11.089844 15.5625 11.242188 15.523438 11.394531 C 15.484375 11.546875 15.441406 11.695312 15.390625 11.84375 C 15.339844 11.992188 15.28125 12.136719 15.21875 12.28125 C 15.15625 12.421875 15.089844 12.5625 15.015625 12.703125 C 14.9375 12.839844 14.859375 12.972656 14.773438 13.105469 C 14.6875 13.238281 14.597656 13.363281 14.503906 13.488281 C 14.40625 13.613281 14.304688 13.730469 14.199219 13.847656 C 14.09375 13.960938 13.984375 14.074219 13.871094 14.179688 C 13.753906 14.285156 13.636719 14.386719 13.511719 14.484375 C 13.390625 14.578125 13.261719 14.671875 13.132812 14.757812 C 13 14.84375 12.867188 14.921875 12.730469 15 C 12.59375 15.074219 12.453125 15.144531 12.308594 15.207031 C 12.167969 15.269531 12.019531 15.328125 11.871094 15.378906 C 11.726562 15.429688 11.574219 15.476562 11.421875 15.515625 C 11.386719 15.523438 11.351562 15.53125 11.3125 15.535156 C 11.277344 15.542969 11.242188 15.546875 11.203125 15.550781 C 11.164062 15.550781 11.128906 15.550781 11.089844 15.550781 C 11.054688 15.546875 11.015625 15.546875 10.980469 15.539062 C 10.941406 15.535156 10.90625 15.527344 10.871094 15.519531 C 10.832031 15.511719 10.796875 15.5 10.761719 15.488281 C 10.726562 15.476562 10.691406 15.460938 10.660156 15.445312 C 10.625 15.429688 10.59375 15.410156 10.558594 15.394531 C 10.527344 15.375 10.496094 15.355469 10.46875 15.332031 C 10.4375 15.308594 10.40625 15.285156 10.378906 15.261719 C 10.351562 15.238281 10.324219 15.210938 10.300781 15.183594 C 10.273438 15.15625 10.25 15.125 10.230469 15.097656 C 10.207031 15.066406 10.183594 15.035156 10.164062 15.003906 C 10.144531 14.972656 10.128906 14.941406 10.113281 14.90625 C 10.097656 14.871094 10.082031 14.839844 10.070312 14.804688 C 10.054688 14.769531 10.046875 14.734375 10.035156 14.695312 C 10.027344 14.660156 10.019531 14.625 10.011719 14.585938 C 10.007812 14.550781 10.003906 14.511719 10 14.476562 C 10 14.4375 10 14.402344 10 14.363281 C 10.003906 14.328125 10.003906 14.289062 10.011719 14.253906 C 10.015625 14.214844 10.023438 14.179688 10.03125 14.144531 C 10.039062 14.105469 10.050781 14.070312 10.0625 14.035156 C 10.074219 14 10.089844 13.964844 10.105469 13.933594 C 10.121094 13.898438 10.136719 13.863281 10.15625 13.832031 C 10.175781 13.800781 10.195312 13.769531 10.21875 13.738281 C 10.242188 13.710938 10.265625 13.679688 10.289062 13.652344 C 10.3125 13.625 10.339844 13.597656 10.367188 13.574219 C 10.394531 13.546875 10.425781 13.523438 10.453125 13.5 C 10.484375 13.480469 10.515625 13.457031 10.546875 13.4375 C 10.578125 13.417969 10.609375 13.402344 10.644531 13.386719 C 10.679688 13.371094 10.710938 13.355469 10.746094 13.34375 C 10.78125 13.328125 10.816406 13.316406 10.855469 13.308594 C 10.945312 13.285156 11.035156 13.257812 11.125 13.226562 C 11.210938 13.195312 11.300781 13.160156 11.386719 13.125 C 11.472656 13.085938 11.554688 13.042969 11.636719 13 C 11.71875 12.953125 11.800781 12.90625 11.878906 12.855469 C 11.957031 12.800781 12.035156 12.746094 12.109375 12.691406 C 12.179688 12.632812 12.253906 12.570312 12.320312 12.507812 C 12.390625 12.445312 12.457031 12.378906 12.519531 12.308594 C 12.582031 12.238281 12.644531 12.167969 12.703125 12.09375 C 12.757812 12.019531 12.8125 11.941406 12.863281 11.863281 C 12.914062 11.785156 12.964844 11.703125 13.007812 11.621094 C 13.050781 11.539062 13.09375 11.453125 13.132812 11.367188 C 13.167969 11.28125 13.203125 11.195312 13.234375 11.105469 C 13.265625 11.015625 13.289062 10.925781 13.3125 10.835938 C 13.335938 10.746094 13.355469 10.652344 13.371094 10.558594 C 13.386719 10.46875 13.398438 10.375 13.40625 10.28125 C 13.414062 10.1875 13.417969 10.09375 13.417969 10 C 13.417969 9.90625 13.414062 9.8125 13.40625 9.71875 C 13.398438 9.625 13.386719 9.53125 13.371094 9.441406 C 13.355469 9.347656 13.335938 9.253906 13.3125 9.164062 C 13.289062 9.074219 13.265625 8.984375 13.234375 8.894531 C 13.203125 8.804688 13.167969 8.71875 13.132812 8.632812 C 13.09375 8.546875 13.050781 8.460938 13.007812 8.378906 C 12.964844 8.296875 12.914062 8.214844 12.863281 8.136719 C 12.8125 8.058594 12.757812 7.980469 12.703125 7.90625 C 12.644531 7.832031 12.582031 7.761719 12.519531 7.691406 C 12.457031 7.621094 12.390625 7.554688 12.320312 7.492188 C 12.253906 7.429688 12.179688 7.367188 12.109375 7.308594 C 12.035156 7.253906 11.957031 7.199219 11.878906 7.144531 C 11.800781 7.09375 11.71875 7.046875 11.636719 7 C 11.554688 6.957031 11.472656 6.914062 11.386719 6.875 C 11.300781 6.839844 11.210938 6.804688 11.125 6.773438 C 11.035156 6.742188 10.945312 6.714844 10.855469 6.691406 C 10.816406 6.683594 10.78125 6.671875 10.746094 6.65625 C 10.710938 6.644531 10.679688 6.628906 10.644531 6.613281 C 10.609375 6.597656 10.578125 6.582031 10.546875 6.5625 C 10.515625 6.542969 10.484375 6.519531 10.453125 6.5 C 10.425781 6.476562 10.394531 6.453125 10.367188 6.425781 C 10.339844 6.402344 10.3125 6.375 10.289062 6.347656 C 10.265625 6.320312 10.242188 6.289062 10.21875 6.261719 C 10.199219 6.230469 10.175781 6.199219 10.15625 6.167969 C 10.140625 6.136719 10.121094 6.101562 10.105469 6.066406 C 10.089844 6.035156 10.078125 6 10.0625 5.964844 C 10.050781 5.929688 10.042969 5.894531 10.03125 5.855469 C 10.023438 5.820312 10.015625 5.785156 10.011719 5.746094 C 10.007812 5.710938 10.003906 5.671875 10 5.636719 C 10 5.597656 10 5.5625 10 5.523438 C 10.003906 5.488281 10.007812 5.449219 10.011719 5.414062 C 10.019531 5.375 10.027344 5.339844 10.035156 5.304688 C 10.046875 5.265625 10.058594 5.230469 10.070312 5.195312 C 10.082031 5.160156 10.097656 5.128906 10.113281 5.09375 C 10.128906 5.058594 10.148438 5.027344 10.167969 4.996094 C 10.1875 4.964844 10.207031 4.933594 10.230469 4.902344 C 10.25 4.875 10.277344 4.84375 10.300781 4.816406 C 10.324219 4.789062 10.351562 4.765625 10.378906 4.738281 C 10.40625 4.714844 10.4375 4.691406 10.46875 4.667969 C 10.496094 4.648438 10.527344 4.625 10.5625 4.605469 C 10.59375 4.589844 10.625 4.570312 10.660156 4.554688 C 10.691406 4.539062 10.726562 4.527344 10.761719 4.511719 C 10.796875 4.5 10.832031 4.488281 10.871094 4.480469 C 10.90625 4.472656 10.941406 4.464844 10.980469 4.460938 C 11.015625 4.457031 11.054688 4.453125 11.089844 4.449219 C 11.128906 4.449219 11.167969 4.449219 11.203125 4.449219 C 11.242188 4.453125 11.277344 4.457031 11.3125 4.464844 C 11.351562 4.46875 11.386719 4.476562 11.421875 4.484375 Z M 11.421875 4.484375 "/>
</g>
</svg>
