<?xml version="1.0" encoding="UTF-8"?>
<svg xmlns="http://www.w3.org/2000/svg" xmlns:xlink="http://www.w3.org/1999/xlink" width="px" height="px" viewBox="0 0 458 517" version="1.1">
<defs>
<filter id="alpha" filterUnits="objectBoundingBox" x="0%" y="0%" width="100%" height="100%">
  <feColorMatrix type="matrix" in="SourceGraphic" values="0 0 0 0 1 0 0 0 0 1 0 0 0 0 1 0 0 0 1 0"/>
</filter>
<mask id="mask0">
  <g filter="url(#alpha)">
<rect x="0" y="0" width="458" height="517" style="fill:rgb(0%,0%,0%);fill-opacity:0.901961;stroke:none;"/>
  </g>
</mask>
<clipPath id="clip1">
  <rect x="0" y="0" width="458" height="517"/>
</clipPath>
<g id="surface5" clip-path="url(#clip1)">
<path style=" stroke:none;fill-rule:nonzero;fill:rgb(1.568627%,83.137255%,51.764706%);fill-opacity:0.501961;" d="M 61.210938 303.25 C 60.101562 300.835938 59.152344 298.367188 58.363281 295.855469 C 32.972656 310.476562 22.371094 331.363281 28.515625 354.683594 C 30.128906 359.378906 32.597656 365.566406 34.511719 370.167969 C 23.929688 347.492188 34.21875 319.582031 61.210938 303.25 Z M 61.210938 303.25 "/>
</g>
<mask id="mask1">
  <g filter="url(#alpha)">
<rect x="0" y="0" width="458" height="517" style="fill:rgb(0%,0%,0%);fill-opacity:0.901961;stroke:none;"/>
  </g>
</mask>
<clipPath id="clip2">
  <rect x="0" y="0" width="458" height="517"/>
</clipPath>
<g id="surface8" clip-path="url(#clip2)">
<path style=" stroke:none;fill-rule:nonzero;fill:rgb(1.568627%,83.137255%,51.764706%);fill-opacity:0.501961;" d="M 56.761719 285.019531 C 56.382812 282.292969 56.148438 279.558594 56.0625 276.828125 C 34.476562 285.367188 22.886719 301.269531 23.414062 317.964844 L 23.425781 318.226562 C 23.648438 322.738281 24.269531 328.75 24.738281 333.261719 C 22.003906 314.578125 33.558594 295.59375 56.761719 285.019531 Z M 56.761719 285.019531 "/>
</g>
<mask id="mask2">
  <g filter="url(#alpha)">
<rect x="0" y="0" width="458" height="517" style="fill:rgb(0%,0%,0%);fill-opacity:0.901961;stroke:none;"/>
  </g>
</mask>
<clipPath id="clip3">
  <rect x="0" y="0" width="458" height="517"/>
</clipPath>
<g id="surface11" clip-path="url(#clip3)">
<path style=" stroke:none;fill-rule:nonzero;fill:rgb(1.568627%,83.137255%,51.764706%);fill-opacity:0.501961;" d="M 57.136719 264.773438 C 57.4375 261.894531 57.867188 258.984375 58.4375 256.042969 C 40.316406 260.648438 29.445312 270.914062 27.097656 283.265625 L 26.171875 288.511719 L 25 297.4375 C 26.402344 283.328125 37.664062 270.914062 57.136719 264.773438 Z M 57.136719 264.773438 "/>
</g>
<mask id="mask3">
  <g filter="url(#alpha)">
<rect x="0" y="0" width="458" height="517" style="fill:rgb(0%,0%,0%);fill-opacity:0.901961;stroke:none;"/>
  </g>
</mask>
<clipPath id="clip4">
  <rect x="0" y="0" width="458" height="517"/>
</clipPath>
<g id="surface14" clip-path="url(#clip4)">
<path style=" stroke:none;fill-rule:nonzero;fill:rgb(1.568627%,83.137255%,51.764706%);fill-opacity:0.501961;" d="M 62.105469 243.179688 C 63.03125 240.183594 64.101562 237.179688 65.304688 234.167969 C 50.210938 235.738281 40.617188 241.902344 37.277344 250.617188 L 33.796875 260.296875 L 32.707031 263.726562 C 35.75 253.605469 45.855469 245.90625 62.105469 243.179688 Z M 62.105469 243.179688 "/>
</g>
<mask id="mask4">
  <g filter="url(#alpha)">
<rect x="0" y="0" width="458" height="517" style="fill:rgb(0%,0%,0%);fill-opacity:0.901961;stroke:none;"/>
  </g>
</mask>
<clipPath id="clip5">
  <rect x="0" y="0" width="458" height="517"/>
</clipPath>
<g id="surface17" clip-path="url(#clip5)">
<path style=" stroke:none;fill-rule:nonzero;fill:rgb(1.568627%,83.137255%,51.764706%);fill-opacity:0.501961;" d="M 71.277344 220.75 C 72.78125 217.730469 74.402344 214.710938 76.140625 211.695312 C 63.679688 210.855469 55.582031 213.945312 52.277344 219.742188 C 50.207031 223.359375 47.671875 228.308594 45.714844 231.976562 C 49.175781 225.097656 57.871094 220.859375 71.277344 220.75 Z M 71.277344 220.75 "/>
</g>
<mask id="mask5">
  <g filter="url(#alpha)">
<rect x="0" y="0" width="458" height="517" style="fill:rgb(0%,0%,0%);fill-opacity:0.901961;stroke:none;"/>
  </g>
</mask>
<clipPath id="clip6">
  <rect x="0" y="0" width="458" height="517"/>
</clipPath>
<g id="surface20" clip-path="url(#clip6)">
<path style=" stroke:none;fill-rule:nonzero;fill:rgb(1.568627%,83.137255%,51.764706%);fill-opacity:0.501961;" d="M 84.554688 198.097656 C 86.589844 195.128906 88.738281 192.179688 91 189.257812 C 80.863281 186.417969 74.382812 187.117188 71.730469 190.601562 C 69.078125 194.089844 65.890625 198.625 63.394531 202.054688 C 66.335938 197.710938 73.484375 196.09375 84.554688 198.097656 Z M 84.554688 198.097656 "/>
</g>
<mask id="mask6">
  <g filter="url(#alpha)">
<rect x="0" y="0" width="458" height="517" style="fill:rgb(0%,0%,0%);fill-opacity:0.901961;stroke:none;"/>
  </g>
</mask>
<clipPath id="clip7">
  <rect x="0" y="0" width="458" height="517"/>
</clipPath>
<g id="surface23" clip-path="url(#clip7)">
<path style=" stroke:none;fill-rule:nonzero;fill:rgb(1.568627%,83.137255%,51.764706%);fill-opacity:0.501961;" d="M 101.472656 175.867188 C 104.007812 173.015625 106.640625 170.21875 109.371094 167.46875 C 101.4375 162.90625 96.59375 161.660156 94.984375 163.304688 L 85.035156 173.894531 C 87.113281 171.53125 92.617188 172 101.472656 175.867188 Z M 101.472656 175.867188 "/>
</g>
<mask id="mask7">
  <g filter="url(#alpha)">
<rect x="0" y="0" width="458" height="517" style="fill:rgb(0%,0%,0%);fill-opacity:0.901961;stroke:none;"/>
  </g>
</mask>
<clipPath id="clip8">
  <rect x="0" y="0" width="458" height="517"/>
</clipPath>
<g id="surface26" clip-path="url(#clip8)">
<path style=" stroke:none;fill-rule:nonzero;fill:rgb(1.568627%,83.137255%,51.764706%);fill-opacity:0.501961;" d="M 131.125 146.871094 C 125.199219 140.613281 122.195312 137.71875 121.902344 137.917969 L 119.894531 139.507812 L 110.347656 147.597656 C 111.199219 146.8125 114.972656 149.042969 121.789062 154.621094 C 124.824219 152.015625 127.9375 149.429688 131.125 146.871094 Z M 131.125 146.871094 "/>
</g>
<mask id="mask8">
  <g filter="url(#alpha)">
<rect x="0" y="0" width="458" height="517" style="fill:rgb(0%,0%,0%);fill-opacity:0.901961;stroke:none;"/>
  </g>
</mask>
<clipPath id="clip9">
  <rect x="0" y="0" width="458" height="517"/>
</clipPath>
<g id="surface29" clip-path="url(#clip9)">
<path style=" stroke:none;fill-rule:nonzero;fill:rgb(1.568627%,83.137255%,51.764706%);fill-opacity:0.501961;" d="M 155.816406 128.230469 C 152.011719 120.238281 151.074219 115.855469 152.582031 114.929688 L 145.460938 119.46875 L 139.378906 123.601562 C 138.855469 124.535156 140.332031 127.503906 145.222656 135.175781 C 146.835938 134.050781 148.472656 132.945312 150.121094 131.855469 C 152.015625 130.632812 153.914062 129.425781 155.816406 128.230469 Z M 155.816406 128.230469 "/>
</g>
<mask id="mask9">
  <g filter="url(#alpha)">
<rect x="0" y="0" width="458" height="517" style="fill:rgb(0%,0%,0%);fill-opacity:0.901961;stroke:none;"/>
  </g>
</mask>
<clipPath id="clip10">
  <rect x="0" y="0" width="458" height="517"/>
</clipPath>
<g id="surface32" clip-path="url(#clip10)">
<path style=" stroke:none;fill-rule:nonzero;fill:rgb(1.568627%,83.137255%,51.764706%);fill-opacity:0.501961;" d="M 185.023438 95.925781 L 172.566406 102.101562 L 171.183594 102.816406 C 168.484375 104.257812 168.09375 109.425781 170.597656 118.425781 C 174.226562 116.507812 177.859375 114.695312 181.496094 112.988281 C 179.976562 103.292969 181.398438 97.597656 185.023438 95.925781 Z M 185.023438 95.925781 "/>
</g>
<mask id="mask10">
  <g filter="url(#alpha)">
<rect x="0" y="0" width="458" height="517" style="fill:rgb(0%,0%,0%);fill-opacity:0.901961;stroke:none;"/>
  </g>
</mask>
<clipPath id="clip11">
  <rect x="0" y="0" width="458" height="517"/>
</clipPath>
<g id="surface35" clip-path="url(#clip11)">
<path style=" stroke:none;fill-rule:nonzero;fill:rgb(1.568627%,83.137255%,51.764706%);fill-opacity:0.501961;" d="M 206.738281 101.613281 C 207.753906 90.199219 211.898438 83.460938 217.964844 81.53125 C 213.683594 82.925781 208.078125 85.023438 203.839844 86.523438 C 198.820312 88.421875 195.910156 94.734375 195.988281 105.410156 C 199.59375 104.019531 203.175781 102.753906 206.738281 101.613281 Z M 206.738281 101.613281 "/>
</g>
<mask id="mask11">
  <g filter="url(#alpha)">
<rect x="0" y="0" width="458" height="517" style="fill:rgb(0%,0%,0%);fill-opacity:0.901961;stroke:none;"/>
  </g>
</mask>
<clipPath id="clip12">
  <rect x="0" y="0" width="458" height="517"/>
</clipPath>
<g id="surface38" clip-path="url(#clip12)">
<path style=" stroke:none;fill-rule:nonzero;fill:rgb(1.568627%,83.137255%,51.764706%);fill-opacity:0.501961;" d="M 231.21875 94.148438 C 235.117188 80.957031 242.507812 73.503906 251.421875 71.917969 C 247.113281 72.6875 241.429688 73.992188 237.152344 74.886719 C 229.5 76.683594 223.554688 83.890625 220.882812 96.292969 C 224.371094 95.476562 227.816406 94.765625 231.21875 94.148438 Z M 231.21875 94.148438 "/>
</g>
<mask id="mask12">
  <g filter="url(#alpha)">
<rect x="0" y="0" width="458" height="517" style="fill:rgb(0%,0%,0%);fill-opacity:0.901961;stroke:none;"/>
  </g>
</mask>
<clipPath id="clip13">
  <rect x="0" y="0" width="458" height="517"/>
</clipPath>
<g id="surface41" clip-path="url(#clip13)">
<path style=" stroke:none;fill-rule:nonzero;fill:rgb(1.568627%,83.137255%,51.764706%);fill-opacity:0.501961;" d="M 254.34375 90.679688 C 261.683594 75.59375 273.140625 67.75 285.292969 67.515625 C 280.976562 67.609375 275.257812 68.03125 270.949219 68.273438 C 254.328125 70.011719 247.597656 84.851562 244.726562 91.1875 C 247.980469 90.910156 251.183594 90.742188 254.34375 90.679688 Z M 254.34375 90.679688 "/>
</g>
<mask id="mask13">
  <g filter="url(#alpha)">
<rect x="0" y="0" width="458" height="517" style="fill:rgb(0%,0%,0%);fill-opacity:0.901961;stroke:none;"/>
  </g>
</mask>
<clipPath id="clip14">
  <rect x="0" y="0" width="458" height="517"/>
</clipPath>
<g id="surface44" clip-path="url(#clip14)">
<path style=" stroke:none;fill-rule:nonzero;fill:rgb(1.568627%,83.137255%,51.764706%);fill-opacity:0.501961;" d="M 266.792969 90.082031 C 269.734375 90.332031 272.648438 90.703125 275.53125 91.195312 C 287.15625 74.003906 303.9375 66.492188 319.78125 69.226562 L 314.929688 68.464844 L 305.15625 67.394531 C 290.882812 66.058594 276.488281 73.804688 266.792969 90.082031 Z M 266.792969 90.082031 "/>
</g>
<mask id="mask14">
  <g filter="url(#alpha)">
<rect x="0" y="0" width="458" height="517" style="fill:rgb(0%,0%,0%);fill-opacity:0.901961;stroke:none;"/>
  </g>
</mask>
<clipPath id="clip15">
  <rect x="0" y="0" width="458" height="517"/>
</clipPath>
<g id="surface47" clip-path="url(#clip15)">
<path style=" stroke:none;fill-rule:nonzero;fill:rgb(1.568627%,83.137255%,51.764706%);fill-opacity:0.501961;" d="M 286.515625 93.046875 C 289.074219 93.816406 291.597656 94.71875 294.074219 95.742188 C 311.105469 76.4375 334.894531 70.519531 354.160156 78.628906 C 351.15625 77.382812 347.066406 75.953125 344.003906 74.859375 L 339.5625 73.441406 C 321.683594 67.933594 301.113281 74.691406 286.515625 93.046875 Z M 286.515625 93.046875 "/>
</g>
<mask id="mask15">
  <g filter="url(#alpha)">
<rect x="0" y="0" width="458" height="517" style="fill:rgb(0%,0%,0%);fill-opacity:0.901961;stroke:none;"/>
  </g>
</mask>
<clipPath id="clip16">
  <rect x="0" y="0" width="458" height="517"/>
</clipPath>
<g id="surface50" clip-path="url(#clip16)">
<path style=" stroke:none;fill-rule:nonzero;fill:rgb(1.568627%,83.137255%,51.764706%);fill-opacity:0.501961;" d="M 303.300781 100.171875 C 305.449219 101.476562 307.515625 102.910156 309.488281 104.457031 C 334.667969 83.539062 363.5 80.980469 386.613281 97.59375 C 382.664062 94.640625 377.230469 90.914062 373.148438 88.246094 C 362.570312 82.25 334.707031 71.449219 303.300781 100.171875 Z M 303.300781 100.171875 "/>
</g>
<mask id="mask16">
  <g filter="url(#alpha)">
<rect x="0" y="0" width="458" height="517" style="fill:rgb(0%,0%,0%);fill-opacity:0.901961;stroke:none;"/>
  </g>
</mask>
<clipPath id="clip17">
  <rect x="0" y="0" width="458" height="517"/>
</clipPath>
<g id="surface53" clip-path="url(#clip17)">
<path style=" stroke:none;fill-rule:nonzero;fill:rgb(1.568627%,83.137255%,51.764706%);fill-opacity:0.501961;" d="M 316.574219 111.519531 L 317.148438 112.171875 C 318.589844 113.839844 319.925781 115.582031 321.152344 117.386719 C 348.617188 98.523438 390.46875 96.757812 413.03125 126.464844 C 410.515625 122.890625 406.789062 118.265625 404.023438 114.820312 L 402.738281 113.359375 C 382.691406 90.96875 344.304688 90.066406 316.574219 111.519531 Z M 316.574219 111.519531 "/>
</g>
<mask id="mask17">
  <g filter="url(#alpha)">
<rect x="0" y="0" width="458" height="517" style="fill:rgb(0%,0%,0%);fill-opacity:0.901961;stroke:none;"/>
  </g>
</mask>
<clipPath id="clip18">
  <rect x="0" y="0" width="458" height="517"/>
</clipPath>
<g id="surface56" clip-path="url(#clip18)">
<path style=" stroke:none;fill-rule:nonzero;fill:rgb(1.568627%,83.137255%,51.764706%);fill-opacity:0.501961;" d="M 325.714844 127.097656 C 326.742188 129.402344 327.625 131.757812 328.347656 134.148438 C 359.101562 117.773438 400.148438 122.953125 420.03125 145.699219 C 424.144531 150.359375 427.195312 155.746094 428.96875 161.488281 C 427.492188 157.019531 425.214844 151.136719 423.492188 146.769531 C 421.695312 142.804688 419.28125 139.085938 416.339844 135.738281 C 396.414062 112.949219 355.859375 109.097656 325.714844 127.097656 Z M 325.714844 127.097656 "/>
</g>
<mask id="mask18">
  <g filter="url(#alpha)">
<rect x="0" y="0" width="458" height="517" style="fill:rgb(0%,0%,0%);fill-opacity:0.901961;stroke:none;"/>
  </g>
</mask>
<clipPath id="clip19">
  <rect x="0" y="0" width="458" height="517"/>
</clipPath>
<g id="surface59" clip-path="url(#clip19)">
<path style=" stroke:none;fill-rule:nonzero;fill:rgb(1.568627%,83.137255%,51.764706%);fill-opacity:0.501961;" d="M 329.511719 145.894531 C 329.847656 148.519531 330.046875 151.148438 330.101562 153.773438 C 361.59375 141.515625 403.277344 150.183594 423.207031 173.148438 C 430.082031 181.070312 433.472656 189.652344 433.675781 198.003906 L 433.632812 196.449219 C 433.421875 192.527344 432.921875 187.308594 432.554688 183.394531 C 431.421875 175.570312 427.878906 168.097656 422.375 161.929688 C 402.4375 138.996094 360.816406 131.792969 329.511719 145.894531 Z M 329.511719 145.894531 "/>
</g>
<mask id="mask19">
  <g filter="url(#alpha)">
<rect x="0" y="0" width="458" height="517" style="fill:rgb(0%,0%,0%);fill-opacity:0.901961;stroke:none;"/>
  </g>
</mask>
<clipPath id="clip20">
  <rect x="0" y="0" width="458" height="517"/>
</clipPath>
<g id="surface62" clip-path="url(#clip20)">
<path style=" stroke:none;fill-rule:nonzero;fill:rgb(1.568627%,83.137255%,51.764706%);fill-opacity:0.501961;" d="M 421.617188 190.789062 C 401.644531 167.699219 359.980469 156.828125 328.546875 166.492188 C 328.230469 169.28125 327.785156 172.101562 327.207031 174.949219 C 358.328125 167.234375 399.789062 179.714844 419.714844 202.765625 C 428.480469 212.898438 431.660156 223.398438 429.839844 232.640625 L 430.976562 226.332031 L 431.96875 219.007812 C 432.957031 209.941406 429.660156 200.089844 421.617188 190.789062 Z M 421.617188 190.789062 "/>
</g>
<mask id="mask20">
  <g filter="url(#alpha)">
<rect x="0" y="0" width="458" height="517" style="fill:rgb(0%,0%,0%);fill-opacity:0.901961;stroke:none;"/>
  </g>
</mask>
<clipPath id="clip21">
  <rect x="0" y="0" width="458" height="517"/>
</clipPath>
<g id="surface65" clip-path="url(#clip21)">
<path style=" stroke:none;fill-rule:nonzero;fill:rgb(1.568627%,83.137255%,51.764706%);fill-opacity:0.501961;" d="M 319.917969 197.160156 C 349.644531 194.273438 389.898438 210.695312 409.882812 233.8125 C 420.003906 245.539062 422.992188 256.734375 419.628906 265.320312 L 423.503906 254.707031 L 424.1875 252.597656 C 427.039062 243.570312 424.015625 232.488281 414.367188 221.324219 C 394.371094 198.160156 353.492188 183.390625 323.0625 188.316406 C 322.175781 191.277344 321.128906 194.226562 319.917969 197.160156 Z M 319.917969 197.160156 "/>
</g>
<mask id="mask21">
  <g filter="url(#alpha)">
<rect x="0" y="0" width="458" height="517" style="fill:rgb(0%,0%,0%);fill-opacity:0.901961;stroke:none;"/>
  </g>
</mask>
<clipPath id="clip22">
  <rect x="0" y="0" width="458" height="517"/>
</clipPath>
<g id="surface68" clip-path="url(#clip22)">
<path style=" stroke:none;fill-rule:nonzero;fill:rgb(1.568627%,83.137255%,51.764706%);fill-opacity:0.501961;" d="M 394.359375 265.546875 C 405.429688 278.378906 408.574219 289.367188 404.5625 296.277344 C 406.640625 292.734375 409.164062 287.878906 411.128906 284.273438 C 422.554688 257.691406 362.367188 212.453125 313.496094 210.96875 C 311.988281 213.9375 310.367188 216.902344 308.628906 219.867188 C 335.945312 221.863281 374.300781 242.332031 394.359375 265.546875 Z M 394.359375 265.546875 "/>
</g>
<mask id="mask22">
  <g filter="url(#alpha)">
<rect x="0" y="0" width="458" height="517" style="fill:rgb(0%,0%,0%);fill-opacity:0.901961;stroke:none;"/>
  </g>
</mask>
<clipPath id="clip23">
  <rect x="0" y="0" width="458" height="517"/>
</clipPath>
<g id="surface71" clip-path="url(#clip23)">
<path style=" stroke:none;fill-rule:nonzero;fill:rgb(1.568627%,83.137255%,51.764706%);fill-opacity:0.501961;" d="M 373.269531 296.972656 C 384.96875 310.566406 388.75 320.738281 385.085938 325.492188 C 387.683594 322.164062 390.933594 317.550781 393.445312 314.167969 C 397.367188 308.476562 393.917969 297.898438 382.433594 284.574219 C 362.390625 261.300781 325.464844 238.460938 299.984375 233.570312 C 297.941406 236.507812 295.777344 239.425781 293.503906 242.324219 C 317.515625 249.21875 353.214844 273.695312 373.269531 296.972656 Z M 373.269531 296.972656 "/>
</g>
<mask id="mask23">
  <g filter="url(#alpha)">
<rect x="0" y="0" width="458" height="517" style="fill:rgb(0%,0%,0%);fill-opacity:0.901961;stroke:none;"/>
  </g>
</mask>
<clipPath id="clip24">
  <rect x="0" y="0" width="458" height="517"/>
</clipPath>
<g id="surface74" clip-path="url(#clip24)">
<path style=" stroke:none;fill-rule:nonzero;fill:rgb(1.568627%,83.137255%,51.764706%);fill-opacity:0.501961;" d="M 282.859375 255.574219 C 280.300781 258.421875 277.652344 261.21875 274.90625 263.964844 C 294.773438 275.648438 327.144531 304.027344 347.230469 327.375 C 359.328125 341.4375 364.210938 350.460938 361.824219 352.859375 L 371.847656 342.292969 C 374.875 338.867188 370.480469 329.371094 358.527344 315.472656 C 338.394531 292.117188 304.519531 265.304688 282.859375 255.574219 Z M 282.859375 255.574219 "/>
</g>
<mask id="mask24">
  <g filter="url(#alpha)">
<rect x="0" y="0" width="458" height="517" style="fill:rgb(0%,0%,0%);fill-opacity:0.901961;stroke:none;"/>
  </g>
</mask>
<clipPath id="clip25">
  <rect x="0" y="0" width="458" height="517"/>
</clipPath>
<g id="surface77" clip-path="url(#clip25)">
<path style=" stroke:none;fill-rule:nonzero;fill:rgb(1.568627%,83.137255%,51.764706%);fill-opacity:0.501961;" d="M 262.300781 276.585938 C 259.285156 279.234375 256.175781 281.824219 252.972656 284.367188 C 267.90625 300.496094 296.320312 332.546875 316.453125 355.957031 C 328.703125 370.207031 335.042969 377.945312 334.765625 378.210938 L 337.882812 375.648438 L 346.363281 368.488281 C 347.59375 367.375 341.890625 359.078125 329.667969 344.886719 C 309.554688 321.503906 279.398438 290.894531 262.300781 276.585938 Z M 262.300781 276.585938 "/>
</g>
<mask id="mask25">
  <g filter="url(#alpha)">
<rect x="0" y="0" width="458" height="517" style="fill:rgb(0%,0%,0%);fill-opacity:0.901961;stroke:none;"/>
  </g>
</mask>
<clipPath id="clip26">
  <rect x="0" y="0" width="458" height="517"/>
</clipPath>
<g id="surface80" clip-path="url(#clip26)">
<path style=" stroke:none;fill-rule:nonzero;fill:rgb(1.568627%,83.137255%,51.764706%);fill-opacity:0.501961;" d="M 238.691406 295.964844 C 237.410156 296.847656 236.117188 297.722656 234.816406 298.589844 C 232.609375 300.046875 230.40625 301.46875 228.214844 302.851562 C 237.503906 323.003906 261.378906 358.363281 281.527344 381.816406 C 293.699219 395.992188 301.734375 402.582031 304.148438 401.140625 L 312.453125 395.832031 L 317.285156 392.574219 C 316.050781 393.390625 308.730469 386.335938 296.484375 372.078125 C 276.265625 348.59375 250.429688 314.527344 238.691406 295.964844 Z M 238.691406 295.964844 "/>
</g>
<mask id="mask26">
  <g filter="url(#alpha)">
<rect x="0" y="0" width="458" height="517" style="fill:rgb(0%,0%,0%);fill-opacity:0.901961;stroke:none;"/>
  </g>
</mask>
<clipPath id="clip27">
  <rect x="0" y="0" width="458" height="517"/>
</clipPath>
<g id="surface83" clip-path="url(#clip27)">
<path style=" stroke:none;fill-rule:nonzero;fill:rgb(1.568627%,83.137255%,51.764706%);fill-opacity:0.501961;" d="M 213.136719 312.597656 C 209.566406 314.484375 206.003906 316.25 202.449219 317.890625 C 205.835938 341.296875 224.960938 379.328125 245.144531 402.847656 C 257.003906 416.710938 266.636719 422.417969 271.820312 420.03125 L 285.308594 413.34375 L 285.410156 413.292969 C 281.371094 415.414062 272.367188 409.375 260.3125 395.328125 C 240.125 371.808594 219 334.777344 213.136719 312.597656 Z M 213.136719 312.597656 "/>
</g>
<mask id="mask27">
  <g filter="url(#alpha)">
<rect x="0" y="0" width="458" height="517" style="fill:rgb(0%,0%,0%);fill-opacity:0.901961;stroke:none;"/>
  </g>
</mask>
<clipPath id="clip28">
  <rect x="0" y="0" width="458" height="517"/>
</clipPath>
<g id="surface86" clip-path="url(#clip28)">
<path style=" stroke:none;fill-rule:nonzero;fill:rgb(1.568627%,83.137255%,51.764706%);fill-opacity:0.501961;" d="M 187.597656 325.296875 C 184.046875 326.640625 180.519531 327.871094 177.007812 328.992188 C 174.523438 354.765625 188.875 394.761719 209.105469 418.324219 C 220.417969 431.5 231.160156 436.765625 238.886719 434.335938 C 243.117188 432.988281 248.640625 430.933594 252.820312 429.519531 C 246.078125 432.050781 235.730469 426.636719 224.132812 413.128906 C 203.898438 389.519531 187.535156 350.214844 187.597656 325.296875 Z M 187.597656 325.296875 "/>
</g>
<mask id="mask28">
  <g filter="url(#alpha)">
<rect x="0" y="0" width="458" height="517" style="fill:rgb(0%,0%,0%);fill-opacity:0.901961;stroke:none;"/>
  </g>
</mask>
<clipPath id="clip29">
  <rect x="0" y="0" width="458" height="517"/>
</clipPath>
<g id="surface89" clip-path="url(#clip29)">
<path style=" stroke:none;fill-rule:nonzero;fill:rgb(1.568627%,83.137255%,51.764706%);fill-opacity:0.501961;" d="M 162.675781 334.027344 C 159.226562 334.832031 155.816406 335.523438 152.441406 336.101562 C 144.179688 363.347656 153.921875 404.589844 174.203125 428.222656 C 184.65625 440.394531 195.855469 445.519531 205.410156 443.902344 C 209.703125 443.160156 215.355469 441.898438 219.613281 441.027344 C 210.710938 443.066406 199.59375 437.921875 188.75 425.226562 C 168.449219 401.640625 156.777344 360.789062 162.675781 334.027344 Z M 162.675781 334.027344 "/>
</g>
<mask id="mask29">
  <g filter="url(#alpha)">
<rect x="0" y="0" width="458" height="517" style="fill:rgb(0%,0%,0%);fill-opacity:0.901961;stroke:none;"/>
  </g>
</mask>
<clipPath id="clip30">
  <rect x="0" y="0" width="458" height="517"/>
</clipPath>
<g id="surface92" clip-path="url(#clip30)">
<path style=" stroke:none;fill-rule:nonzero;fill:rgb(1.568627%,83.137255%,51.764706%);fill-opacity:0.501961;" d="M 154.992188 431.863281 C 134.660156 408.179688 127.496094 366.527344 139.015625 338.800781 C 135.75 339.0625 132.535156 339.214844 129.375 339.253906 C 115.628906 367.078125 120.976562 408.828125 141.308594 432.5 C 150.515625 443.21875 161.199219 448.398438 171.433594 448.277344 L 172.230469 448.265625 C 176.339844 448.199219 181.78125 447.8125 185.859375 447.628906 C 175.765625 448.378906 164.742188 443.222656 154.992188 431.863281 Z M 154.992188 431.863281 "/>
</g>
<mask id="mask30">
  <g filter="url(#alpha)">
<rect x="0" y="0" width="458" height="517" style="fill:rgb(0%,0%,0%);fill-opacity:0.901961;stroke:none;"/>
  </g>
</mask>
<clipPath id="clip31">
  <rect x="0" y="0" width="458" height="517"/>
</clipPath>
<g id="surface95" clip-path="url(#clip31)">
<path style=" stroke:none;fill-rule:nonzero;fill:rgb(1.568627%,83.137255%,51.764706%);fill-opacity:0.501961;" d="M 123.789062 432.824219 C 103.394531 409.089844 100.457031 367.308594 117.230469 339.585938 C 114.253906 339.308594 111.324219 338.914062 108.449219 338.402344 C 89.628906 365.898438 90.925781 407.421875 111.324219 431.148438 C 118.71875 439.75 127.582031 444.832031 136.828125 446.519531 L 143.164062 447.53125 L 151.660156 448.527344 C 141.789062 447.558594 131.996094 442.375 123.789062 432.824219 Z M 123.789062 432.824219 "/>
</g>
<mask id="mask31">
  <g filter="url(#alpha)">
<rect x="0" y="0" width="458" height="517" style="fill:rgb(0%,0%,0%);fill-opacity:0.901961;stroke:none;"/>
  </g>
</mask>
<clipPath id="clip32">
  <rect x="0" y="0" width="458" height="517"/>
</clipPath>
<g id="surface98" clip-path="url(#clip32)">
<path style=" stroke:none;fill-rule:nonzero;fill:rgb(1.568627%,83.137255%,51.764706%);fill-opacity:0.501961;" d="M 95.953125 428.167969 C 75.457031 404.359375 76.324219 363.234375 97.917969 336.304688 C 95.3125 335.492188 92.742188 334.542969 90.226562 333.46875 C 66.859375 359.734375 64.542969 400.332031 85.039062 424.128906 C 89.679688 429.628906 95.582031 434.035156 102.234375 436.972656 C 105.722656 438.445312 110.464844 440.148438 114.011719 441.476562 L 117.210938 442.519531 C 108.910156 439.816406 101.496094 434.8125 95.953125 428.167969 Z M 95.953125 428.167969 "/>
</g>
<mask id="mask32">
  <g filter="url(#alpha)">
<rect x="0" y="0" width="458" height="517" style="fill:rgb(0%,0%,0%);fill-opacity:0.901961;stroke:none;"/>
  </g>
</mask>
<clipPath id="clip33">
  <rect x="0" y="0" width="458" height="517"/>
</clipPath>
<g id="surface101" clip-path="url(#clip33)">
<path style=" stroke:none;fill-rule:nonzero;fill:rgb(1.568627%,83.137255%,51.764706%);fill-opacity:0.501961;" d="M 78.566406 425.359375 C 79.515625 426.078125 80.558594 426.769531 81.589844 427.410156 Z M 78.566406 425.359375 "/>
</g>
<mask id="mask33">
  <g filter="url(#alpha)">
<rect x="0" y="0" width="458" height="517" style="fill:rgb(0%,0%,0%);fill-opacity:0.901961;stroke:none;"/>
  </g>
</mask>
<clipPath id="clip34">
  <rect x="0" y="0" width="458" height="517"/>
</clipPath>
<g id="surface104" clip-path="url(#clip34)">
<path style=" stroke:none;fill-rule:nonzero;fill:rgb(1.568627%,83.137255%,51.764706%);fill-opacity:0.501961;" d="M 81.875 328.960938 C 79.660156 327.585938 77.535156 326.082031 75.511719 324.457031 C 48.117188 348.648438 42.726562 387.597656 63.441406 411.519531 C 65.359375 413.742188 67.484375 415.796875 69.785156 417.664062 C 72.90625 420.058594 76.925781 422.910156 80.558594 425.398438 C 77.582031 423.199219 74.867188 420.683594 72.472656 417.914062 C 51.765625 394.003906 55.972656 354.171875 81.875 328.960938 Z M 81.875 328.960938 "/>
</g>
<mask id="mask34">
  <g filter="url(#alpha)">
<rect x="0" y="0" width="458" height="517" style="fill:rgb(0%,0%,0%);fill-opacity:0.901961;stroke:none;"/>
  </g>
</mask>
<clipPath id="clip35">
  <rect x="0" y="0" width="458" height="517"/>
</clipPath>
<g id="surface107" clip-path="url(#clip35)">
<path style=" stroke:none;fill-rule:nonzero;fill:rgb(1.568627%,83.137255%,51.764706%);fill-opacity:0.501961;" d="M 69.453125 317.503906 L 69.332031 317.363281 C 67.652344 315.4375 66.105469 313.414062 64.695312 311.308594 C 36.144531 330.996094 27.429688 364.113281 43.425781 387.964844 C 46.378906 392.144531 50.582031 397.484375 53.824219 401.53125 L 54.089844 401.84375 L 53.988281 401.730469 C 33.03125 377.71875 39.953125 340.011719 69.453125 317.503906 Z M 69.453125 317.503906 "/>
</g>
</defs>
<g id="surface1">
<path style=" stroke:none;fill-rule:nonzero;fill:rgb(1.568627%,83.137255%,51.764706%);fill-opacity:0.501961;" d="M 111.152344 233.105469 L 111.152344 200.722656 C 111.152344 198.914062 110.882812 197.46875 110.351562 196.382812 C 109.859375 195.257812 108.691406 194.695312 106.847656 194.695312 L 105.800781 194.695312 L 105.800781 193.308594 L 111.828125 193.308594 C 113.261719 193.308594 114.371094 193.507812 115.148438 193.910156 C 115.96875 194.3125 116.542969 195.054688 116.871094 196.140625 C 117.199219 197.1875 117.363281 198.714844 117.363281 200.722656 L 117.363281 211.335938 L 135.320312 211.335938 L 135.320312 193.308594 L 141.46875 193.308594 L 141.46875 225.6875 C 141.46875 227.496094 141.714844 228.964844 142.207031 230.089844 C 142.742188 231.175781 143.929688 231.71875 145.773438 231.71875 L 146.882812 231.71875 L 146.882812 233.105469 L 140.855469 233.105469 C 139.417969 233.105469 138.292969 232.925781 137.472656 232.5625 C 136.695312 232.160156 136.140625 231.417969 135.8125 230.332031 C 135.484375 229.246094 135.320312 227.699219 135.320312 225.6875 L 135.320312 213.808594 L 117.363281 213.808594 L 117.363281 233.105469 Z M 111.152344 233.105469 "/>
<path style=" stroke:none;fill-rule:nonzero;fill:rgb(1.568627%,83.137255%,51.764706%);fill-opacity:0.501961;" d="M 149.378906 233.105469 L 166.507812 193.359375 L 166.828125 193.359375 L 183.957031 233.105469 L 177.460938 233.105469 L 165.003906 201.992188 L 169.03125 199.414062 L 154.964844 233.105469 Z M 159.742188 218.785156 L 173.703125 218.785156 L 175.632812 223.523438 L 158.078125 223.523438 Z M 159.742188 218.785156 "/>
<path style=" stroke:none;fill-rule:nonzero;fill:rgb(1.568627%,83.137255%,51.764706%);fill-opacity:0.501961;" d="M 215.042969 227.734375 L 228.199219 227.734375 L 228.199219 233.105469 L 207.582031 233.105469 Z M 186.695312 214.046875 C 186.695312 211.417969 187.199219 208.925781 188.199219 206.574219 C 189.238281 204.222656 190.667969 202.152344 192.496094 200.359375 C 194.320312 198.535156 196.433594 197.113281 198.832031 196.097656 C 201.230469 195.042969 203.789062 194.519531 206.507812 194.519531 C 209.230469 194.519531 211.789062 195.042969 214.1875 196.097656 C 216.621094 197.113281 218.75 198.535156 220.574219 200.359375 C 222.4375 202.152344 223.886719 204.222656 224.921875 206.574219 C 225.960938 208.925781 226.480469 211.417969 226.480469 214.046875 C 226.480469 216.75 225.960938 219.277344 224.921875 221.628906 C 223.886719 223.980469 222.4375 226.050781 220.574219 227.839844 C 218.75 229.628906 216.621094 231.035156 214.1875 232.050781 C 211.789062 233.035156 209.230469 233.527344 206.507812 233.527344 C 203.789062 233.527344 201.230469 233.035156 198.832031 232.050781 C 196.433594 231.035156 194.320312 229.648438 192.496094 227.894531 C 190.667969 226.136719 189.238281 224.085938 188.199219 221.734375 C 187.199219 219.347656 186.695312 216.785156 186.695312 214.046875 Z M 192.496094 214.101562 C 192.496094 216.664062 193.121094 219.015625 194.375 221.15625 C 195.628906 223.296875 197.328125 224.996094 199.476562 226.261719 C 201.621094 227.523438 204.019531 228.15625 206.667969 228.15625 C 209.28125 228.15625 211.644531 227.523438 213.757812 226.261719 C 215.867188 224.996094 217.550781 223.296875 218.804688 221.15625 C 220.054688 219.015625 220.683594 216.644531 220.683594 214.046875 C 220.683594 212.117188 220.304688 210.3125 219.554688 208.625 C 218.839844 206.90625 217.835938 205.414062 216.546875 204.152344 C 215.257812 202.851562 213.757812 201.835938 212.039062 201.097656 C 210.355469 200.359375 208.53125 199.992188 206.5625 199.992188 C 203.914062 199.992188 201.515625 200.640625 199.367188 201.941406 C 197.257812 203.203125 195.574219 204.90625 194.320312 207.046875 C 193.105469 209.1875 192.496094 211.539062 192.496094 214.101562 Z M 192.496094 214.101562 "/>
<path style=" stroke:none;fill-rule:nonzero;fill:rgb(1.568627%,83.137255%,51.764706%);fill-opacity:0.501961;" d="M 262.703125 227.734375 L 275.859375 227.734375 L 275.859375 233.105469 L 255.242188 233.105469 Z M 234.355469 214.046875 C 234.355469 211.417969 234.859375 208.925781 235.859375 206.574219 C 236.898438 204.222656 238.328125 202.152344 240.15625 200.359375 C 241.980469 198.535156 244.09375 197.113281 246.492188 196.097656 C 248.886719 195.042969 251.449219 194.519531 254.167969 194.519531 C 256.886719 194.519531 259.445312 195.042969 261.84375 196.097656 C 264.28125 197.113281 266.410156 198.535156 268.234375 200.359375 C 270.097656 202.152344 271.546875 204.222656 272.582031 206.574219 C 273.621094 208.925781 274.140625 211.417969 274.140625 214.046875 C 274.140625 216.75 273.621094 219.277344 272.582031 221.628906 C 271.546875 223.980469 270.097656 226.050781 268.234375 227.839844 C 266.410156 229.628906 264.28125 231.035156 261.84375 232.050781 C 259.445312 233.035156 256.886719 233.527344 254.167969 233.527344 C 251.449219 233.527344 248.886719 233.035156 246.492188 232.050781 C 244.09375 231.035156 241.980469 229.648438 240.15625 227.894531 C 238.328125 226.136719 236.898438 224.085938 235.859375 221.734375 C 234.859375 219.347656 234.355469 216.785156 234.355469 214.046875 Z M 240.15625 214.101562 C 240.15625 216.664062 240.78125 219.015625 242.035156 221.15625 C 243.285156 223.296875 244.988281 224.996094 247.132812 226.261719 C 249.28125 227.523438 251.679688 228.15625 254.328125 228.15625 C 256.941406 228.15625 259.304688 227.523438 261.414062 226.261719 C 263.527344 224.996094 265.210938 223.296875 266.464844 221.15625 C 267.714844 219.015625 268.34375 216.644531 268.34375 214.046875 C 268.34375 212.117188 267.964844 210.3125 267.214844 208.625 C 266.5 206.90625 265.496094 205.414062 264.207031 204.152344 C 262.917969 202.851562 261.414062 201.835938 259.699219 201.097656 C 258.015625 200.359375 256.191406 199.992188 254.222656 199.992188 C 251.574219 199.992188 249.175781 200.640625 247.027344 201.941406 C 244.914062 203.203125 243.234375 204.90625 241.980469 207.046875 C 240.765625 209.1875 240.15625 211.539062 240.15625 214.101562 Z M 240.15625 214.101562 "/>
<use xlink:href="#surface5" mask="url(#mask0)"/>
<use xlink:href="#surface8" mask="url(#mask1)"/>
<use xlink:href="#surface11" mask="url(#mask2)"/>
<use xlink:href="#surface14" mask="url(#mask3)"/>
<use xlink:href="#surface17" mask="url(#mask4)"/>
<use xlink:href="#surface20" mask="url(#mask5)"/>
<use xlink:href="#surface23" mask="url(#mask6)"/>
<use xlink:href="#surface26" mask="url(#mask7)"/>
<use xlink:href="#surface29" mask="url(#mask8)"/>
<use xlink:href="#surface32" mask="url(#mask9)"/>
<use xlink:href="#surface35" mask="url(#mask10)"/>
<use xlink:href="#surface38" mask="url(#mask11)"/>
<use xlink:href="#surface41" mask="url(#mask12)"/>
<use xlink:href="#surface44" mask="url(#mask13)"/>
<use xlink:href="#surface47" mask="url(#mask14)"/>
<use xlink:href="#surface50" mask="url(#mask15)"/>
<use xlink:href="#surface53" mask="url(#mask16)"/>
<use xlink:href="#surface56" mask="url(#mask17)"/>
<use xlink:href="#surface59" mask="url(#mask18)"/>
<use xlink:href="#surface62" mask="url(#mask19)"/>
<use xlink:href="#surface65" mask="url(#mask20)"/>
<use xlink:href="#surface68" mask="url(#mask21)"/>
<use xlink:href="#surface71" mask="url(#mask22)"/>
<use xlink:href="#surface74" mask="url(#mask23)"/>
<use xlink:href="#surface77" mask="url(#mask24)"/>
<use xlink:href="#surface80" mask="url(#mask25)"/>
<use xlink:href="#surface83" mask="url(#mask26)"/>
<use xlink:href="#surface86" mask="url(#mask27)"/>
<use xlink:href="#surface89" mask="url(#mask28)"/>
<use xlink:href="#surface92" mask="url(#mask29)"/>
<use xlink:href="#surface95" mask="url(#mask30)"/>
<use xlink:href="#surface98" mask="url(#mask31)"/>
<use xlink:href="#surface101" mask="url(#mask32)"/>
<use xlink:href="#surface104" mask="url(#mask33)"/>
<use xlink:href="#surface107" mask="url(#mask34)"/>
</g>
</svg>
