<?xml version="1.0" encoding="UTF-8"?>
<svg xmlns="http://www.w3.org/2000/svg" xmlns:xlink="http://www.w3.org/1999/xlink" width="20px" height="20px" viewBox="0 0 20 20" version="1.1">
<defs>
<filter id="alpha" filterUnits="objectBoundingBox" x="0%" y="0%" width="100%" height="100%">
  <feColorMatrix type="matrix" in="SourceGraphic" values="0 0 0 0 1 0 0 0 0 1 0 0 0 0 1 0 0 0 1 0"/>
</filter>
<mask id="mask0">
  <g filter="url(#alpha)">
<rect x="0" y="0" width="20" height="20" style="fill:rgb(0%,0%,0%);fill-opacity:0.901961;stroke:none;"/>
  </g>
</mask>
<clipPath id="clip1">
  <rect x="0" y="0" width="20" height="20"/>
</clipPath>
<g id="surface5" clip-path="url(#clip1)">
<path style=" stroke:none;fill-rule:nonzero;fill:rgb(1.568627%,83.137255%,51.764706%);fill-opacity:0.501961;" d="M 2.671875 11.730469 C 2.625 11.636719 2.582031 11.542969 2.546875 11.445312 C 1.441406 12.011719 0.976562 12.820312 1.246094 13.722656 C 1.316406 13.902344 1.421875 14.140625 1.507812 14.320312 C 1.046875 13.441406 1.496094 12.363281 2.671875 11.730469 Z M 2.671875 11.730469 "/>
</g>
<mask id="mask1">
  <g filter="url(#alpha)">
<rect x="0" y="0" width="20" height="20" style="fill:rgb(0%,0%,0%);fill-opacity:0.901961;stroke:none;"/>
  </g>
</mask>
<clipPath id="clip2">
  <rect x="0" y="0" width="20" height="20"/>
</clipPath>
<g id="surface8" clip-path="url(#clip2)">
<path style=" stroke:none;fill-rule:nonzero;fill:rgb(1.568627%,83.137255%,51.764706%);fill-opacity:0.501961;" d="M 2.480469 11.027344 C 2.460938 10.921875 2.453125 10.816406 2.449219 10.710938 C 1.503906 11.039062 1 11.65625 1.023438 12.300781 L 1.023438 12.308594 C 1.03125 12.484375 1.058594 12.71875 1.082031 12.890625 C 0.960938 12.167969 1.464844 11.433594 2.480469 11.027344 Z M 2.480469 11.027344 "/>
</g>
<mask id="mask2">
  <g filter="url(#alpha)">
<rect x="0" y="0" width="20" height="20" style="fill:rgb(0%,0%,0%);fill-opacity:0.901961;stroke:none;"/>
  </g>
</mask>
<clipPath id="clip3">
  <rect x="0" y="0" width="20" height="20"/>
</clipPath>
<g id="surface11" clip-path="url(#clip3)">
<path style=" stroke:none;fill-rule:nonzero;fill:rgb(1.568627%,83.137255%,51.764706%);fill-opacity:0.501961;" d="M 2.496094 10.242188 C 2.507812 10.132812 2.527344 10.019531 2.550781 9.90625 C 1.761719 10.082031 1.285156 10.480469 1.183594 10.957031 L 1.144531 11.160156 L 1.089844 11.507812 C 1.152344 10.960938 1.644531 10.480469 2.496094 10.242188 Z M 2.496094 10.242188 "/>
</g>
<mask id="mask3">
  <g filter="url(#alpha)">
<rect x="0" y="0" width="20" height="20" style="fill:rgb(0%,0%,0%);fill-opacity:0.901961;stroke:none;"/>
  </g>
</mask>
<clipPath id="clip4">
  <rect x="0" y="0" width="20" height="20"/>
</clipPath>
<g id="surface14" clip-path="url(#clip4)">
<path style=" stroke:none;fill-rule:nonzero;fill:rgb(1.568627%,83.137255%,51.764706%);fill-opacity:0.501961;" d="M 2.710938 9.40625 C 2.753906 9.292969 2.800781 9.175781 2.851562 9.058594 C 2.191406 9.121094 1.773438 9.359375 1.628906 9.695312 L 1.476562 10.070312 L 1.429688 10.203125 C 1.5625 9.8125 2.003906 9.511719 2.710938 9.40625 Z M 2.710938 9.40625 "/>
</g>
<mask id="mask4">
  <g filter="url(#alpha)">
<rect x="0" y="0" width="20" height="20" style="fill:rgb(0%,0%,0%);fill-opacity:0.901961;stroke:none;"/>
  </g>
</mask>
<clipPath id="clip5">
  <rect x="0" y="0" width="20" height="20"/>
</clipPath>
<g id="surface17" clip-path="url(#clip5)">
<path style=" stroke:none;fill-rule:nonzero;fill:rgb(1.568627%,83.137255%,51.764706%);fill-opacity:0.501961;" d="M 3.113281 8.539062 C 3.179688 8.421875 3.25 8.304688 3.324219 8.1875 C 2.78125 8.15625 2.425781 8.277344 2.28125 8.5 C 2.191406 8.640625 2.082031 8.832031 1.996094 8.972656 C 2.148438 8.707031 2.527344 8.542969 3.113281 8.539062 Z M 3.113281 8.539062 "/>
</g>
<mask id="mask5">
  <g filter="url(#alpha)">
<rect x="0" y="0" width="20" height="20" style="fill:rgb(0%,0%,0%);fill-opacity:0.901961;stroke:none;"/>
  </g>
</mask>
<clipPath id="clip6">
  <rect x="0" y="0" width="20" height="20"/>
</clipPath>
<g id="surface20" clip-path="url(#clip6)">
<path style=" stroke:none;fill-rule:nonzero;fill:rgb(1.568627%,83.137255%,51.764706%);fill-opacity:0.501961;" d="M 3.691406 7.664062 C 3.78125 7.546875 3.875 7.433594 3.972656 7.320312 C 3.53125 7.210938 3.25 7.238281 3.132812 7.375 C 3.015625 7.507812 2.878906 7.683594 2.769531 7.816406 C 2.898438 7.648438 3.210938 7.585938 3.691406 7.664062 Z M 3.691406 7.664062 "/>
</g>
<mask id="mask6">
  <g filter="url(#alpha)">
<rect x="0" y="0" width="20" height="20" style="fill:rgb(0%,0%,0%);fill-opacity:0.901961;stroke:none;"/>
  </g>
</mask>
<clipPath id="clip7">
  <rect x="0" y="0" width="20" height="20"/>
</clipPath>
<g id="surface23" clip-path="url(#clip7)">
<path style=" stroke:none;fill-rule:nonzero;fill:rgb(1.568627%,83.137255%,51.764706%);fill-opacity:0.501961;" d="M 4.429688 6.804688 C 4.542969 6.691406 4.65625 6.585938 4.777344 6.476562 C 4.429688 6.300781 4.21875 6.253906 4.148438 6.316406 L 3.714844 6.726562 C 3.804688 6.636719 4.042969 6.652344 4.429688 6.804688 Z M 4.429688 6.804688 "/>
</g>
<mask id="mask7">
  <g filter="url(#alpha)">
<rect x="0" y="0" width="20" height="20" style="fill:rgb(0%,0%,0%);fill-opacity:0.901961;stroke:none;"/>
  </g>
</mask>
<clipPath id="clip8">
  <rect x="0" y="0" width="20" height="20"/>
</clipPath>
<g id="surface26" clip-path="url(#clip8)">
<path style=" stroke:none;fill-rule:nonzero;fill:rgb(1.568627%,83.137255%,51.764706%);fill-opacity:0.501961;" d="M 5.726562 5.683594 C 5.46875 5.441406 5.335938 5.328125 5.324219 5.335938 L 5.234375 5.398438 L 4.820312 5.710938 C 4.855469 5.679688 5.019531 5.765625 5.316406 5.980469 C 5.449219 5.878906 5.585938 5.78125 5.726562 5.683594 Z M 5.726562 5.683594 "/>
</g>
<mask id="mask8">
  <g filter="url(#alpha)">
<rect x="0" y="0" width="20" height="20" style="fill:rgb(0%,0%,0%);fill-opacity:0.901961;stroke:none;"/>
  </g>
</mask>
<clipPath id="clip9">
  <rect x="0" y="0" width="20" height="20"/>
</clipPath>
<g id="surface29" clip-path="url(#clip9)">
<path style=" stroke:none;fill-rule:nonzero;fill:rgb(1.568627%,83.137255%,51.764706%);fill-opacity:0.501961;" d="M 6.804688 4.960938 C 6.636719 4.652344 6.597656 4.480469 6.664062 4.445312 L 6.351562 4.621094 L 6.085938 4.78125 C 6.0625 4.816406 6.128906 4.933594 6.339844 5.230469 C 6.414062 5.1875 6.484375 5.144531 6.554688 5.101562 C 6.636719 5.054688 6.722656 5.007812 6.804688 4.960938 Z M 6.804688 4.960938 "/>
</g>
<mask id="mask9">
  <g filter="url(#alpha)">
<rect x="0" y="0" width="20" height="20" style="fill:rgb(0%,0%,0%);fill-opacity:0.901961;stroke:none;"/>
  </g>
</mask>
<clipPath id="clip10">
  <rect x="0" y="0" width="20" height="20"/>
</clipPath>
<g id="surface32" clip-path="url(#clip10)">
<path style=" stroke:none;fill-rule:nonzero;fill:rgb(1.568627%,83.137255%,51.764706%);fill-opacity:0.501961;" d="M 8.078125 3.710938 L 7.535156 3.949219 L 7.476562 3.976562 C 7.355469 4.035156 7.339844 4.234375 7.449219 4.582031 C 7.609375 4.507812 7.765625 4.4375 7.925781 4.371094 C 7.859375 3.996094 7.921875 3.777344 8.078125 3.710938 Z M 8.078125 3.710938 "/>
</g>
<mask id="mask10">
  <g filter="url(#alpha)">
<rect x="0" y="0" width="20" height="20" style="fill:rgb(0%,0%,0%);fill-opacity:0.901961;stroke:none;"/>
  </g>
</mask>
<clipPath id="clip11">
  <rect x="0" y="0" width="20" height="20"/>
</clipPath>
<g id="surface35" clip-path="url(#clip11)">
<path style=" stroke:none;fill-rule:nonzero;fill:rgb(1.568627%,83.137255%,51.764706%);fill-opacity:0.501961;" d="M 9.027344 3.929688 C 9.070312 3.488281 9.253906 3.230469 9.519531 3.152344 C 9.332031 3.207031 9.085938 3.289062 8.902344 3.347656 C 8.683594 3.421875 8.554688 3.664062 8.558594 4.078125 C 8.714844 4.023438 8.871094 3.976562 9.027344 3.929688 Z M 9.027344 3.929688 "/>
</g>
<mask id="mask11">
  <g filter="url(#alpha)">
<rect x="0" y="0" width="20" height="20" style="fill:rgb(0%,0%,0%);fill-opacity:0.901961;stroke:none;"/>
  </g>
</mask>
<clipPath id="clip12">
  <rect x="0" y="0" width="20" height="20"/>
</clipPath>
<g id="surface38" clip-path="url(#clip12)">
<path style=" stroke:none;fill-rule:nonzero;fill:rgb(1.568627%,83.137255%,51.764706%);fill-opacity:0.501961;" d="M 10.097656 3.640625 C 10.265625 3.132812 10.589844 2.84375 10.980469 2.78125 C 10.789062 2.8125 10.542969 2.863281 10.355469 2.898438 C 10.023438 2.964844 9.761719 3.246094 9.644531 3.726562 C 9.796875 3.695312 9.949219 3.664062 10.097656 3.640625 Z M 10.097656 3.640625 "/>
</g>
<mask id="mask12">
  <g filter="url(#alpha)">
<rect x="0" y="0" width="20" height="20" style="fill:rgb(0%,0%,0%);fill-opacity:0.901961;stroke:none;"/>
  </g>
</mask>
<clipPath id="clip13">
  <rect x="0" y="0" width="20" height="20"/>
</clipPath>
<g id="surface41" clip-path="url(#clip13)">
<path style=" stroke:none;fill-rule:nonzero;fill:rgb(1.568627%,83.137255%,51.764706%);fill-opacity:0.501961;" d="M 11.105469 3.507812 C 11.425781 2.925781 11.925781 2.621094 12.457031 2.613281 C 12.269531 2.617188 12.019531 2.632812 11.832031 2.640625 C 11.105469 2.707031 10.8125 3.28125 10.6875 3.527344 C 10.828125 3.515625 10.96875 3.511719 11.105469 3.507812 Z M 11.105469 3.507812 "/>
</g>
<mask id="mask13">
  <g filter="url(#alpha)">
<rect x="0" y="0" width="20" height="20" style="fill:rgb(0%,0%,0%);fill-opacity:0.901961;stroke:none;"/>
  </g>
</mask>
<clipPath id="clip14">
  <rect x="0" y="0" width="20" height="20"/>
</clipPath>
<g id="surface44" clip-path="url(#clip14)">
<path style=" stroke:none;fill-rule:nonzero;fill:rgb(1.568627%,83.137255%,51.764706%);fill-opacity:0.501961;" d="M 11.648438 3.484375 C 11.777344 3.496094 11.90625 3.507812 12.03125 3.527344 C 12.539062 2.863281 13.273438 2.570312 13.964844 2.679688 L 13.753906 2.648438 L 13.324219 2.605469 C 12.703125 2.554688 12.074219 2.855469 11.648438 3.484375 Z M 11.648438 3.484375 "/>
</g>
<mask id="mask14">
  <g filter="url(#alpha)">
<rect x="0" y="0" width="20" height="20" style="fill:rgb(0%,0%,0%);fill-opacity:0.901961;stroke:none;"/>
  </g>
</mask>
<clipPath id="clip15">
  <rect x="0" y="0" width="20" height="20"/>
</clipPath>
<g id="surface47" clip-path="url(#clip15)">
<path style=" stroke:none;fill-rule:nonzero;fill:rgb(1.568627%,83.137255%,51.764706%);fill-opacity:0.501961;" d="M 12.511719 3.597656 C 12.625 3.628906 12.734375 3.664062 12.839844 3.703125 C 13.585938 2.957031 14.625 2.726562 15.464844 3.042969 C 15.335938 2.992188 15.15625 2.9375 15.023438 2.894531 L 14.828125 2.839844 C 14.046875 2.628906 13.148438 2.890625 12.511719 3.597656 Z M 12.511719 3.597656 "/>
</g>
<mask id="mask15">
  <g filter="url(#alpha)">
<rect x="0" y="0" width="20" height="20" style="fill:rgb(0%,0%,0%);fill-opacity:0.901961;stroke:none;"/>
  </g>
</mask>
<clipPath id="clip16">
  <rect x="0" y="0" width="20" height="20"/>
</clipPath>
<g id="surface50" clip-path="url(#clip16)">
<path style=" stroke:none;fill-rule:nonzero;fill:rgb(1.568627%,83.137255%,51.764706%);fill-opacity:0.501961;" d="M 13.246094 3.875 C 13.339844 3.925781 13.429688 3.980469 13.515625 4.039062 C 14.613281 3.230469 15.875 3.132812 16.882812 3.777344 C 16.710938 3.660156 16.472656 3.515625 16.292969 3.414062 C 15.832031 3.183594 14.617188 2.765625 13.246094 3.875 Z M 13.246094 3.875 "/>
</g>
<mask id="mask16">
  <g filter="url(#alpha)">
<rect x="0" y="0" width="20" height="20" style="fill:rgb(0%,0%,0%);fill-opacity:0.901961;stroke:none;"/>
  </g>
</mask>
<clipPath id="clip17">
  <rect x="0" y="0" width="20" height="20"/>
</clipPath>
<g id="surface53" clip-path="url(#clip17)">
<path style=" stroke:none;fill-rule:nonzero;fill:rgb(1.568627%,83.137255%,51.764706%);fill-opacity:0.501961;" d="M 13.824219 4.3125 L 13.847656 4.339844 C 13.914062 4.402344 13.96875 4.472656 14.023438 4.542969 C 15.222656 3.8125 17.050781 3.742188 18.035156 4.890625 C 17.925781 4.753906 17.765625 4.574219 17.644531 4.441406 L 17.585938 4.386719 C 16.710938 3.519531 15.035156 3.484375 13.824219 4.3125 Z M 13.824219 4.3125 "/>
</g>
<mask id="mask17">
  <g filter="url(#alpha)">
<rect x="0" y="0" width="20" height="20" style="fill:rgb(0%,0%,0%);fill-opacity:0.901961;stroke:none;"/>
  </g>
</mask>
<clipPath id="clip18">
  <rect x="0" y="0" width="20" height="20"/>
</clipPath>
<g id="surface56" clip-path="url(#clip18)">
<path style=" stroke:none;fill-rule:nonzero;fill:rgb(1.568627%,83.137255%,51.764706%);fill-opacity:0.501961;" d="M 14.222656 4.917969 C 14.269531 5.007812 14.308594 5.097656 14.339844 5.1875 C 15.679688 4.554688 17.472656 4.757812 18.34375 5.636719 C 18.523438 5.816406 18.65625 6.023438 18.730469 6.246094 C 18.667969 6.074219 18.566406 5.847656 18.492188 5.675781 C 18.414062 5.523438 18.308594 5.378906 18.179688 5.25 C 17.3125 4.371094 15.539062 4.21875 14.222656 4.917969 Z M 14.222656 4.917969 "/>
</g>
<mask id="mask18">
  <g filter="url(#alpha)">
<rect x="0" y="0" width="20" height="20" style="fill:rgb(0%,0%,0%);fill-opacity:0.901961;stroke:none;"/>
  </g>
</mask>
<clipPath id="clip19">
  <rect x="0" y="0" width="20" height="20"/>
</clipPath>
<g id="surface59" clip-path="url(#clip19)">
<path style=" stroke:none;fill-rule:nonzero;fill:rgb(1.568627%,83.137255%,51.764706%);fill-opacity:0.501961;" d="M 14.390625 5.644531 C 14.402344 5.746094 14.414062 5.847656 14.414062 5.949219 C 15.789062 5.472656 17.609375 5.808594 18.480469 6.699219 C 18.78125 7.003906 18.929688 7.335938 18.9375 7.660156 L 18.9375 7.597656 C 18.925781 7.449219 18.90625 7.246094 18.890625 7.09375 C 18.839844 6.792969 18.683594 6.503906 18.445312 6.265625 C 17.574219 5.378906 15.757812 5.097656 14.390625 5.644531 Z M 14.390625 5.644531 "/>
</g>
<mask id="mask19">
  <g filter="url(#alpha)">
<rect x="0" y="0" width="20" height="20" style="fill:rgb(0%,0%,0%);fill-opacity:0.901961;stroke:none;"/>
  </g>
</mask>
<clipPath id="clip20">
  <rect x="0" y="0" width="20" height="20"/>
</clipPath>
<g id="surface62" clip-path="url(#clip20)">
<path style=" stroke:none;fill-rule:nonzero;fill:rgb(1.568627%,83.137255%,51.764706%);fill-opacity:0.501961;" d="M 18.410156 7.378906 C 17.539062 6.488281 15.71875 6.066406 14.347656 6.441406 C 14.332031 6.546875 14.3125 6.65625 14.289062 6.769531 C 15.648438 6.46875 17.457031 6.953125 18.328125 7.84375 C 18.710938 8.234375 18.851562 8.640625 18.769531 9 L 18.820312 8.753906 L 18.863281 8.472656 C 18.90625 8.121094 18.761719 7.742188 18.410156 7.378906 Z M 18.410156 7.378906 "/>
</g>
<mask id="mask20">
  <g filter="url(#alpha)">
<rect x="0" y="0" width="20" height="20" style="fill:rgb(0%,0%,0%);fill-opacity:0.901961;stroke:none;"/>
  </g>
</mask>
<clipPath id="clip21">
  <rect x="0" y="0" width="20" height="20"/>
</clipPath>
<g id="surface65" clip-path="url(#clip21)">
<path style=" stroke:none;fill-rule:nonzero;fill:rgb(1.568627%,83.137255%,51.764706%);fill-opacity:0.501961;" d="M 13.96875 7.628906 C 15.269531 7.515625 17.027344 8.152344 17.898438 9.046875 C 18.339844 9.5 18.472656 9.933594 18.324219 10.265625 L 18.492188 9.851562 L 18.523438 9.773438 C 18.648438 9.421875 18.515625 8.992188 18.09375 8.5625 C 17.222656 7.664062 15.4375 7.09375 14.109375 7.285156 C 14.070312 7.398438 14.023438 7.511719 13.96875 7.628906 Z M 13.96875 7.628906 "/>
</g>
<mask id="mask21">
  <g filter="url(#alpha)">
<rect x="0" y="0" width="20" height="20" style="fill:rgb(0%,0%,0%);fill-opacity:0.901961;stroke:none;"/>
  </g>
</mask>
<clipPath id="clip22">
  <rect x="0" y="0" width="20" height="20"/>
</clipPath>
<g id="surface68" clip-path="url(#clip22)">
<path style=" stroke:none;fill-rule:nonzero;fill:rgb(1.568627%,83.137255%,51.764706%);fill-opacity:0.501961;" d="M 17.222656 10.273438 C 17.703125 10.769531 17.839844 11.195312 17.667969 11.460938 C 17.757812 11.324219 17.867188 11.136719 17.953125 10.996094 C 18.453125 9.96875 15.824219 8.21875 13.691406 8.160156 C 13.625 8.277344 13.554688 8.390625 13.476562 8.503906 C 14.671875 8.582031 16.34375 9.375 17.222656 10.273438 Z M 17.222656 10.273438 "/>
</g>
<mask id="mask22">
  <g filter="url(#alpha)">
<rect x="0" y="0" width="20" height="20" style="fill:rgb(0%,0%,0%);fill-opacity:0.901961;stroke:none;"/>
  </g>
</mask>
<clipPath id="clip23">
  <rect x="0" y="0" width="20" height="20"/>
</clipPath>
<g id="surface71" clip-path="url(#clip23)">
<path style=" stroke:none;fill-rule:nonzero;fill:rgb(1.568627%,83.137255%,51.764706%);fill-opacity:0.501961;" d="M 16.300781 11.488281 C 16.8125 12.015625 16.976562 12.40625 16.816406 12.589844 C 16.929688 12.460938 17.070312 12.285156 17.179688 12.152344 C 17.351562 11.933594 17.203125 11.523438 16.699219 11.007812 C 15.824219 10.109375 14.210938 9.226562 13.101562 9.035156 C 13.011719 9.148438 12.917969 9.261719 12.816406 9.375 C 13.867188 9.640625 15.425781 10.585938 16.300781 11.488281 Z M 16.300781 11.488281 "/>
</g>
<mask id="mask23">
  <g filter="url(#alpha)">
<rect x="0" y="0" width="20" height="20" style="fill:rgb(0%,0%,0%);fill-opacity:0.901961;stroke:none;"/>
  </g>
</mask>
<clipPath id="clip24">
  <rect x="0" y="0" width="20" height="20"/>
</clipPath>
<g id="surface74" clip-path="url(#clip24)">
<path style=" stroke:none;fill-rule:nonzero;fill:rgb(1.568627%,83.137255%,51.764706%);fill-opacity:0.501961;" d="M 12.351562 9.886719 C 12.242188 9.996094 12.125 10.105469 12.003906 10.210938 C 12.871094 10.664062 14.285156 11.761719 15.164062 12.664062 C 15.691406 13.207031 15.90625 13.558594 15.800781 13.648438 L 16.238281 13.242188 C 16.371094 13.109375 16.179688 12.742188 15.65625 12.203125 C 14.777344 11.300781 13.296875 10.261719 12.351562 9.886719 Z M 12.351562 9.886719 "/>
</g>
<mask id="mask24">
  <g filter="url(#alpha)">
<rect x="0" y="0" width="20" height="20" style="fill:rgb(0%,0%,0%);fill-opacity:0.901961;stroke:none;"/>
  </g>
</mask>
<clipPath id="clip25">
  <rect x="0" y="0" width="20" height="20"/>
</clipPath>
<g id="surface77" clip-path="url(#clip25)">
<path style=" stroke:none;fill-rule:nonzero;fill:rgb(1.568627%,83.137255%,51.764706%);fill-opacity:0.501961;" d="M 11.453125 10.699219 C 11.324219 10.800781 11.1875 10.902344 11.046875 11 C 11.699219 11.625 12.941406 12.863281 13.820312 13.769531 C 14.355469 14.320312 14.628906 14.621094 14.617188 14.632812 L 14.753906 14.53125 L 15.125 14.253906 C 15.179688 14.210938 14.929688 13.890625 14.394531 13.34375 C 13.519531 12.4375 12.199219 11.253906 11.453125 10.699219 Z M 11.453125 10.699219 "/>
</g>
<mask id="mask25">
  <g filter="url(#alpha)">
<rect x="0" y="0" width="20" height="20" style="fill:rgb(0%,0%,0%);fill-opacity:0.901961;stroke:none;"/>
  </g>
</mask>
<clipPath id="clip26">
  <rect x="0" y="0" width="20" height="20"/>
</clipPath>
<g id="surface80" clip-path="url(#clip26)">
<path style=" stroke:none;fill-rule:nonzero;fill:rgb(1.568627%,83.137255%,51.764706%);fill-opacity:0.501961;" d="M 10.421875 11.449219 C 10.367188 11.484375 10.3125 11.515625 10.253906 11.550781 C 10.15625 11.605469 10.0625 11.664062 9.964844 11.714844 C 10.371094 12.496094 11.414062 13.863281 12.292969 14.769531 C 12.824219 15.320312 13.175781 15.574219 13.28125 15.519531 L 13.644531 15.3125 L 13.855469 15.1875 C 13.800781 15.21875 13.480469 14.945312 12.945312 14.394531 C 12.0625 13.484375 10.9375 12.167969 10.421875 11.449219 Z M 10.421875 11.449219 "/>
</g>
<mask id="mask26">
  <g filter="url(#alpha)">
<rect x="0" y="0" width="20" height="20" style="fill:rgb(0%,0%,0%);fill-opacity:0.901961;stroke:none;"/>
  </g>
</mask>
<clipPath id="clip27">
  <rect x="0" y="0" width="20" height="20"/>
</clipPath>
<g id="surface83" clip-path="url(#clip27)">
<path style=" stroke:none;fill-rule:nonzero;fill:rgb(1.568627%,83.137255%,51.764706%);fill-opacity:0.501961;" d="M 9.308594 12.09375 C 9.152344 12.164062 8.996094 12.234375 8.839844 12.296875 C 8.988281 13.203125 9.824219 14.675781 10.703125 15.585938 C 11.222656 16.121094 11.644531 16.339844 11.871094 16.25 L 12.457031 15.988281 L 12.464844 15.988281 C 12.285156 16.070312 11.894531 15.835938 11.367188 15.292969 C 10.484375 14.382812 9.5625 12.949219 9.308594 12.09375 Z M 9.308594 12.09375 "/>
</g>
<mask id="mask27">
  <g filter="url(#alpha)">
<rect x="0" y="0" width="20" height="20" style="fill:rgb(0%,0%,0%);fill-opacity:0.901961;stroke:none;"/>
  </g>
</mask>
<clipPath id="clip28">
  <rect x="0" y="0" width="20" height="20"/>
</clipPath>
<g id="surface86" clip-path="url(#clip28)">
<path style=" stroke:none;fill-rule:nonzero;fill:rgb(1.568627%,83.137255%,51.764706%);fill-opacity:0.501961;" d="M 8.191406 12.585938 C 8.035156 12.636719 7.882812 12.683594 7.730469 12.726562 C 7.621094 13.722656 8.246094 15.269531 9.132812 16.183594 C 9.625 16.691406 10.09375 16.894531 10.433594 16.800781 C 10.617188 16.75 10.859375 16.671875 11.039062 16.617188 C 10.746094 16.714844 10.292969 16.503906 9.789062 15.980469 C 8.902344 15.070312 8.1875 13.546875 8.191406 12.585938 Z M 8.191406 12.585938 "/>
</g>
<mask id="mask28">
  <g filter="url(#alpha)">
<rect x="0" y="0" width="20" height="20" style="fill:rgb(0%,0%,0%);fill-opacity:0.901961;stroke:none;"/>
  </g>
</mask>
<clipPath id="clip29">
  <rect x="0" y="0" width="20" height="20"/>
</clipPath>
<g id="surface89" clip-path="url(#clip29)">
<path style=" stroke:none;fill-rule:nonzero;fill:rgb(1.568627%,83.137255%,51.764706%);fill-opacity:0.501961;" d="M 7.105469 12.921875 C 6.953125 12.953125 6.804688 12.980469 6.65625 13.003906 C 6.296875 14.054688 6.722656 15.652344 7.605469 16.566406 C 8.0625 17.035156 8.550781 17.234375 8.96875 17.171875 C 9.15625 17.144531 9.402344 17.09375 9.589844 17.0625 C 9.203125 17.140625 8.714844 16.941406 8.242188 16.449219 C 7.355469 15.539062 6.847656 13.957031 7.105469 12.921875 Z M 7.105469 12.921875 "/>
</g>
<mask id="mask29">
  <g filter="url(#alpha)">
<rect x="0" y="0" width="20" height="20" style="fill:rgb(0%,0%,0%);fill-opacity:0.901961;stroke:none;"/>
  </g>
</mask>
<clipPath id="clip30">
  <rect x="0" y="0" width="20" height="20"/>
</clipPath>
<g id="surface92" clip-path="url(#clip30)">
<path style=" stroke:none;fill-rule:nonzero;fill:rgb(1.568627%,83.137255%,51.764706%);fill-opacity:0.501961;" d="M 6.769531 16.707031 C 5.878906 15.789062 5.566406 14.179688 6.070312 13.105469 C 5.929688 13.117188 5.789062 13.121094 5.648438 13.125 C 5.050781 14.199219 5.28125 15.816406 6.171875 16.730469 C 6.574219 17.144531 7.039062 17.347656 7.484375 17.339844 L 7.519531 17.339844 C 7.699219 17.339844 7.9375 17.324219 8.117188 17.316406 C 7.675781 17.34375 7.195312 17.144531 6.769531 16.707031 Z M 6.769531 16.707031 "/>
</g>
<mask id="mask30">
  <g filter="url(#alpha)">
<rect x="0" y="0" width="20" height="20" style="fill:rgb(0%,0%,0%);fill-opacity:0.901961;stroke:none;"/>
  </g>
</mask>
<clipPath id="clip31">
  <rect x="0" y="0" width="20" height="20"/>
</clipPath>
<g id="surface95" clip-path="url(#clip31)">
<path style=" stroke:none;fill-rule:nonzero;fill:rgb(1.568627%,83.137255%,51.764706%);fill-opacity:0.501961;" d="M 5.40625 16.742188 C 4.515625 15.824219 4.386719 14.210938 5.121094 13.136719 C 4.988281 13.125 4.863281 13.109375 4.734375 13.089844 C 3.914062 14.15625 3.96875 15.761719 4.859375 16.679688 C 5.183594 17.011719 5.570312 17.207031 5.976562 17.273438 L 6.25 17.3125 L 6.621094 17.351562 C 6.191406 17.3125 5.765625 17.113281 5.40625 16.742188 Z M 5.40625 16.742188 "/>
</g>
<mask id="mask31">
  <g filter="url(#alpha)">
<rect x="0" y="0" width="20" height="20" style="fill:rgb(0%,0%,0%);fill-opacity:0.901961;stroke:none;"/>
  </g>
</mask>
<clipPath id="clip32">
  <rect x="0" y="0" width="20" height="20"/>
</clipPath>
<g id="surface98" clip-path="url(#clip32)">
<path style=" stroke:none;fill-rule:nonzero;fill:rgb(1.568627%,83.137255%,51.764706%);fill-opacity:0.501961;" d="M 4.191406 16.5625 C 3.296875 15.640625 3.332031 14.050781 4.277344 13.011719 C 4.160156 12.976562 4.050781 12.941406 3.941406 12.898438 C 2.917969 13.917969 2.820312 15.488281 3.714844 16.40625 C 3.917969 16.621094 4.175781 16.789062 4.464844 16.902344 C 4.617188 16.960938 4.824219 17.027344 4.980469 17.078125 L 5.117188 17.117188 C 4.757812 17.015625 4.433594 16.820312 4.191406 16.5625 Z M 4.191406 16.5625 "/>
</g>
<mask id="mask32">
  <g filter="url(#alpha)">
<rect x="0" y="0" width="20" height="20" style="fill:rgb(0%,0%,0%);fill-opacity:0.901961;stroke:none;"/>
  </g>
</mask>
<clipPath id="clip33">
  <rect x="0" y="0" width="20" height="20"/>
</clipPath>
<g id="surface101" clip-path="url(#clip33)">
<path style=" stroke:none;fill-rule:nonzero;fill:rgb(1.568627%,83.137255%,51.764706%);fill-opacity:0.501961;" d="M 3.429688 16.453125 C 3.472656 16.484375 3.519531 16.507812 3.5625 16.535156 Z M 3.429688 16.453125 "/>
</g>
<mask id="mask33">
  <g filter="url(#alpha)">
<rect x="0" y="0" width="20" height="20" style="fill:rgb(0%,0%,0%);fill-opacity:0.901961;stroke:none;"/>
  </g>
</mask>
<clipPath id="clip34">
  <rect x="0" y="0" width="20" height="20"/>
</clipPath>
<g id="surface104" clip-path="url(#clip34)">
<path style=" stroke:none;fill-rule:nonzero;fill:rgb(1.568627%,83.137255%,51.764706%);fill-opacity:0.501961;" d="M 3.574219 12.726562 C 3.480469 12.671875 3.386719 12.613281 3.296875 12.550781 C 2.101562 13.488281 1.867188 14.992188 2.769531 15.917969 C 2.855469 16.003906 2.945312 16.085938 3.046875 16.15625 C 3.183594 16.25 3.359375 16.359375 3.519531 16.457031 C 3.386719 16.371094 3.269531 16.273438 3.164062 16.167969 C 2.261719 15.242188 2.445312 13.699219 3.574219 12.726562 Z M 3.574219 12.726562 "/>
</g>
<mask id="mask34">
  <g filter="url(#alpha)">
<rect x="0" y="0" width="20" height="20" style="fill:rgb(0%,0%,0%);fill-opacity:0.901961;stroke:none;"/>
  </g>
</mask>
<clipPath id="clip35">
  <rect x="0" y="0" width="20" height="20"/>
</clipPath>
<g id="surface107" clip-path="url(#clip35)">
<path style=" stroke:none;fill-rule:nonzero;fill:rgb(1.568627%,83.137255%,51.764706%);fill-opacity:0.501961;" d="M 3.03125 12.28125 L 3.027344 12.277344 C 2.953125 12.203125 2.886719 12.125 2.824219 12.042969 C 1.578125 12.804688 1.199219 14.085938 1.894531 15.007812 C 2.023438 15.171875 2.207031 15.375 2.351562 15.53125 L 2.363281 15.546875 L 2.359375 15.539062 C 1.441406 14.613281 1.746094 13.152344 3.03125 12.28125 Z M 3.03125 12.28125 "/>
</g>
</defs>
<g id="surface1">
<path style=" stroke:none;fill-rule:nonzero;fill:rgb(1.568627%,83.137255%,51.764706%);fill-opacity:0.501961;" d="M 4.855469 9.019531 L 4.855469 7.765625 C 4.855469 7.695312 4.84375 7.640625 4.820312 7.597656 C 4.796875 7.554688 4.746094 7.53125 4.664062 7.53125 L 4.621094 7.53125 L 4.621094 7.476562 L 4.882812 7.476562 C 4.945312 7.476562 4.996094 7.484375 5.027344 7.5 C 5.0625 7.515625 5.089844 7.546875 5.101562 7.585938 C 5.117188 7.628906 5.125 7.6875 5.125 7.765625 L 5.125 8.175781 L 5.910156 8.175781 L 5.910156 7.476562 L 6.175781 7.476562 L 6.175781 8.730469 C 6.175781 8.800781 6.1875 8.855469 6.210938 8.902344 C 6.234375 8.941406 6.285156 8.964844 6.367188 8.964844 L 6.414062 8.964844 L 6.414062 9.019531 L 6.152344 9.019531 C 6.089844 9.019531 6.039062 9.011719 6.003906 8.996094 C 5.96875 8.980469 5.945312 8.953125 5.929688 8.910156 C 5.917969 8.867188 5.910156 8.808594 5.910156 8.730469 L 5.910156 8.269531 L 5.125 8.269531 L 5.125 9.019531 Z M 4.855469 9.019531 "/>
<path style=" stroke:none;fill-rule:nonzero;fill:rgb(1.568627%,83.137255%,51.764706%);fill-opacity:0.501961;" d="M 6.523438 9.019531 L 7.269531 7.480469 L 7.285156 7.480469 L 8.03125 9.019531 L 7.75 9.019531 L 7.207031 7.8125 L 7.382812 7.714844 L 6.765625 9.019531 Z M 6.976562 8.464844 L 7.585938 8.464844 L 7.667969 8.648438 L 6.902344 8.648438 Z M 6.976562 8.464844 "/>
<path style=" stroke:none;fill-rule:nonzero;fill:rgb(1.568627%,83.137255%,51.764706%);fill-opacity:0.501961;" d="M 9.390625 8.808594 L 9.964844 8.808594 L 9.964844 9.019531 L 9.066406 9.019531 Z M 8.152344 8.28125 C 8.152344 8.179688 8.175781 8.082031 8.21875 7.992188 C 8.265625 7.898438 8.328125 7.820312 8.40625 7.75 C 8.484375 7.679688 8.578125 7.625 8.683594 7.585938 C 8.789062 7.546875 8.898438 7.523438 9.019531 7.523438 C 9.136719 7.523438 9.25 7.546875 9.351562 7.585938 C 9.460938 7.625 9.550781 7.679688 9.632812 7.75 C 9.714844 7.820312 9.777344 7.898438 9.820312 7.992188 C 9.867188 8.082031 9.890625 8.179688 9.890625 8.28125 C 9.890625 8.386719 9.867188 8.484375 9.820312 8.574219 C 9.777344 8.664062 9.714844 8.746094 9.632812 8.8125 C 9.550781 8.882812 9.460938 8.9375 9.351562 8.976562 C 9.25 9.015625 9.136719 9.035156 9.019531 9.035156 C 8.898438 9.035156 8.789062 9.015625 8.683594 8.976562 C 8.578125 8.9375 8.484375 8.882812 8.40625 8.816406 C 8.328125 8.75 8.265625 8.667969 8.21875 8.578125 C 8.175781 8.484375 8.152344 8.386719 8.152344 8.28125 Z M 8.40625 8.28125 C 8.40625 8.382812 8.433594 8.472656 8.488281 8.554688 C 8.542969 8.636719 8.617188 8.703125 8.710938 8.753906 C 8.804688 8.800781 8.910156 8.824219 9.023438 8.824219 C 9.140625 8.824219 9.242188 8.800781 9.335938 8.753906 C 9.425781 8.703125 9.5 8.636719 9.554688 8.554688 C 9.609375 8.472656 9.636719 8.382812 9.636719 8.28125 C 9.636719 8.207031 9.621094 8.136719 9.585938 8.070312 C 9.554688 8.003906 9.511719 7.945312 9.457031 7.898438 C 9.398438 7.847656 9.335938 7.808594 9.257812 7.78125 C 9.1875 7.75 9.105469 7.738281 9.019531 7.738281 C 8.90625 7.738281 8.800781 7.761719 8.707031 7.8125 C 8.613281 7.859375 8.539062 7.925781 8.484375 8.007812 C 8.433594 8.09375 8.40625 8.183594 8.40625 8.28125 Z M 8.40625 8.28125 "/>
<path style=" stroke:none;fill-rule:nonzero;fill:rgb(1.568627%,83.137255%,51.764706%);fill-opacity:0.501961;" d="M 11.472656 8.808594 L 12.046875 8.808594 L 12.046875 9.019531 L 11.144531 9.019531 Z M 10.234375 8.28125 C 10.234375 8.179688 10.253906 8.082031 10.300781 7.992188 C 10.34375 7.898438 10.40625 7.820312 10.488281 7.75 C 10.566406 7.679688 10.660156 7.625 10.765625 7.585938 C 10.867188 7.546875 10.980469 7.523438 11.097656 7.523438 C 11.21875 7.523438 11.328125 7.546875 11.433594 7.585938 C 11.539062 7.625 11.632812 7.679688 11.714844 7.75 C 11.792969 7.820312 11.859375 7.898438 11.902344 7.992188 C 11.949219 8.082031 11.972656 8.179688 11.972656 8.28125 C 11.972656 8.386719 11.949219 8.484375 11.902344 8.574219 C 11.859375 8.664062 11.792969 8.746094 11.714844 8.8125 C 11.632812 8.882812 11.539062 8.9375 11.433594 8.976562 C 11.328125 9.015625 11.21875 9.035156 11.097656 9.035156 C 10.980469 9.035156 10.867188 9.015625 10.765625 8.976562 C 10.660156 8.9375 10.566406 8.882812 10.488281 8.816406 C 10.40625 8.75 10.34375 8.667969 10.300781 8.578125 C 10.253906 8.484375 10.234375 8.386719 10.234375 8.28125 Z M 10.488281 8.28125 C 10.488281 8.382812 10.515625 8.472656 10.570312 8.554688 C 10.625 8.636719 10.699219 8.703125 10.792969 8.753906 C 10.886719 8.800781 10.992188 8.824219 11.105469 8.824219 C 11.21875 8.824219 11.324219 8.800781 11.414062 8.753906 C 11.507812 8.703125 11.582031 8.636719 11.636719 8.554688 C 11.691406 8.472656 11.71875 8.382812 11.71875 8.28125 C 11.71875 8.207031 11.703125 8.136719 11.667969 8.070312 C 11.636719 8.003906 11.59375 7.945312 11.539062 7.898438 C 11.480469 7.847656 11.414062 7.808594 11.339844 7.78125 C 11.265625 7.75 11.1875 7.738281 11.101562 7.738281 C 10.984375 7.738281 10.882812 7.761719 10.789062 7.8125 C 10.695312 7.859375 10.621094 7.925781 10.566406 8.007812 C 10.515625 8.09375 10.488281 8.183594 10.488281 8.28125 Z M 10.488281 8.28125 "/>
<use xlink:href="#surface5" mask="url(#mask0)"/>
<use xlink:href="#surface8" mask="url(#mask1)"/>
<use xlink:href="#surface11" mask="url(#mask2)"/>
<use xlink:href="#surface14" mask="url(#mask3)"/>
<use xlink:href="#surface17" mask="url(#mask4)"/>
<use xlink:href="#surface20" mask="url(#mask5)"/>
<use xlink:href="#surface23" mask="url(#mask6)"/>
<use xlink:href="#surface26" mask="url(#mask7)"/>
<use xlink:href="#surface29" mask="url(#mask8)"/>
<use xlink:href="#surface32" mask="url(#mask9)"/>
<use xlink:href="#surface35" mask="url(#mask10)"/>
<use xlink:href="#surface38" mask="url(#mask11)"/>
<use xlink:href="#surface41" mask="url(#mask12)"/>
<use xlink:href="#surface44" mask="url(#mask13)"/>
<use xlink:href="#surface47" mask="url(#mask14)"/>
<use xlink:href="#surface50" mask="url(#mask15)"/>
<use xlink:href="#surface53" mask="url(#mask16)"/>
<use xlink:href="#surface56" mask="url(#mask17)"/>
<use xlink:href="#surface59" mask="url(#mask18)"/>
<use xlink:href="#surface62" mask="url(#mask19)"/>
<use xlink:href="#surface65" mask="url(#mask20)"/>
<use xlink:href="#surface68" mask="url(#mask21)"/>
<use xlink:href="#surface71" mask="url(#mask22)"/>
<use xlink:href="#surface74" mask="url(#mask23)"/>
<use xlink:href="#surface77" mask="url(#mask24)"/>
<use xlink:href="#surface80" mask="url(#mask25)"/>
<use xlink:href="#surface83" mask="url(#mask26)"/>
<use xlink:href="#surface86" mask="url(#mask27)"/>
<use xlink:href="#surface89" mask="url(#mask28)"/>
<use xlink:href="#surface92" mask="url(#mask29)"/>
<use xlink:href="#surface95" mask="url(#mask30)"/>
<use xlink:href="#surface98" mask="url(#mask31)"/>
<use xlink:href="#surface101" mask="url(#mask32)"/>
<use xlink:href="#surface104" mask="url(#mask33)"/>
<use xlink:href="#surface107" mask="url(#mask34)"/>
</g>
</svg>
