<?xml version="1.0" encoding="UTF-8"?>
<svg xmlns="http://www.w3.org/2000/svg" xmlns:xlink="http://www.w3.org/1999/xlink" width="10px" height="10px" viewBox="0 0 10 10" version="1.1">
<g id="surface1">
<path style="fill-rule:nonzero;fill:rgb(4.313725%,3.529412%,7.45098%);fill-opacity:1;stroke-width:0.232558;stroke-linecap:butt;stroke-linejoin:miter;stroke:rgb(4.313725%,3.529412%,7.45098%);stroke-opacity:1;stroke-miterlimit:4;" d="M 17.95625 39.690625 C 18.0375 39.690625 18.098437 39.670312 18.159375 39.609375 C 18.2 39.56875 18.220312 39.4875 18.220312 39.426562 C 18.220312 39.365625 18.2 39.284375 18.159375 39.24375 C 18.098437 39.182812 18.0375 39.1625 17.95625 39.1625 C 17.895312 39.1625 17.834375 39.182812 17.773437 39.24375 C 17.732812 39.284375 17.7125 39.365625 17.7125 39.426562 C 17.7125 39.4875 17.732812 39.56875 17.773437 39.609375 C 17.834375 39.670312 17.895312 39.690625 17.95625 39.690625 Z M 17.95625 39.690625 " transform="matrix(0.192308,0,0,0.192308,0,0)"/>
<path style="fill-rule:nonzero;fill:rgb(4.313725%,3.529412%,7.45098%);fill-opacity:1;stroke-width:0.232558;stroke-linecap:butt;stroke-linejoin:miter;stroke:rgb(4.313725%,3.529412%,7.45098%);stroke-opacity:1;stroke-miterlimit:4;" d="M 7.373437 39.914062 C 7.495312 39.914062 7.617187 39.853125 7.71875 39.771875 C 7.8 39.670312 7.860937 39.548437 7.860937 39.426562 C 7.860937 39.284375 7.8 39.1625 7.71875 39.08125 C 7.617187 39 7.495312 38.939062 7.373437 38.939062 C 7.23125 38.939062 7.109375 39 7.028125 39.08125 C 6.946875 39.1625 6.885937 39.284375 6.885937 39.426562 C 6.885937 39.56875 6.926562 39.690625 7.007812 39.792187 C 7.109375 39.873437 7.23125 39.914062 7.373437 39.914062 Z M 7.373437 39.914062 " transform="matrix(0.192308,0,0,0.192308,0,0)"/>
<path style="fill-rule:nonzero;fill:rgb(4.313725%,3.529412%,7.45098%);fill-opacity:1;stroke-width:0.232558;stroke-linecap:butt;stroke-linejoin:miter;stroke:rgb(4.313725%,3.529412%,7.45098%);stroke-opacity:1;stroke-miterlimit:4;" d="M 28.559375 39.690625 C 28.620312 39.690625 28.68125 39.670312 28.742187 39.609375 C 28.803125 39.56875 28.803125 39.4875 28.803125 39.426562 C 28.803125 39.365625 28.803125 39.284375 28.742187 39.24375 C 28.68125 39.182812 28.620312 39.1625 28.559375 39.1625 C 28.498437 39.1625 28.417187 39.182812 28.35625 39.24375 C 28.315625 39.284375 28.295312 39.365625 28.295312 39.426562 C 28.295312 39.4875 28.315625 39.56875 28.35625 39.609375 C 28.417187 39.670312 28.498437 39.690625 28.559375 39.690625 Z M 28.559375 39.690625 " transform="matrix(0.192308,0,0,0.192308,0,0)"/>
<path style="fill-rule:nonzero;fill:rgb(4.313725%,3.529412%,7.45098%);fill-opacity:1;stroke-width:0.232558;stroke-linecap:butt;stroke-linejoin:miter;stroke:rgb(4.313725%,3.529412%,7.45098%);stroke-opacity:1;stroke-miterlimit:4;" d="M 12.675 39.771875 C 12.75625 39.771875 12.857812 39.751562 12.91875 39.670312 C 12.979687 39.609375 13.020312 39.528125 13.020312 39.426562 C 13.020312 39.325 12.979687 39.24375 12.91875 39.1625 C 12.857812 39.101562 12.75625 39.08125 12.675 39.08125 C 12.573437 39.08125 12.471875 39.101562 12.410937 39.1625 C 12.35 39.24375 12.309375 39.325 12.309375 39.426562 C 12.309375 39.528125 12.35 39.609375 12.410937 39.670312 C 12.471875 39.751562 12.573437 39.771875 12.675 39.771875 Z M 12.675 39.771875 " transform="matrix(0.192308,0,0,0.192308,0,0)"/>
<path style="fill-rule:nonzero;fill:rgb(4.313725%,3.529412%,7.45098%);fill-opacity:1;stroke-width:0.232558;stroke-linecap:butt;stroke-linejoin:miter;stroke:rgb(4.313725%,3.529412%,7.45098%);stroke-opacity:1;stroke-miterlimit:4;" d="M 33.840625 40.157812 C 34.246875 40.157812 34.571875 39.8125 34.571875 39.426562 C 34.571875 39.040625 34.246875 38.695312 33.840625 38.695312 C 33.454687 38.695312 33.129687 39.040625 33.129687 39.426562 C 33.129687 39.8125 33.454687 40.157812 33.840625 40.157812 Z M 33.840625 40.157812 " transform="matrix(0.192308,0,0,0.192308,0,0)"/>
<path style="fill-rule:nonzero;fill:rgb(4.313725%,3.529412%,7.45098%);fill-opacity:1;stroke-width:0.232558;stroke-linecap:butt;stroke-linejoin:miter;stroke:rgb(4.313725%,3.529412%,7.45098%);stroke-opacity:1;stroke-miterlimit:4;" d="M 44.44375 40.401562 C 44.971875 40.401562 45.398437 39.954687 45.398437 39.426562 C 45.398437 38.898437 44.971875 38.451562 44.44375 38.451562 C 43.915625 38.451562 43.489062 38.898437 43.489062 39.426562 C 43.489062 39.954687 43.915625 40.401562 44.44375 40.401562 Z M 44.44375 40.401562 " transform="matrix(0.192308,0,0,0.192308,0,0)"/>
<path style="fill-rule:nonzero;fill:rgb(4.313725%,3.529412%,7.45098%);fill-opacity:1;stroke-width:0.232558;stroke-linecap:butt;stroke-linejoin:miter;stroke:rgb(4.313725%,3.529412%,7.45098%);stroke-opacity:1;stroke-miterlimit:4;" d="M 39.142187 40.625 C 39.8125 40.625 40.340625 40.096875 40.340625 39.426562 C 40.340625 38.75625 39.8125 38.228125 39.142187 38.228125 C 38.471875 38.228125 37.94375 38.75625 37.94375 39.426562 C 37.94375 40.096875 38.5125 40.625 39.142187 40.625 Z M 39.142187 40.625 " transform="matrix(0.192308,0,0,0.192308,0,0)"/>
<path style="fill-rule:nonzero;fill:rgb(4.313725%,3.529412%,7.45098%);fill-opacity:1;stroke-width:0.232558;stroke-linecap:butt;stroke-linejoin:miter;stroke:rgb(4.313725%,3.529412%,7.45098%);stroke-opacity:1;stroke-miterlimit:4;" d="M 2.071875 40.05625 C 2.417187 40.05625 2.701562 39.771875 2.701562 39.426562 C 2.701562 39.08125 2.417187 38.796875 2.071875 38.796875 C 1.726562 38.796875 1.442187 39.08125 1.442187 39.426562 C 1.442187 39.629687 1.523437 39.771875 1.625 39.89375 C 1.746875 40.015625 1.909375 40.05625 2.071875 40.05625 Z M 2.071875 40.05625 " transform="matrix(0.192308,0,0,0.192308,0,0)"/>
<path style="fill-rule:nonzero;fill:rgb(4.313725%,3.529412%,7.45098%);fill-opacity:1;stroke-width:0.232558;stroke-linecap:butt;stroke-linejoin:miter;stroke:rgb(4.313725%,3.529412%,7.45098%);stroke-opacity:1;stroke-miterlimit:4;" d="M 49.725 40.54375 C 50.354687 40.54375 50.842187 40.05625 50.842187 39.426562 C 50.842187 38.796875 50.354687 38.309375 49.725 38.309375 C 49.115625 38.309375 48.628125 38.796875 48.628125 39.426562 C 48.628125 40.015625 49.15625 40.54375 49.725 40.54375 Z M 49.725 40.54375 " transform="matrix(0.192308,0,0,0.192308,0,0)"/>
<path style="fill-rule:nonzero;fill:rgb(4.313725%,3.529412%,7.45098%);fill-opacity:1;stroke-width:0.232558;stroke-linecap:butt;stroke-linejoin:miter;stroke:rgb(4.313725%,3.529412%,7.45098%);stroke-opacity:1;stroke-miterlimit:4;" d="M 17.95625 34.328125 C 18.0375 34.328125 18.098437 34.328125 18.159375 34.267187 C 18.2 34.20625 18.220312 34.145312 18.220312 34.084375 C 18.220312 34.003125 18.2 33.942187 18.159375 33.88125 C 18.098437 33.840625 18.0375 33.820312 17.95625 33.820312 C 17.895312 33.820312 17.834375 33.840625 17.773437 33.88125 C 17.732812 33.942187 17.7125 34.003125 17.7125 34.084375 C 17.7125 34.125 17.732812 34.185937 17.773437 34.246875 C 17.814062 34.2875 17.875 34.328125 17.95625 34.328125 Z M 17.95625 34.328125 " transform="matrix(0.192308,0,0,0.192308,0,0)"/>
<path style="fill-rule:nonzero;fill:rgb(4.313725%,3.529412%,7.45098%);fill-opacity:1;stroke-width:0.232558;stroke-linecap:butt;stroke-linejoin:miter;stroke:rgb(4.313725%,3.529412%,7.45098%);stroke-opacity:1;stroke-miterlimit:4;" d="M 7.373437 34.714062 C 7.71875 34.714062 8.003125 34.429687 8.003125 34.084375 C 8.003125 33.739062 7.71875 33.434375 7.373437 33.434375 C 7.028125 33.434375 6.74375 33.739062 6.74375 34.084375 C 6.74375 34.267187 6.804687 34.429687 6.926562 34.551562 C 7.048437 34.653125 7.210937 34.714062 7.373437 34.714062 Z M 7.373437 34.714062 " transform="matrix(0.192308,0,0,0.192308,0,0)"/>
<path style="fill-rule:nonzero;fill:rgb(4.313725%,3.529412%,7.45098%);fill-opacity:1;stroke-width:0.232558;stroke-linecap:butt;stroke-linejoin:miter;stroke:rgb(4.313725%,3.529412%,7.45098%);stroke-opacity:1;stroke-miterlimit:4;" d="M 28.559375 34.815625 C 28.945312 34.815625 29.270312 34.470312 29.270312 34.084375 C 29.270312 33.678125 28.945312 33.353125 28.559375 33.353125 C 28.153125 33.353125 27.828125 33.678125 27.828125 34.084375 C 27.828125 34.470312 28.153125 34.815625 28.559375 34.815625 Z M 28.559375 34.815625 " transform="matrix(0.192308,0,0,0.192308,0,0)"/>
<path style="fill-rule:nonzero;fill:rgb(4.313725%,3.529412%,7.45098%);fill-opacity:1;stroke-width:0.232558;stroke-linecap:butt;stroke-linejoin:miter;stroke:rgb(4.313725%,3.529412%,7.45098%);stroke-opacity:1;stroke-miterlimit:4;" d="M 23.257812 34.328125 C 23.31875 34.328125 23.4 34.328125 23.440625 34.267187 C 23.501562 34.20625 23.521875 34.145312 23.521875 34.084375 C 23.521875 34.003125 23.501562 33.942187 23.440625 33.88125 C 23.4 33.840625 23.31875 33.820312 23.257812 33.820312 C 23.196875 33.820312 23.115625 33.840625 23.075 33.88125 C 23.014062 33.942187 22.99375 34.003125 22.99375 34.084375 C 22.99375 34.125 23.034375 34.185937 23.054687 34.246875 C 23.095312 34.2875 23.176562 34.328125 23.257812 34.328125 Z M 23.257812 34.328125 " transform="matrix(0.192308,0,0,0.192308,0,0)"/>
<path style="fill-rule:nonzero;fill:rgb(4.313725%,3.529412%,7.45098%);fill-opacity:1;stroke-width:0.232558;stroke-linecap:butt;stroke-linejoin:miter;stroke:rgb(4.313725%,3.529412%,7.45098%);stroke-opacity:1;stroke-miterlimit:4;" d="M 12.675 34.571875 C 12.979687 34.571875 13.1625 34.328125 13.1625 34.084375 C 13.1625 33.759375 12.91875 33.576562 12.675 33.576562 C 12.532812 33.576562 12.410937 33.657812 12.329687 33.739062 C 12.248437 33.820312 12.167187 33.942187 12.167187 34.084375 C 12.167187 34.328125 12.35 34.571875 12.675 34.571875 Z M 12.675 34.571875 " transform="matrix(0.192308,0,0,0.192308,0,0)"/>
<path style="fill-rule:nonzero;fill:rgb(4.313725%,3.529412%,7.45098%);fill-opacity:1;stroke-width:0.232558;stroke-linecap:butt;stroke-linejoin:miter;stroke:rgb(4.313725%,3.529412%,7.45098%);stroke-opacity:1;stroke-miterlimit:4;" d="M 33.840625 35.282812 C 34.53125 35.282812 35.039062 34.754687 35.039062 34.084375 C 35.039062 33.39375 34.53125 32.865625 33.840625 32.865625 C 33.170312 32.865625 32.6625 33.39375 32.6625 34.084375 C 32.6625 34.754687 33.23125 35.282812 33.840625 35.282812 Z M 33.840625 35.282812 " transform="matrix(0.192308,0,0,0.192308,0,0)"/>
<path style="fill-rule:nonzero;fill:rgb(4.313725%,3.529412%,7.45098%);fill-opacity:1;stroke-width:0.232558;stroke-linecap:butt;stroke-linejoin:miter;stroke:rgb(4.313725%,3.529412%,7.45098%);stroke-opacity:1;stroke-miterlimit:4;" d="M 44.44375 34.815625 C 44.829687 34.815625 45.175 34.470312 45.175 34.084375 C 45.175 33.678125 44.829687 33.353125 44.44375 33.353125 C 44.0375 33.353125 43.7125 33.678125 43.7125 34.084375 C 43.7125 34.470312 44.0375 34.815625 44.44375 34.815625 Z M 44.44375 34.815625 " transform="matrix(0.192308,0,0,0.192308,0,0)"/>
<path style="fill-rule:nonzero;fill:rgb(4.313725%,3.529412%,7.45098%);fill-opacity:1;stroke-width:0.232558;stroke-linecap:butt;stroke-linejoin:miter;stroke:rgb(4.313725%,3.529412%,7.45098%);stroke-opacity:1;stroke-miterlimit:4;" d="M 39.142187 34.815625 C 39.528125 34.815625 39.873437 34.470312 39.873437 34.084375 C 39.873437 33.678125 39.528125 33.353125 39.142187 33.353125 C 38.75625 33.353125 38.410937 33.678125 38.410937 34.084375 C 38.410937 34.470312 38.75625 34.815625 39.142187 34.815625 Z M 39.142187 34.815625 " transform="matrix(0.192308,0,0,0.192308,0,0)"/>
<path style="fill-rule:nonzero;fill:rgb(4.313725%,3.529412%,7.45098%);fill-opacity:1;stroke-width:0.232558;stroke-linecap:butt;stroke-linejoin:miter;stroke:rgb(4.313725%,3.529412%,7.45098%);stroke-opacity:1;stroke-miterlimit:4;" d="M 2.071875 34.896875 C 2.51875 34.896875 2.904687 34.510937 2.904687 34.084375 C 2.904687 33.6375 2.51875 33.251562 2.071875 33.251562 C 1.645312 33.251562 1.259375 33.6375 1.259375 34.064062 C 1.239062 34.307812 1.320312 34.53125 1.4625 34.673437 C 1.625 34.815625 1.848437 34.896875 2.071875 34.896875 Z M 2.071875 34.896875 " transform="matrix(0.192308,0,0,0.192308,0,0)"/>
<path style="fill-rule:nonzero;fill:rgb(4.313725%,3.529412%,7.45098%);fill-opacity:1;stroke-width:0.232558;stroke-linecap:butt;stroke-linejoin:miter;stroke:rgb(4.313725%,3.529412%,7.45098%);stroke-opacity:1;stroke-miterlimit:4;" d="M 49.725 35.1 C 50.314062 35.1 50.740625 34.6125 50.740625 34.084375 C 50.740625 33.495312 50.273437 33.06875 49.725 33.06875 C 49.15625 33.06875 48.729687 33.535937 48.729687 34.084375 C 48.729687 34.673437 49.196875 35.1 49.725 35.1 Z M 49.725 35.1 " transform="matrix(0.192308,0,0,0.192308,0,0)"/>
<path style="fill-rule:nonzero;fill:rgb(4.313725%,3.529412%,7.45098%);fill-opacity:1;stroke-width:0.232558;stroke-linecap:butt;stroke-linejoin:miter;stroke:rgb(4.313725%,3.529412%,7.45098%);stroke-opacity:1;stroke-miterlimit:4;" d="M 17.95625 29.026562 C 18.0375 29.026562 18.098437 29.026562 18.159375 28.965625 C 18.2 28.904687 18.220312 28.84375 18.220312 28.782812 C 18.220312 28.721875 18.2 28.640625 18.159375 28.579687 C 18.098437 28.539062 18.0375 28.51875 17.95625 28.51875 C 17.895312 28.51875 17.834375 28.539062 17.773437 28.579687 C 17.732812 28.640625 17.7125 28.721875 17.7125 28.782812 C 17.7125 28.84375 17.732812 28.904687 17.773437 28.965625 C 17.834375 29.026562 17.895312 29.026562 17.95625 29.026562 Z M 17.95625 29.026562 " transform="matrix(0.192308,0,0,0.192308,0,0)"/>
<path style="fill-rule:nonzero;fill:rgb(4.313725%,3.529412%,7.45098%);fill-opacity:1;stroke-width:0.232558;stroke-linecap:butt;stroke-linejoin:miter;stroke:rgb(4.313725%,3.529412%,7.45098%);stroke-opacity:1;stroke-miterlimit:4;" d="M 7.373437 29.514062 C 7.759375 29.514062 8.104687 29.16875 8.104687 28.782812 C 8.104687 28.376562 7.759375 28.051562 7.373437 28.051562 C 6.9875 28.051562 6.642187 28.376562 6.642187 28.782812 C 6.642187 29.16875 6.9875 29.514062 7.373437 29.514062 Z M 7.373437 29.514062 " transform="matrix(0.192308,0,0,0.192308,0,0)"/>
<path style="fill-rule:nonzero;fill:rgb(4.313725%,3.529412%,7.45098%);fill-opacity:1;stroke-width:0.232558;stroke-linecap:butt;stroke-linejoin:miter;stroke:rgb(4.313725%,3.529412%,7.45098%);stroke-opacity:1;stroke-miterlimit:4;" d="M 28.559375 29.98125 C 29.229687 29.98125 29.757812 29.453125 29.757812 28.782812 C 29.757812 28.092187 29.229687 27.564062 28.559375 27.564062 C 27.889062 27.564062 27.360937 28.092187 27.360937 28.782812 C 27.360937 29.453125 27.929687 29.98125 28.559375 29.98125 Z M 28.559375 29.98125 " transform="matrix(0.192308,0,0,0.192308,0,0)"/>
<path style="fill-rule:nonzero;fill:rgb(4.313725%,3.529412%,7.45098%);fill-opacity:1;stroke-width:0.232558;stroke-linecap:butt;stroke-linejoin:miter;stroke:rgb(4.313725%,3.529412%,7.45098%);stroke-opacity:1;stroke-miterlimit:4;" d="M 23.257812 29.514062 C 23.64375 29.514062 23.989062 29.16875 23.989062 28.782812 C 23.989062 28.376562 23.64375 28.051562 23.257812 28.051562 C 22.871875 28.051562 22.526562 28.376562 22.526562 28.782812 C 22.526562 29.16875 22.871875 29.514062 23.257812 29.514062 Z M 23.257812 29.514062 " transform="matrix(0.192308,0,0,0.192308,0,0)"/>
<path style="fill-rule:nonzero;fill:rgb(4.313725%,3.529412%,7.45098%);fill-opacity:1;stroke-width:0.232558;stroke-linecap:butt;stroke-linejoin:miter;stroke:rgb(4.313725%,3.529412%,7.45098%);stroke-opacity:1;stroke-miterlimit:4;" d="M 12.675 29.270312 C 12.979687 29.270312 13.1625 29.026562 13.1625 28.782812 C 13.1625 28.478125 12.91875 28.275 12.675 28.275 C 12.532812 28.275 12.410937 28.35625 12.329687 28.4375 C 12.248437 28.51875 12.167187 28.640625 12.167187 28.782812 C 12.167187 29.026562 12.35 29.270312 12.675 29.270312 Z M 12.675 29.270312 " transform="matrix(0.192308,0,0,0.192308,0,0)"/>
<path style="fill-rule:nonzero;fill:rgb(4.313725%,3.529412%,7.45098%);fill-opacity:1;stroke-width:0.232558;stroke-linecap:butt;stroke-linejoin:miter;stroke:rgb(4.313725%,3.529412%,7.45098%);stroke-opacity:1;stroke-miterlimit:4;" d="M 33.840625 29.514062 C 34.246875 29.514062 34.571875 29.16875 34.571875 28.782812 C 34.571875 28.376562 34.246875 28.051562 33.840625 28.051562 C 33.454687 28.051562 33.129687 28.376562 33.129687 28.782812 C 33.129687 29.16875 33.454687 29.514062 33.840625 29.514062 Z M 33.840625 29.514062 " transform="matrix(0.192308,0,0,0.192308,0,0)"/>
<path style="fill-rule:nonzero;fill:rgb(4.313725%,3.529412%,7.45098%);fill-opacity:1;stroke-width:0.232558;stroke-linecap:butt;stroke-linejoin:miter;stroke:rgb(4.313725%,3.529412%,7.45098%);stroke-opacity:1;stroke-miterlimit:4;" d="M 44.44375 29.514062 C 44.829687 29.514062 45.175 29.16875 45.175 28.782812 C 45.175 28.376562 44.829687 28.051562 44.44375 28.051562 C 44.0375 28.051562 43.7125 28.376562 43.7125 28.782812 C 43.7125 29.16875 44.0375 29.514062 44.44375 29.514062 Z M 44.44375 29.514062 " transform="matrix(0.192308,0,0,0.192308,0,0)"/>
<path style="fill-rule:nonzero;fill:rgb(4.313725%,3.529412%,7.45098%);fill-opacity:1;stroke-width:0.232558;stroke-linecap:butt;stroke-linejoin:miter;stroke:rgb(4.313725%,3.529412%,7.45098%);stroke-opacity:1;stroke-miterlimit:4;" d="M 39.142187 29.270312 C 39.446875 29.270312 39.629687 29.026562 39.629687 28.782812 C 39.629687 28.640625 39.56875 28.51875 39.4875 28.4375 C 39.40625 28.35625 39.284375 28.275 39.142187 28.275 C 38.8375 28.275 38.654687 28.539062 38.654687 28.782812 C 38.654687 28.904687 38.715625 29.026562 38.796875 29.128125 C 38.898437 29.209375 39.020312 29.270312 39.142187 29.270312 Z M 39.142187 29.270312 " transform="matrix(0.192308,0,0,0.192308,0,0)"/>
<path style="fill-rule:nonzero;fill:rgb(4.313725%,3.529412%,7.45098%);fill-opacity:1;stroke-width:0.232558;stroke-linecap:butt;stroke-linejoin:miter;stroke:rgb(4.313725%,3.529412%,7.45098%);stroke-opacity:1;stroke-miterlimit:4;" d="M 2.071875 29.7375 C 2.620312 29.7375 2.985937 29.310937 2.985937 28.782812 C 2.985937 28.234375 2.559375 27.807812 2.03125 27.807812 C 1.503125 27.807812 1.076562 28.234375 1.076562 28.782812 C 1.076562 29.33125 1.54375 29.7375 2.071875 29.7375 Z M 2.071875 29.7375 " transform="matrix(0.192308,0,0,0.192308,0,0)"/>
<path style="fill-rule:nonzero;fill:rgb(4.313725%,3.529412%,7.45098%);fill-opacity:1;stroke-width:0.232558;stroke-linecap:butt;stroke-linejoin:miter;stroke:rgb(4.313725%,3.529412%,7.45098%);stroke-opacity:1;stroke-miterlimit:4;" d="M 49.725 29.7375 C 50.273437 29.7375 50.7 29.310937 50.7 28.782812 C 50.7 28.234375 50.273437 27.807812 49.725 27.807812 C 49.196875 27.807812 48.770312 28.234375 48.770312 28.782812 C 48.770312 29.310937 49.196875 29.7375 49.725 29.7375 Z M 49.725 29.7375 " transform="matrix(0.192308,0,0,0.192308,0,0)"/>
<path style="fill-rule:nonzero;fill:rgb(4.313725%,3.529412%,7.45098%);fill-opacity:1;stroke-width:0.232558;stroke-linecap:butt;stroke-linejoin:miter;stroke:rgb(4.313725%,3.529412%,7.45098%);stroke-opacity:1;stroke-miterlimit:4;" d="M 17.95625 24.171875 C 18.3625 24.171875 18.6875 23.826562 18.6875 23.420312 C 18.6875 23.2375 18.60625 23.034375 18.484375 22.892187 C 18.342187 22.75 18.159375 22.648437 17.95625 22.648437 C 17.570312 22.648437 17.245312 22.99375 17.245312 23.379687 C 17.245312 23.582812 17.326562 23.765625 17.448437 23.907812 C 17.570312 24.05 17.753125 24.171875 17.95625 24.171875 Z M 17.95625 24.171875 " transform="matrix(0.192308,0,0,0.192308,0,0)"/>
<path style="fill-rule:nonzero;fill:rgb(4.313725%,3.529412%,7.45098%);fill-opacity:1;stroke-width:0.232558;stroke-linecap:butt;stroke-linejoin:miter;stroke:rgb(4.313725%,3.529412%,7.45098%);stroke-opacity:1;stroke-miterlimit:4;" d="M 7.373437 24.171875 C 7.759375 24.171875 8.104687 23.826562 8.104687 23.420312 C 8.104687 23.2375 8.023437 23.034375 7.88125 22.892187 C 7.759375 22.75 7.576562 22.648437 7.373437 22.648437 C 6.9875 22.648437 6.642187 22.99375 6.642187 23.379687 C 6.642187 23.582812 6.723437 23.765625 6.865625 23.907812 C 6.9875 24.05 7.170312 24.171875 7.373437 24.171875 Z M 7.373437 24.171875 " transform="matrix(0.192308,0,0,0.192308,0,0)"/>
<path style="fill-rule:nonzero;fill:rgb(4.313725%,3.529412%,7.45098%);fill-opacity:1;stroke-width:0.232558;stroke-linecap:butt;stroke-linejoin:miter;stroke:rgb(4.313725%,3.529412%,7.45098%);stroke-opacity:1;stroke-miterlimit:4;" d="M 28.559375 24.171875 C 28.945312 24.171875 29.270312 23.826562 29.270312 23.420312 C 29.270312 23.034375 28.945312 22.689062 28.559375 22.689062 C 28.153125 22.689062 27.828125 23.034375 27.828125 23.420312 C 27.828125 23.826562 28.153125 24.171875 28.559375 24.171875 Z M 28.559375 24.171875 " transform="matrix(0.192308,0,0,0.192308,0,0)"/>
<path style="fill-rule:nonzero;fill:rgb(4.313725%,3.529412%,7.45098%);fill-opacity:1;stroke-width:0.232558;stroke-linecap:butt;stroke-linejoin:miter;stroke:rgb(4.313725%,3.529412%,7.45098%);stroke-opacity:1;stroke-miterlimit:4;" d="M 23.257812 24.639062 C 23.928125 24.639062 24.45625 24.110937 24.45625 23.420312 C 24.45625 22.75 23.928125 22.221875 23.257812 22.221875 C 22.5875 22.221875 22.059375 22.75 22.059375 23.420312 C 22.059375 24.110937 22.5875 24.639062 23.257812 24.639062 Z M 23.257812 24.639062 " transform="matrix(0.192308,0,0,0.192308,0,0)"/>
<path style="fill-rule:nonzero;fill:rgb(4.313725%,3.529412%,7.45098%);fill-opacity:1;stroke-width:0.232558;stroke-linecap:butt;stroke-linejoin:miter;stroke:rgb(4.313725%,3.529412%,7.45098%);stroke-opacity:1;stroke-miterlimit:4;" d="M 12.675 23.928125 C 12.979687 23.928125 13.1625 23.664062 13.1625 23.440625 C 13.1625 23.298437 13.101562 23.176562 13 23.095312 C 12.91875 22.99375 12.796875 22.932812 12.675 22.932812 C 12.532812 22.932812 12.410937 22.99375 12.329687 23.095312 C 12.248437 23.176562 12.167187 23.298437 12.167187 23.440625 C 12.167187 23.664062 12.35 23.928125 12.675 23.928125 Z M 12.675 23.928125 " transform="matrix(0.192308,0,0,0.192308,0,0)"/>
<path style="fill-rule:nonzero;fill:rgb(4.313725%,3.529412%,7.45098%);fill-opacity:1;stroke-width:0.232558;stroke-linecap:butt;stroke-linejoin:miter;stroke:rgb(4.313725%,3.529412%,7.45098%);stroke-opacity:1;stroke-miterlimit:4;" d="M 33.840625 23.684375 C 33.921875 23.684375 33.982812 23.664062 34.04375 23.623437 C 34.084375 23.5625 34.104687 23.501562 34.104687 23.420312 C 34.104687 23.359375 34.084375 23.298437 34.04375 23.2375 C 33.982812 23.196875 33.921875 23.176562 33.840625 23.176562 C 33.779687 23.176562 33.71875 23.196875 33.657812 23.2375 C 33.617187 23.298437 33.596875 23.359375 33.596875 23.420312 C 33.596875 23.521875 33.6375 23.582812 33.678125 23.623437 C 33.739062 23.664062 33.8 23.684375 33.840625 23.684375 Z M 33.840625 23.684375 " transform="matrix(0.192308,0,0,0.192308,0,0)"/>
<path style="fill-rule:nonzero;fill:rgb(4.313725%,3.529412%,7.45098%);fill-opacity:1;stroke-width:0.232558;stroke-linecap:butt;stroke-linejoin:miter;stroke:rgb(4.313725%,3.529412%,7.45098%);stroke-opacity:1;stroke-miterlimit:4;" d="M 44.44375 24.171875 C 44.829687 24.171875 45.175 23.826562 45.175 23.420312 C 45.175 23.034375 44.829687 22.689062 44.44375 22.689062 C 44.0375 22.689062 43.7125 23.034375 43.7125 23.420312 C 43.7125 23.826562 44.0375 24.171875 44.44375 24.171875 Z M 44.44375 24.171875 " transform="matrix(0.192308,0,0,0.192308,0,0)"/>
<path style="fill-rule:nonzero;fill:rgb(4.313725%,3.529412%,7.45098%);fill-opacity:1;stroke-width:0.232558;stroke-linecap:butt;stroke-linejoin:miter;stroke:rgb(4.313725%,3.529412%,7.45098%);stroke-opacity:1;stroke-miterlimit:4;" d="M 39.142187 23.928125 C 39.446875 23.928125 39.629687 23.664062 39.629687 23.440625 C 39.629687 23.298437 39.56875 23.176562 39.4875 23.095312 C 39.40625 22.99375 39.284375 22.932812 39.142187 22.932812 C 38.8375 22.932812 38.654687 23.196875 38.654687 23.440625 C 38.654687 23.5625 38.715625 23.684375 38.796875 23.765625 C 38.898437 23.867187 39.020312 23.928125 39.142187 23.928125 Z M 39.142187 23.928125 " transform="matrix(0.192308,0,0,0.192308,0,0)"/>
<path style="fill-rule:nonzero;fill:rgb(4.313725%,3.529412%,7.45098%);fill-opacity:1;stroke-width:0.232558;stroke-linecap:butt;stroke-linejoin:miter;stroke:rgb(4.313725%,3.529412%,7.45098%);stroke-opacity:1;stroke-miterlimit:4;" d="M 2.071875 24.395312 C 2.620312 24.395312 3.046875 23.96875 3.046875 23.420312 C 3.046875 22.892187 2.620312 22.465625 2.071875 22.465625 C 1.54375 22.465625 1.117187 22.892187 1.117187 23.420312 C 1.117187 23.96875 1.54375 24.395312 2.071875 24.395312 Z M 2.071875 24.395312 " transform="matrix(0.192308,0,0,0.192308,0,0)"/>
<path style="fill-rule:nonzero;fill:rgb(4.313725%,3.529412%,7.45098%);fill-opacity:1;stroke-width:0.232558;stroke-linecap:butt;stroke-linejoin:miter;stroke:rgb(4.313725%,3.529412%,7.45098%);stroke-opacity:1;stroke-miterlimit:4;" d="M 48.770312 23.420312 L 48.770312 23.440625 C 48.83125 23.96875 49.2375 24.395312 49.725 24.395312 C 50.273437 24.395312 50.7 23.96875 50.7 23.420312 C 50.7 22.892187 50.273437 22.465625 49.725 22.465625 C 49.196875 22.465625 48.770312 22.892187 48.770312 23.420312 Z M 48.770312 23.420312 " transform="matrix(0.192308,0,0,0.192308,0,0)"/>
<path style="fill-rule:nonzero;fill:rgb(4.313725%,3.529412%,7.45098%);fill-opacity:1;stroke-width:0.232558;stroke-linecap:butt;stroke-linejoin:miter;stroke:rgb(4.313725%,3.529412%,7.45098%);stroke-opacity:1;stroke-miterlimit:4;" d="M 17.95625 19.296875 C 18.646875 19.296875 19.154687 18.76875 19.154687 18.078125 C 19.154687 17.407812 18.646875 16.879687 17.95625 16.879687 C 17.285937 16.879687 16.778125 17.407812 16.778125 18.078125 C 16.778125 18.76875 17.285937 19.296875 17.95625 19.296875 Z M 17.95625 19.296875 " transform="matrix(0.192308,0,0,0.192308,0,0)"/>
<path style="fill-rule:nonzero;fill:rgb(4.313725%,3.529412%,7.45098%);fill-opacity:1;stroke-width:0.232558;stroke-linecap:butt;stroke-linejoin:miter;stroke:rgb(4.313725%,3.529412%,7.45098%);stroke-opacity:1;stroke-miterlimit:4;" d="M 7.373437 18.809375 C 7.759375 18.809375 8.104687 18.484375 8.104687 18.078125 C 8.104687 17.692187 7.759375 17.346875 7.373437 17.346875 C 6.9875 17.346875 6.642187 17.692187 6.642187 18.078125 C 6.642187 18.484375 6.9875 18.809375 7.373437 18.809375 Z M 7.373437 18.809375 " transform="matrix(0.192308,0,0,0.192308,0,0)"/>
<path style="fill-rule:nonzero;fill:rgb(4.313725%,3.529412%,7.45098%);fill-opacity:1;stroke-width:0.232558;stroke-linecap:butt;stroke-linejoin:miter;stroke:rgb(4.313725%,3.529412%,7.45098%);stroke-opacity:1;stroke-miterlimit:4;" d="M 23.257812 18.809375 C 23.64375 18.809375 23.989062 18.484375 23.989062 18.078125 C 23.989062 17.692187 23.64375 17.346875 23.257812 17.346875 C 22.871875 17.346875 22.526562 17.692187 22.526562 18.078125 C 22.526562 18.484375 22.871875 18.809375 23.257812 18.809375 Z M 23.257812 18.809375 " transform="matrix(0.192308,0,0,0.192308,0,0)"/>
<path style="fill-rule:nonzero;fill:rgb(4.313725%,3.529412%,7.45098%);fill-opacity:1;stroke-width:0.232558;stroke-linecap:butt;stroke-linejoin:miter;stroke:rgb(4.313725%,3.529412%,7.45098%);stroke-opacity:1;stroke-miterlimit:4;" d="M 12.675 18.809375 C 13.060937 18.809375 13.385937 18.484375 13.385937 18.078125 C 13.385937 17.692187 13.060937 17.346875 12.675 17.346875 C 12.26875 17.346875 11.94375 17.692187 11.94375 18.078125 C 11.94375 18.484375 12.26875 18.809375 12.675 18.809375 Z M 12.675 18.809375 " transform="matrix(0.192308,0,0,0.192308,0,0)"/>
<path style="fill-rule:nonzero;fill:rgb(4.313725%,3.529412%,7.45098%);fill-opacity:1;stroke-width:0.232558;stroke-linecap:butt;stroke-linejoin:miter;stroke:rgb(4.313725%,3.529412%,7.45098%);stroke-opacity:1;stroke-miterlimit:4;" d="M 33.840625 18.342187 C 33.921875 18.342187 33.982812 18.321875 34.04375 18.28125 C 34.084375 18.220312 34.104687 18.139062 34.104687 18.078125 C 34.104687 18.017187 34.084375 17.95625 34.04375 17.895312 C 33.982812 17.834375 33.921875 17.834375 33.840625 17.834375 C 33.779687 17.834375 33.71875 17.834375 33.657812 17.895312 C 33.617187 17.95625 33.596875 18.017187 33.596875 18.078125 C 33.596875 18.11875 33.617187 18.159375 33.617187 18.179687 C 33.6375 18.220312 33.657812 18.240625 33.678125 18.260937 C 33.698437 18.28125 33.71875 18.301562 33.739062 18.301562 C 33.759375 18.321875 33.8 18.342187 33.840625 18.342187 Z M 33.840625 18.342187 " transform="matrix(0.192308,0,0,0.192308,0,0)"/>
<path style="fill-rule:nonzero;fill:rgb(4.313725%,3.529412%,7.45098%);fill-opacity:1;stroke-width:0.232558;stroke-linecap:butt;stroke-linejoin:miter;stroke:rgb(4.313725%,3.529412%,7.45098%);stroke-opacity:1;stroke-miterlimit:4;" d="M 43.814062 18.078125 L 43.814062 18.098437 C 43.834375 18.28125 43.895312 18.44375 44.017187 18.545312 C 44.11875 18.667187 44.260937 18.728125 44.44375 18.728125 C 44.789062 18.728125 45.073437 18.423437 45.073437 18.078125 C 45.073437 17.732812 44.789062 17.448437 44.44375 17.448437 C 44.098437 17.448437 43.814062 17.732812 43.814062 18.078125 Z M 43.814062 18.078125 " transform="matrix(0.192308,0,0,0.192308,0,0)"/>
<path style="fill-rule:nonzero;fill:rgb(4.313725%,3.529412%,7.45098%);fill-opacity:1;stroke-width:0.232558;stroke-linecap:butt;stroke-linejoin:miter;stroke:rgb(4.313725%,3.529412%,7.45098%);stroke-opacity:1;stroke-miterlimit:4;" d="M 39.142187 18.585937 C 39.446875 18.585937 39.629687 18.321875 39.629687 18.078125 C 39.629687 17.95625 39.56875 17.834375 39.4875 17.732812 C 39.40625 17.651562 39.284375 17.590625 39.142187 17.590625 C 38.8375 17.590625 38.654687 17.834375 38.654687 18.078125 C 38.654687 18.220312 38.715625 18.342187 38.796875 18.423437 C 38.898437 18.504687 39.020312 18.585937 39.142187 18.585937 Z M 39.142187 18.585937 " transform="matrix(0.192308,0,0,0.192308,0,0)"/>
<path style="fill-rule:nonzero;fill:rgb(4.313725%,3.529412%,7.45098%);fill-opacity:1;stroke-width:0.232558;stroke-linecap:butt;stroke-linejoin:miter;stroke:rgb(4.313725%,3.529412%,7.45098%);stroke-opacity:1;stroke-miterlimit:4;" d="M 2.071875 19.09375 C 2.660937 19.09375 3.0875 18.60625 3.0875 18.078125 C 3.0875 17.489062 2.6 17.0625 2.071875 17.0625 C 1.54375 17.0625 1.076562 17.55 1.076562 18.078125 C 1.076562 18.667187 1.503125 19.09375 2.071875 19.09375 Z M 2.071875 19.09375 " transform="matrix(0.192308,0,0,0.192308,0,0)"/>
<path style="fill-rule:nonzero;fill:rgb(4.313725%,3.529412%,7.45098%);fill-opacity:1;stroke-width:0.232558;stroke-linecap:butt;stroke-linejoin:miter;stroke:rgb(4.313725%,3.529412%,7.45098%);stroke-opacity:1;stroke-miterlimit:4;" d="M 49.725 18.910937 C 50.171875 18.910937 50.557812 18.525 50.557812 18.078125 C 50.557812 17.63125 50.171875 17.265625 49.725 17.265625 C 49.298437 17.265625 48.9125 17.63125 48.9125 18.078125 C 48.9125 18.525 49.298437 18.910937 49.725 18.910937 Z M 49.725 18.910937 " transform="matrix(0.192308,0,0,0.192308,0,0)"/>
<path style="fill-rule:nonzero;fill:rgb(4.313725%,3.529412%,7.45098%);fill-opacity:1;stroke-width:0.232558;stroke-linecap:butt;stroke-linejoin:miter;stroke:rgb(4.313725%,3.529412%,7.45098%);stroke-opacity:1;stroke-miterlimit:4;" d="M 17.95625 13.467187 C 18.3625 13.467187 18.6875 13.121875 18.6875 12.735937 C 18.6875 12.35 18.3625 12.004687 17.95625 12.004687 C 17.570312 12.004687 17.245312 12.35 17.245312 12.735937 C 17.245312 13.121875 17.570312 13.467187 17.95625 13.467187 Z M 17.95625 13.467187 " transform="matrix(0.192308,0,0,0.192308,0,0)"/>
<path style="fill-rule:nonzero;fill:rgb(4.313725%,3.529412%,7.45098%);fill-opacity:1;stroke-width:0.232558;stroke-linecap:butt;stroke-linejoin:miter;stroke:rgb(4.313725%,3.529412%,7.45098%);stroke-opacity:1;stroke-miterlimit:4;" d="M 7.373437 13.710937 C 7.901562 13.710937 8.328125 13.264062 8.328125 12.735937 C 8.328125 12.207812 7.901562 11.760937 7.373437 11.760937 C 6.845312 11.760937 6.41875 12.207812 6.41875 12.735937 C 6.41875 13.264062 6.845312 13.710937 7.373437 13.710937 Z M 7.373437 13.710937 " transform="matrix(0.192308,0,0,0.192308,0,0)"/>
<path style="fill-rule:nonzero;fill:rgb(4.313725%,3.529412%,7.45098%);fill-opacity:1;stroke-width:0.232558;stroke-linecap:butt;stroke-linejoin:miter;stroke:rgb(4.313725%,3.529412%,7.45098%);stroke-opacity:1;stroke-miterlimit:4;" d="M 23.257812 13 C 23.31875 13 23.4 12.979687 23.440625 12.91875 C 23.501562 12.878125 23.521875 12.796875 23.521875 12.735937 C 23.521875 12.675 23.501562 12.59375 23.440625 12.553125 C 23.4 12.492187 23.31875 12.471875 23.257812 12.471875 C 23.196875 12.471875 23.115625 12.492187 23.075 12.553125 C 23.014062 12.59375 22.99375 12.675 22.99375 12.735937 C 22.99375 12.796875 23.014062 12.878125 23.075 12.91875 C 23.115625 12.979687 23.196875 13 23.257812 13 Z M 23.257812 13 " transform="matrix(0.192308,0,0,0.192308,0,0)"/>
<path style="fill-rule:nonzero;fill:rgb(4.313725%,3.529412%,7.45098%);fill-opacity:1;stroke-width:0.232558;stroke-linecap:butt;stroke-linejoin:miter;stroke:rgb(4.313725%,3.529412%,7.45098%);stroke-opacity:1;stroke-miterlimit:4;" d="M 12.675 13.934375 C 13.345312 13.934375 13.853125 13.40625 13.853125 12.735937 C 13.853125 12.065625 13.345312 11.5375 12.675 11.5375 C 11.984375 11.5375 11.476562 12.065625 11.476562 12.735937 C 11.476562 13.40625 11.984375 13.934375 12.675 13.934375 Z M 12.675 13.934375 " transform="matrix(0.192308,0,0,0.192308,0,0)"/>
<path style="fill-rule:nonzero;fill:rgb(4.313725%,3.529412%,7.45098%);fill-opacity:1;stroke-width:0.232558;stroke-linecap:butt;stroke-linejoin:miter;stroke:rgb(4.313725%,3.529412%,7.45098%);stroke-opacity:1;stroke-miterlimit:4;" d="M 33.840625 13 C 33.921875 13 33.982812 12.979687 34.04375 12.91875 C 34.084375 12.878125 34.104687 12.796875 34.104687 12.735937 C 34.104687 12.675 34.084375 12.59375 34.04375 12.553125 C 33.982812 12.492187 33.921875 12.471875 33.840625 12.471875 C 33.779687 12.471875 33.71875 12.492187 33.657812 12.553125 C 33.617187 12.59375 33.596875 12.675 33.596875 12.735937 C 33.596875 12.817187 33.6375 12.898437 33.678125 12.939062 C 33.739062 12.979687 33.8 13 33.840625 13 Z M 33.840625 13 " transform="matrix(0.192308,0,0,0.192308,0,0)"/>
<path style="fill-rule:nonzero;fill:rgb(4.313725%,3.529412%,7.45098%);fill-opacity:1;stroke-width:0.232558;stroke-linecap:butt;stroke-linejoin:miter;stroke:rgb(4.313725%,3.529412%,7.45098%);stroke-opacity:1;stroke-miterlimit:4;" d="M 44.44375 13.223437 C 44.565625 13.223437 44.6875 13.1625 44.789062 13.08125 C 44.870312 13 44.93125 12.857812 44.93125 12.735937 C 44.93125 12.59375 44.870312 12.471875 44.789062 12.390625 C 44.6875 12.309375 44.565625 12.248437 44.44375 12.248437 C 44.301562 12.248437 44.179687 12.309375 44.098437 12.390625 C 44.017187 12.471875 43.95625 12.59375 43.95625 12.735937 C 43.95625 12.857812 44.017187 13 44.098437 13.08125 C 44.179687 13.1625 44.301562 13.223437 44.44375 13.223437 Z M 44.44375 13.223437 " transform="matrix(0.192308,0,0,0.192308,0,0)"/>
<path style="fill-rule:nonzero;fill:rgb(4.313725%,3.529412%,7.45098%);fill-opacity:1;stroke-width:0.232558;stroke-linecap:butt;stroke-linejoin:miter;stroke:rgb(4.313725%,3.529412%,7.45098%);stroke-opacity:1;stroke-miterlimit:4;" d="M 39.142187 13.08125 C 39.24375 13.08125 39.325 13.060937 39.40625 12.979687 C 39.467187 12.91875 39.4875 12.8375 39.4875 12.735937 C 39.4875 12.634375 39.467187 12.553125 39.40625 12.492187 C 39.325 12.410937 39.24375 12.390625 39.142187 12.390625 C 39.040625 12.390625 38.959375 12.410937 38.898437 12.492187 C 38.817187 12.553125 38.796875 12.634375 38.796875 12.735937 C 38.796875 12.8375 38.817187 12.91875 38.898437 12.979687 C 38.959375 13.060937 39.040625 13.08125 39.142187 13.08125 Z M 39.142187 13.08125 " transform="matrix(0.192308,0,0,0.192308,0,0)"/>
<path style="fill-rule:nonzero;fill:rgb(4.313725%,3.529412%,7.45098%);fill-opacity:1;stroke-width:0.232558;stroke-linecap:butt;stroke-linejoin:miter;stroke:rgb(4.313725%,3.529412%,7.45098%);stroke-opacity:1;stroke-miterlimit:4;" d="M 2.071875 13.853125 C 2.701562 13.853125 3.16875 13.365625 3.16875 12.735937 C 3.16875 12.10625 2.701562 11.61875 2.071875 11.61875 C 1.442187 11.61875 0.975 12.10625 0.975 12.735937 C 0.975 13.365625 1.442187 13.853125 2.071875 13.853125 Z M 2.071875 13.853125 " transform="matrix(0.192308,0,0,0.192308,0,0)"/>
<path style="fill-rule:nonzero;fill:rgb(4.313725%,3.529412%,7.45098%);fill-opacity:1;stroke-width:0.232558;stroke-linecap:butt;stroke-linejoin:miter;stroke:rgb(4.313725%,3.529412%,7.45098%);stroke-opacity:1;stroke-miterlimit:4;" d="M 49.725 13.365625 C 50.090625 13.365625 50.375 13.08125 50.375 12.735937 C 50.375 12.390625 50.090625 12.10625 49.725 12.10625 C 49.379687 12.10625 49.15625 12.410937 49.15625 12.735937 C 49.15625 12.91875 49.217187 13.060937 49.31875 13.182812 C 49.440625 13.304687 49.582812 13.365625 49.725 13.365625 Z M 49.725 13.365625 " transform="matrix(0.192308,0,0,0.192308,0,0)"/>
<path style="fill-rule:nonzero;fill:rgb(4.313725%,3.529412%,7.45098%);fill-opacity:1;stroke-width:0.232558;stroke-linecap:butt;stroke-linejoin:miter;stroke:rgb(4.313725%,3.529412%,7.45098%);stroke-opacity:1;stroke-miterlimit:4;" d="M 17.95625 7.6375 C 18.0375 7.6375 18.098437 7.6375 18.159375 7.576562 C 18.2 7.515625 18.220312 7.454687 18.220312 7.39375 C 18.220312 7.332812 18.2 7.251562 18.159375 7.190625 C 18.098437 7.15 18.0375 7.129687 17.95625 7.129687 C 17.895312 7.129687 17.834375 7.15 17.773437 7.190625 C 17.732812 7.251562 17.7125 7.332812 17.7125 7.39375 C 17.7125 7.454687 17.732812 7.515625 17.773437 7.576562 C 17.834375 7.6375 17.895312 7.6375 17.95625 7.6375 Z M 17.95625 7.6375 " transform="matrix(0.192308,0,0,0.192308,0,0)"/>
<path style="fill-rule:nonzero;fill:rgb(4.313725%,3.529412%,7.45098%);fill-opacity:1;stroke-width:0.232558;stroke-linecap:butt;stroke-linejoin:miter;stroke:rgb(4.313725%,3.529412%,7.45098%);stroke-opacity:1;stroke-miterlimit:4;" d="M 7.373437 8.592187 C 8.04375 8.592187 8.571875 8.064062 8.571875 7.39375 C 8.571875 6.703125 8.04375 6.175 7.373437 6.175 C 6.703125 6.175 6.175 6.703125 6.175 7.39375 C 6.175 8.064062 6.703125 8.592187 7.373437 8.592187 Z M 7.373437 8.592187 " transform="matrix(0.192308,0,0,0.192308,0,0)"/>
<path style="fill-rule:nonzero;fill:rgb(4.313725%,3.529412%,7.45098%);fill-opacity:1;stroke-width:0.232558;stroke-linecap:butt;stroke-linejoin:miter;stroke:rgb(4.313725%,3.529412%,7.45098%);stroke-opacity:1;stroke-miterlimit:4;" d="M 12.675 8.125 C 13.060937 8.125 13.385937 7.779687 13.385937 7.39375 C 13.385937 6.9875 13.060937 6.6625 12.675 6.6625 C 12.26875 6.6625 11.94375 6.9875 11.94375 7.39375 C 11.94375 7.779687 12.26875 8.125 12.675 8.125 Z M 12.675 8.125 " transform="matrix(0.192308,0,0,0.192308,0,0)"/>
<path style="fill-rule:nonzero;fill:rgb(4.313725%,3.529412%,7.45098%);fill-opacity:1;stroke-width:0.232558;stroke-linecap:butt;stroke-linejoin:miter;stroke:rgb(4.313725%,3.529412%,7.45098%);stroke-opacity:1;stroke-miterlimit:4;" d="M 33.840625 7.6375 C 33.921875 7.6375 33.982812 7.6375 34.04375 7.576562 C 34.084375 7.515625 34.104687 7.454687 34.104687 7.39375 C 34.104687 7.332812 34.084375 7.251562 34.04375 7.190625 C 33.982812 7.15 33.921875 7.129687 33.840625 7.129687 C 33.779687 7.129687 33.71875 7.15 33.657812 7.190625 C 33.617187 7.251562 33.596875 7.332812 33.596875 7.39375 C 33.596875 7.475 33.6375 7.535937 33.678125 7.576562 C 33.739062 7.617187 33.8 7.6375 33.840625 7.6375 Z M 33.840625 7.6375 " transform="matrix(0.192308,0,0,0.192308,0,0)"/>
<path style="fill-rule:nonzero;fill:rgb(4.313725%,3.529412%,7.45098%);fill-opacity:1;stroke-width:0.232558;stroke-linecap:butt;stroke-linejoin:miter;stroke:rgb(4.313725%,3.529412%,7.45098%);stroke-opacity:1;stroke-miterlimit:4;" d="M 44.44375 7.779687 C 44.545312 7.779687 44.626562 7.759375 44.6875 7.698437 C 44.748437 7.617187 44.789062 7.535937 44.789062 7.434375 C 44.789062 7.332812 44.76875 7.251562 44.707812 7.170312 C 44.646875 7.089062 44.545312 7.028125 44.44375 7.028125 C 44.342187 7.028125 44.260937 7.06875 44.179687 7.129687 C 44.11875 7.210937 44.098437 7.292187 44.098437 7.39375 C 44.098437 7.475 44.11875 7.576562 44.179687 7.657812 C 44.240625 7.739062 44.321875 7.779687 44.44375 7.779687 Z M 44.44375 7.779687 " transform="matrix(0.192308,0,0,0.192308,0,0)"/>
<path style="fill-rule:nonzero;fill:rgb(4.313725%,3.529412%,7.45098%);fill-opacity:1;stroke-width:0.232558;stroke-linecap:butt;stroke-linejoin:miter;stroke:rgb(4.313725%,3.529412%,7.45098%);stroke-opacity:1;stroke-miterlimit:4;" d="M 39.142187 7.6375 C 39.203125 7.6375 39.284375 7.6375 39.325 7.576562 C 39.385937 7.515625 39.40625 7.454687 39.40625 7.39375 C 39.40625 7.332812 39.385937 7.251562 39.325 7.190625 C 39.284375 7.15 39.203125 7.129687 39.142187 7.129687 C 39.08125 7.129687 39 7.15 38.959375 7.190625 C 38.898437 7.251562 38.878125 7.332812 38.878125 7.39375 C 38.878125 7.475 38.939062 7.535937 38.979687 7.576562 C 39.020312 7.617187 39.08125 7.6375 39.142187 7.6375 Z M 39.142187 7.6375 " transform="matrix(0.192308,0,0,0.192308,0,0)"/>
<path style="fill-rule:nonzero;fill:rgb(4.313725%,3.529412%,7.45098%);fill-opacity:1;stroke-width:0.232558;stroke-linecap:butt;stroke-linejoin:miter;stroke:rgb(4.313725%,3.529412%,7.45098%);stroke-opacity:1;stroke-miterlimit:4;" d="M 2.071875 6.175 C 1.4625 6.175 0.89375 6.703125 0.89375 7.39375 C 0.89375 8.064062 1.401562 8.592187 2.071875 8.592187 C 2.742187 8.592187 3.270312 8.064062 3.270312 7.39375 C 3.270312 6.703125 2.701562 6.175 2.071875 6.175 Z M 2.071875 6.175 " transform="matrix(0.192308,0,0,0.192308,0,0)"/>
<path style="fill-rule:nonzero;fill:rgb(4.313725%,3.529412%,7.45098%);fill-opacity:1;stroke-width:0.232558;stroke-linecap:butt;stroke-linejoin:miter;stroke:rgb(4.313725%,3.529412%,7.45098%);stroke-opacity:1;stroke-miterlimit:4;" d="M 49.725 7.88125 C 49.867187 7.88125 49.989062 7.820312 50.070312 7.739062 C 50.151562 7.6375 50.232812 7.515625 50.232812 7.39375 C 50.232812 7.251562 50.151562 7.129687 50.070312 7.048437 C 49.989062 6.967187 49.867187 6.885937 49.725 6.885937 C 49.603125 6.885937 49.48125 6.967187 49.4 7.048437 C 49.298437 7.129687 49.2375 7.251562 49.2375 7.39375 C 49.2375 7.515625 49.298437 7.6375 49.4 7.739062 C 49.48125 7.820312 49.603125 7.88125 49.725 7.88125 Z M 49.725 7.88125 " transform="matrix(0.192308,0,0,0.192308,0,0)"/>
<path style="fill-rule:nonzero;fill:rgb(4.313725%,3.529412%,7.45098%);fill-opacity:1;stroke-width:0.232558;stroke-linecap:butt;stroke-linejoin:miter;stroke:rgb(4.313725%,3.529412%,7.45098%);stroke-opacity:1;stroke-miterlimit:4;" d="M 7.373437 50.375 C 7.434375 50.375 7.515625 50.354687 7.55625 50.314062 C 7.617187 50.253125 7.6375 50.192187 7.6375 50.110937 C 7.6375 50.05 7.617187 49.989062 7.55625 49.928125 C 7.515625 49.8875 7.434375 49.867187 7.373437 49.867187 C 7.3125 49.867187 7.23125 49.8875 7.190625 49.928125 C 7.129687 49.989062 7.109375 50.05 7.109375 50.110937 C 7.109375 50.192187 7.129687 50.253125 7.190625 50.314062 C 7.23125 50.354687 7.3125 50.375 7.373437 50.375 Z M 7.373437 50.375 " transform="matrix(0.192308,0,0,0.192308,0,0)"/>
<path style="fill-rule:nonzero;fill:rgb(4.313725%,3.529412%,7.45098%);fill-opacity:1;stroke-width:0.232558;stroke-linecap:butt;stroke-linejoin:miter;stroke:rgb(4.313725%,3.529412%,7.45098%);stroke-opacity:1;stroke-miterlimit:4;" d="M 44.44375 50.842187 C 44.829687 50.842187 45.175 50.517187 45.175 50.110937 C 45.175 49.725 44.829687 49.379687 44.44375 49.379687 C 44.0375 49.379687 43.7125 49.725 43.7125 50.110937 C 43.7125 50.517187 44.0375 50.842187 44.44375 50.842187 Z M 44.44375 50.842187 " transform="matrix(0.192308,0,0,0.192308,0,0)"/>
<path style="fill-rule:nonzero;fill:rgb(4.313725%,3.529412%,7.45098%);fill-opacity:1;stroke-width:0.232558;stroke-linecap:butt;stroke-linejoin:miter;stroke:rgb(4.313725%,3.529412%,7.45098%);stroke-opacity:1;stroke-miterlimit:4;" d="M 39.142187 50.375 C 39.203125 50.375 39.284375 50.354687 39.325 50.314062 C 39.385937 50.253125 39.40625 50.192187 39.40625 50.110937 C 39.40625 50.05 39.385937 49.989062 39.325 49.928125 C 39.284375 49.8875 39.203125 49.867187 39.142187 49.867187 C 39.08125 49.867187 39 49.8875 38.959375 49.928125 C 38.898437 49.989062 38.878125 50.05 38.878125 50.110937 C 38.878125 50.2125 38.939062 50.273437 38.979687 50.314062 C 39.020312 50.354687 39.08125 50.375 39.142187 50.375 Z M 39.142187 50.375 " transform="matrix(0.192308,0,0,0.192308,0,0)"/>
<path style="fill-rule:nonzero;fill:rgb(4.313725%,3.529412%,7.45098%);fill-opacity:1;stroke-width:0.232558;stroke-linecap:butt;stroke-linejoin:miter;stroke:rgb(4.313725%,3.529412%,7.45098%);stroke-opacity:1;stroke-miterlimit:4;" d="M 2.071875 50.476562 C 2.173437 50.476562 2.254687 50.435937 2.335937 50.375 C 2.396875 50.314062 2.4375 50.2125 2.4375 50.110937 C 2.4375 50.029687 2.396875 49.928125 2.335937 49.867187 C 2.254687 49.80625 2.173437 49.765625 2.071875 49.765625 C 1.990625 49.765625 1.889062 49.80625 1.828125 49.867187 C 1.767187 49.928125 1.726562 50.029687 1.726562 50.110937 C 1.726562 50.2125 1.767187 50.314062 1.828125 50.375 C 1.889062 50.435937 1.990625 50.476562 2.071875 50.476562 Z M 2.071875 50.476562 " transform="matrix(0.192308,0,0,0.192308,0,0)"/>
<path style="fill-rule:nonzero;fill:rgb(4.313725%,3.529412%,7.45098%);fill-opacity:1;stroke-width:0.232558;stroke-linecap:butt;stroke-linejoin:miter;stroke:rgb(4.313725%,3.529412%,7.45098%);stroke-opacity:1;stroke-miterlimit:4;" d="M 49.725 48.9125 C 49.115625 48.9125 48.546875 49.440625 48.546875 50.110937 C 48.546875 50.801562 49.054687 51.329687 49.725 51.329687 C 50.415625 51.329687 50.923437 50.801562 50.923437 50.110937 C 50.923437 49.440625 50.415625 48.9125 49.725 48.9125 Z M 49.725 48.9125 " transform="matrix(0.192308,0,0,0.192308,0,0)"/>
<path style="fill-rule:nonzero;fill:rgb(4.313725%,3.529412%,7.45098%);fill-opacity:1;stroke-width:0.232558;stroke-linecap:butt;stroke-linejoin:miter;stroke:rgb(4.313725%,3.529412%,7.45098%);stroke-opacity:1;stroke-miterlimit:4;" d="M 7.373437 45.134375 C 7.475 45.134375 7.55625 45.09375 7.617187 45.032812 C 7.698437 44.951562 7.71875 44.870312 7.71875 44.76875 C 7.71875 44.667187 7.698437 44.585937 7.617187 44.525 C 7.55625 44.44375 7.475 44.423437 7.373437 44.423437 C 7.271875 44.423437 7.190625 44.44375 7.129687 44.525 C 7.048437 44.585937 7.028125 44.667187 7.028125 44.76875 C 7.028125 44.870312 7.048437 44.951562 7.129687 45.032812 C 7.190625 45.09375 7.271875 45.134375 7.373437 45.134375 Z M 7.373437 45.134375 " transform="matrix(0.192308,0,0,0.192308,0,0)"/>
<path style="fill-rule:nonzero;fill:rgb(4.313725%,3.529412%,7.45098%);fill-opacity:1;stroke-width:0.232558;stroke-linecap:butt;stroke-linejoin:miter;stroke:rgb(4.313725%,3.529412%,7.45098%);stroke-opacity:1;stroke-miterlimit:4;" d="M 12.675 45.032812 C 12.735937 45.032812 12.796875 45.0125 12.857812 44.951562 C 12.91875 44.910937 12.91875 44.829687 12.91875 44.76875 C 12.91875 44.707812 12.91875 44.646875 12.857812 44.585937 C 12.796875 44.525 12.735937 44.504687 12.675 44.504687 C 12.59375 44.504687 12.532812 44.525 12.471875 44.585937 C 12.43125 44.646875 12.410937 44.707812 12.410937 44.76875 C 12.410937 44.829687 12.43125 44.910937 12.471875 44.951562 C 12.532812 45.0125 12.59375 45.032812 12.675 45.032812 Z M 12.675 45.032812 " transform="matrix(0.192308,0,0,0.192308,0,0)"/>
<path style="fill-rule:nonzero;fill:rgb(4.313725%,3.529412%,7.45098%);fill-opacity:1;stroke-width:0.232558;stroke-linecap:butt;stroke-linejoin:miter;stroke:rgb(4.313725%,3.529412%,7.45098%);stroke-opacity:1;stroke-miterlimit:4;" d="M 33.840625 45.032812 C 33.921875 45.032812 33.982812 45.0125 34.04375 44.951562 C 34.084375 44.910937 34.104687 44.829687 34.104687 44.76875 C 34.104687 44.707812 34.084375 44.646875 34.04375 44.585937 C 33.982812 44.525 33.921875 44.504687 33.840625 44.504687 C 33.779687 44.504687 33.71875 44.525 33.657812 44.585937 C 33.617187 44.646875 33.596875 44.707812 33.596875 44.76875 C 33.596875 44.870312 33.6375 44.93125 33.678125 44.971875 C 33.739062 45.0125 33.8 45.032812 33.840625 45.032812 Z M 33.840625 45.032812 " transform="matrix(0.192308,0,0,0.192308,0,0)"/>
<path style="fill-rule:nonzero;fill:rgb(4.313725%,3.529412%,7.45098%);fill-opacity:1;stroke-width:0.232558;stroke-linecap:butt;stroke-linejoin:miter;stroke:rgb(4.313725%,3.529412%,7.45098%);stroke-opacity:1;stroke-miterlimit:4;" d="M 44.44375 45.967187 C 45.114062 45.967187 45.642187 45.459375 45.642187 44.76875 C 45.642187 44.098437 45.114062 43.570312 44.44375 43.570312 C 43.773437 43.570312 43.245312 44.098437 43.245312 44.76875 C 43.245312 45.459375 43.814062 45.967187 44.44375 45.967187 Z M 44.44375 45.967187 " transform="matrix(0.192308,0,0,0.192308,0,0)"/>
<path style="fill-rule:nonzero;fill:rgb(4.313725%,3.529412%,7.45098%);fill-opacity:1;stroke-width:0.232558;stroke-linecap:butt;stroke-linejoin:miter;stroke:rgb(4.313725%,3.529412%,7.45098%);stroke-opacity:1;stroke-miterlimit:4;" d="M 39.142187 45.5 C 39.528125 45.5 39.873437 45.175 39.873437 44.76875 C 39.873437 44.382812 39.528125 44.0375 39.142187 44.0375 C 38.75625 44.0375 38.410937 44.382812 38.410937 44.76875 C 38.410937 45.175 38.75625 45.5 39.142187 45.5 Z M 39.142187 45.5 " transform="matrix(0.192308,0,0,0.192308,0,0)"/>
<path style="fill-rule:nonzero;fill:rgb(4.313725%,3.529412%,7.45098%);fill-opacity:1;stroke-width:0.232558;stroke-linecap:butt;stroke-linejoin:miter;stroke:rgb(4.313725%,3.529412%,7.45098%);stroke-opacity:1;stroke-miterlimit:4;" d="M 2.071875 45.276562 C 2.214062 45.276562 2.335937 45.195312 2.417187 45.114062 C 2.498437 45.032812 2.559375 44.910937 2.559375 44.76875 C 2.559375 44.646875 2.498437 44.525 2.417187 44.423437 C 2.335937 44.342187 2.214062 44.28125 2.071875 44.28125 C 1.95 44.28125 1.828125 44.342187 1.746875 44.423437 C 1.645312 44.525 1.584375 44.646875 1.584375 44.76875 C 1.584375 44.910937 1.625 45.032812 1.726562 45.134375 C 1.807812 45.215625 1.929687 45.276562 2.071875 45.276562 Z M 2.071875 45.276562 " transform="matrix(0.192308,0,0,0.192308,0,0)"/>
<path style="fill-rule:nonzero;fill:rgb(4.313725%,3.529412%,7.45098%);fill-opacity:1;stroke-width:0.232558;stroke-linecap:butt;stroke-linejoin:miter;stroke:rgb(4.313725%,3.529412%,7.45098%);stroke-opacity:1;stroke-miterlimit:4;" d="M 49.725 45.967187 C 50.354687 45.967187 50.923437 45.459375 50.923437 44.76875 C 50.923437 44.098437 50.415625 43.570312 49.725 43.570312 C 49.054687 43.570312 48.546875 44.098437 48.546875 44.76875 C 48.546875 45.459375 49.115625 45.967187 49.725 45.967187 Z M 49.725 45.967187 " transform="matrix(0.192308,0,0,0.192308,0,0)"/>
<path style="fill-rule:nonzero;fill:rgb(4.313725%,3.529412%,7.45098%);fill-opacity:1;stroke-width:0.232558;stroke-linecap:butt;stroke-linejoin:miter;stroke:rgb(4.313725%,3.529412%,7.45098%);stroke-opacity:1;stroke-miterlimit:4;" d="M 7.373437 2.823437 C 7.759375 2.823437 8.104687 2.478125 8.104687 2.092187 C 8.104687 1.685937 7.759375 1.360937 7.373437 1.360937 C 6.9875 1.360937 6.642187 1.645312 6.642187 2.092187 C 6.642187 2.478125 6.9875 2.823437 7.373437 2.823437 Z M 7.373437 2.823437 " transform="matrix(0.192308,0,0,0.192308,0,0)"/>
<path style="fill-rule:nonzero;fill:rgb(4.313725%,3.529412%,7.45098%);fill-opacity:1;stroke-width:0.232558;stroke-linecap:butt;stroke-linejoin:miter;stroke:rgb(4.313725%,3.529412%,7.45098%);stroke-opacity:1;stroke-miterlimit:4;" d="M 12.675 2.35625 C 12.735937 2.35625 12.796875 2.335937 12.857812 2.275 C 12.91875 2.214062 12.91875 2.153125 12.91875 2.092187 C 12.91875 2.03125 12.91875 1.95 12.857812 1.909375 C 12.796875 1.848437 12.735937 1.828125 12.675 1.828125 C 12.59375 1.828125 12.532812 1.848437 12.471875 1.909375 C 12.43125 1.95 12.410937 2.03125 12.410937 2.092187 C 12.410937 2.132812 12.43125 2.19375 12.471875 2.254687 C 12.5125 2.295312 12.573437 2.35625 12.675 2.35625 Z M 12.675 2.35625 " transform="matrix(0.192308,0,0,0.192308,0,0)"/>
<path style="fill-rule:nonzero;fill:rgb(4.313725%,3.529412%,7.45098%);fill-opacity:1;stroke-width:0.232558;stroke-linecap:butt;stroke-linejoin:miter;stroke:rgb(4.313725%,3.529412%,7.45098%);stroke-opacity:1;stroke-miterlimit:4;" d="M 44.44375 2.35625 C 44.504687 2.35625 44.565625 2.335937 44.626562 2.275 C 44.6875 2.214062 44.6875 2.153125 44.6875 2.092187 C 44.6875 2.03125 44.6875 1.95 44.626562 1.909375 C 44.565625 1.848437 44.504687 1.828125 44.44375 1.828125 C 44.382812 1.828125 44.301562 1.848437 44.260937 1.909375 C 44.2 1.95 44.179687 2.03125 44.179687 2.092187 C 44.179687 2.132812 44.2 2.173437 44.220312 2.19375 C 44.220312 2.214062 44.240625 2.234375 44.260937 2.254687 C 44.28125 2.275 44.301562 2.295312 44.342187 2.315625 C 44.3625 2.335937 44.403125 2.35625 44.44375 2.35625 Z M 44.44375 2.35625 " transform="matrix(0.192308,0,0,0.192308,0,0)"/>
<path style="fill-rule:nonzero;fill:rgb(4.313725%,3.529412%,7.45098%);fill-opacity:1;stroke-width:0.232558;stroke-linecap:butt;stroke-linejoin:miter;stroke:rgb(4.313725%,3.529412%,7.45098%);stroke-opacity:1;stroke-miterlimit:4;" d="M 2.071875 3.25 C 2.701562 3.25 3.270312 2.721875 3.270312 2.03125 C 3.270312 1.360937 2.701562 0.89375 2.071875 0.89375 C 1.4625 0.89375 0.89375 1.401562 0.89375 2.092187 C 0.89375 2.782812 1.401562 3.25 2.071875 3.25 Z M 2.071875 3.25 " transform="matrix(0.192308,0,0,0.192308,0,0)"/>
<path style="fill-rule:nonzero;fill:rgb(4.313725%,3.529412%,7.45098%);fill-opacity:1;stroke-width:0.232558;stroke-linecap:butt;stroke-linejoin:miter;stroke:rgb(4.313725%,3.529412%,7.45098%);stroke-opacity:1;stroke-miterlimit:4;" d="M 49.725 2.4375 C 49.826562 2.4375 49.928125 2.417187 49.989062 2.335937 C 50.05 2.275 50.090625 2.19375 50.090625 2.092187 C 50.090625 1.990625 50.05 1.909375 49.989062 1.828125 C 49.928125 1.767187 49.826562 1.726562 49.725 1.726562 C 49.64375 1.726562 49.542187 1.767187 49.48125 1.828125 C 49.420312 1.909375 49.379687 1.990625 49.379687 2.092187 C 49.379687 2.19375 49.420312 2.275 49.48125 2.335937 C 49.542187 2.417187 49.64375 2.4375 49.725 2.4375 Z M 49.725 2.4375 " transform="matrix(0.192308,0,0,0.192308,0,0)"/>
</g>
</svg>
