<?xml version="1.0" encoding="UTF-8"?>
<svg xmlns="http://www.w3.org/2000/svg" xmlns:xlink="http://www.w3.org/1999/xlink" width="20px" height="20px" viewBox="0 0 20 20" version="1.1">
<g id="surface1">
<path style="fill-rule:nonzero;fill:rgb(4.313725%,3.529412%,7.45098%);fill-opacity:1;stroke-width:0.232558;stroke-linecap:butt;stroke-linejoin:miter;stroke:rgb(4.313725%,3.529412%,7.45098%);stroke-opacity:1;stroke-miterlimit:4;" d="M 17.956221 39.690561 C 18.037471 39.690561 18.098409 39.670249 18.159346 39.609312 C 18.199971 39.568687 18.220283 39.487437 18.220283 39.426499 C 18.220283 39.365562 18.199971 39.284312 18.159346 39.243687 C 18.098409 39.18275 18.037471 39.162437 17.956221 39.162437 C 17.895284 39.162437 17.834346 39.18275 17.773409 39.243687 C 17.732784 39.284312 17.712472 39.365562 17.712472 39.426499 C 17.712472 39.487437 17.732784 39.568687 17.773409 39.609312 C 17.834346 39.670249 17.895284 39.690561 17.956221 39.690561 Z M 17.956221 39.690561 " transform="matrix(0.384616,0,0,0.384616,0,0)"/>
<path style="fill-rule:nonzero;fill:rgb(4.313725%,3.529412%,7.45098%);fill-opacity:1;stroke-width:0.232558;stroke-linecap:butt;stroke-linejoin:miter;stroke:rgb(4.313725%,3.529412%,7.45098%);stroke-opacity:1;stroke-miterlimit:4;" d="M 7.373426 39.913999 C 7.495301 39.913999 7.617175 39.853061 7.718738 39.771811 C 7.799988 39.670249 7.860925 39.548374 7.860925 39.426499 C 7.860925 39.284312 7.799988 39.162437 7.718738 39.081187 C 7.617175 38.999938 7.495301 38.939 7.373426 38.939 C 7.231238 38.939 7.109364 38.999938 7.028114 39.081187 C 6.946864 39.162437 6.885926 39.284312 6.885926 39.426499 C 6.885926 39.568687 6.926551 39.690561 7.007801 39.792124 C 7.109364 39.873374 7.231238 39.913999 7.373426 39.913999 Z M 7.373426 39.913999 " transform="matrix(0.384616,0,0,0.384616,0,0)"/>
<path style="fill-rule:nonzero;fill:rgb(4.313725%,3.529412%,7.45098%);fill-opacity:1;stroke-width:0.232558;stroke-linecap:butt;stroke-linejoin:miter;stroke:rgb(4.313725%,3.529412%,7.45098%);stroke-opacity:1;stroke-miterlimit:4;" d="M 28.559329 39.690561 C 28.620267 39.690561 28.681204 39.670249 28.742142 39.609312 C 28.803079 39.568687 28.803079 39.487437 28.803079 39.426499 C 28.803079 39.365562 28.803079 39.284312 28.742142 39.243687 C 28.681204 39.18275 28.620267 39.162437 28.559329 39.162437 C 28.498392 39.162437 28.417142 39.18275 28.356205 39.243687 C 28.31558 39.284312 28.295267 39.365562 28.295267 39.426499 C 28.295267 39.487437 28.31558 39.568687 28.356205 39.609312 C 28.417142 39.670249 28.498392 39.690561 28.559329 39.690561 Z M 28.559329 39.690561 " transform="matrix(0.384616,0,0,0.384616,0,0)"/>
<path style="fill-rule:nonzero;fill:rgb(4.313725%,3.529412%,7.45098%);fill-opacity:1;stroke-width:0.232558;stroke-linecap:butt;stroke-linejoin:miter;stroke:rgb(4.313725%,3.529412%,7.45098%);stroke-opacity:1;stroke-miterlimit:4;" d="M 12.67498 39.771811 C 12.75623 39.771811 12.857792 39.751499 12.918729 39.670249 C 12.979667 39.609312 13.020292 39.528062 13.020292 39.426499 C 13.020292 39.324937 12.979667 39.243687 12.918729 39.162437 C 12.857792 39.1015 12.75623 39.081187 12.67498 39.081187 C 12.573417 39.081187 12.471855 39.1015 12.410918 39.162437 C 12.34998 39.243687 12.309355 39.324937 12.309355 39.426499 C 12.309355 39.528062 12.34998 39.609312 12.410918 39.670249 C 12.471855 39.751499 12.573417 39.771811 12.67498 39.771811 Z M 12.67498 39.771811 " transform="matrix(0.384616,0,0,0.384616,0,0)"/>
<path style="fill-rule:nonzero;fill:rgb(4.313725%,3.529412%,7.45098%);fill-opacity:1;stroke-width:0.232558;stroke-linecap:butt;stroke-linejoin:miter;stroke:rgb(4.313725%,3.529412%,7.45098%);stroke-opacity:1;stroke-miterlimit:4;" d="M 33.840571 40.157748 C 34.24682 40.157748 34.57182 39.812436 34.57182 39.426499 C 34.57182 39.040563 34.24682 38.695251 33.840571 38.695251 C 33.454634 38.695251 33.129634 39.040563 33.129634 39.426499 C 33.129634 39.812436 33.454634 40.157748 33.840571 40.157748 Z M 33.840571 40.157748 " transform="matrix(0.384616,0,0,0.384616,0,0)"/>
<path style="fill-rule:nonzero;fill:rgb(4.313725%,3.529412%,7.45098%);fill-opacity:1;stroke-width:0.232558;stroke-linecap:butt;stroke-linejoin:miter;stroke:rgb(4.313725%,3.529412%,7.45098%);stroke-opacity:1;stroke-miterlimit:4;" d="M 44.443679 40.401498 C 44.971803 40.401498 45.398365 39.954624 45.398365 39.426499 C 45.398365 38.898375 44.971803 38.451501 44.443679 38.451501 C 43.915555 38.451501 43.488993 38.898375 43.488993 39.426499 C 43.488993 39.954624 43.915555 40.401498 44.443679 40.401498 Z M 44.443679 40.401498 " transform="matrix(0.384616,0,0,0.384616,0,0)"/>
<path style="fill-rule:nonzero;fill:rgb(4.313725%,3.529412%,7.45098%);fill-opacity:1;stroke-width:0.232558;stroke-linecap:butt;stroke-linejoin:miter;stroke:rgb(4.313725%,3.529412%,7.45098%);stroke-opacity:1;stroke-miterlimit:4;" d="M 39.142125 40.624935 C 39.812436 40.624935 40.34056 40.096811 40.34056 39.426499 C 40.34056 38.756188 39.812436 38.228064 39.142125 38.228064 C 38.471813 38.228064 37.943689 38.756188 37.943689 39.426499 C 37.943689 40.096811 38.512438 40.624935 39.142125 40.624935 Z M 39.142125 40.624935 " transform="matrix(0.384616,0,0,0.384616,0,0)"/>
<path style="fill-rule:nonzero;fill:rgb(4.313725%,3.529412%,7.45098%);fill-opacity:1;stroke-width:0.232558;stroke-linecap:butt;stroke-linejoin:miter;stroke:rgb(4.313725%,3.529412%,7.45098%);stroke-opacity:1;stroke-miterlimit:4;" d="M 2.071872 40.056186 C 2.417184 40.056186 2.701558 39.771811 2.701558 39.426499 C 2.701558 39.081187 2.417184 38.796813 2.071872 38.796813 C 1.72656 38.796813 1.442185 39.081187 1.442185 39.426499 C 1.442185 39.629624 1.523435 39.771811 1.624997 39.893686 C 1.746872 40.015561 1.909372 40.056186 2.071872 40.056186 Z M 2.071872 40.056186 " transform="matrix(0.384616,0,0,0.384616,0,0)"/>
<path style="fill-rule:nonzero;fill:rgb(4.313725%,3.529412%,7.45098%);fill-opacity:1;stroke-width:0.232558;stroke-linecap:butt;stroke-linejoin:miter;stroke:rgb(4.313725%,3.529412%,7.45098%);stroke-opacity:1;stroke-miterlimit:4;" d="M 49.72492 40.543685 C 50.354607 40.543685 50.842106 40.056186 50.842106 39.426499 C 50.842106 38.796813 50.354607 38.309314 49.72492 38.309314 C 49.115546 38.309314 48.628047 38.796813 48.628047 39.426499 C 48.628047 40.015561 49.156171 40.543685 49.72492 40.543685 Z M 49.72492 40.543685 " transform="matrix(0.384616,0,0,0.384616,0,0)"/>
<path style="fill-rule:nonzero;fill:rgb(4.313725%,3.529412%,7.45098%);fill-opacity:1;stroke-width:0.232558;stroke-linecap:butt;stroke-linejoin:miter;stroke:rgb(4.313725%,3.529412%,7.45098%);stroke-opacity:1;stroke-miterlimit:4;" d="M 17.956221 34.32807 C 18.037471 34.32807 18.098409 34.32807 18.159346 34.267133 C 18.199971 34.206195 18.220283 34.145258 18.220283 34.08432 C 18.220283 34.003071 18.199971 33.942133 18.159346 33.881196 C 18.098409 33.840571 18.037471 33.820258 17.956221 33.820258 C 17.895284 33.820258 17.834346 33.840571 17.773409 33.881196 C 17.732784 33.942133 17.712472 34.003071 17.712472 34.08432 C 17.712472 34.124945 17.732784 34.185883 17.773409 34.24682 C 17.814034 34.287445 17.874971 34.32807 17.956221 34.32807 Z M 17.956221 34.32807 " transform="matrix(0.384616,0,0,0.384616,0,0)"/>
<path style="fill-rule:nonzero;fill:rgb(4.313725%,3.529412%,7.45098%);fill-opacity:1;stroke-width:0.232558;stroke-linecap:butt;stroke-linejoin:miter;stroke:rgb(4.313725%,3.529412%,7.45098%);stroke-opacity:1;stroke-miterlimit:4;" d="M 7.373426 34.714007 C 7.718738 34.714007 8.003112 34.429632 8.003112 34.08432 C 8.003112 33.739009 7.718738 33.434322 7.373426 33.434322 C 7.028114 33.434322 6.743739 33.739009 6.743739 34.08432 C 6.743739 34.267133 6.804677 34.429632 6.926551 34.551507 C 7.048426 34.65307 7.210926 34.714007 7.373426 34.714007 Z M 7.373426 34.714007 " transform="matrix(0.384616,0,0,0.384616,0,0)"/>
<path style="fill-rule:nonzero;fill:rgb(4.313725%,3.529412%,7.45098%);fill-opacity:1;stroke-width:0.232558;stroke-linecap:butt;stroke-linejoin:miter;stroke:rgb(4.313725%,3.529412%,7.45098%);stroke-opacity:1;stroke-miterlimit:4;" d="M 28.559329 34.815569 C 28.945266 34.815569 29.270266 34.470257 29.270266 34.08432 C 29.270266 33.678071 28.945266 33.353072 28.559329 33.353072 C 28.15308 33.353072 27.82808 33.678071 27.82808 34.08432 C 27.82808 34.470257 28.15308 34.815569 28.559329 34.815569 Z M 28.559329 34.815569 " transform="matrix(0.384616,0,0,0.384616,0,0)"/>
<path style="fill-rule:nonzero;fill:rgb(4.313725%,3.529412%,7.45098%);fill-opacity:1;stroke-width:0.232558;stroke-linecap:butt;stroke-linejoin:miter;stroke:rgb(4.313725%,3.529412%,7.45098%);stroke-opacity:1;stroke-miterlimit:4;" d="M 23.257775 34.32807 C 23.318713 34.32807 23.399963 34.32807 23.440587 34.267133 C 23.501525 34.206195 23.521837 34.145258 23.521837 34.08432 C 23.521837 34.003071 23.501525 33.942133 23.440587 33.881196 C 23.399963 33.840571 23.318713 33.820258 23.257775 33.820258 C 23.196838 33.820258 23.115588 33.840571 23.074963 33.881196 C 23.014026 33.942133 22.993713 34.003071 22.993713 34.08432 C 22.993713 34.124945 23.034338 34.185883 23.054651 34.24682 C 23.095276 34.287445 23.176525 34.32807 23.257775 34.32807 Z M 23.257775 34.32807 " transform="matrix(0.384616,0,0,0.384616,0,0)"/>
<path style="fill-rule:nonzero;fill:rgb(4.313725%,3.529412%,7.45098%);fill-opacity:1;stroke-width:0.232558;stroke-linecap:butt;stroke-linejoin:miter;stroke:rgb(4.313725%,3.529412%,7.45098%);stroke-opacity:1;stroke-miterlimit:4;" d="M 12.67498 34.57182 C 12.979667 34.57182 13.162479 34.32807 13.162479 34.08432 C 13.162479 33.759321 12.918729 33.576509 12.67498 33.576509 C 12.532792 33.576509 12.410918 33.657759 12.329668 33.739009 C 12.248418 33.820258 12.167168 33.942133 12.167168 34.08432 C 12.167168 34.32807 12.34998 34.57182 12.67498 34.57182 Z M 12.67498 34.57182 " transform="matrix(0.384616,0,0,0.384616,0,0)"/>
<path style="fill-rule:nonzero;fill:rgb(4.313725%,3.529412%,7.45098%);fill-opacity:1;stroke-width:0.232558;stroke-linecap:butt;stroke-linejoin:miter;stroke:rgb(4.313725%,3.529412%,7.45098%);stroke-opacity:1;stroke-miterlimit:4;" d="M 33.840571 35.282756 C 34.531195 35.282756 35.039006 34.754632 35.039006 34.08432 C 35.039006 33.393697 34.531195 32.865572 33.840571 32.865572 C 33.170259 32.865572 32.662448 33.393697 32.662448 34.08432 C 32.662448 34.754632 33.231197 35.282756 33.840571 35.282756 Z M 33.840571 35.282756 " transform="matrix(0.384616,0,0,0.384616,0,0)"/>
<path style="fill-rule:nonzero;fill:rgb(4.313725%,3.529412%,7.45098%);fill-opacity:1;stroke-width:0.232558;stroke-linecap:butt;stroke-linejoin:miter;stroke:rgb(4.313725%,3.529412%,7.45098%);stroke-opacity:1;stroke-miterlimit:4;" d="M 44.443679 34.815569 C 44.829616 34.815569 45.174928 34.470257 45.174928 34.08432 C 45.174928 33.678071 44.829616 33.353072 44.443679 33.353072 C 44.03743 33.353072 43.71243 33.678071 43.71243 34.08432 C 43.71243 34.470257 44.03743 34.815569 44.443679 34.815569 Z M 44.443679 34.815569 " transform="matrix(0.384616,0,0,0.384616,0,0)"/>
<path style="fill-rule:nonzero;fill:rgb(4.313725%,3.529412%,7.45098%);fill-opacity:1;stroke-width:0.232558;stroke-linecap:butt;stroke-linejoin:miter;stroke:rgb(4.313725%,3.529412%,7.45098%);stroke-opacity:1;stroke-miterlimit:4;" d="M 39.142125 34.815569 C 39.528062 34.815569 39.873374 34.470257 39.873374 34.08432 C 39.873374 33.678071 39.528062 33.353072 39.142125 33.353072 C 38.756188 33.353072 38.410876 33.678071 38.410876 34.08432 C 38.410876 34.470257 38.756188 34.815569 39.142125 34.815569 Z M 39.142125 34.815569 " transform="matrix(0.384616,0,0,0.384616,0,0)"/>
<path style="fill-rule:nonzero;fill:rgb(4.313725%,3.529412%,7.45098%);fill-opacity:1;stroke-width:0.232558;stroke-linecap:butt;stroke-linejoin:miter;stroke:rgb(4.313725%,3.529412%,7.45098%);stroke-opacity:1;stroke-miterlimit:4;" d="M 2.071872 34.896819 C 2.518746 34.896819 2.904683 34.510882 2.904683 34.08432 C 2.904683 33.637446 2.518746 33.251509 2.071872 33.251509 C 1.64531 33.251509 1.259373 33.637446 1.259373 34.064008 C 1.239061 34.307758 1.32031 34.531195 1.462498 34.673382 C 1.624997 34.815569 1.848435 34.896819 2.071872 34.896819 Z M 2.071872 34.896819 " transform="matrix(0.384616,0,0,0.384616,0,0)"/>
<path style="fill-rule:nonzero;fill:rgb(4.313725%,3.529412%,7.45098%);fill-opacity:1;stroke-width:0.232558;stroke-linecap:butt;stroke-linejoin:miter;stroke:rgb(4.313725%,3.529412%,7.45098%);stroke-opacity:1;stroke-miterlimit:4;" d="M 49.72492 35.099944 C 50.313982 35.099944 50.740544 34.612445 50.740544 34.08432 C 50.740544 33.495259 50.273357 33.068697 49.72492 33.068697 C 49.156171 33.068697 48.72961 33.535884 48.72961 34.08432 C 48.72961 34.673382 49.196796 35.099944 49.72492 35.099944 Z M 49.72492 35.099944 " transform="matrix(0.384616,0,0,0.384616,0,0)"/>
<path style="fill-rule:nonzero;fill:rgb(4.313725%,3.529412%,7.45098%);fill-opacity:1;stroke-width:0.232558;stroke-linecap:butt;stroke-linejoin:miter;stroke:rgb(4.313725%,3.529412%,7.45098%);stroke-opacity:1;stroke-miterlimit:4;" d="M 17.956221 29.026516 C 18.037471 29.026516 18.098409 29.026516 18.159346 28.965579 C 18.199971 28.904641 18.220283 28.843704 18.220283 28.782766 C 18.220283 28.721829 18.199971 28.640579 18.159346 28.579642 C 18.098409 28.539017 18.037471 28.518704 17.956221 28.518704 C 17.895284 28.518704 17.834346 28.539017 17.773409 28.579642 C 17.732784 28.640579 17.712472 28.721829 17.712472 28.782766 C 17.712472 28.843704 17.732784 28.904641 17.773409 28.965579 C 17.834346 29.026516 17.895284 29.026516 17.956221 29.026516 Z M 17.956221 29.026516 " transform="matrix(0.384616,0,0,0.384616,0,0)"/>
<path style="fill-rule:nonzero;fill:rgb(4.313725%,3.529412%,7.45098%);fill-opacity:1;stroke-width:0.232558;stroke-linecap:butt;stroke-linejoin:miter;stroke:rgb(4.313725%,3.529412%,7.45098%);stroke-opacity:1;stroke-miterlimit:4;" d="M 7.373426 29.514015 C 7.759363 29.514015 8.104675 29.168703 8.104675 28.782766 C 8.104675 28.376517 7.759363 28.051518 7.373426 28.051518 C 6.987489 28.051518 6.642177 28.376517 6.642177 28.782766 C 6.642177 29.168703 6.987489 29.514015 7.373426 29.514015 Z M 7.373426 29.514015 " transform="matrix(0.384616,0,0,0.384616,0,0)"/>
<path style="fill-rule:nonzero;fill:rgb(4.313725%,3.529412%,7.45098%);fill-opacity:1;stroke-width:0.232558;stroke-linecap:butt;stroke-linejoin:miter;stroke:rgb(4.313725%,3.529412%,7.45098%);stroke-opacity:1;stroke-miterlimit:4;" d="M 28.559329 29.981202 C 29.229641 29.981202 29.757765 29.453078 29.757765 28.782766 C 29.757765 28.092143 29.229641 27.564018 28.559329 27.564018 C 27.889018 27.564018 27.360894 28.092143 27.360894 28.782766 C 27.360894 29.453078 27.929643 29.981202 28.559329 29.981202 Z M 28.559329 29.981202 " transform="matrix(0.384616,0,0,0.384616,0,0)"/>
<path style="fill-rule:nonzero;fill:rgb(4.313725%,3.529412%,7.45098%);fill-opacity:1;stroke-width:0.232558;stroke-linecap:butt;stroke-linejoin:miter;stroke:rgb(4.313725%,3.529412%,7.45098%);stroke-opacity:1;stroke-miterlimit:4;" d="M 23.257775 29.514015 C 23.643712 29.514015 23.989024 29.168703 23.989024 28.782766 C 23.989024 28.376517 23.643712 28.051518 23.257775 28.051518 C 22.871838 28.051518 22.526526 28.376517 22.526526 28.782766 C 22.526526 29.168703 22.871838 29.514015 23.257775 29.514015 Z M 23.257775 29.514015 " transform="matrix(0.384616,0,0,0.384616,0,0)"/>
<path style="fill-rule:nonzero;fill:rgb(4.313725%,3.529412%,7.45098%);fill-opacity:1;stroke-width:0.232558;stroke-linecap:butt;stroke-linejoin:miter;stroke:rgb(4.313725%,3.529412%,7.45098%);stroke-opacity:1;stroke-miterlimit:4;" d="M 12.67498 29.270266 C 12.979667 29.270266 13.162479 29.026516 13.162479 28.782766 C 13.162479 28.478079 12.918729 28.274955 12.67498 28.274955 C 12.532792 28.274955 12.410918 28.356205 12.329668 28.437455 C 12.248418 28.518704 12.167168 28.640579 12.167168 28.782766 C 12.167168 29.026516 12.34998 29.270266 12.67498 29.270266 Z M 12.67498 29.270266 " transform="matrix(0.384616,0,0,0.384616,0,0)"/>
<path style="fill-rule:nonzero;fill:rgb(4.313725%,3.529412%,7.45098%);fill-opacity:1;stroke-width:0.232558;stroke-linecap:butt;stroke-linejoin:miter;stroke:rgb(4.313725%,3.529412%,7.45098%);stroke-opacity:1;stroke-miterlimit:4;" d="M 33.840571 29.514015 C 34.24682 29.514015 34.57182 29.168703 34.57182 28.782766 C 34.57182 28.376517 34.24682 28.051518 33.840571 28.051518 C 33.454634 28.051518 33.129634 28.376517 33.129634 28.782766 C 33.129634 29.168703 33.454634 29.514015 33.840571 29.514015 Z M 33.840571 29.514015 " transform="matrix(0.384616,0,0,0.384616,0,0)"/>
<path style="fill-rule:nonzero;fill:rgb(4.313725%,3.529412%,7.45098%);fill-opacity:1;stroke-width:0.232558;stroke-linecap:butt;stroke-linejoin:miter;stroke:rgb(4.313725%,3.529412%,7.45098%);stroke-opacity:1;stroke-miterlimit:4;" d="M 44.443679 29.514015 C 44.829616 29.514015 45.174928 29.168703 45.174928 28.782766 C 45.174928 28.376517 44.829616 28.051518 44.443679 28.051518 C 44.03743 28.051518 43.71243 28.376517 43.71243 28.782766 C 43.71243 29.168703 44.03743 29.514015 44.443679 29.514015 Z M 44.443679 29.514015 " transform="matrix(0.384616,0,0,0.384616,0,0)"/>
<path style="fill-rule:nonzero;fill:rgb(4.313725%,3.529412%,7.45098%);fill-opacity:1;stroke-width:0.232558;stroke-linecap:butt;stroke-linejoin:miter;stroke:rgb(4.313725%,3.529412%,7.45098%);stroke-opacity:1;stroke-miterlimit:4;" d="M 39.142125 29.270266 C 39.446812 29.270266 39.629624 29.026516 39.629624 28.782766 C 39.629624 28.640579 39.568687 28.518704 39.487437 28.437455 C 39.406187 28.356205 39.284312 28.274955 39.142125 28.274955 C 38.837438 28.274955 38.654626 28.539017 38.654626 28.782766 C 38.654626 28.904641 38.715563 29.026516 38.796813 29.128078 C 38.898375 29.209328 39.02025 29.270266 39.142125 29.270266 Z M 39.142125 29.270266 " transform="matrix(0.384616,0,0,0.384616,0,0)"/>
<path style="fill-rule:nonzero;fill:rgb(4.313725%,3.529412%,7.45098%);fill-opacity:1;stroke-width:0.232558;stroke-linecap:butt;stroke-linejoin:miter;stroke:rgb(4.313725%,3.529412%,7.45098%);stroke-opacity:1;stroke-miterlimit:4;" d="M 2.071872 29.737452 C 2.620308 29.737452 2.985933 29.310891 2.985933 28.782766 C 2.985933 28.23433 2.559371 27.807768 2.031247 27.807768 C 1.503123 27.807768 1.076561 28.23433 1.076561 28.782766 C 1.076561 29.331203 1.543748 29.737452 2.071872 29.737452 Z M 2.071872 29.737452 " transform="matrix(0.384616,0,0,0.384616,0,0)"/>
<path style="fill-rule:nonzero;fill:rgb(4.313725%,3.529412%,7.45098%);fill-opacity:1;stroke-width:0.232558;stroke-linecap:butt;stroke-linejoin:miter;stroke:rgb(4.313725%,3.529412%,7.45098%);stroke-opacity:1;stroke-miterlimit:4;" d="M 49.72492 29.737452 C 50.273357 29.737452 50.699919 29.310891 50.699919 28.782766 C 50.699919 28.23433 50.273357 27.807768 49.72492 27.807768 C 49.196796 27.807768 48.770234 28.23433 48.770234 28.782766 C 48.770234 29.310891 49.196796 29.737452 49.72492 29.737452 Z M 49.72492 29.737452 " transform="matrix(0.384616,0,0,0.384616,0,0)"/>
<path style="fill-rule:nonzero;fill:rgb(4.313725%,3.529412%,7.45098%);fill-opacity:1;stroke-width:0.232558;stroke-linecap:butt;stroke-linejoin:miter;stroke:rgb(4.313725%,3.529412%,7.45098%);stroke-opacity:1;stroke-miterlimit:4;" d="M 17.956221 24.171836 C 18.362471 24.171836 18.68747 23.826524 18.68747 23.420275 C 18.68747 23.237463 18.60622 23.034338 18.484345 22.892151 C 18.342158 22.749964 18.159346 22.648401 17.956221 22.648401 C 17.570284 22.648401 17.245285 22.993713 17.245285 23.37965 C 17.245285 23.582775 17.326535 23.765587 17.44841 23.907774 C 17.570284 24.049962 17.753097 24.171836 17.956221 24.171836 Z M 17.956221 24.171836 " transform="matrix(0.384616,0,0,0.384616,0,0)"/>
<path style="fill-rule:nonzero;fill:rgb(4.313725%,3.529412%,7.45098%);fill-opacity:1;stroke-width:0.232558;stroke-linecap:butt;stroke-linejoin:miter;stroke:rgb(4.313725%,3.529412%,7.45098%);stroke-opacity:1;stroke-miterlimit:4;" d="M 7.373426 24.171836 C 7.759363 24.171836 8.104675 23.826524 8.104675 23.420275 C 8.104675 23.237463 8.023425 23.034338 7.881237 22.892151 C 7.759363 22.749964 7.57655 22.648401 7.373426 22.648401 C 6.987489 22.648401 6.642177 22.993713 6.642177 23.37965 C 6.642177 23.582775 6.723427 23.765587 6.865614 23.907774 C 6.987489 24.049962 7.170301 24.171836 7.373426 24.171836 Z M 7.373426 24.171836 " transform="matrix(0.384616,0,0,0.384616,0,0)"/>
<path style="fill-rule:nonzero;fill:rgb(4.313725%,3.529412%,7.45098%);fill-opacity:1;stroke-width:0.232558;stroke-linecap:butt;stroke-linejoin:miter;stroke:rgb(4.313725%,3.529412%,7.45098%);stroke-opacity:1;stroke-miterlimit:4;" d="M 28.559329 24.171836 C 28.945266 24.171836 29.270266 23.826524 29.270266 23.420275 C 29.270266 23.034338 28.945266 22.689026 28.559329 22.689026 C 28.15308 22.689026 27.82808 23.034338 27.82808 23.420275 C 27.82808 23.826524 28.15308 24.171836 28.559329 24.171836 Z M 28.559329 24.171836 " transform="matrix(0.384616,0,0,0.384616,0,0)"/>
<path style="fill-rule:nonzero;fill:rgb(4.313725%,3.529412%,7.45098%);fill-opacity:1;stroke-width:0.232558;stroke-linecap:butt;stroke-linejoin:miter;stroke:rgb(4.313725%,3.529412%,7.45098%);stroke-opacity:1;stroke-miterlimit:4;" d="M 23.257775 24.639023 C 23.928087 24.639023 24.456211 24.110899 24.456211 23.420275 C 24.456211 22.749964 23.928087 22.221839 23.257775 22.221839 C 22.587464 22.221839 22.05934 22.749964 22.05934 23.420275 C 22.05934 24.110899 22.587464 24.639023 23.257775 24.639023 Z M 23.257775 24.639023 " transform="matrix(0.384616,0,0,0.384616,0,0)"/>
<path style="fill-rule:nonzero;fill:rgb(4.313725%,3.529412%,7.45098%);fill-opacity:1;stroke-width:0.232558;stroke-linecap:butt;stroke-linejoin:miter;stroke:rgb(4.313725%,3.529412%,7.45098%);stroke-opacity:1;stroke-miterlimit:4;" d="M 12.67498 23.928087 C 12.979667 23.928087 13.162479 23.664025 13.162479 23.440587 C 13.162479 23.2984 13.101542 23.176525 12.999979 23.095276 C 12.918729 22.993713 12.796855 22.932776 12.67498 22.932776 C 12.532792 22.932776 12.410918 22.993713 12.329668 23.095276 C 12.248418 23.176525 12.167168 23.2984 12.167168 23.440587 C 12.167168 23.664025 12.34998 23.928087 12.67498 23.928087 Z M 12.67498 23.928087 " transform="matrix(0.384616,0,0,0.384616,0,0)"/>
<path style="fill-rule:nonzero;fill:rgb(4.313725%,3.529412%,7.45098%);fill-opacity:1;stroke-width:0.232558;stroke-linecap:butt;stroke-linejoin:miter;stroke:rgb(4.313725%,3.529412%,7.45098%);stroke-opacity:1;stroke-miterlimit:4;" d="M 33.840571 23.684337 C 33.921821 23.684337 33.982758 23.664025 34.043696 23.6234 C 34.08432 23.562462 34.104633 23.501525 34.104633 23.420275 C 34.104633 23.359338 34.08432 23.2984 34.043696 23.237463 C 33.982758 23.196838 33.921821 23.176525 33.840571 23.176525 C 33.779633 23.176525 33.718696 23.196838 33.657759 23.237463 C 33.617134 23.2984 33.596821 23.359338 33.596821 23.420275 C 33.596821 23.521837 33.637446 23.582775 33.678071 23.6234 C 33.739009 23.664025 33.799946 23.684337 33.840571 23.684337 Z M 33.840571 23.684337 " transform="matrix(0.384616,0,0,0.384616,0,0)"/>
<path style="fill-rule:nonzero;fill:rgb(4.313725%,3.529412%,7.45098%);fill-opacity:1;stroke-width:0.232558;stroke-linecap:butt;stroke-linejoin:miter;stroke:rgb(4.313725%,3.529412%,7.45098%);stroke-opacity:1;stroke-miterlimit:4;" d="M 44.443679 24.171836 C 44.829616 24.171836 45.174928 23.826524 45.174928 23.420275 C 45.174928 23.034338 44.829616 22.689026 44.443679 22.689026 C 44.03743 22.689026 43.71243 23.034338 43.71243 23.420275 C 43.71243 23.826524 44.03743 24.171836 44.443679 24.171836 Z M 44.443679 24.171836 " transform="matrix(0.384616,0,0,0.384616,0,0)"/>
<path style="fill-rule:nonzero;fill:rgb(4.313725%,3.529412%,7.45098%);fill-opacity:1;stroke-width:0.232558;stroke-linecap:butt;stroke-linejoin:miter;stroke:rgb(4.313725%,3.529412%,7.45098%);stroke-opacity:1;stroke-miterlimit:4;" d="M 39.142125 23.928087 C 39.446812 23.928087 39.629624 23.664025 39.629624 23.440587 C 39.629624 23.2984 39.568687 23.176525 39.487437 23.095276 C 39.406187 22.993713 39.284312 22.932776 39.142125 22.932776 C 38.837438 22.932776 38.654626 23.196838 38.654626 23.440587 C 38.654626 23.562462 38.715563 23.684337 38.796813 23.765587 C 38.898375 23.867149 39.02025 23.928087 39.142125 23.928087 Z M 39.142125 23.928087 " transform="matrix(0.384616,0,0,0.384616,0,0)"/>
<path style="fill-rule:nonzero;fill:rgb(4.313725%,3.529412%,7.45098%);fill-opacity:1;stroke-width:0.232558;stroke-linecap:butt;stroke-linejoin:miter;stroke:rgb(4.313725%,3.529412%,7.45098%);stroke-opacity:1;stroke-miterlimit:4;" d="M 2.071872 24.395273 C 2.620308 24.395273 3.04687 23.968712 3.04687 23.420275 C 3.04687 22.892151 2.620308 22.465589 2.071872 22.465589 C 1.543748 22.465589 1.117186 22.892151 1.117186 23.420275 C 1.117186 23.968712 1.543748 24.395273 2.071872 24.395273 Z M 2.071872 24.395273 " transform="matrix(0.384616,0,0,0.384616,0,0)"/>
<path style="fill-rule:nonzero;fill:rgb(4.313725%,3.529412%,7.45098%);fill-opacity:1;stroke-width:0.232558;stroke-linecap:butt;stroke-linejoin:miter;stroke:rgb(4.313725%,3.529412%,7.45098%);stroke-opacity:1;stroke-miterlimit:4;" d="M 48.770234 23.420275 L 48.770234 23.440587 C 48.831172 23.968712 49.237421 24.395273 49.72492 24.395273 C 50.273357 24.395273 50.699919 23.968712 50.699919 23.420275 C 50.699919 22.892151 50.273357 22.465589 49.72492 22.465589 C 49.196796 22.465589 48.770234 22.892151 48.770234 23.420275 Z M 48.770234 23.420275 " transform="matrix(0.384616,0,0,0.384616,0,0)"/>
<path style="fill-rule:nonzero;fill:rgb(4.313725%,3.529412%,7.45098%);fill-opacity:1;stroke-width:0.232558;stroke-linecap:butt;stroke-linejoin:miter;stroke:rgb(4.313725%,3.529412%,7.45098%);stroke-opacity:1;stroke-miterlimit:4;" d="M 17.956221 19.296844 C 18.646845 19.296844 19.154657 18.76872 19.154657 18.078096 C 19.154657 17.407785 18.646845 16.87966 17.956221 16.87966 C 17.28591 16.87966 16.778098 17.407785 16.778098 18.078096 C 16.778098 18.76872 17.28591 19.296844 17.956221 19.296844 Z M 17.956221 19.296844 " transform="matrix(0.384616,0,0,0.384616,0,0)"/>
<path style="fill-rule:nonzero;fill:rgb(4.313725%,3.529412%,7.45098%);fill-opacity:1;stroke-width:0.232558;stroke-linecap:butt;stroke-linejoin:miter;stroke:rgb(4.313725%,3.529412%,7.45098%);stroke-opacity:1;stroke-miterlimit:4;" d="M 7.373426 18.809345 C 7.759363 18.809345 8.104675 18.484345 8.104675 18.078096 C 8.104675 17.692159 7.759363 17.346847 7.373426 17.346847 C 6.987489 17.346847 6.642177 17.692159 6.642177 18.078096 C 6.642177 18.484345 6.987489 18.809345 7.373426 18.809345 Z M 7.373426 18.809345 " transform="matrix(0.384616,0,0,0.384616,0,0)"/>
<path style="fill-rule:nonzero;fill:rgb(4.313725%,3.529412%,7.45098%);fill-opacity:1;stroke-width:0.232558;stroke-linecap:butt;stroke-linejoin:miter;stroke:rgb(4.313725%,3.529412%,7.45098%);stroke-opacity:1;stroke-miterlimit:4;" d="M 23.257775 18.809345 C 23.643712 18.809345 23.989024 18.484345 23.989024 18.078096 C 23.989024 17.692159 23.643712 17.346847 23.257775 17.346847 C 22.871838 17.346847 22.526526 17.692159 22.526526 18.078096 C 22.526526 18.484345 22.871838 18.809345 23.257775 18.809345 Z M 23.257775 18.809345 " transform="matrix(0.384616,0,0,0.384616,0,0)"/>
<path style="fill-rule:nonzero;fill:rgb(4.313725%,3.529412%,7.45098%);fill-opacity:1;stroke-width:0.232558;stroke-linecap:butt;stroke-linejoin:miter;stroke:rgb(4.313725%,3.529412%,7.45098%);stroke-opacity:1;stroke-miterlimit:4;" d="M 12.67498 18.809345 C 13.060917 18.809345 13.385916 18.484345 13.385916 18.078096 C 13.385916 17.692159 13.060917 17.346847 12.67498 17.346847 C 12.26873 17.346847 11.943731 17.692159 11.943731 18.078096 C 11.943731 18.484345 12.26873 18.809345 12.67498 18.809345 Z M 12.67498 18.809345 " transform="matrix(0.384616,0,0,0.384616,0,0)"/>
<path style="fill-rule:nonzero;fill:rgb(4.313725%,3.529412%,7.45098%);fill-opacity:1;stroke-width:0.232558;stroke-linecap:butt;stroke-linejoin:miter;stroke:rgb(4.313725%,3.529412%,7.45098%);stroke-opacity:1;stroke-miterlimit:4;" d="M 33.840571 18.342158 C 33.921821 18.342158 33.982758 18.321846 34.043696 18.281221 C 34.08432 18.220283 34.104633 18.139033 34.104633 18.078096 C 34.104633 18.017159 34.08432 17.956221 34.043696 17.895284 C 33.982758 17.834346 33.921821 17.834346 33.840571 17.834346 C 33.779633 17.834346 33.718696 17.834346 33.657759 17.895284 C 33.617134 17.956221 33.596821 18.017159 33.596821 18.078096 C 33.596821 18.118721 33.617134 18.159346 33.617134 18.179658 C 33.637446 18.220283 33.657759 18.240596 33.678071 18.260908 C 33.698384 18.281221 33.718696 18.301533 33.739009 18.301533 C 33.759321 18.321846 33.799946 18.342158 33.840571 18.342158 Z M 33.840571 18.342158 " transform="matrix(0.384616,0,0,0.384616,0,0)"/>
<path style="fill-rule:nonzero;fill:rgb(4.313725%,3.529412%,7.45098%);fill-opacity:1;stroke-width:0.232558;stroke-linecap:butt;stroke-linejoin:miter;stroke:rgb(4.313725%,3.529412%,7.45098%);stroke-opacity:1;stroke-miterlimit:4;" d="M 43.813992 18.078096 L 43.813992 18.098409 C 43.834305 18.281221 43.895242 18.44372 44.017117 18.545283 C 44.118679 18.667158 44.260867 18.728095 44.443679 18.728095 C 44.788991 18.728095 45.073365 18.423408 45.073365 18.078096 C 45.073365 17.732784 44.788991 17.44841 44.443679 17.44841 C 44.098367 17.44841 43.813992 17.732784 43.813992 18.078096 Z M 43.813992 18.078096 " transform="matrix(0.384616,0,0,0.384616,0,0)"/>
<path style="fill-rule:nonzero;fill:rgb(4.313725%,3.529412%,7.45098%);fill-opacity:1;stroke-width:0.232558;stroke-linecap:butt;stroke-linejoin:miter;stroke:rgb(4.313725%,3.529412%,7.45098%);stroke-opacity:1;stroke-miterlimit:4;" d="M 39.142125 18.585908 C 39.446812 18.585908 39.629624 18.321846 39.629624 18.078096 C 39.629624 17.956221 39.568687 17.834346 39.487437 17.732784 C 39.406187 17.651534 39.284312 17.590597 39.142125 17.590597 C 38.837438 17.590597 38.654626 17.834346 38.654626 18.078096 C 38.654626 18.220283 38.715563 18.342158 38.796813 18.423408 C 38.898375 18.504658 39.02025 18.585908 39.142125 18.585908 Z M 39.142125 18.585908 " transform="matrix(0.384616,0,0,0.384616,0,0)"/>
<path style="fill-rule:nonzero;fill:rgb(4.313725%,3.529412%,7.45098%);fill-opacity:1;stroke-width:0.232558;stroke-linecap:butt;stroke-linejoin:miter;stroke:rgb(4.313725%,3.529412%,7.45098%);stroke-opacity:1;stroke-miterlimit:4;" d="M 2.071872 19.093719 C 2.660933 19.093719 3.087495 18.60622 3.087495 18.078096 C 3.087495 17.489035 2.599996 17.062473 2.071872 17.062473 C 1.543748 17.062473 1.076561 17.549972 1.076561 18.078096 C 1.076561 18.667158 1.503123 19.093719 2.071872 19.093719 Z M 2.071872 19.093719 " transform="matrix(0.384616,0,0,0.384616,0,0)"/>
<path style="fill-rule:nonzero;fill:rgb(4.313725%,3.529412%,7.45098%);fill-opacity:1;stroke-width:0.232558;stroke-linecap:butt;stroke-linejoin:miter;stroke:rgb(4.313725%,3.529412%,7.45098%);stroke-opacity:1;stroke-miterlimit:4;" d="M 49.72492 18.910907 C 50.171795 18.910907 50.557732 18.52497 50.557732 18.078096 C 50.557732 17.631222 50.171795 17.265597 49.72492 17.265597 C 49.298359 17.265597 48.912422 17.631222 48.912422 18.078096 C 48.912422 18.52497 49.298359 18.910907 49.72492 18.910907 Z M 49.72492 18.910907 " transform="matrix(0.384616,0,0,0.384616,0,0)"/>
<path style="fill-rule:nonzero;fill:rgb(4.313725%,3.529412%,7.45098%);fill-opacity:1;stroke-width:0.232558;stroke-linecap:butt;stroke-linejoin:miter;stroke:rgb(4.313725%,3.529412%,7.45098%);stroke-opacity:1;stroke-miterlimit:4;" d="M 17.956221 13.467166 C 18.362471 13.467166 18.68747 13.121854 18.68747 12.735917 C 18.68747 12.34998 18.362471 12.004668 17.956221 12.004668 C 17.570284 12.004668 17.245285 12.34998 17.245285 12.735917 C 17.245285 13.121854 17.570284 13.467166 17.956221 13.467166 Z M 17.956221 13.467166 " transform="matrix(0.384616,0,0,0.384616,0,0)"/>
<path style="fill-rule:nonzero;fill:rgb(4.313725%,3.529412%,7.45098%);fill-opacity:1;stroke-width:0.232558;stroke-linecap:butt;stroke-linejoin:miter;stroke:rgb(4.313725%,3.529412%,7.45098%);stroke-opacity:1;stroke-miterlimit:4;" d="M 7.373426 13.710916 C 7.90155 13.710916 8.328112 13.264041 8.328112 12.735917 C 8.328112 12.207793 7.90155 11.760919 7.373426 11.760919 C 6.845302 11.760919 6.41874 12.207793 6.41874 12.735917 C 6.41874 13.264041 6.845302 13.710916 7.373426 13.710916 Z M 7.373426 13.710916 " transform="matrix(0.384616,0,0,0.384616,0,0)"/>
<path style="fill-rule:nonzero;fill:rgb(4.313725%,3.529412%,7.45098%);fill-opacity:1;stroke-width:0.232558;stroke-linecap:butt;stroke-linejoin:miter;stroke:rgb(4.313725%,3.529412%,7.45098%);stroke-opacity:1;stroke-miterlimit:4;" d="M 23.257775 12.999979 C 23.318713 12.999979 23.399963 12.979667 23.440587 12.918729 C 23.501525 12.878104 23.521837 12.796855 23.521837 12.735917 C 23.521837 12.67498 23.501525 12.59373 23.440587 12.553105 C 23.399963 12.492168 23.318713 12.471855 23.257775 12.471855 C 23.196838 12.471855 23.115588 12.492168 23.074963 12.553105 C 23.014026 12.59373 22.993713 12.67498 22.993713 12.735917 C 22.993713 12.796855 23.014026 12.878104 23.074963 12.918729 C 23.115588 12.979667 23.196838 12.999979 23.257775 12.999979 Z M 23.257775 12.999979 " transform="matrix(0.384616,0,0,0.384616,0,0)"/>
<path style="fill-rule:nonzero;fill:rgb(4.313725%,3.529412%,7.45098%);fill-opacity:1;stroke-width:0.232558;stroke-linecap:butt;stroke-linejoin:miter;stroke:rgb(4.313725%,3.529412%,7.45098%);stroke-opacity:1;stroke-miterlimit:4;" d="M 12.67498 13.934353 C 13.345291 13.934353 13.853103 13.406229 13.853103 12.735917 C 13.853103 12.065606 13.345291 11.537482 12.67498 11.537482 C 11.984356 11.537482 11.476544 12.065606 11.476544 12.735917 C 11.476544 13.406229 11.984356 13.934353 12.67498 13.934353 Z M 12.67498 13.934353 " transform="matrix(0.384616,0,0,0.384616,0,0)"/>
<path style="fill-rule:nonzero;fill:rgb(4.313725%,3.529412%,7.45098%);fill-opacity:1;stroke-width:0.232558;stroke-linecap:butt;stroke-linejoin:miter;stroke:rgb(4.313725%,3.529412%,7.45098%);stroke-opacity:1;stroke-miterlimit:4;" d="M 33.840571 12.999979 C 33.921821 12.999979 33.982758 12.979667 34.043696 12.918729 C 34.08432 12.878104 34.104633 12.796855 34.104633 12.735917 C 34.104633 12.67498 34.08432 12.59373 34.043696 12.553105 C 33.982758 12.492168 33.921821 12.471855 33.840571 12.471855 C 33.779633 12.471855 33.718696 12.492168 33.657759 12.553105 C 33.617134 12.59373 33.596821 12.67498 33.596821 12.735917 C 33.596821 12.817167 33.637446 12.898417 33.678071 12.939042 C 33.739009 12.979667 33.799946 12.999979 33.840571 12.999979 Z M 33.840571 12.999979 " transform="matrix(0.384616,0,0,0.384616,0,0)"/>
<path style="fill-rule:nonzero;fill:rgb(4.313725%,3.529412%,7.45098%);fill-opacity:1;stroke-width:0.232558;stroke-linecap:butt;stroke-linejoin:miter;stroke:rgb(4.313725%,3.529412%,7.45098%);stroke-opacity:1;stroke-miterlimit:4;" d="M 44.443679 13.223416 C 44.565554 13.223416 44.687429 13.162479 44.788991 13.081229 C 44.870241 12.999979 44.931178 12.857792 44.931178 12.735917 C 44.931178 12.59373 44.870241 12.471855 44.788991 12.390605 C 44.687429 12.309355 44.565554 12.248418 44.443679 12.248418 C 44.301492 12.248418 44.179617 12.309355 44.098367 12.390605 C 44.017117 12.471855 43.95618 12.59373 43.95618 12.735917 C 43.95618 12.857792 44.017117 12.999979 44.098367 13.081229 C 44.179617 13.162479 44.301492 13.223416 44.443679 13.223416 Z M 44.443679 13.223416 " transform="matrix(0.384616,0,0,0.384616,0,0)"/>
<path style="fill-rule:nonzero;fill:rgb(4.313725%,3.529412%,7.45098%);fill-opacity:1;stroke-width:0.232558;stroke-linecap:butt;stroke-linejoin:miter;stroke:rgb(4.313725%,3.529412%,7.45098%);stroke-opacity:1;stroke-miterlimit:4;" d="M 39.142125 13.081229 C 39.243687 13.081229 39.324937 13.060917 39.406187 12.979667 C 39.467124 12.918729 39.487437 12.837479 39.487437 12.735917 C 39.487437 12.634355 39.467124 12.553105 39.406187 12.492168 C 39.324937 12.410918 39.243687 12.390605 39.142125 12.390605 C 39.040563 12.390605 38.959313 12.410918 38.898375 12.492168 C 38.817125 12.553105 38.796813 12.634355 38.796813 12.735917 C 38.796813 12.837479 38.817125 12.918729 38.898375 12.979667 C 38.959313 13.060917 39.040563 13.081229 39.142125 13.081229 Z M 39.142125 13.081229 " transform="matrix(0.384616,0,0,0.384616,0,0)"/>
<path style="fill-rule:nonzero;fill:rgb(4.313725%,3.529412%,7.45098%);fill-opacity:1;stroke-width:0.232558;stroke-linecap:butt;stroke-linejoin:miter;stroke:rgb(4.313725%,3.529412%,7.45098%);stroke-opacity:1;stroke-miterlimit:4;" d="M 2.071872 13.853103 C 2.701558 13.853103 3.168745 13.365604 3.168745 12.735917 C 3.168745 12.106231 2.701558 11.618731 2.071872 11.618731 C 1.442185 11.618731 0.974998 12.106231 0.974998 12.735917 C 0.974998 13.365604 1.442185 13.853103 2.071872 13.853103 Z M 2.071872 13.853103 " transform="matrix(0.384616,0,0,0.384616,0,0)"/>
<path style="fill-rule:nonzero;fill:rgb(4.313725%,3.529412%,7.45098%);fill-opacity:1;stroke-width:0.232558;stroke-linecap:butt;stroke-linejoin:miter;stroke:rgb(4.313725%,3.529412%,7.45098%);stroke-opacity:1;stroke-miterlimit:4;" d="M 49.72492 13.365604 C 50.090545 13.365604 50.374919 13.081229 50.374919 12.735917 C 50.374919 12.390605 50.090545 12.106231 49.72492 12.106231 C 49.379608 12.106231 49.156171 12.410918 49.156171 12.735917 C 49.156171 12.918729 49.217109 13.060917 49.318671 13.182791 C 49.440546 13.304666 49.582733 13.365604 49.72492 13.365604 Z M 49.72492 13.365604 " transform="matrix(0.384616,0,0,0.384616,0,0)"/>
<path style="fill-rule:nonzero;fill:rgb(4.313725%,3.529412%,7.45098%);fill-opacity:1;stroke-width:0.232558;stroke-linecap:butt;stroke-linejoin:miter;stroke:rgb(4.313725%,3.529412%,7.45098%);stroke-opacity:1;stroke-miterlimit:4;" d="M 17.956221 7.637488 C 18.037471 7.637488 18.098409 7.637488 18.159346 7.57655 C 18.199971 7.515613 18.220283 7.454676 18.220283 7.393738 C 18.220283 7.332801 18.199971 7.251551 18.159346 7.190613 C 18.098409 7.149989 18.037471 7.129676 17.956221 7.129676 C 17.895284 7.129676 17.834346 7.149989 17.773409 7.190613 C 17.732784 7.251551 17.712472 7.332801 17.712472 7.393738 C 17.712472 7.454676 17.732784 7.515613 17.773409 7.57655 C 17.834346 7.637488 17.895284 7.637488 17.956221 7.637488 Z M 17.956221 7.637488 " transform="matrix(0.384616,0,0,0.384616,0,0)"/>
<path style="fill-rule:nonzero;fill:rgb(4.313725%,3.529412%,7.45098%);fill-opacity:1;stroke-width:0.232558;stroke-linecap:butt;stroke-linejoin:miter;stroke:rgb(4.313725%,3.529412%,7.45098%);stroke-opacity:1;stroke-miterlimit:4;" d="M 7.373426 8.592174 C 8.043737 8.592174 8.571861 8.06405 8.571861 7.393738 C 8.571861 6.703114 8.043737 6.17499 7.373426 6.17499 C 6.703114 6.17499 6.17499 6.703114 6.17499 7.393738 C 6.17499 8.06405 6.703114 8.592174 7.373426 8.592174 Z M 7.373426 8.592174 " transform="matrix(0.384616,0,0,0.384616,0,0)"/>
<path style="fill-rule:nonzero;fill:rgb(4.313725%,3.529412%,7.45098%);fill-opacity:1;stroke-width:0.232558;stroke-linecap:butt;stroke-linejoin:miter;stroke:rgb(4.313725%,3.529412%,7.45098%);stroke-opacity:1;stroke-miterlimit:4;" d="M 12.67498 8.124987 C 13.060917 8.124987 13.385916 7.779675 13.385916 7.393738 C 13.385916 6.987489 13.060917 6.662489 12.67498 6.662489 C 12.26873 6.662489 11.943731 6.987489 11.943731 7.393738 C 11.943731 7.779675 12.26873 8.124987 12.67498 8.124987 Z M 12.67498 8.124987 " transform="matrix(0.384616,0,0,0.384616,0,0)"/>
<path style="fill-rule:nonzero;fill:rgb(4.313725%,3.529412%,7.45098%);fill-opacity:1;stroke-width:0.232558;stroke-linecap:butt;stroke-linejoin:miter;stroke:rgb(4.313725%,3.529412%,7.45098%);stroke-opacity:1;stroke-miterlimit:4;" d="M 33.840571 7.637488 C 33.921821 7.637488 33.982758 7.637488 34.043696 7.57655 C 34.08432 7.515613 34.104633 7.454676 34.104633 7.393738 C 34.104633 7.332801 34.08432 7.251551 34.043696 7.190613 C 33.982758 7.149989 33.921821 7.129676 33.840571 7.129676 C 33.779633 7.129676 33.718696 7.149989 33.657759 7.190613 C 33.617134 7.251551 33.596821 7.332801 33.596821 7.393738 C 33.596821 7.474988 33.637446 7.535925 33.678071 7.57655 C 33.739009 7.617175 33.799946 7.637488 33.840571 7.637488 Z M 33.840571 7.637488 " transform="matrix(0.384616,0,0,0.384616,0,0)"/>
<path style="fill-rule:nonzero;fill:rgb(4.313725%,3.529412%,7.45098%);fill-opacity:1;stroke-width:0.232558;stroke-linecap:butt;stroke-linejoin:miter;stroke:rgb(4.313725%,3.529412%,7.45098%);stroke-opacity:1;stroke-miterlimit:4;" d="M 44.443679 7.779675 C 44.545241 7.779675 44.626491 7.759363 44.687429 7.698425 C 44.748366 7.617175 44.788991 7.535925 44.788991 7.434363 C 44.788991 7.332801 44.768678 7.251551 44.707741 7.170301 C 44.646804 7.089051 44.545241 7.028114 44.443679 7.028114 C 44.342117 7.028114 44.260867 7.068739 44.179617 7.129676 C 44.118679 7.210926 44.098367 7.292176 44.098367 7.393738 C 44.098367 7.474988 44.118679 7.57655 44.179617 7.6578 C 44.240554 7.73905 44.321804 7.779675 44.443679 7.779675 Z M 44.443679 7.779675 " transform="matrix(0.384616,0,0,0.384616,0,0)"/>
<path style="fill-rule:nonzero;fill:rgb(4.313725%,3.529412%,7.45098%);fill-opacity:1;stroke-width:0.232558;stroke-linecap:butt;stroke-linejoin:miter;stroke:rgb(4.313725%,3.529412%,7.45098%);stroke-opacity:1;stroke-miterlimit:4;" d="M 39.142125 7.637488 C 39.203062 7.637488 39.284312 7.637488 39.324937 7.57655 C 39.385874 7.515613 39.406187 7.454676 39.406187 7.393738 C 39.406187 7.332801 39.385874 7.251551 39.324937 7.190613 C 39.284312 7.149989 39.203062 7.129676 39.142125 7.129676 C 39.081187 7.129676 38.999938 7.149989 38.959313 7.190613 C 38.898375 7.251551 38.878063 7.332801 38.878063 7.393738 C 38.878063 7.474988 38.939 7.535925 38.979625 7.57655 C 39.02025 7.617175 39.081187 7.637488 39.142125 7.637488 Z M 39.142125 7.637488 " transform="matrix(0.384616,0,0,0.384616,0,0)"/>
<path style="fill-rule:nonzero;fill:rgb(4.313725%,3.529412%,7.45098%);fill-opacity:1;stroke-width:0.232558;stroke-linecap:butt;stroke-linejoin:miter;stroke:rgb(4.313725%,3.529412%,7.45098%);stroke-opacity:1;stroke-miterlimit:4;" d="M 2.071872 6.17499 C 1.462498 6.17499 0.893749 6.703114 0.893749 7.393738 C 0.893749 8.06405 1.40156 8.592174 2.071872 8.592174 C 2.742183 8.592174 3.270307 8.06405 3.270307 7.393738 C 3.270307 6.703114 2.701558 6.17499 2.071872 6.17499 Z M 2.071872 6.17499 " transform="matrix(0.384616,0,0,0.384616,0,0)"/>
<path style="fill-rule:nonzero;fill:rgb(4.313725%,3.529412%,7.45098%);fill-opacity:1;stroke-width:0.232558;stroke-linecap:butt;stroke-linejoin:miter;stroke:rgb(4.313725%,3.529412%,7.45098%);stroke-opacity:1;stroke-miterlimit:4;" d="M 49.72492 7.881237 C 49.867108 7.881237 49.988983 7.8203 50.070232 7.73905 C 50.151482 7.637488 50.232732 7.515613 50.232732 7.393738 C 50.232732 7.251551 50.151482 7.129676 50.070232 7.048426 C 49.988983 6.967176 49.867108 6.885926 49.72492 6.885926 C 49.603046 6.885926 49.481171 6.967176 49.399921 7.048426 C 49.298359 7.129676 49.237421 7.251551 49.237421 7.393738 C 49.237421 7.515613 49.298359 7.637488 49.399921 7.73905 C 49.481171 7.8203 49.603046 7.881237 49.72492 7.881237 Z M 49.72492 7.881237 " transform="matrix(0.384616,0,0,0.384616,0,0)"/>
<path style="fill-rule:nonzero;fill:rgb(4.313725%,3.529412%,7.45098%);fill-opacity:1;stroke-width:0.232558;stroke-linecap:butt;stroke-linejoin:miter;stroke:rgb(4.313725%,3.529412%,7.45098%);stroke-opacity:1;stroke-miterlimit:4;" d="M 7.373426 50.374919 C 7.434363 50.374919 7.515613 50.354607 7.556238 50.313982 C 7.617175 50.253045 7.637488 50.192107 7.637488 50.110857 C 7.637488 50.04992 7.617175 49.988983 7.556238 49.928045 C 7.515613 49.88742 7.434363 49.867108 7.373426 49.867108 C 7.312488 49.867108 7.231238 49.88742 7.190613 49.928045 C 7.129676 49.988983 7.109364 50.04992 7.109364 50.110857 C 7.109364 50.192107 7.129676 50.253045 7.190613 50.313982 C 7.231238 50.354607 7.312488 50.374919 7.373426 50.374919 Z M 7.373426 50.374919 " transform="matrix(0.384616,0,0,0.384616,0,0)"/>
<path style="fill-rule:nonzero;fill:rgb(4.313725%,3.529412%,7.45098%);fill-opacity:1;stroke-width:0.232558;stroke-linecap:butt;stroke-linejoin:miter;stroke:rgb(4.313725%,3.529412%,7.45098%);stroke-opacity:1;stroke-miterlimit:4;" d="M 44.443679 50.842106 C 44.829616 50.842106 45.174928 50.517107 45.174928 50.110857 C 45.174928 49.72492 44.829616 49.379608 44.443679 49.379608 C 44.03743 49.379608 43.71243 49.72492 43.71243 50.110857 C 43.71243 50.517107 44.03743 50.842106 44.443679 50.842106 Z M 44.443679 50.842106 " transform="matrix(0.384616,0,0,0.384616,0,0)"/>
<path style="fill-rule:nonzero;fill:rgb(4.313725%,3.529412%,7.45098%);fill-opacity:1;stroke-width:0.232558;stroke-linecap:butt;stroke-linejoin:miter;stroke:rgb(4.313725%,3.529412%,7.45098%);stroke-opacity:1;stroke-miterlimit:4;" d="M 39.142125 50.374919 C 39.203062 50.374919 39.284312 50.354607 39.324937 50.313982 C 39.385874 50.253045 39.406187 50.192107 39.406187 50.110857 C 39.406187 50.04992 39.385874 49.988983 39.324937 49.928045 C 39.284312 49.88742 39.203062 49.867108 39.142125 49.867108 C 39.081187 49.867108 38.999938 49.88742 38.959313 49.928045 C 38.898375 49.988983 38.878063 50.04992 38.878063 50.110857 C 38.878063 50.21242 38.939 50.273357 38.979625 50.313982 C 39.02025 50.354607 39.081187 50.374919 39.142125 50.374919 Z M 39.142125 50.374919 " transform="matrix(0.384616,0,0,0.384616,0,0)"/>
<path style="fill-rule:nonzero;fill:rgb(4.313725%,3.529412%,7.45098%);fill-opacity:1;stroke-width:0.232558;stroke-linecap:butt;stroke-linejoin:miter;stroke:rgb(4.313725%,3.529412%,7.45098%);stroke-opacity:1;stroke-miterlimit:4;" d="M 2.071872 50.476482 C 2.173434 50.476482 2.254684 50.435857 2.335934 50.374919 C 2.396871 50.313982 2.437496 50.21242 2.437496 50.110857 C 2.437496 50.029607 2.396871 49.928045 2.335934 49.867108 C 2.254684 49.80617 2.173434 49.765545 2.071872 49.765545 C 1.990622 49.765545 1.889059 49.80617 1.828122 49.867108 C 1.767185 49.928045 1.72656 50.029607 1.72656 50.110857 C 1.72656 50.21242 1.767185 50.313982 1.828122 50.374919 C 1.889059 50.435857 1.990622 50.476482 2.071872 50.476482 Z M 2.071872 50.476482 " transform="matrix(0.384616,0,0,0.384616,0,0)"/>
<path style="fill-rule:nonzero;fill:rgb(4.313725%,3.529412%,7.45098%);fill-opacity:1;stroke-width:0.232558;stroke-linecap:butt;stroke-linejoin:miter;stroke:rgb(4.313725%,3.529412%,7.45098%);stroke-opacity:1;stroke-miterlimit:4;" d="M 49.72492 48.912422 C 49.115546 48.912422 48.546797 49.440546 48.546797 50.110857 C 48.546797 50.801481 49.054609 51.329605 49.72492 51.329605 C 50.415544 51.329605 50.923356 50.801481 50.923356 50.110857 C 50.923356 49.440546 50.415544 48.912422 49.72492 48.912422 Z M 49.72492 48.912422 " transform="matrix(0.384616,0,0,0.384616,0,0)"/>
<path style="fill-rule:nonzero;fill:rgb(4.313725%,3.529412%,7.45098%);fill-opacity:1;stroke-width:0.232558;stroke-linecap:butt;stroke-linejoin:miter;stroke:rgb(4.313725%,3.529412%,7.45098%);stroke-opacity:1;stroke-miterlimit:4;" d="M 7.373426 45.134303 C 7.474988 45.134303 7.556238 45.093678 7.617175 45.03274 C 7.698425 44.951491 7.718738 44.870241 7.718738 44.768678 C 7.718738 44.667116 7.698425 44.585866 7.617175 44.524929 C 7.556238 44.443679 7.474988 44.423366 7.373426 44.423366 C 7.271863 44.423366 7.190613 44.443679 7.129676 44.524929 C 7.048426 44.585866 7.028114 44.667116 7.028114 44.768678 C 7.028114 44.870241 7.048426 44.951491 7.129676 45.03274 C 7.190613 45.093678 7.271863 45.134303 7.373426 45.134303 Z M 7.373426 45.134303 " transform="matrix(0.384616,0,0,0.384616,0,0)"/>
<path style="fill-rule:nonzero;fill:rgb(4.313725%,3.529412%,7.45098%);fill-opacity:1;stroke-width:0.232558;stroke-linecap:butt;stroke-linejoin:miter;stroke:rgb(4.313725%,3.529412%,7.45098%);stroke-opacity:1;stroke-miterlimit:4;" d="M 12.67498 45.03274 C 12.735917 45.03274 12.796855 45.012428 12.857792 44.951491 C 12.918729 44.910866 12.918729 44.829616 12.918729 44.768678 C 12.918729 44.707741 12.918729 44.646804 12.857792 44.585866 C 12.796855 44.524929 12.735917 44.504616 12.67498 44.504616 C 12.59373 44.504616 12.532792 44.524929 12.471855 44.585866 C 12.43123 44.646804 12.410918 44.707741 12.410918 44.768678 C 12.410918 44.829616 12.43123 44.910866 12.471855 44.951491 C 12.532792 45.012428 12.59373 45.03274 12.67498 45.03274 Z M 12.67498 45.03274 " transform="matrix(0.384616,0,0,0.384616,0,0)"/>
<path style="fill-rule:nonzero;fill:rgb(4.313725%,3.529412%,7.45098%);fill-opacity:1;stroke-width:0.232558;stroke-linecap:butt;stroke-linejoin:miter;stroke:rgb(4.313725%,3.529412%,7.45098%);stroke-opacity:1;stroke-miterlimit:4;" d="M 33.840571 45.03274 C 33.921821 45.03274 33.982758 45.012428 34.043696 44.951491 C 34.08432 44.910866 34.104633 44.829616 34.104633 44.768678 C 34.104633 44.707741 34.08432 44.646804 34.043696 44.585866 C 33.982758 44.524929 33.921821 44.504616 33.840571 44.504616 C 33.779633 44.504616 33.718696 44.524929 33.657759 44.585866 C 33.617134 44.646804 33.596821 44.707741 33.596821 44.768678 C 33.596821 44.870241 33.637446 44.931178 33.678071 44.971803 C 33.739009 45.012428 33.799946 45.03274 33.840571 45.03274 Z M 33.840571 45.03274 " transform="matrix(0.384616,0,0,0.384616,0,0)"/>
<path style="fill-rule:nonzero;fill:rgb(4.313725%,3.529412%,7.45098%);fill-opacity:1;stroke-width:0.232558;stroke-linecap:butt;stroke-linejoin:miter;stroke:rgb(4.313725%,3.529412%,7.45098%);stroke-opacity:1;stroke-miterlimit:4;" d="M 44.443679 45.967114 C 45.11399 45.967114 45.642114 45.459302 45.642114 44.768678 C 45.642114 44.098367 45.11399 43.570243 44.443679 43.570243 C 43.773367 43.570243 43.245243 44.098367 43.245243 44.768678 C 43.245243 45.459302 43.813992 45.967114 44.443679 45.967114 Z M 44.443679 45.967114 " transform="matrix(0.384616,0,0,0.384616,0,0)"/>
<path style="fill-rule:nonzero;fill:rgb(4.313725%,3.529412%,7.45098%);fill-opacity:1;stroke-width:0.232558;stroke-linecap:butt;stroke-linejoin:miter;stroke:rgb(4.313725%,3.529412%,7.45098%);stroke-opacity:1;stroke-miterlimit:4;" d="M 39.142125 45.499927 C 39.528062 45.499927 39.873374 45.174928 39.873374 44.768678 C 39.873374 44.382741 39.528062 44.03743 39.142125 44.03743 C 38.756188 44.03743 38.410876 44.382741 38.410876 44.768678 C 38.410876 45.174928 38.756188 45.499927 39.142125 45.499927 Z M 39.142125 45.499927 " transform="matrix(0.384616,0,0,0.384616,0,0)"/>
<path style="fill-rule:nonzero;fill:rgb(4.313725%,3.529412%,7.45098%);fill-opacity:1;stroke-width:0.232558;stroke-linecap:butt;stroke-linejoin:miter;stroke:rgb(4.313725%,3.529412%,7.45098%);stroke-opacity:1;stroke-miterlimit:4;" d="M 2.071872 45.27649 C 2.214059 45.27649 2.335934 45.19524 2.417184 45.11399 C 2.498434 45.03274 2.559371 44.910866 2.559371 44.768678 C 2.559371 44.646804 2.498434 44.524929 2.417184 44.423366 C 2.335934 44.342117 2.214059 44.281179 2.071872 44.281179 C 1.949997 44.281179 1.828122 44.342117 1.746872 44.423366 C 1.64531 44.524929 1.584372 44.646804 1.584372 44.768678 C 1.584372 44.910866 1.624997 45.03274 1.72656 45.134303 C 1.80781 45.215553 1.929684 45.27649 2.071872 45.27649 Z M 2.071872 45.27649 " transform="matrix(0.384616,0,0,0.384616,0,0)"/>
<path style="fill-rule:nonzero;fill:rgb(4.313725%,3.529412%,7.45098%);fill-opacity:1;stroke-width:0.232558;stroke-linecap:butt;stroke-linejoin:miter;stroke:rgb(4.313725%,3.529412%,7.45098%);stroke-opacity:1;stroke-miterlimit:4;" d="M 49.72492 45.967114 C 50.354607 45.967114 50.923356 45.459302 50.923356 44.768678 C 50.923356 44.098367 50.415544 43.570243 49.72492 43.570243 C 49.054609 43.570243 48.546797 44.098367 48.546797 44.768678 C 48.546797 45.459302 49.115546 45.967114 49.72492 45.967114 Z M 49.72492 45.967114 " transform="matrix(0.384616,0,0,0.384616,0,0)"/>
<path style="fill-rule:nonzero;fill:rgb(4.313725%,3.529412%,7.45098%);fill-opacity:1;stroke-width:0.232558;stroke-linecap:butt;stroke-linejoin:miter;stroke:rgb(4.313725%,3.529412%,7.45098%);stroke-opacity:1;stroke-miterlimit:4;" d="M 7.373426 2.823433 C 7.759363 2.823433 8.104675 2.478121 8.104675 2.092184 C 8.104675 1.685935 7.759363 1.360935 7.373426 1.360935 C 6.987489 1.360935 6.642177 1.64531 6.642177 2.092184 C 6.642177 2.478121 6.987489 2.823433 7.373426 2.823433 Z M 7.373426 2.823433 " transform="matrix(0.384616,0,0,0.384616,0,0)"/>
<path style="fill-rule:nonzero;fill:rgb(4.313725%,3.529412%,7.45098%);fill-opacity:1;stroke-width:0.232558;stroke-linecap:butt;stroke-linejoin:miter;stroke:rgb(4.313725%,3.529412%,7.45098%);stroke-opacity:1;stroke-miterlimit:4;" d="M 12.67498 2.356246 C 12.735917 2.356246 12.796855 2.335934 12.857792 2.274996 C 12.918729 2.214059 12.918729 2.153122 12.918729 2.092184 C 12.918729 2.031247 12.918729 1.949997 12.857792 1.909372 C 12.796855 1.848435 12.735917 1.828122 12.67498 1.828122 C 12.59373 1.828122 12.532792 1.848435 12.471855 1.909372 C 12.43123 1.949997 12.410918 2.031247 12.410918 2.092184 C 12.410918 2.132809 12.43123 2.193746 12.471855 2.254684 C 12.51248 2.295309 12.573417 2.356246 12.67498 2.356246 Z M 12.67498 2.356246 " transform="matrix(0.384616,0,0,0.384616,0,0)"/>
<path style="fill-rule:nonzero;fill:rgb(4.313725%,3.529412%,7.45098%);fill-opacity:1;stroke-width:0.232558;stroke-linecap:butt;stroke-linejoin:miter;stroke:rgb(4.313725%,3.529412%,7.45098%);stroke-opacity:1;stroke-miterlimit:4;" d="M 44.443679 2.356246 C 44.504616 2.356246 44.565554 2.335934 44.626491 2.274996 C 44.687429 2.214059 44.687429 2.153122 44.687429 2.092184 C 44.687429 2.031247 44.687429 1.949997 44.626491 1.909372 C 44.565554 1.848435 44.504616 1.828122 44.443679 1.828122 C 44.382741 1.828122 44.301492 1.848435 44.260867 1.909372 C 44.199929 1.949997 44.179617 2.031247 44.179617 2.092184 C 44.179617 2.132809 44.199929 2.173434 44.220242 2.193746 C 44.220242 2.214059 44.240554 2.234371 44.260867 2.254684 C 44.281179 2.274996 44.301492 2.295309 44.342117 2.315621 C 44.362429 2.335934 44.403054 2.356246 44.443679 2.356246 Z M 44.443679 2.356246 " transform="matrix(0.384616,0,0,0.384616,0,0)"/>
<path style="fill-rule:nonzero;fill:rgb(4.313725%,3.529412%,7.45098%);fill-opacity:1;stroke-width:0.232558;stroke-linecap:butt;stroke-linejoin:miter;stroke:rgb(4.313725%,3.529412%,7.45098%);stroke-opacity:1;stroke-miterlimit:4;" d="M 2.071872 3.249995 C 2.701558 3.249995 3.270307 2.721871 3.270307 2.031247 C 3.270307 1.360935 2.701558 0.893749 2.071872 0.893749 C 1.462498 0.893749 0.893749 1.40156 0.893749 2.092184 C 0.893749 2.782808 1.40156 3.249995 2.071872 3.249995 Z M 2.071872 3.249995 " transform="matrix(0.384616,0,0,0.384616,0,0)"/>
<path style="fill-rule:nonzero;fill:rgb(4.313725%,3.529412%,7.45098%);fill-opacity:1;stroke-width:0.232558;stroke-linecap:butt;stroke-linejoin:miter;stroke:rgb(4.313725%,3.529412%,7.45098%);stroke-opacity:1;stroke-miterlimit:4;" d="M 49.72492 2.437496 C 49.826483 2.437496 49.928045 2.417184 49.988983 2.335934 C 50.04992 2.274996 50.090545 2.193746 50.090545 2.092184 C 50.090545 1.990622 50.04992 1.909372 49.988983 1.828122 C 49.928045 1.767185 49.826483 1.72656 49.72492 1.72656 C 49.643671 1.72656 49.542108 1.767185 49.481171 1.828122 C 49.420233 1.909372 49.379608 1.990622 49.379608 2.092184 C 49.379608 2.193746 49.420233 2.274996 49.481171 2.335934 C 49.542108 2.417184 49.643671 2.437496 49.72492 2.437496 Z M 49.72492 2.437496 " transform="matrix(0.384616,0,0,0.384616,0,0)"/>
</g>
</svg>
