<?xml version="1.0" encoding="UTF-8"?>
<svg xmlns="http://www.w3.org/2000/svg" xmlns:xlink="http://www.w3.org/1999/xlink" width="20px" height="20px" viewBox="0 0 20 20" version="1.1">
<g id="surface1">
<path style="fill-rule:nonzero;fill:rgb(4.313725%,3.529412%,7.45098%);fill-opacity:1;stroke-width:0.232558;stroke-linecap:butt;stroke-linejoin:miter;stroke:rgb(4.313725%,3.529412%,7.45098%);stroke-opacity:1;stroke-miterlimit:4;" d="M 17.966406 39.680469 C 18.027344 39.680469 18.098437 39.670312 18.149219 39.609375 C 18.2 39.558594 18.220312 39.4875 18.220312 39.426562 C 18.220312 39.355469 18.2 39.294531 18.149219 39.233594 C 18.098437 39.182812 18.027344 39.1625 17.966406 39.1625 C 17.895312 39.1625 17.824219 39.182812 17.773437 39.233594 C 17.722656 39.294531 17.702344 39.355469 17.702344 39.426562 C 17.702344 39.4875 17.722656 39.558594 17.773437 39.609375 C 17.824219 39.670312 17.895312 39.680469 17.966406 39.680469 Z M 17.966406 39.680469 " transform="matrix(0.384615,0,0,0.384615,0,0)"/>
<path style="fill-rule:nonzero;fill:rgb(4.313725%,3.529412%,7.45098%);fill-opacity:1;stroke-width:0.232558;stroke-linecap:butt;stroke-linejoin:miter;stroke:rgb(4.313725%,3.529412%,7.45098%);stroke-opacity:1;stroke-miterlimit:4;" d="M 7.373437 39.924219 C 7.505469 39.924219 7.627344 39.853125 7.708594 39.771875 C 7.8 39.680469 7.860937 39.558594 7.860937 39.426562 C 7.860937 39.294531 7.8 39.172656 7.708594 39.08125 C 7.627344 39 7.505469 38.928906 7.373437 38.928906 C 7.241406 38.928906 7.119531 39 7.028125 39.08125 C 6.946875 39.172656 6.885937 39.294531 6.885937 39.426562 C 6.885937 39.56875 6.926562 39.690625 7.017969 39.782031 C 7.109375 39.873437 7.23125 39.924219 7.373437 39.924219 Z M 7.373437 39.924219 " transform="matrix(0.384615,0,0,0.384615,0,0)"/>
<path style="fill-rule:nonzero;fill:rgb(4.313725%,3.529412%,7.45098%);fill-opacity:1;stroke-width:0.232558;stroke-linecap:butt;stroke-linejoin:miter;stroke:rgb(4.313725%,3.529412%,7.45098%);stroke-opacity:1;stroke-miterlimit:4;" d="M 28.549219 39.680469 C 28.620312 39.680469 28.691406 39.670312 28.742187 39.609375 C 28.792969 39.558594 28.813281 39.4875 28.813281 39.426562 C 28.813281 39.355469 28.792969 39.294531 28.742187 39.233594 C 28.691406 39.182812 28.620312 39.1625 28.549219 39.1625 C 28.488281 39.1625 28.417187 39.182812 28.366406 39.233594 C 28.315625 39.294531 28.295312 39.355469 28.295312 39.426562 C 28.295312 39.4875 28.315625 39.558594 28.366406 39.609375 C 28.417187 39.670312 28.488281 39.680469 28.549219 39.680469 Z M 28.549219 39.680469 " transform="matrix(0.384615,0,0,0.384615,0,0)"/>
<path style="fill-rule:nonzero;fill:rgb(4.313725%,3.529412%,7.45098%);fill-opacity:1;stroke-width:0.232558;stroke-linecap:butt;stroke-linejoin:miter;stroke:rgb(4.313725%,3.529412%,7.45098%);stroke-opacity:1;stroke-miterlimit:4;" d="M 12.664844 39.782031 C 12.766406 39.782031 12.857812 39.741406 12.91875 39.680469 C 12.989844 39.609375 13.020312 39.517969 13.020312 39.426562 C 13.020312 39.325 12.989844 39.233594 12.91875 39.172656 C 12.857812 39.101562 12.766406 39.071094 12.664844 39.071094 C 12.573437 39.071094 12.482031 39.101562 12.410937 39.172656 C 12.35 39.233594 12.319531 39.325 12.319531 39.426562 C 12.319531 39.517969 12.35 39.609375 12.410937 39.680469 C 12.482031 39.741406 12.573437 39.782031 12.664844 39.782031 Z M 12.664844 39.782031 " transform="matrix(0.384615,0,0,0.384615,0,0)"/>
<path style="fill-rule:nonzero;fill:rgb(4.313725%,3.529412%,7.45098%);fill-opacity:1;stroke-width:0.232558;stroke-linecap:butt;stroke-linejoin:miter;stroke:rgb(4.313725%,3.529412%,7.45098%);stroke-opacity:1;stroke-miterlimit:4;" d="M 33.850781 40.157812 C 34.246875 40.157812 34.571875 39.822656 34.571875 39.426562 C 34.571875 39.030469 34.246875 38.695312 33.850781 38.695312 C 33.454687 38.695312 33.119531 39.030469 33.119531 39.426562 C 33.119531 39.822656 33.454687 40.157812 33.850781 40.157812 Z M 33.850781 40.157812 " transform="matrix(0.384615,0,0,0.384615,0,0)"/>
<path style="fill-rule:nonzero;fill:rgb(4.313725%,3.529412%,7.45098%);fill-opacity:1;stroke-width:0.232558;stroke-linecap:butt;stroke-linejoin:miter;stroke:rgb(4.313725%,3.529412%,7.45098%);stroke-opacity:1;stroke-miterlimit:4;" d="M 44.44375 40.391406 C 44.971875 40.391406 45.398437 39.964844 45.398437 39.426562 C 45.398437 38.888281 44.971875 38.461719 44.44375 38.461719 C 43.905469 38.461719 43.478906 38.888281 43.478906 39.426562 C 43.478906 39.964844 43.905469 40.391406 44.44375 40.391406 Z M 44.44375 40.391406 " transform="matrix(0.384615,0,0,0.384615,0,0)"/>
<path style="fill-rule:nonzero;fill:rgb(4.313725%,3.529412%,7.45098%);fill-opacity:1;stroke-width:0.232558;stroke-linecap:butt;stroke-linejoin:miter;stroke:rgb(4.313725%,3.529412%,7.45098%);stroke-opacity:1;stroke-miterlimit:4;" d="M 39.142187 40.625 C 39.822656 40.625 40.340625 40.107031 40.340625 39.426562 C 40.340625 38.746094 39.822656 38.217969 39.142187 38.217969 C 38.471875 38.217969 37.953906 38.746094 37.953906 39.426562 C 37.953906 40.107031 38.522656 40.625 39.142187 40.625 Z M 39.142187 40.625 " transform="matrix(0.384615,0,0,0.384615,0,0)"/>
<path style="fill-rule:nonzero;fill:rgb(4.313725%,3.529412%,7.45098%);fill-opacity:1;stroke-width:0.232558;stroke-linecap:butt;stroke-linejoin:miter;stroke:rgb(4.313725%,3.529412%,7.45098%);stroke-opacity:1;stroke-miterlimit:4;" d="M 2.082031 40.066406 C 2.427344 40.066406 2.711719 39.771875 2.711719 39.426562 C 2.711719 39.08125 2.427344 38.786719 2.082031 38.786719 C 1.726562 38.786719 1.442187 39.08125 1.442187 39.426562 C 1.442187 39.619531 1.513281 39.782031 1.635156 39.89375 C 1.757031 40.005469 1.909375 40.066406 2.082031 40.066406 Z M 2.082031 40.066406 " transform="matrix(0.384615,0,0,0.384615,0,0)"/>
<path style="fill-rule:nonzero;fill:rgb(4.313725%,3.529412%,7.45098%);fill-opacity:1;stroke-width:0.232558;stroke-linecap:butt;stroke-linejoin:miter;stroke:rgb(4.313725%,3.529412%,7.45098%);stroke-opacity:1;stroke-miterlimit:4;" d="M 49.735156 40.533594 C 50.364844 40.533594 50.832031 40.05625 50.832031 39.426562 C 50.832031 38.796875 50.364844 38.319531 49.735156 38.319531 C 49.105469 38.319531 48.638281 38.796875 48.638281 39.426562 C 48.638281 40.005469 49.15625 40.533594 49.735156 40.533594 Z M 49.735156 40.533594 " transform="matrix(0.384615,0,0,0.384615,0,0)"/>
<path style="fill-rule:nonzero;fill:rgb(4.313725%,3.529412%,7.45098%);fill-opacity:1;stroke-width:0.232558;stroke-linecap:butt;stroke-linejoin:miter;stroke:rgb(4.313725%,3.529412%,7.45098%);stroke-opacity:1;stroke-miterlimit:4;" d="M 17.966406 34.338281 C 18.027344 34.338281 18.098437 34.317969 18.149219 34.267187 C 18.2 34.216406 18.220312 34.145312 18.220312 34.074219 C 18.220312 34.013281 18.2 33.942187 18.149219 33.891406 C 18.098437 33.840625 18.027344 33.820312 17.966406 33.820312 C 17.895312 33.820312 17.824219 33.840625 17.773437 33.891406 C 17.722656 33.942187 17.702344 34.013281 17.702344 34.074219 C 17.702344 34.135156 17.732812 34.196094 17.763281 34.236719 C 17.803906 34.2875 17.875 34.338281 17.966406 34.338281 Z M 17.966406 34.338281 " transform="matrix(0.384615,0,0,0.384615,0,0)"/>
<path style="fill-rule:nonzero;fill:rgb(4.313725%,3.529412%,7.45098%);fill-opacity:1;stroke-width:0.232558;stroke-linecap:butt;stroke-linejoin:miter;stroke:rgb(4.313725%,3.529412%,7.45098%);stroke-opacity:1;stroke-miterlimit:4;" d="M 7.373437 34.714062 C 7.71875 34.714062 8.003125 34.429687 8.003125 34.074219 C 8.003125 33.728906 7.71875 33.444531 7.373437 33.444531 C 7.028125 33.444531 6.74375 33.728906 6.74375 34.074219 C 6.74375 34.277344 6.814844 34.429687 6.926562 34.551562 C 7.048437 34.663281 7.210937 34.714062 7.373437 34.714062 Z M 7.373437 34.714062 " transform="matrix(0.384615,0,0,0.384615,0,0)"/>
<path style="fill-rule:nonzero;fill:rgb(4.313725%,3.529412%,7.45098%);fill-opacity:1;stroke-width:0.232558;stroke-linecap:butt;stroke-linejoin:miter;stroke:rgb(4.313725%,3.529412%,7.45098%);stroke-opacity:1;stroke-miterlimit:4;" d="M 28.549219 34.805469 C 28.945312 34.805469 29.280469 34.470312 29.280469 34.074219 C 29.280469 33.688281 28.945312 33.342969 28.549219 33.342969 C 28.163281 33.342969 27.828125 33.688281 27.828125 34.074219 C 27.828125 34.470312 28.163281 34.805469 28.549219 34.805469 Z M 28.549219 34.805469 " transform="matrix(0.384615,0,0,0.384615,0,0)"/>
<path style="fill-rule:nonzero;fill:rgb(4.313725%,3.529412%,7.45098%);fill-opacity:1;stroke-width:0.232558;stroke-linecap:butt;stroke-linejoin:miter;stroke:rgb(4.313725%,3.529412%,7.45098%);stroke-opacity:1;stroke-miterlimit:4;" d="M 23.257812 34.338281 C 23.31875 34.338281 23.389844 34.317969 23.450781 34.267187 C 23.501562 34.216406 23.511719 34.145312 23.511719 34.074219 C 23.511719 34.013281 23.501562 33.942187 23.450781 33.891406 C 23.389844 33.840625 23.31875 33.820312 23.257812 33.820312 C 23.196875 33.820312 23.125781 33.840625 23.075 33.891406 C 23.014062 33.942187 23.003906 34.013281 23.003906 34.074219 C 23.003906 34.135156 23.024219 34.196094 23.064844 34.236719 C 23.105469 34.2875 23.166406 34.338281 23.257812 34.338281 Z M 23.257812 34.338281 " transform="matrix(0.384615,0,0,0.384615,0,0)"/>
<path style="fill-rule:nonzero;fill:rgb(4.313725%,3.529412%,7.45098%);fill-opacity:1;stroke-width:0.232558;stroke-linecap:butt;stroke-linejoin:miter;stroke:rgb(4.313725%,3.529412%,7.45098%);stroke-opacity:1;stroke-miterlimit:4;" d="M 12.664844 34.571875 C 12.979687 34.571875 13.1625 34.317969 13.1625 34.074219 C 13.1625 33.769531 12.908594 33.586719 12.664844 33.586719 C 12.532812 33.586719 12.410937 33.647656 12.329687 33.739062 C 12.238281 33.820312 12.177344 33.942187 12.177344 34.074219 C 12.177344 34.317969 12.360156 34.571875 12.664844 34.571875 Z M 12.664844 34.571875 " transform="matrix(0.384615,0,0,0.384615,0,0)"/>
<path style="fill-rule:nonzero;fill:rgb(4.313725%,3.529412%,7.45098%);fill-opacity:1;stroke-width:0.232558;stroke-linecap:butt;stroke-linejoin:miter;stroke:rgb(4.313725%,3.529412%,7.45098%);stroke-opacity:1;stroke-miterlimit:4;" d="M 33.850781 35.282812 C 34.521094 35.282812 35.039062 34.754687 35.039062 34.074219 C 35.039062 33.403906 34.521094 32.875781 33.850781 32.875781 C 33.170312 32.875781 32.652344 33.403906 32.652344 34.074219 C 32.652344 34.754687 33.221094 35.282812 33.850781 35.282812 Z M 33.850781 35.282812 " transform="matrix(0.384615,0,0,0.384615,0,0)"/>
<path style="fill-rule:nonzero;fill:rgb(4.313725%,3.529412%,7.45098%);fill-opacity:1;stroke-width:0.232558;stroke-linecap:butt;stroke-linejoin:miter;stroke:rgb(4.313725%,3.529412%,7.45098%);stroke-opacity:1;stroke-miterlimit:4;" d="M 44.44375 34.805469 C 44.829687 34.805469 45.164844 34.470312 45.164844 34.074219 C 45.164844 33.688281 44.829687 33.342969 44.44375 33.342969 C 44.047656 33.342969 43.7125 33.688281 43.7125 34.074219 C 43.7125 34.470312 44.047656 34.805469 44.44375 34.805469 Z M 44.44375 34.805469 " transform="matrix(0.384615,0,0,0.384615,0,0)"/>
<path style="fill-rule:nonzero;fill:rgb(4.313725%,3.529412%,7.45098%);fill-opacity:1;stroke-width:0.232558;stroke-linecap:butt;stroke-linejoin:miter;stroke:rgb(4.313725%,3.529412%,7.45098%);stroke-opacity:1;stroke-miterlimit:4;" d="M 39.142187 34.805469 C 39.538281 34.805469 39.873437 34.470312 39.873437 34.074219 C 39.873437 33.688281 39.538281 33.342969 39.142187 33.342969 C 38.746094 33.342969 38.421094 33.688281 38.421094 34.074219 C 38.421094 34.470312 38.746094 34.805469 39.142187 34.805469 Z M 39.142187 34.805469 " transform="matrix(0.384615,0,0,0.384615,0,0)"/>
<path style="fill-rule:nonzero;fill:rgb(4.313725%,3.529412%,7.45098%);fill-opacity:1;stroke-width:0.232558;stroke-linecap:butt;stroke-linejoin:miter;stroke:rgb(4.313725%,3.529412%,7.45098%);stroke-opacity:1;stroke-miterlimit:4;" d="M 2.082031 34.907031 C 2.51875 34.907031 2.894531 34.521094 2.894531 34.074219 C 2.894531 33.6375 2.51875 33.251562 2.082031 33.251562 C 1.635156 33.251562 1.259375 33.627344 1.259375 34.074219 C 1.228906 34.317969 1.320312 34.53125 1.472656 34.673437 C 1.625 34.825781 1.838281 34.907031 2.082031 34.907031 Z M 2.082031 34.907031 " transform="matrix(0.384615,0,0,0.384615,0,0)"/>
<path style="fill-rule:nonzero;fill:rgb(4.313725%,3.529412%,7.45098%);fill-opacity:1;stroke-width:0.232558;stroke-linecap:butt;stroke-linejoin:miter;stroke:rgb(4.313725%,3.529412%,7.45098%);stroke-opacity:1;stroke-miterlimit:4;" d="M 49.735156 35.089844 C 50.324219 35.089844 50.740625 34.6125 50.740625 34.074219 C 50.740625 33.485156 50.263281 33.058594 49.735156 33.058594 C 49.146094 33.058594 48.729687 33.546094 48.729687 34.074219 C 48.729687 34.663281 49.207031 35.089844 49.735156 35.089844 Z M 49.735156 35.089844 " transform="matrix(0.384615,0,0,0.384615,0,0)"/>
<path style="fill-rule:nonzero;fill:rgb(4.313725%,3.529412%,7.45098%);fill-opacity:1;stroke-width:0.232558;stroke-linecap:butt;stroke-linejoin:miter;stroke:rgb(4.313725%,3.529412%,7.45098%);stroke-opacity:1;stroke-miterlimit:4;" d="M 17.966406 29.036719 C 18.027344 29.036719 18.098437 29.016406 18.149219 28.965625 C 18.2 28.914844 18.220312 28.84375 18.220312 28.782812 C 18.220312 28.711719 18.2 28.640625 18.149219 28.589844 C 18.098437 28.539062 18.027344 28.51875 17.966406 28.51875 C 17.895312 28.51875 17.824219 28.539062 17.773437 28.589844 C 17.722656 28.640625 17.702344 28.711719 17.702344 28.782812 C 17.702344 28.84375 17.722656 28.914844 17.773437 28.965625 C 17.824219 29.016406 17.895312 29.036719 17.966406 29.036719 Z M 17.966406 29.036719 " transform="matrix(0.384615,0,0,0.384615,0,0)"/>
<path style="fill-rule:nonzero;fill:rgb(4.313725%,3.529412%,7.45098%);fill-opacity:1;stroke-width:0.232558;stroke-linecap:butt;stroke-linejoin:miter;stroke:rgb(4.313725%,3.529412%,7.45098%);stroke-opacity:1;stroke-miterlimit:4;" d="M 7.373437 29.514062 C 7.769531 29.514062 8.094531 29.16875 8.094531 28.782812 C 8.094531 28.386719 7.769531 28.041406 7.373437 28.041406 C 6.977344 28.041406 6.652344 28.386719 6.652344 28.782812 C 6.652344 29.16875 6.977344 29.514062 7.373437 29.514062 Z M 7.373437 29.514062 " transform="matrix(0.384615,0,0,0.384615,0,0)"/>
<path style="fill-rule:nonzero;fill:rgb(4.313725%,3.529412%,7.45098%);fill-opacity:1;stroke-width:0.232558;stroke-linecap:butt;stroke-linejoin:miter;stroke:rgb(4.313725%,3.529412%,7.45098%);stroke-opacity:1;stroke-miterlimit:4;" d="M 28.549219 29.98125 C 29.229687 29.98125 29.747656 29.453125 29.747656 28.782812 C 29.747656 28.102344 29.229687 27.574219 28.549219 27.574219 C 27.878906 27.574219 27.360937 28.102344 27.360937 28.782812 C 27.360937 29.463281 27.929687 29.98125 28.549219 29.98125 Z M 28.549219 29.98125 " transform="matrix(0.384615,0,0,0.384615,0,0)"/>
<path style="fill-rule:nonzero;fill:rgb(4.313725%,3.529412%,7.45098%);fill-opacity:1;stroke-width:0.232558;stroke-linecap:butt;stroke-linejoin:miter;stroke:rgb(4.313725%,3.529412%,7.45098%);stroke-opacity:1;stroke-miterlimit:4;" d="M 23.257812 29.514062 C 23.653906 29.514062 23.989062 29.16875 23.989062 28.782812 C 23.989062 28.386719 23.653906 28.041406 23.257812 28.041406 C 22.861719 28.041406 22.536719 28.386719 22.536719 28.782812 C 22.536719 29.16875 22.861719 29.514062 23.257812 29.514062 Z M 23.257812 29.514062 " transform="matrix(0.384615,0,0,0.384615,0,0)"/>
<path style="fill-rule:nonzero;fill:rgb(4.313725%,3.529412%,7.45098%);fill-opacity:1;stroke-width:0.232558;stroke-linecap:butt;stroke-linejoin:miter;stroke:rgb(4.313725%,3.529412%,7.45098%);stroke-opacity:1;stroke-miterlimit:4;" d="M 12.664844 29.270312 C 12.979687 29.270312 13.1625 29.016406 13.1625 28.782812 C 13.1625 28.467969 12.908594 28.285156 12.664844 28.285156 C 12.532812 28.285156 12.410937 28.346094 12.329687 28.4375 C 12.238281 28.51875 12.177344 28.650781 12.177344 28.782812 C 12.177344 29.016406 12.360156 29.270312 12.664844 29.270312 Z M 12.664844 29.270312 " transform="matrix(0.384615,0,0,0.384615,0,0)"/>
<path style="fill-rule:nonzero;fill:rgb(4.313725%,3.529412%,7.45098%);fill-opacity:1;stroke-width:0.232558;stroke-linecap:butt;stroke-linejoin:miter;stroke:rgb(4.313725%,3.529412%,7.45098%);stroke-opacity:1;stroke-miterlimit:4;" d="M 33.850781 29.514062 C 34.246875 29.514062 34.571875 29.16875 34.571875 28.782812 C 34.571875 28.386719 34.246875 28.041406 33.850781 28.041406 C 33.454687 28.041406 33.119531 28.386719 33.119531 28.782812 C 33.119531 29.16875 33.454687 29.514062 33.850781 29.514062 Z M 33.850781 29.514062 " transform="matrix(0.384615,0,0,0.384615,0,0)"/>
<path style="fill-rule:nonzero;fill:rgb(4.313725%,3.529412%,7.45098%);fill-opacity:1;stroke-width:0.232558;stroke-linecap:butt;stroke-linejoin:miter;stroke:rgb(4.313725%,3.529412%,7.45098%);stroke-opacity:1;stroke-miterlimit:4;" d="M 44.44375 29.514062 C 44.829687 29.514062 45.164844 29.16875 45.164844 28.782812 C 45.164844 28.386719 44.829687 28.041406 44.44375 28.041406 C 44.047656 28.041406 43.7125 28.386719 43.7125 28.782812 C 43.7125 29.16875 44.047656 29.514062 44.44375 29.514062 Z M 44.44375 29.514062 " transform="matrix(0.384615,0,0,0.384615,0,0)"/>
<path style="fill-rule:nonzero;fill:rgb(4.313725%,3.529412%,7.45098%);fill-opacity:1;stroke-width:0.232558;stroke-linecap:butt;stroke-linejoin:miter;stroke:rgb(4.313725%,3.529412%,7.45098%);stroke-opacity:1;stroke-miterlimit:4;" d="M 39.142187 29.270312 C 39.457031 29.270312 39.639844 29.016406 39.639844 28.782812 C 39.639844 28.650781 39.56875 28.51875 39.4875 28.4375 C 39.396094 28.346094 39.274219 28.285156 39.142187 28.285156 C 38.8375 28.285156 38.654687 28.539062 38.654687 28.782812 C 38.654687 28.914844 38.715625 29.036719 38.807031 29.117969 C 38.888281 29.209375 39.010156 29.270312 39.142187 29.270312 Z M 39.142187 29.270312 " transform="matrix(0.384615,0,0,0.384615,0,0)"/>
<path style="fill-rule:nonzero;fill:rgb(4.313725%,3.529412%,7.45098%);fill-opacity:1;stroke-width:0.232558;stroke-linecap:butt;stroke-linejoin:miter;stroke:rgb(4.313725%,3.529412%,7.45098%);stroke-opacity:1;stroke-miterlimit:4;" d="M 2.082031 29.747656 C 2.620312 29.747656 2.985937 29.300781 2.985937 28.782812 C 2.985937 28.244531 2.569531 27.807812 2.03125 27.807812 C 1.492969 27.807812 1.066406 28.244531 1.066406 28.782812 C 1.066406 29.321094 1.553906 29.747656 2.082031 29.747656 Z M 2.082031 29.747656 " transform="matrix(0.384615,0,0,0.384615,0,0)"/>
<path style="fill-rule:nonzero;fill:rgb(4.313725%,3.529412%,7.45098%);fill-opacity:1;stroke-width:0.232558;stroke-linecap:butt;stroke-linejoin:miter;stroke:rgb(4.313725%,3.529412%,7.45098%);stroke-opacity:1;stroke-miterlimit:4;" d="M 49.735156 29.747656 C 50.273437 29.747656 50.689844 29.310937 50.689844 28.782812 C 50.689844 28.244531 50.273437 27.807812 49.735156 27.807812 C 49.196875 27.807812 48.770312 28.244531 48.770312 28.782812 C 48.770312 29.310937 49.196875 29.747656 49.735156 29.747656 Z M 49.735156 29.747656 " transform="matrix(0.384615,0,0,0.384615,0,0)"/>
<path style="fill-rule:nonzero;fill:rgb(4.313725%,3.529412%,7.45098%);fill-opacity:1;stroke-width:0.232558;stroke-linecap:butt;stroke-linejoin:miter;stroke:rgb(4.313725%,3.529412%,7.45098%);stroke-opacity:1;stroke-miterlimit:4;" d="M 17.966406 24.161719 C 18.352344 24.161719 18.6875 23.826562 18.6875 23.430469 C 18.6875 23.2375 18.60625 23.044531 18.474219 22.902344 C 18.352344 22.75 18.169531 22.648437 17.966406 22.648437 C 17.570312 22.648437 17.235156 22.99375 17.235156 23.379687 C 17.235156 23.582812 17.316406 23.775781 17.448437 23.917969 C 17.580469 24.060156 17.763281 24.161719 17.966406 24.161719 Z M 17.966406 24.161719 " transform="matrix(0.384615,0,0,0.384615,0,0)"/>
<path style="fill-rule:nonzero;fill:rgb(4.313725%,3.529412%,7.45098%);fill-opacity:1;stroke-width:0.232558;stroke-linecap:butt;stroke-linejoin:miter;stroke:rgb(4.313725%,3.529412%,7.45098%);stroke-opacity:1;stroke-miterlimit:4;" d="M 7.373437 24.161719 C 7.769531 24.161719 8.094531 23.826562 8.094531 23.430469 C 8.094531 23.2375 8.013281 23.044531 7.891406 22.902344 C 7.759375 22.75 7.576562 22.648437 7.373437 22.648437 C 6.977344 22.648437 6.652344 22.99375 6.652344 23.379687 C 6.652344 23.582812 6.733594 23.775781 6.855469 23.917969 C 6.9875 24.060156 7.170312 24.161719 7.373437 24.161719 Z M 7.373437 24.161719 " transform="matrix(0.384615,0,0,0.384615,0,0)"/>
<path style="fill-rule:nonzero;fill:rgb(4.313725%,3.529412%,7.45098%);fill-opacity:1;stroke-width:0.232558;stroke-linecap:butt;stroke-linejoin:miter;stroke:rgb(4.313725%,3.529412%,7.45098%);stroke-opacity:1;stroke-miterlimit:4;" d="M 28.549219 24.161719 C 28.945312 24.161719 29.280469 23.826562 29.280469 23.430469 C 29.280469 23.034375 28.945312 22.699219 28.549219 22.699219 C 28.163281 22.699219 27.828125 23.034375 27.828125 23.430469 C 27.828125 23.826562 28.163281 24.161719 28.549219 24.161719 Z M 28.549219 24.161719 " transform="matrix(0.384615,0,0,0.384615,0,0)"/>
<path style="fill-rule:nonzero;fill:rgb(4.313725%,3.529412%,7.45098%);fill-opacity:1;stroke-width:0.232558;stroke-linecap:butt;stroke-linejoin:miter;stroke:rgb(4.313725%,3.529412%,7.45098%);stroke-opacity:1;stroke-miterlimit:4;" d="M 23.257812 24.639062 C 23.928125 24.639062 24.45625 24.110937 24.45625 23.430469 C 24.45625 22.75 23.928125 22.221875 23.257812 22.221875 C 22.5875 22.221875 22.069531 22.75 22.069531 23.430469 C 22.069531 24.110937 22.5875 24.639062 23.257812 24.639062 Z M 23.257812 24.639062 " transform="matrix(0.384615,0,0,0.384615,0,0)"/>
<path style="fill-rule:nonzero;fill:rgb(4.313725%,3.529412%,7.45098%);fill-opacity:1;stroke-width:0.232558;stroke-linecap:butt;stroke-linejoin:miter;stroke:rgb(4.313725%,3.529412%,7.45098%);stroke-opacity:1;stroke-miterlimit:4;" d="M 12.664844 23.928125 C 12.979687 23.928125 13.1625 23.674219 13.1625 23.430469 C 13.1625 23.298437 13.091406 23.176562 13.010156 23.085156 C 12.91875 23.003906 12.796875 22.932812 12.664844 22.932812 C 12.532812 22.932812 12.410937 23.003906 12.329687 23.085156 C 12.238281 23.176562 12.177344 23.298437 12.177344 23.430469 C 12.177344 23.674219 12.360156 23.928125 12.664844 23.928125 Z M 12.664844 23.928125 " transform="matrix(0.384615,0,0,0.384615,0,0)"/>
<path style="fill-rule:nonzero;fill:rgb(4.313725%,3.529412%,7.45098%);fill-opacity:1;stroke-width:0.232558;stroke-linecap:butt;stroke-linejoin:miter;stroke:rgb(4.313725%,3.529412%,7.45098%);stroke-opacity:1;stroke-miterlimit:4;" d="M 33.850781 23.684375 C 33.911719 23.684375 33.982812 23.674219 34.033594 23.623437 C 34.094531 23.5625 34.104687 23.491406 34.104687 23.430469 C 34.104687 23.369531 34.094531 23.298437 34.033594 23.2375 C 33.982812 23.186719 33.911719 23.176562 33.850781 23.176562 C 33.779687 23.176562 33.71875 23.186719 33.657812 23.2375 C 33.607031 23.298437 33.596875 23.369531 33.596875 23.430469 C 33.596875 23.521875 33.6375 23.582812 33.688281 23.623437 C 33.739062 23.664062 33.789844 23.684375 33.850781 23.684375 Z M 33.850781 23.684375 " transform="matrix(0.384615,0,0,0.384615,0,0)"/>
<path style="fill-rule:nonzero;fill:rgb(4.313725%,3.529412%,7.45098%);fill-opacity:1;stroke-width:0.232558;stroke-linecap:butt;stroke-linejoin:miter;stroke:rgb(4.313725%,3.529412%,7.45098%);stroke-opacity:1;stroke-miterlimit:4;" d="M 44.44375 24.161719 C 44.829687 24.161719 45.164844 23.826562 45.164844 23.430469 C 45.164844 23.034375 44.829687 22.699219 44.44375 22.699219 C 44.047656 22.699219 43.7125 23.034375 43.7125 23.430469 C 43.7125 23.826562 44.047656 24.161719 44.44375 24.161719 Z M 44.44375 24.161719 " transform="matrix(0.384615,0,0,0.384615,0,0)"/>
<path style="fill-rule:nonzero;fill:rgb(4.313725%,3.529412%,7.45098%);fill-opacity:1;stroke-width:0.232558;stroke-linecap:butt;stroke-linejoin:miter;stroke:rgb(4.313725%,3.529412%,7.45098%);stroke-opacity:1;stroke-miterlimit:4;" d="M 39.142187 23.928125 C 39.457031 23.928125 39.639844 23.674219 39.639844 23.430469 C 39.639844 23.298437 39.56875 23.176562 39.4875 23.085156 C 39.396094 23.003906 39.274219 22.932812 39.142187 22.932812 C 38.8375 22.932812 38.654687 23.186719 38.654687 23.430469 C 38.654687 23.5625 38.715625 23.684375 38.807031 23.775781 C 38.888281 23.857031 39.010156 23.928125 39.142187 23.928125 Z M 39.142187 23.928125 " transform="matrix(0.384615,0,0,0.384615,0,0)"/>
<path style="fill-rule:nonzero;fill:rgb(4.313725%,3.529412%,7.45098%);fill-opacity:1;stroke-width:0.232558;stroke-linecap:butt;stroke-linejoin:miter;stroke:rgb(4.313725%,3.529412%,7.45098%);stroke-opacity:1;stroke-miterlimit:4;" d="M 2.082031 24.395312 C 2.610156 24.395312 3.036719 23.96875 3.036719 23.430469 C 3.036719 22.892187 2.610156 22.465625 2.082031 22.465625 C 1.54375 22.465625 1.117187 22.892187 1.117187 23.430469 C 1.117187 23.96875 1.54375 24.395312 2.082031 24.395312 Z M 2.082031 24.395312 " transform="matrix(0.384615,0,0,0.384615,0,0)"/>
<path style="fill-rule:nonzero;fill:rgb(4.313725%,3.529412%,7.45098%);fill-opacity:1;stroke-width:0.232558;stroke-linecap:butt;stroke-linejoin:miter;stroke:rgb(4.313725%,3.529412%,7.45098%);stroke-opacity:1;stroke-miterlimit:4;" d="M 48.770312 23.430469 L 48.780469 23.440625 C 48.83125 23.958594 49.2375 24.395312 49.735156 24.395312 C 50.273437 24.395312 50.689844 23.96875 50.689844 23.430469 C 50.689844 22.892187 50.273437 22.465625 49.735156 22.465625 C 49.196875 22.465625 48.770312 22.892187 48.770312 23.430469 Z M 48.770312 23.430469 " transform="matrix(0.384615,0,0,0.384615,0,0)"/>
<path style="fill-rule:nonzero;fill:rgb(4.313725%,3.529412%,7.45098%);fill-opacity:1;stroke-width:0.232558;stroke-linecap:butt;stroke-linejoin:miter;stroke:rgb(4.313725%,3.529412%,7.45098%);stroke-opacity:1;stroke-miterlimit:4;" d="M 17.966406 19.286719 C 18.636719 19.286719 19.154687 18.758594 19.154687 18.078125 C 19.154687 17.407812 18.636719 16.879687 17.966406 16.879687 C 17.285937 16.879687 16.767969 17.407812 16.767969 18.078125 C 16.767969 18.758594 17.285937 19.286719 17.966406 19.286719 Z M 17.966406 19.286719 " transform="matrix(0.384615,0,0,0.384615,0,0)"/>
<path style="fill-rule:nonzero;fill:rgb(4.313725%,3.529412%,7.45098%);fill-opacity:1;stroke-width:0.232558;stroke-linecap:butt;stroke-linejoin:miter;stroke:rgb(4.313725%,3.529412%,7.45098%);stroke-opacity:1;stroke-miterlimit:4;" d="M 7.373437 18.819531 C 7.769531 18.819531 8.094531 18.474219 8.094531 18.078125 C 8.094531 17.692187 7.769531 17.346875 7.373437 17.346875 C 6.977344 17.346875 6.652344 17.692187 6.652344 18.078125 C 6.652344 18.474219 6.977344 18.819531 7.373437 18.819531 Z M 7.373437 18.819531 " transform="matrix(0.384615,0,0,0.384615,0,0)"/>
<path style="fill-rule:nonzero;fill:rgb(4.313725%,3.529412%,7.45098%);fill-opacity:1;stroke-width:0.232558;stroke-linecap:butt;stroke-linejoin:miter;stroke:rgb(4.313725%,3.529412%,7.45098%);stroke-opacity:1;stroke-miterlimit:4;" d="M 23.257812 18.819531 C 23.653906 18.819531 23.989062 18.474219 23.989062 18.078125 C 23.989062 17.692187 23.653906 17.346875 23.257812 17.346875 C 22.861719 17.346875 22.536719 17.692187 22.536719 18.078125 C 22.536719 18.474219 22.861719 18.819531 23.257812 18.819531 Z M 23.257812 18.819531 " transform="matrix(0.384615,0,0,0.384615,0,0)"/>
<path style="fill-rule:nonzero;fill:rgb(4.313725%,3.529412%,7.45098%);fill-opacity:1;stroke-width:0.232558;stroke-linecap:butt;stroke-linejoin:miter;stroke:rgb(4.313725%,3.529412%,7.45098%);stroke-opacity:1;stroke-miterlimit:4;" d="M 12.664844 18.819531 C 13.060937 18.819531 13.396094 18.474219 13.396094 18.078125 C 13.396094 17.692187 13.060937 17.346875 12.664844 17.346875 C 12.278906 17.346875 11.94375 17.692187 11.94375 18.078125 C 11.94375 18.474219 12.278906 18.819531 12.664844 18.819531 Z M 12.664844 18.819531 " transform="matrix(0.384615,0,0,0.384615,0,0)"/>
<path style="fill-rule:nonzero;fill:rgb(4.313725%,3.529412%,7.45098%);fill-opacity:1;stroke-width:0.232558;stroke-linecap:butt;stroke-linejoin:miter;stroke:rgb(4.313725%,3.529412%,7.45098%);stroke-opacity:1;stroke-miterlimit:4;" d="M 33.850781 18.342187 C 33.911719 18.342187 33.982812 18.321875 34.033594 18.271094 C 34.094531 18.220312 34.104687 18.149219 34.104687 18.078125 C 34.104687 18.017187 34.094531 17.946094 34.033594 17.895312 C 33.982812 17.844531 33.911719 17.824219 33.850781 17.824219 C 33.779687 17.824219 33.71875 17.844531 33.657812 17.895312 C 33.607031 17.946094 33.596875 18.017187 33.596875 18.078125 C 33.596875 18.128906 33.607031 18.169531 33.627344 18.189844 C 33.6375 18.210156 33.657812 18.230469 33.678125 18.250781 C 33.698437 18.271094 33.71875 18.291406 33.749219 18.311719 C 33.769531 18.321875 33.8 18.342187 33.850781 18.342187 Z M 33.850781 18.342187 " transform="matrix(0.384615,0,0,0.384615,0,0)"/>
<path style="fill-rule:nonzero;fill:rgb(4.313725%,3.529412%,7.45098%);fill-opacity:1;stroke-width:0.232558;stroke-linecap:butt;stroke-linejoin:miter;stroke:rgb(4.313725%,3.529412%,7.45098%);stroke-opacity:1;stroke-miterlimit:4;" d="M 43.803906 18.078125 L 43.803906 18.088281 L 43.814062 18.098437 C 43.834375 18.28125 43.905469 18.433594 44.007031 18.545312 C 44.11875 18.667187 44.271094 18.717969 44.44375 18.717969 C 44.789062 18.717969 45.073437 18.433594 45.073437 18.078125 C 45.073437 17.732812 44.789062 17.448437 44.44375 17.448437 C 44.088281 17.448437 43.803906 17.732812 43.803906 18.078125 Z M 43.803906 18.078125 " transform="matrix(0.384615,0,0,0.384615,0,0)"/>
<path style="fill-rule:nonzero;fill:rgb(4.313725%,3.529412%,7.45098%);fill-opacity:1;stroke-width:0.232558;stroke-linecap:butt;stroke-linejoin:miter;stroke:rgb(4.313725%,3.529412%,7.45098%);stroke-opacity:1;stroke-miterlimit:4;" d="M 39.142187 18.575781 C 39.457031 18.575781 39.639844 18.321875 39.639844 18.078125 C 39.639844 17.946094 39.56875 17.824219 39.4875 17.742969 C 39.396094 17.651562 39.274219 17.590625 39.142187 17.590625 C 38.8375 17.590625 38.654687 17.844531 38.654687 18.078125 C 38.654687 18.210156 38.715625 18.342187 38.807031 18.423437 C 38.888281 18.514844 39.010156 18.575781 39.142187 18.575781 Z M 39.142187 18.575781 " transform="matrix(0.384615,0,0,0.384615,0,0)"/>
<path style="fill-rule:nonzero;fill:rgb(4.313725%,3.529412%,7.45098%);fill-opacity:1;stroke-width:0.232558;stroke-linecap:butt;stroke-linejoin:miter;stroke:rgb(4.313725%,3.529412%,7.45098%);stroke-opacity:1;stroke-miterlimit:4;" d="M 2.082031 19.09375 C 2.660937 19.09375 3.0875 18.616406 3.0875 18.078125 C 3.0875 17.499219 2.610156 17.072656 2.082031 17.072656 C 1.54375 17.072656 1.066406 17.55 1.066406 18.078125 C 1.066406 18.667187 1.492969 19.09375 2.082031 19.09375 Z M 2.082031 19.09375 " transform="matrix(0.384615,0,0,0.384615,0,0)"/>
<path style="fill-rule:nonzero;fill:rgb(4.313725%,3.529412%,7.45098%);fill-opacity:1;stroke-width:0.232558;stroke-linecap:butt;stroke-linejoin:miter;stroke:rgb(4.313725%,3.529412%,7.45098%);stroke-opacity:1;stroke-miterlimit:4;" d="M 49.735156 18.910937 C 50.171875 18.910937 50.557812 18.525 50.557812 18.078125 C 50.557812 17.641406 50.171875 17.255469 49.735156 17.255469 C 49.298437 17.255469 48.9125 17.641406 48.9125 18.078125 C 48.9125 18.525 49.298437 18.910937 49.735156 18.910937 Z M 49.735156 18.910937 " transform="matrix(0.384615,0,0,0.384615,0,0)"/>
<path style="fill-rule:nonzero;fill:rgb(4.313725%,3.529412%,7.45098%);fill-opacity:1;stroke-width:0.232558;stroke-linecap:butt;stroke-linejoin:miter;stroke:rgb(4.313725%,3.529412%,7.45098%);stroke-opacity:1;stroke-miterlimit:4;" d="M 17.966406 13.467187 C 18.352344 13.467187 18.6875 13.132031 18.6875 12.735937 C 18.6875 12.339844 18.352344 12.004687 17.966406 12.004687 C 17.570312 12.004687 17.235156 12.339844 17.235156 12.735937 C 17.235156 13.132031 17.570312 13.467187 17.966406 13.467187 Z M 17.966406 13.467187 " transform="matrix(0.384615,0,0,0.384615,0,0)"/>
<path style="fill-rule:nonzero;fill:rgb(4.313725%,3.529412%,7.45098%);fill-opacity:1;stroke-width:0.232558;stroke-linecap:butt;stroke-linejoin:miter;stroke:rgb(4.313725%,3.529412%,7.45098%);stroke-opacity:1;stroke-miterlimit:4;" d="M 7.373437 13.700781 C 7.911719 13.700781 8.328125 13.274219 8.328125 12.735937 C 8.328125 12.197656 7.911719 11.771094 7.373437 11.771094 C 6.835156 11.771094 6.408594 12.197656 6.408594 12.735937 C 6.408594 13.274219 6.835156 13.700781 7.373437 13.700781 Z M 7.373437 13.700781 " transform="matrix(0.384615,0,0,0.384615,0,0)"/>
<path style="fill-rule:nonzero;fill:rgb(4.313725%,3.529412%,7.45098%);fill-opacity:1;stroke-width:0.232558;stroke-linecap:butt;stroke-linejoin:miter;stroke:rgb(4.313725%,3.529412%,7.45098%);stroke-opacity:1;stroke-miterlimit:4;" d="M 23.257812 12.989844 C 23.31875 12.989844 23.389844 12.979687 23.450781 12.928906 C 23.501562 12.867969 23.511719 12.796875 23.511719 12.735937 C 23.511719 12.675 23.501562 12.603906 23.450781 12.542969 C 23.389844 12.492187 23.31875 12.482031 23.257812 12.482031 C 23.196875 12.482031 23.125781 12.492187 23.075 12.542969 C 23.014062 12.603906 23.003906 12.675 23.003906 12.735937 C 23.003906 12.796875 23.014062 12.867969 23.075 12.928906 C 23.125781 12.979687 23.196875 12.989844 23.257812 12.989844 Z M 23.257812 12.989844 " transform="matrix(0.384615,0,0,0.384615,0,0)"/>
<path style="fill-rule:nonzero;fill:rgb(4.313725%,3.529412%,7.45098%);fill-opacity:1;stroke-width:0.232558;stroke-linecap:butt;stroke-linejoin:miter;stroke:rgb(4.313725%,3.529412%,7.45098%);stroke-opacity:1;stroke-miterlimit:4;" d="M 12.664844 13.944531 C 13.345312 13.944531 13.863281 13.416406 13.863281 12.735937 C 13.863281 12.055469 13.345312 11.527344 12.664844 11.527344 C 11.994531 11.527344 11.476562 12.055469 11.476562 12.735937 C 11.476562 13.416406 11.994531 13.944531 12.664844 13.944531 Z M 12.664844 13.944531 " transform="matrix(0.384615,0,0,0.384615,0,0)"/>
<path style="fill-rule:nonzero;fill:rgb(4.313725%,3.529412%,7.45098%);fill-opacity:1;stroke-width:0.232558;stroke-linecap:butt;stroke-linejoin:miter;stroke:rgb(4.313725%,3.529412%,7.45098%);stroke-opacity:1;stroke-miterlimit:4;" d="M 33.850781 12.989844 C 33.911719 12.989844 33.982812 12.979687 34.033594 12.928906 C 34.094531 12.867969 34.104687 12.796875 34.104687 12.735937 C 34.104687 12.675 34.094531 12.603906 34.033594 12.542969 C 33.982812 12.492187 33.911719 12.482031 33.850781 12.482031 C 33.779687 12.482031 33.71875 12.492187 33.657812 12.542969 C 33.607031 12.603906 33.596875 12.675 33.596875 12.735937 C 33.596875 12.827344 33.6375 12.888281 33.688281 12.928906 C 33.739062 12.969531 33.789844 12.989844 33.850781 12.989844 Z M 33.850781 12.989844 " transform="matrix(0.384615,0,0,0.384615,0,0)"/>
<path style="fill-rule:nonzero;fill:rgb(4.313725%,3.529412%,7.45098%);fill-opacity:1;stroke-width:0.232558;stroke-linecap:butt;stroke-linejoin:miter;stroke:rgb(4.313725%,3.529412%,7.45098%);stroke-opacity:1;stroke-miterlimit:4;" d="M 44.44375 13.233594 C 44.575781 13.233594 44.697656 13.1625 44.778906 13.08125 C 44.870312 12.989844 44.93125 12.867969 44.93125 12.735937 C 44.93125 12.603906 44.870312 12.482031 44.778906 12.390625 C 44.697656 12.309375 44.575781 12.238281 44.44375 12.238281 C 44.311719 12.238281 44.189844 12.309375 44.098437 12.390625 C 44.017187 12.482031 43.946094 12.603906 43.946094 12.735937 C 43.946094 12.867969 44.017187 12.989844 44.098437 13.08125 C 44.189844 13.1625 44.311719 13.233594 44.44375 13.233594 Z M 44.44375 13.233594 " transform="matrix(0.384615,0,0,0.384615,0,0)"/>
<path style="fill-rule:nonzero;fill:rgb(4.313725%,3.529412%,7.45098%);fill-opacity:1;stroke-width:0.232558;stroke-linecap:butt;stroke-linejoin:miter;stroke:rgb(4.313725%,3.529412%,7.45098%);stroke-opacity:1;stroke-miterlimit:4;" d="M 39.142187 13.091406 C 39.24375 13.091406 39.335156 13.050781 39.396094 12.989844 C 39.467187 12.91875 39.497656 12.8375 39.497656 12.735937 C 39.497656 12.634375 39.467187 12.553125 39.396094 12.482031 C 39.335156 12.421094 39.24375 12.380469 39.142187 12.380469 C 39.050781 12.380469 38.959375 12.421094 38.888281 12.482031 C 38.827344 12.553125 38.796875 12.634375 38.796875 12.735937 C 38.796875 12.8375 38.827344 12.91875 38.888281 12.989844 C 38.959375 13.050781 39.050781 13.091406 39.142187 13.091406 Z M 39.142187 13.091406 " transform="matrix(0.384615,0,0,0.384615,0,0)"/>
<path style="fill-rule:nonzero;fill:rgb(4.313725%,3.529412%,7.45098%);fill-opacity:1;stroke-width:0.232558;stroke-linecap:butt;stroke-linejoin:miter;stroke:rgb(4.313725%,3.529412%,7.45098%);stroke-opacity:1;stroke-miterlimit:4;" d="M 2.082031 13.842969 C 2.701562 13.842969 3.178906 13.365625 3.178906 12.735937 C 3.178906 12.10625 2.701562 11.628906 2.082031 11.628906 C 1.452344 11.628906 0.975 12.10625 0.975 12.735937 C 0.975 13.365625 1.452344 13.842969 2.082031 13.842969 Z M 2.082031 13.842969 " transform="matrix(0.384615,0,0,0.384615,0,0)"/>
<path style="fill-rule:nonzero;fill:rgb(4.313725%,3.529412%,7.45098%);fill-opacity:1;stroke-width:0.232558;stroke-linecap:butt;stroke-linejoin:miter;stroke:rgb(4.313725%,3.529412%,7.45098%);stroke-opacity:1;stroke-miterlimit:4;" d="M 49.735156 13.375781 C 50.080469 13.375781 50.364844 13.08125 50.364844 12.735937 C 50.364844 12.390625 50.080469 12.096094 49.735156 12.096094 C 49.369531 12.096094 49.146094 12.400781 49.146094 12.735937 C 49.146094 12.908594 49.217187 13.071094 49.328906 13.182812 C 49.430469 13.294531 49.582812 13.375781 49.735156 13.375781 Z M 49.735156 13.375781 " transform="matrix(0.384615,0,0,0.384615,0,0)"/>
<path style="fill-rule:nonzero;fill:rgb(4.313725%,3.529412%,7.45098%);fill-opacity:1;stroke-width:0.232558;stroke-linecap:butt;stroke-linejoin:miter;stroke:rgb(4.313725%,3.529412%,7.45098%);stroke-opacity:1;stroke-miterlimit:4;" d="M 17.966406 7.647656 C 18.027344 7.647656 18.098437 7.627344 18.149219 7.576562 C 18.2 7.525781 18.220312 7.454687 18.220312 7.383594 C 18.220312 7.322656 18.2 7.251562 18.149219 7.200781 C 18.098437 7.15 18.027344 7.129687 17.966406 7.129687 C 17.895312 7.129687 17.824219 7.15 17.773437 7.200781 C 17.722656 7.251562 17.702344 7.322656 17.702344 7.383594 C 17.702344 7.454687 17.722656 7.525781 17.773437 7.576562 C 17.824219 7.627344 17.895312 7.647656 17.966406 7.647656 Z M 17.966406 7.647656 " transform="matrix(0.384615,0,0,0.384615,0,0)"/>
<path style="fill-rule:nonzero;fill:rgb(4.313725%,3.529412%,7.45098%);fill-opacity:1;stroke-width:0.232558;stroke-linecap:butt;stroke-linejoin:miter;stroke:rgb(4.313725%,3.529412%,7.45098%);stroke-opacity:1;stroke-miterlimit:4;" d="M 7.373437 8.592187 C 8.04375 8.592187 8.571875 8.064062 8.571875 7.383594 C 8.571875 6.713281 8.04375 6.185156 7.373437 6.185156 C 6.703125 6.185156 6.175 6.713281 6.175 7.383594 C 6.175 8.064062 6.703125 8.592187 7.373437 8.592187 Z M 7.373437 8.592187 " transform="matrix(0.384615,0,0,0.384615,0,0)"/>
<path style="fill-rule:nonzero;fill:rgb(4.313725%,3.529412%,7.45098%);fill-opacity:1;stroke-width:0.232558;stroke-linecap:butt;stroke-linejoin:miter;stroke:rgb(4.313725%,3.529412%,7.45098%);stroke-opacity:1;stroke-miterlimit:4;" d="M 12.664844 8.114844 C 13.060937 8.114844 13.396094 7.779687 13.396094 7.383594 C 13.396094 6.997656 13.060937 6.652344 12.664844 6.652344 C 12.278906 6.652344 11.94375 6.997656 11.94375 7.383594 C 11.94375 7.779687 12.278906 8.114844 12.664844 8.114844 Z M 12.664844 8.114844 " transform="matrix(0.384615,0,0,0.384615,0,0)"/>
<path style="fill-rule:nonzero;fill:rgb(4.313725%,3.529412%,7.45098%);fill-opacity:1;stroke-width:0.232558;stroke-linecap:butt;stroke-linejoin:miter;stroke:rgb(4.313725%,3.529412%,7.45098%);stroke-opacity:1;stroke-miterlimit:4;" d="M 33.850781 7.647656 C 33.911719 7.647656 33.982812 7.627344 34.033594 7.576562 C 34.094531 7.525781 34.104687 7.454687 34.104687 7.383594 C 34.104687 7.322656 34.094531 7.251562 34.033594 7.200781 C 33.982812 7.15 33.911719 7.129687 33.850781 7.129687 C 33.779687 7.129687 33.71875 7.15 33.657812 7.200781 C 33.607031 7.251562 33.596875 7.322656 33.596875 7.383594 C 33.596875 7.475 33.6375 7.546094 33.688281 7.586719 C 33.739062 7.627344 33.789844 7.647656 33.850781 7.647656 Z M 33.850781 7.647656 " transform="matrix(0.384615,0,0,0.384615,0,0)"/>
<path style="fill-rule:nonzero;fill:rgb(4.313725%,3.529412%,7.45098%);fill-opacity:1;stroke-width:0.232558;stroke-linecap:butt;stroke-linejoin:miter;stroke:rgb(4.313725%,3.529412%,7.45098%);stroke-opacity:1;stroke-miterlimit:4;" d="M 44.44375 7.789844 C 44.535156 7.789844 44.626562 7.759375 44.6875 7.688281 C 44.758594 7.627344 44.789062 7.535937 44.789062 7.434375 C 44.789062 7.342969 44.758594 7.241406 44.697656 7.170312 C 44.646875 7.089062 44.555469 7.038281 44.44375 7.038281 C 44.342187 7.038281 44.250781 7.06875 44.189844 7.139844 C 44.11875 7.200781 44.088281 7.292187 44.088281 7.383594 C 44.088281 7.485156 44.11875 7.576562 44.179687 7.657812 C 44.240625 7.728906 44.321875 7.789844 44.44375 7.789844 Z M 44.44375 7.789844 " transform="matrix(0.384615,0,0,0.384615,0,0)"/>
<path style="fill-rule:nonzero;fill:rgb(4.313725%,3.529412%,7.45098%);fill-opacity:1;stroke-width:0.232558;stroke-linecap:butt;stroke-linejoin:miter;stroke:rgb(4.313725%,3.529412%,7.45098%);stroke-opacity:1;stroke-miterlimit:4;" d="M 39.142187 7.647656 C 39.213281 7.647656 39.284375 7.627344 39.335156 7.576562 C 39.385937 7.525781 39.40625 7.454687 39.40625 7.383594 C 39.40625 7.322656 39.385937 7.251562 39.335156 7.200781 C 39.284375 7.15 39.213281 7.129687 39.142187 7.129687 C 39.08125 7.129687 39.010156 7.15 38.959375 7.200781 C 38.908594 7.251562 38.888281 7.322656 38.888281 7.383594 C 38.888281 7.475 38.928906 7.546094 38.979687 7.586719 C 39.030469 7.627344 39.091406 7.647656 39.142187 7.647656 Z M 39.142187 7.647656 " transform="matrix(0.384615,0,0,0.384615,0,0)"/>
<path style="fill-rule:nonzero;fill:rgb(4.313725%,3.529412%,7.45098%);fill-opacity:1;stroke-width:0.232558;stroke-linecap:butt;stroke-linejoin:miter;stroke:rgb(4.313725%,3.529412%,7.45098%);stroke-opacity:1;stroke-miterlimit:4;" d="M 2.082031 6.185156 C 1.452344 6.185156 0.883594 6.703125 0.883594 7.383594 C 0.883594 8.064062 1.401562 8.592187 2.082031 8.592187 C 2.752344 8.592187 3.270312 8.064062 3.270312 7.383594 C 3.270312 6.703125 2.701562 6.185156 2.082031 6.185156 Z M 2.082031 6.185156 " transform="matrix(0.384615,0,0,0.384615,0,0)"/>
<path style="fill-rule:nonzero;fill:rgb(4.313725%,3.529412%,7.45098%);fill-opacity:1;stroke-width:0.232558;stroke-linecap:butt;stroke-linejoin:miter;stroke:rgb(4.313725%,3.529412%,7.45098%);stroke-opacity:1;stroke-miterlimit:4;" d="M 49.735156 7.88125 C 49.867187 7.88125 49.989062 7.820312 50.070312 7.728906 C 50.161719 7.647656 50.222656 7.515625 50.222656 7.383594 C 50.222656 7.251562 50.161719 7.129687 50.070312 7.048437 C 49.989062 6.957031 49.867187 6.896094 49.735156 6.896094 C 49.603125 6.896094 49.48125 6.957031 49.389844 7.048437 C 49.308594 7.129687 49.247656 7.251562 49.247656 7.383594 C 49.247656 7.515625 49.308594 7.647656 49.389844 7.728906 C 49.48125 7.820312 49.603125 7.88125 49.735156 7.88125 Z M 49.735156 7.88125 " transform="matrix(0.384615,0,0,0.384615,0,0)"/>
<path style="fill-rule:nonzero;fill:rgb(4.313725%,3.529412%,7.45098%);fill-opacity:1;stroke-width:0.232558;stroke-linecap:butt;stroke-linejoin:miter;stroke:rgb(4.313725%,3.529412%,7.45098%);stroke-opacity:1;stroke-miterlimit:4;" d="M 7.373437 50.375 C 7.434375 50.375 7.505469 50.364844 7.55625 50.303906 C 7.617187 50.253125 7.627344 50.182031 7.627344 50.121094 C 7.627344 50.05 7.617187 49.989062 7.55625 49.928125 C 7.505469 49.877344 7.434375 49.857031 7.373437 49.857031 C 7.3125 49.857031 7.241406 49.877344 7.180469 49.928125 C 7.129687 49.989062 7.119531 50.05 7.119531 50.121094 C 7.119531 50.182031 7.129687 50.253125 7.180469 50.303906 C 7.241406 50.364844 7.3125 50.375 7.373437 50.375 Z M 7.373437 50.375 " transform="matrix(0.384615,0,0,0.384615,0,0)"/>
<path style="fill-rule:nonzero;fill:rgb(4.313725%,3.529412%,7.45098%);fill-opacity:1;stroke-width:0.232558;stroke-linecap:butt;stroke-linejoin:miter;stroke:rgb(4.313725%,3.529412%,7.45098%);stroke-opacity:1;stroke-miterlimit:4;" d="M 44.44375 50.852344 C 44.829687 50.852344 45.164844 50.517187 45.164844 50.121094 C 45.164844 49.725 44.829687 49.389844 44.44375 49.389844 C 44.047656 49.389844 43.7125 49.725 43.7125 50.121094 C 43.7125 50.517187 44.047656 50.852344 44.44375 50.852344 Z M 44.44375 50.852344 " transform="matrix(0.384615,0,0,0.384615,0,0)"/>
<path style="fill-rule:nonzero;fill:rgb(4.313725%,3.529412%,7.45098%);fill-opacity:1;stroke-width:0.232558;stroke-linecap:butt;stroke-linejoin:miter;stroke:rgb(4.313725%,3.529412%,7.45098%);stroke-opacity:1;stroke-miterlimit:4;" d="M 39.142187 50.375 C 39.213281 50.375 39.284375 50.364844 39.335156 50.303906 C 39.385937 50.253125 39.40625 50.182031 39.40625 50.121094 C 39.40625 50.05 39.385937 49.989062 39.335156 49.928125 C 39.284375 49.877344 39.213281 49.857031 39.142187 49.857031 C 39.08125 49.857031 39.010156 49.877344 38.959375 49.928125 C 38.908594 49.989062 38.888281 50.05 38.888281 50.121094 C 38.888281 50.2125 38.928906 50.273437 38.979687 50.314062 C 39.030469 50.354687 39.091406 50.375 39.142187 50.375 Z M 39.142187 50.375 " transform="matrix(0.384615,0,0,0.384615,0,0)"/>
<path style="fill-rule:nonzero;fill:rgb(4.313725%,3.529412%,7.45098%);fill-opacity:1;stroke-width:0.232558;stroke-linecap:butt;stroke-linejoin:miter;stroke:rgb(4.313725%,3.529412%,7.45098%);stroke-opacity:1;stroke-miterlimit:4;" d="M 2.082031 50.476562 C 2.173437 50.476562 2.264844 50.435937 2.325781 50.375 C 2.396875 50.303906 2.427344 50.2125 2.427344 50.121094 C 2.427344 50.019531 2.396875 49.928125 2.325781 49.867187 C 2.264844 49.796094 2.173437 49.765625 2.082031 49.765625 C 1.980469 49.765625 1.889062 49.796094 1.828125 49.867187 C 1.757031 49.928125 1.726562 50.019531 1.726562 50.121094 C 1.726562 50.2125 1.757031 50.303906 1.828125 50.375 C 1.889062 50.435937 1.980469 50.476562 2.082031 50.476562 Z M 2.082031 50.476562 " transform="matrix(0.384615,0,0,0.384615,0,0)"/>
<path style="fill-rule:nonzero;fill:rgb(4.313725%,3.529412%,7.45098%);fill-opacity:1;stroke-width:0.232558;stroke-linecap:butt;stroke-linejoin:miter;stroke:rgb(4.313725%,3.529412%,7.45098%);stroke-opacity:1;stroke-miterlimit:4;" d="M 49.735156 48.9125 C 49.105469 48.9125 48.536719 49.440625 48.536719 50.121094 C 48.536719 50.801562 49.064844 51.319531 49.735156 51.319531 C 50.405469 51.319531 50.933594 50.801562 50.933594 50.121094 C 50.933594 49.440625 50.405469 48.9125 49.735156 48.9125 Z M 49.735156 48.9125 " transform="matrix(0.384615,0,0,0.384615,0,0)"/>
<path style="fill-rule:nonzero;fill:rgb(4.313725%,3.529412%,7.45098%);fill-opacity:1;stroke-width:0.232558;stroke-linecap:butt;stroke-linejoin:miter;stroke:rgb(4.313725%,3.529412%,7.45098%);stroke-opacity:1;stroke-miterlimit:4;" d="M 7.373437 45.124219 C 7.475 45.124219 7.55625 45.09375 7.627344 45.022656 C 7.688281 44.961719 7.71875 44.870312 7.71875 44.76875 C 7.71875 44.677344 7.688281 44.585937 7.627344 44.514844 C 7.55625 44.453906 7.475 44.423437 7.373437 44.423437 C 7.271875 44.423437 7.190625 44.453906 7.119531 44.514844 C 7.058594 44.585937 7.017969 44.677344 7.017969 44.76875 C 7.017969 44.870312 7.058594 44.961719 7.119531 45.022656 C 7.190625 45.09375 7.271875 45.124219 7.373437 45.124219 Z M 7.373437 45.124219 " transform="matrix(0.384615,0,0,0.384615,0,0)"/>
<path style="fill-rule:nonzero;fill:rgb(4.313725%,3.529412%,7.45098%);fill-opacity:1;stroke-width:0.232558;stroke-linecap:butt;stroke-linejoin:miter;stroke:rgb(4.313725%,3.529412%,7.45098%);stroke-opacity:1;stroke-miterlimit:4;" d="M 12.664844 45.032812 C 12.735937 45.032812 12.807031 45.0125 12.857812 44.961719 C 12.908594 44.910937 12.928906 44.839844 12.928906 44.76875 C 12.928906 44.707812 12.908594 44.636719 12.857812 44.585937 C 12.807031 44.535156 12.735937 44.514844 12.664844 44.514844 C 12.603906 44.514844 12.532812 44.535156 12.482031 44.585937 C 12.43125 44.636719 12.410937 44.707812 12.410937 44.76875 C 12.410937 44.839844 12.43125 44.910937 12.482031 44.961719 C 12.532812 45.0125 12.603906 45.032812 12.664844 45.032812 Z M 12.664844 45.032812 " transform="matrix(0.384615,0,0,0.384615,0,0)"/>
<path style="fill-rule:nonzero;fill:rgb(4.313725%,3.529412%,7.45098%);fill-opacity:1;stroke-width:0.232558;stroke-linecap:butt;stroke-linejoin:miter;stroke:rgb(4.313725%,3.529412%,7.45098%);stroke-opacity:1;stroke-miterlimit:4;" d="M 33.850781 45.032812 C 33.911719 45.032812 33.982812 45.0125 34.033594 44.961719 C 34.094531 44.910937 34.104687 44.839844 34.104687 44.76875 C 34.104687 44.707812 34.094531 44.636719 34.033594 44.585937 C 33.982812 44.535156 33.911719 44.514844 33.850781 44.514844 C 33.779687 44.514844 33.71875 44.535156 33.657812 44.585937 C 33.607031 44.636719 33.596875 44.707812 33.596875 44.76875 C 33.596875 44.860156 33.6375 44.93125 33.688281 44.971875 C 33.739062 45.002344 33.789844 45.032812 33.850781 45.032812 Z M 33.850781 45.032812 " transform="matrix(0.384615,0,0,0.384615,0,0)"/>
<path style="fill-rule:nonzero;fill:rgb(4.313725%,3.529412%,7.45098%);fill-opacity:1;stroke-width:0.232558;stroke-linecap:butt;stroke-linejoin:miter;stroke:rgb(4.313725%,3.529412%,7.45098%);stroke-opacity:1;stroke-miterlimit:4;" d="M 44.44375 45.977344 C 45.114062 45.977344 45.632031 45.449219 45.632031 44.76875 C 45.632031 44.098437 45.114062 43.570312 44.44375 43.570312 C 43.763281 43.570312 43.245312 44.098437 43.245312 44.76875 C 43.245312 45.449219 43.814062 45.977344 44.44375 45.977344 Z M 44.44375 45.977344 " transform="matrix(0.384615,0,0,0.384615,0,0)"/>
<path style="fill-rule:nonzero;fill:rgb(4.313725%,3.529412%,7.45098%);fill-opacity:1;stroke-width:0.232558;stroke-linecap:butt;stroke-linejoin:miter;stroke:rgb(4.313725%,3.529412%,7.45098%);stroke-opacity:1;stroke-miterlimit:4;" d="M 39.142187 45.5 C 39.538281 45.5 39.873437 45.164844 39.873437 44.76875 C 39.873437 44.382812 39.538281 44.0375 39.142187 44.0375 C 38.746094 44.0375 38.421094 44.382812 38.421094 44.76875 C 38.421094 45.164844 38.746094 45.5 39.142187 45.5 Z M 39.142187 45.5 " transform="matrix(0.384615,0,0,0.384615,0,0)"/>
<path style="fill-rule:nonzero;fill:rgb(4.313725%,3.529412%,7.45098%);fill-opacity:1;stroke-width:0.232558;stroke-linecap:butt;stroke-linejoin:miter;stroke:rgb(4.313725%,3.529412%,7.45098%);stroke-opacity:1;stroke-miterlimit:4;" d="M 2.082031 45.266406 C 2.214062 45.266406 2.335937 45.205469 2.417187 45.114062 C 2.508594 45.022656 2.569531 44.900781 2.569531 44.76875 C 2.569531 44.636719 2.508594 44.514844 2.417187 44.433594 C 2.335937 44.342187 2.214062 44.28125 2.082031 44.28125 C 1.95 44.28125 1.828125 44.342187 1.736719 44.433594 C 1.655469 44.514844 1.584375 44.636719 1.584375 44.76875 C 1.584375 44.910937 1.625 45.042969 1.716406 45.134375 C 1.807812 45.225781 1.939844 45.266406 2.082031 45.266406 Z M 2.082031 45.266406 " transform="matrix(0.384615,0,0,0.384615,0,0)"/>
<path style="fill-rule:nonzero;fill:rgb(4.313725%,3.529412%,7.45098%);fill-opacity:1;stroke-width:0.232558;stroke-linecap:butt;stroke-linejoin:miter;stroke:rgb(4.313725%,3.529412%,7.45098%);stroke-opacity:1;stroke-miterlimit:4;" d="M 49.735156 45.977344 C 50.354687 45.977344 50.933594 45.449219 50.933594 44.76875 C 50.933594 44.098437 50.405469 43.570312 49.735156 43.570312 C 49.064844 43.570312 48.536719 44.098437 48.536719 44.76875 C 48.536719 45.449219 49.105469 45.977344 49.735156 45.977344 Z M 49.735156 45.977344 " transform="matrix(0.384615,0,0,0.384615,0,0)"/>
<path style="fill-rule:nonzero;fill:rgb(4.313725%,3.529412%,7.45098%);fill-opacity:1;stroke-width:0.232558;stroke-linecap:butt;stroke-linejoin:miter;stroke:rgb(4.313725%,3.529412%,7.45098%);stroke-opacity:1;stroke-miterlimit:4;" d="M 7.373437 2.823437 C 7.769531 2.823437 8.094531 2.478125 8.094531 2.092187 C 8.094531 1.696094 7.769531 1.360937 7.373437 1.360937 C 6.9875 1.360937 6.652344 1.645312 6.652344 2.092187 C 6.652344 2.478125 6.977344 2.823437 7.373437 2.823437 Z M 7.373437 2.823437 " transform="matrix(0.384615,0,0,0.384615,0,0)"/>
<path style="fill-rule:nonzero;fill:rgb(4.313725%,3.529412%,7.45098%);fill-opacity:1;stroke-width:0.232558;stroke-linecap:butt;stroke-linejoin:miter;stroke:rgb(4.313725%,3.529412%,7.45098%);stroke-opacity:1;stroke-miterlimit:4;" d="M 12.664844 2.346094 C 12.735937 2.346094 12.807031 2.325781 12.857812 2.275 C 12.908594 2.224219 12.928906 2.153125 12.928906 2.092187 C 12.928906 2.021094 12.908594 1.95 12.857812 1.899219 C 12.807031 1.848437 12.735937 1.828125 12.664844 1.828125 C 12.603906 1.828125 12.532812 1.848437 12.482031 1.899219 C 12.43125 1.95 12.410937 2.021094 12.410937 2.092187 C 12.410937 2.142969 12.43125 2.203906 12.471875 2.244531 C 12.5125 2.295312 12.573437 2.346094 12.664844 2.346094 Z M 12.664844 2.346094 " transform="matrix(0.384615,0,0,0.384615,0,0)"/>
<path style="fill-rule:nonzero;fill:rgb(4.313725%,3.529412%,7.45098%);fill-opacity:1;stroke-width:0.232558;stroke-linecap:butt;stroke-linejoin:miter;stroke:rgb(4.313725%,3.529412%,7.45098%);stroke-opacity:1;stroke-miterlimit:4;" d="M 44.44375 2.346094 C 44.504687 2.346094 44.575781 2.325781 44.626562 2.275 C 44.677344 2.224219 44.697656 2.153125 44.697656 2.092187 C 44.697656 2.021094 44.677344 1.95 44.626562 1.899219 C 44.575781 1.848437 44.504687 1.828125 44.44375 1.828125 C 44.372656 1.828125 44.301562 1.848437 44.250781 1.899219 C 44.2 1.95 44.179687 2.021094 44.179687 2.092187 C 44.179687 2.132812 44.2 2.173437 44.210156 2.19375 C 44.230469 2.214062 44.250781 2.234375 44.271094 2.254687 C 44.291406 2.275 44.311719 2.295312 44.332031 2.315625 C 44.352344 2.325781 44.392969 2.346094 44.44375 2.346094 Z M 44.44375 2.346094 " transform="matrix(0.384615,0,0,0.384615,0,0)"/>
<path style="fill-rule:nonzero;fill:rgb(4.313725%,3.529412%,7.45098%);fill-opacity:1;stroke-width:0.232558;stroke-linecap:butt;stroke-linejoin:miter;stroke:rgb(4.313725%,3.529412%,7.45098%);stroke-opacity:1;stroke-miterlimit:4;" d="M 2.082031 3.25 C 2.701562 3.25 3.270312 2.721875 3.270312 2.041406 C 3.270312 1.350781 2.691406 0.883594 2.082031 0.883594 C 1.452344 0.883594 0.883594 1.411719 0.883594 2.092187 C 0.883594 2.772656 1.411719 3.25 2.082031 3.25 Z M 2.082031 3.25 " transform="matrix(0.384615,0,0,0.384615,0,0)"/>
<path style="fill-rule:nonzero;fill:rgb(4.313725%,3.529412%,7.45098%);fill-opacity:1;stroke-width:0.232558;stroke-linecap:butt;stroke-linejoin:miter;stroke:rgb(4.313725%,3.529412%,7.45098%);stroke-opacity:1;stroke-miterlimit:4;" d="M 49.735156 2.4375 C 49.836719 2.4375 49.917969 2.407031 49.989062 2.346094 C 50.05 2.275 50.080469 2.183594 50.080469 2.092187 C 50.080469 1.990625 50.05 1.899219 49.989062 1.838281 C 49.917969 1.767187 49.836719 1.736719 49.735156 1.736719 C 49.633594 1.736719 49.552344 1.767187 49.48125 1.838281 C 49.420312 1.899219 49.379687 1.990625 49.379687 2.092187 C 49.379687 2.183594 49.420312 2.275 49.48125 2.346094 C 49.552344 2.407031 49.633594 2.4375 49.735156 2.4375 Z M 49.735156 2.4375 " transform="matrix(0.384615,0,0,0.384615,0,0)"/>
</g>
</svg>
