<?xml version="1.0" encoding="UTF-8"?>
<svg xmlns="http://www.w3.org/2000/svg" xmlns:xlink="http://www.w3.org/1999/xlink" width="px" height="px" viewBox="0 0 39 39" version="1.1">
<g id="surface1">
<path style="fill-rule:nonzero;fill:rgb(4.313725%,3.529412%,7.45098%);fill-opacity:1;stroke-width:0.232558;stroke-linecap:butt;stroke-linejoin:miter;stroke:rgb(4.313725%,3.529412%,7.45098%);stroke-opacity:1;stroke-miterlimit:4;" d="M 17.963542 39.682292 C 18.026042 39.682292 18.098958 39.666667 18.151042 39.614583 C 18.203125 39.5625 18.21875 39.489583 18.21875 39.427083 C 18.21875 39.359375 18.203125 39.291667 18.151042 39.234375 C 18.098958 39.182292 18.026042 39.166667 17.963542 39.166667 C 17.895833 39.166667 17.828125 39.182292 17.776042 39.234375 C 17.723958 39.291667 17.708333 39.359375 17.708333 39.427083 C 17.708333 39.489583 17.723958 39.5625 17.776042 39.614583 C 17.828125 39.666667 17.895833 39.682292 17.963542 39.682292 Z M 17.963542 39.682292 " transform="matrix(0.75,0,0,0.75,0,0)"/>
<path style="fill-rule:nonzero;fill:rgb(4.313725%,3.529412%,7.45098%);fill-opacity:1;stroke-width:0.232558;stroke-linecap:butt;stroke-linejoin:miter;stroke:rgb(4.313725%,3.529412%,7.45098%);stroke-opacity:1;stroke-miterlimit:4;" d="M 7.375 39.921875 C 7.505208 39.921875 7.625 39.854167 7.713542 39.765625 C 7.802083 39.682292 7.864583 39.557292 7.864583 39.427083 C 7.864583 39.291667 7.802083 39.171875 7.713542 39.083333 C 7.625 38.994792 7.505208 38.932292 7.375 38.932292 C 7.239583 38.932292 7.119792 38.994792 7.03125 39.083333 C 6.947917 39.171875 6.880208 39.291667 6.880208 39.427083 C 6.880208 39.567708 6.921875 39.692708 7.015625 39.786458 C 7.104167 39.875 7.234375 39.921875 7.375 39.921875 Z M 7.375 39.921875 " transform="matrix(0.75,0,0,0.75,0,0)"/>
<path style="fill-rule:nonzero;fill:rgb(4.313725%,3.529412%,7.45098%);fill-opacity:1;stroke-width:0.232558;stroke-linecap:butt;stroke-linejoin:miter;stroke:rgb(4.313725%,3.529412%,7.45098%);stroke-opacity:1;stroke-miterlimit:4;" d="M 28.552083 39.682292 C 28.619792 39.682292 28.6875 39.666667 28.739583 39.614583 C 28.796875 39.5625 28.8125 39.489583 28.8125 39.427083 C 28.8125 39.359375 28.796875 39.291667 28.739583 39.234375 C 28.6875 39.182292 28.619792 39.166667 28.552083 39.166667 C 28.489583 39.166667 28.416667 39.182292 28.364583 39.234375 C 28.3125 39.291667 28.296875 39.359375 28.296875 39.427083 C 28.296875 39.489583 28.3125 39.5625 28.364583 39.614583 C 28.416667 39.666667 28.489583 39.682292 28.552083 39.682292 Z M 28.552083 39.682292 " transform="matrix(0.75,0,0,0.75,0,0)"/>
<path style="fill-rule:nonzero;fill:rgb(4.313725%,3.529412%,7.45098%);fill-opacity:1;stroke-width:0.232558;stroke-linecap:butt;stroke-linejoin:miter;stroke:rgb(4.313725%,3.529412%,7.45098%);stroke-opacity:1;stroke-miterlimit:4;" d="M 12.666667 39.776042 C 12.765625 39.776042 12.854167 39.744792 12.921875 39.677083 C 12.984375 39.614583 13.020833 39.520833 13.020833 39.427083 C 13.020833 39.328125 12.984375 39.239583 12.921875 39.171875 C 12.854167 39.104167 12.765625 39.072917 12.666667 39.072917 C 12.572917 39.072917 12.479167 39.104167 12.416667 39.171875 C 12.348958 39.239583 12.317708 39.328125 12.317708 39.427083 C 12.317708 39.520833 12.348958 39.614583 12.416667 39.677083 C 12.479167 39.744792 12.572917 39.776042 12.666667 39.776042 Z M 12.666667 39.776042 " transform="matrix(0.75,0,0,0.75,0,0)"/>
<path style="fill-rule:nonzero;fill:rgb(4.313725%,3.529412%,7.45098%);fill-opacity:1;stroke-width:0.232558;stroke-linecap:butt;stroke-linejoin:miter;stroke:rgb(4.313725%,3.529412%,7.45098%);stroke-opacity:1;stroke-miterlimit:4;" d="M 33.848958 40.15625 C 34.244792 40.15625 34.572917 39.817708 34.572917 39.427083 C 34.572917 39.03125 34.244792 38.692708 33.848958 38.692708 C 33.458333 38.692708 33.125 39.03125 33.125 39.427083 C 33.125 39.817708 33.458333 40.15625 33.848958 40.15625 Z M 33.848958 40.15625 " transform="matrix(0.75,0,0,0.75,0,0)"/>
<path style="fill-rule:nonzero;fill:rgb(4.313725%,3.529412%,7.45098%);fill-opacity:1;stroke-width:0.232558;stroke-linecap:butt;stroke-linejoin:miter;stroke:rgb(4.313725%,3.529412%,7.45098%);stroke-opacity:1;stroke-miterlimit:4;" d="M 44.4375 40.390625 C 44.973958 40.390625 45.401042 39.963542 45.401042 39.427083 C 45.401042 38.890625 44.973958 38.458333 44.4375 38.458333 C 43.90625 38.458333 43.479167 38.890625 43.479167 39.427083 C 43.479167 39.963542 43.90625 40.390625 44.4375 40.390625 Z M 44.4375 40.390625 " transform="matrix(0.75,0,0,0.75,0,0)"/>
<path style="fill-rule:nonzero;fill:rgb(4.313725%,3.529412%,7.45098%);fill-opacity:1;stroke-width:0.232558;stroke-linecap:butt;stroke-linejoin:miter;stroke:rgb(4.313725%,3.529412%,7.45098%);stroke-opacity:1;stroke-miterlimit:4;" d="M 39.145833 40.630208 C 39.817708 40.630208 40.338542 40.104167 40.338542 39.427083 C 40.338542 38.744792 39.817708 38.21875 39.145833 38.21875 C 38.46875 38.21875 37.947917 38.744792 37.947917 39.427083 C 37.947917 40.109375 38.520833 40.630208 39.145833 40.630208 Z M 39.145833 40.630208 " transform="matrix(0.75,0,0,0.75,0,0)"/>
<path style="fill-rule:nonzero;fill:rgb(4.313725%,3.529412%,7.45098%);fill-opacity:1;stroke-width:0.232558;stroke-linecap:butt;stroke-linejoin:miter;stroke:rgb(4.313725%,3.529412%,7.45098%);stroke-opacity:1;stroke-miterlimit:4;" d="M 2.078125 40.0625 C 2.421875 40.0625 2.708333 39.770833 2.708333 39.427083 C 2.708333 39.078125 2.421875 38.786458 2.078125 38.786458 C 1.729167 38.786458 1.447917 39.078125 1.447917 39.427083 C 1.447917 39.619792 1.515625 39.78125 1.635417 39.895833 C 1.755208 40.005208 1.911458 40.0625 2.078125 40.0625 Z M 2.078125 40.0625 " transform="matrix(0.75,0,0,0.75,0,0)"/>
<path style="fill-rule:nonzero;fill:rgb(4.313725%,3.529412%,7.45098%);fill-opacity:1;stroke-width:0.232558;stroke-linecap:butt;stroke-linejoin:miter;stroke:rgb(4.313725%,3.529412%,7.45098%);stroke-opacity:1;stroke-miterlimit:4;" d="M 49.734375 40.536458 C 50.364583 40.536458 50.833333 40.057292 50.833333 39.427083 C 50.833333 38.791667 50.364583 38.3125 49.734375 38.3125 C 49.109375 38.3125 48.635417 38.791667 48.635417 39.427083 C 48.635417 40.010417 49.15625 40.536458 49.734375 40.536458 Z M 49.734375 40.536458 " transform="matrix(0.75,0,0,0.75,0,0)"/>
<path style="fill-rule:nonzero;fill:rgb(4.313725%,3.529412%,7.45098%);fill-opacity:1;stroke-width:0.232558;stroke-linecap:butt;stroke-linejoin:miter;stroke:rgb(4.313725%,3.529412%,7.45098%);stroke-opacity:1;stroke-miterlimit:4;" d="M 17.963542 34.338542 C 18.026042 34.338542 18.098958 34.317708 18.151042 34.265625 C 18.203125 34.213542 18.21875 34.140625 18.21875 34.078125 C 18.21875 34.010417 18.203125 33.942708 18.151042 33.890625 C 18.098958 33.838542 18.026042 33.817708 17.963542 33.817708 C 17.895833 33.817708 17.828125 33.838542 17.776042 33.890625 C 17.723958 33.942708 17.708333 34.010417 17.708333 34.078125 C 17.708333 34.130208 17.729167 34.192708 17.765625 34.239583 C 17.807292 34.286458 17.875 34.338542 17.963542 34.338542 Z M 17.963542 34.338542 " transform="matrix(0.75,0,0,0.75,0,0)"/>
<path style="fill-rule:nonzero;fill:rgb(4.313725%,3.529412%,7.45098%);fill-opacity:1;stroke-width:0.232558;stroke-linecap:butt;stroke-linejoin:miter;stroke:rgb(4.313725%,3.529412%,7.45098%);stroke-opacity:1;stroke-miterlimit:4;" d="M 7.375 34.713542 C 7.71875 34.713542 8.005208 34.427083 8.005208 34.078125 C 8.005208 33.729167 7.71875 33.442708 7.375 33.442708 C 7.026042 33.442708 6.739583 33.729167 6.739583 34.078125 C 6.739583 34.270833 6.8125 34.432292 6.932292 34.546875 C 7.046875 34.65625 7.208333 34.713542 7.375 34.713542 Z M 7.375 34.713542 " transform="matrix(0.75,0,0,0.75,0,0)"/>
<path style="fill-rule:nonzero;fill:rgb(4.313725%,3.529412%,7.45098%);fill-opacity:1;stroke-width:0.232558;stroke-linecap:butt;stroke-linejoin:miter;stroke:rgb(4.313725%,3.529412%,7.45098%);stroke-opacity:1;stroke-miterlimit:4;" d="M 28.552083 34.807292 C 28.947917 34.807292 29.28125 34.473958 29.28125 34.078125 C 29.28125 33.682292 28.947917 33.348958 28.552083 33.348958 C 28.161458 33.348958 27.828125 33.682292 27.828125 34.078125 C 27.828125 34.473958 28.161458 34.807292 28.552083 34.807292 Z M 28.552083 34.807292 " transform="matrix(0.75,0,0,0.75,0,0)"/>
<path style="fill-rule:nonzero;fill:rgb(4.313725%,3.529412%,7.45098%);fill-opacity:1;stroke-width:0.232558;stroke-linecap:butt;stroke-linejoin:miter;stroke:rgb(4.313725%,3.529412%,7.45098%);stroke-opacity:1;stroke-miterlimit:4;" d="M 23.260417 34.338542 C 23.322917 34.338542 23.395833 34.317708 23.447917 34.265625 C 23.5 34.213542 23.515625 34.140625 23.515625 34.078125 C 23.515625 34.010417 23.5 33.942708 23.447917 33.890625 C 23.395833 33.838542 23.322917 33.817708 23.260417 33.817708 C 23.192708 33.817708 23.125 33.838542 23.072917 33.890625 C 23.015625 33.942708 23 34.010417 23 34.078125 C 23 34.130208 23.026042 34.192708 23.0625 34.239583 C 23.104167 34.286458 23.166667 34.338542 23.260417 34.338542 Z M 23.260417 34.338542 " transform="matrix(0.75,0,0,0.75,0,0)"/>
<path style="fill-rule:nonzero;fill:rgb(4.313725%,3.529412%,7.45098%);fill-opacity:1;stroke-width:0.232558;stroke-linecap:butt;stroke-linejoin:miter;stroke:rgb(4.313725%,3.529412%,7.45098%);stroke-opacity:1;stroke-miterlimit:4;" d="M 12.666667 34.572917 C 12.979167 34.572917 13.161458 34.322917 13.161458 34.078125 C 13.161458 33.770833 12.911458 33.583333 12.666667 33.583333 C 12.536458 33.583333 12.416667 33.645833 12.328125 33.734375 C 12.239583 33.822917 12.177083 33.947917 12.177083 34.078125 C 12.177083 34.322917 12.359375 34.572917 12.666667 34.572917 Z M 12.666667 34.572917 " transform="matrix(0.75,0,0,0.75,0,0)"/>
<path style="fill-rule:nonzero;fill:rgb(4.313725%,3.529412%,7.45098%);fill-opacity:1;stroke-width:0.232558;stroke-linecap:butt;stroke-linejoin:miter;stroke:rgb(4.313725%,3.529412%,7.45098%);stroke-opacity:1;stroke-miterlimit:4;" d="M 33.848958 35.28125 C 34.526042 35.28125 35.041667 34.755208 35.041667 34.078125 C 35.041667 33.401042 34.526042 32.875 33.848958 32.875 C 33.177083 32.875 32.65625 33.401042 32.65625 34.078125 C 32.65625 34.760417 33.223958 35.28125 33.848958 35.28125 Z M 33.848958 35.28125 " transform="matrix(0.75,0,0,0.75,0,0)"/>
<path style="fill-rule:nonzero;fill:rgb(4.313725%,3.529412%,7.45098%);fill-opacity:1;stroke-width:0.232558;stroke-linecap:butt;stroke-linejoin:miter;stroke:rgb(4.313725%,3.529412%,7.45098%);stroke-opacity:1;stroke-miterlimit:4;" d="M 44.4375 34.807292 C 44.833333 34.807292 45.166667 34.473958 45.166667 34.078125 C 45.166667 33.682292 44.833333 33.348958 44.4375 33.348958 C 44.046875 33.348958 43.713542 33.682292 43.713542 34.078125 C 43.713542 34.473958 44.046875 34.807292 44.4375 34.807292 Z M 44.4375 34.807292 " transform="matrix(0.75,0,0,0.75,0,0)"/>
<path style="fill-rule:nonzero;fill:rgb(4.313725%,3.529412%,7.45098%);fill-opacity:1;stroke-width:0.232558;stroke-linecap:butt;stroke-linejoin:miter;stroke:rgb(4.313725%,3.529412%,7.45098%);stroke-opacity:1;stroke-miterlimit:4;" d="M 39.145833 34.807292 C 39.536458 34.807292 39.869792 34.473958 39.869792 34.078125 C 39.869792 33.682292 39.536458 33.348958 39.145833 33.348958 C 38.75 33.348958 38.416667 33.682292 38.416667 34.078125 C 38.416667 34.473958 38.75 34.807292 39.145833 34.807292 Z M 39.145833 34.807292 " transform="matrix(0.75,0,0,0.75,0,0)"/>
<path style="fill-rule:nonzero;fill:rgb(4.313725%,3.529412%,7.45098%);fill-opacity:1;stroke-width:0.232558;stroke-linecap:butt;stroke-linejoin:miter;stroke:rgb(4.313725%,3.529412%,7.45098%);stroke-opacity:1;stroke-miterlimit:4;" d="M 2.078125 34.90625 C 2.515625 34.90625 2.895833 34.520833 2.895833 34.078125 C 2.895833 33.635417 2.515625 33.25 2.078125 33.25 C 1.640625 33.25 1.260417 33.630208 1.260417 34.072917 C 1.234375 34.317708 1.317708 34.526042 1.46875 34.677083 C 1.625 34.822917 1.84375 34.90625 2.078125 34.90625 Z M 2.078125 34.90625 " transform="matrix(0.75,0,0,0.75,0,0)"/>
<path style="fill-rule:nonzero;fill:rgb(4.313725%,3.529412%,7.45098%);fill-opacity:1;stroke-width:0.232558;stroke-linecap:butt;stroke-linejoin:miter;stroke:rgb(4.313725%,3.529412%,7.45098%);stroke-opacity:1;stroke-miterlimit:4;" d="M 49.734375 35.09375 C 50.317708 35.09375 50.739583 34.609375 50.739583 34.078125 C 50.739583 33.489583 50.265625 33.0625 49.734375 33.0625 C 49.151042 33.0625 48.729167 33.546875 48.729167 34.078125 C 48.729167 34.666667 49.203125 35.09375 49.734375 35.09375 Z M 49.734375 35.09375 " transform="matrix(0.75,0,0,0.75,0,0)"/>
<path style="fill-rule:nonzero;fill:rgb(4.313725%,3.529412%,7.45098%);fill-opacity:1;stroke-width:0.232558;stroke-linecap:butt;stroke-linejoin:miter;stroke:rgb(4.313725%,3.529412%,7.45098%);stroke-opacity:1;stroke-miterlimit:4;" d="M 17.963542 29.036458 C 18.026042 29.036458 18.098958 29.020833 18.151042 28.963542 C 18.203125 28.911458 18.21875 28.84375 18.21875 28.776042 C 18.21875 28.713542 18.203125 28.640625 18.151042 28.588542 C 18.098958 28.536458 18.026042 28.520833 17.963542 28.520833 C 17.895833 28.520833 17.828125 28.536458 17.776042 28.588542 C 17.723958 28.640625 17.708333 28.713542 17.708333 28.776042 C 17.708333 28.84375 17.723958 28.911458 17.776042 28.963542 C 17.828125 29.020833 17.895833 29.036458 17.963542 29.036458 Z M 17.963542 29.036458 " transform="matrix(0.75,0,0,0.75,0,0)"/>
<path style="fill-rule:nonzero;fill:rgb(4.313725%,3.529412%,7.45098%);fill-opacity:1;stroke-width:0.232558;stroke-linecap:butt;stroke-linejoin:miter;stroke:rgb(4.313725%,3.529412%,7.45098%);stroke-opacity:1;stroke-miterlimit:4;" d="M 7.375 29.510417 C 7.765625 29.510417 8.098958 29.171875 8.098958 28.776042 C 8.098958 28.385417 7.765625 28.046875 7.375 28.046875 C 6.979167 28.046875 6.645833 28.385417 6.645833 28.776042 C 6.645833 29.171875 6.979167 29.510417 7.375 29.510417 Z M 7.375 29.510417 " transform="matrix(0.75,0,0,0.75,0,0)"/>
<path style="fill-rule:nonzero;fill:rgb(4.313725%,3.529412%,7.45098%);fill-opacity:1;stroke-width:0.232558;stroke-linecap:butt;stroke-linejoin:miter;stroke:rgb(4.313725%,3.529412%,7.45098%);stroke-opacity:1;stroke-miterlimit:4;" d="M 28.552083 29.984375 C 29.229167 29.984375 29.75 29.458333 29.75 28.776042 C 29.75 28.098958 29.229167 27.572917 28.552083 27.572917 C 27.880208 27.572917 27.359375 28.098958 27.359375 28.776042 C 27.359375 29.458333 27.927083 29.984375 28.552083 29.984375 Z M 28.552083 29.984375 " transform="matrix(0.75,0,0,0.75,0,0)"/>
<path style="fill-rule:nonzero;fill:rgb(4.313725%,3.529412%,7.45098%);fill-opacity:1;stroke-width:0.232558;stroke-linecap:butt;stroke-linejoin:miter;stroke:rgb(4.313725%,3.529412%,7.45098%);stroke-opacity:1;stroke-miterlimit:4;" d="M 23.260417 29.510417 C 23.651042 29.510417 23.984375 29.171875 23.984375 28.776042 C 23.984375 28.385417 23.651042 28.046875 23.260417 28.046875 C 22.864583 28.046875 22.53125 28.385417 22.53125 28.776042 C 22.53125 29.171875 22.864583 29.510417 23.260417 29.510417 Z M 23.260417 29.510417 " transform="matrix(0.75,0,0,0.75,0,0)"/>
<path style="fill-rule:nonzero;fill:rgb(4.313725%,3.529412%,7.45098%);fill-opacity:1;stroke-width:0.232558;stroke-linecap:butt;stroke-linejoin:miter;stroke:rgb(4.313725%,3.529412%,7.45098%);stroke-opacity:1;stroke-miterlimit:4;" d="M 12.666667 29.270833 C 12.979167 29.270833 13.161458 29.020833 13.161458 28.776042 C 13.161458 28.46875 12.911458 28.28125 12.666667 28.28125 C 12.536458 28.28125 12.416667 28.348958 12.328125 28.4375 C 12.239583 28.520833 12.177083 28.645833 12.177083 28.776042 C 12.177083 29.020833 12.359375 29.270833 12.666667 29.270833 Z M 12.666667 29.270833 " transform="matrix(0.75,0,0,0.75,0,0)"/>
<path style="fill-rule:nonzero;fill:rgb(4.313725%,3.529412%,7.45098%);fill-opacity:1;stroke-width:0.232558;stroke-linecap:butt;stroke-linejoin:miter;stroke:rgb(4.313725%,3.529412%,7.45098%);stroke-opacity:1;stroke-miterlimit:4;" d="M 33.848958 29.510417 C 34.244792 29.510417 34.572917 29.171875 34.572917 28.776042 C 34.572917 28.385417 34.244792 28.046875 33.848958 28.046875 C 33.458333 28.046875 33.125 28.385417 33.125 28.776042 C 33.125 29.171875 33.458333 29.510417 33.848958 29.510417 Z M 33.848958 29.510417 " transform="matrix(0.75,0,0,0.75,0,0)"/>
<path style="fill-rule:nonzero;fill:rgb(4.313725%,3.529412%,7.45098%);fill-opacity:1;stroke-width:0.232558;stroke-linecap:butt;stroke-linejoin:miter;stroke:rgb(4.313725%,3.529412%,7.45098%);stroke-opacity:1;stroke-miterlimit:4;" d="M 44.4375 29.510417 C 44.833333 29.510417 45.166667 29.171875 45.166667 28.776042 C 45.166667 28.385417 44.833333 28.046875 44.4375 28.046875 C 44.046875 28.046875 43.713542 28.385417 43.713542 28.776042 C 43.713542 29.171875 44.046875 29.510417 44.4375 29.510417 Z M 44.4375 29.510417 " transform="matrix(0.75,0,0,0.75,0,0)"/>
<path style="fill-rule:nonzero;fill:rgb(4.313725%,3.529412%,7.45098%);fill-opacity:1;stroke-width:0.232558;stroke-linecap:butt;stroke-linejoin:miter;stroke:rgb(4.313725%,3.529412%,7.45098%);stroke-opacity:1;stroke-miterlimit:4;" d="M 39.145833 29.270833 C 39.453125 29.270833 39.635417 29.020833 39.635417 28.776042 C 39.635417 28.645833 39.572917 28.520833 39.484375 28.4375 C 39.395833 28.348958 39.276042 28.28125 39.145833 28.28125 C 38.833333 28.28125 38.651042 28.536458 38.651042 28.776042 C 38.651042 28.911458 38.71875 29.03125 38.802083 29.119792 C 38.890625 29.208333 39.010417 29.270833 39.145833 29.270833 Z M 39.145833 29.270833 " transform="matrix(0.75,0,0,0.75,0,0)"/>
<path style="fill-rule:nonzero;fill:rgb(4.313725%,3.529412%,7.45098%);fill-opacity:1;stroke-width:0.232558;stroke-linecap:butt;stroke-linejoin:miter;stroke:rgb(4.313725%,3.529412%,7.45098%);stroke-opacity:1;stroke-miterlimit:4;" d="M 2.078125 29.744792 C 2.619792 29.744792 2.989583 29.307292 2.989583 28.776042 C 2.989583 28.239583 2.5625 27.807292 2.03125 27.807292 C 1.494792 27.807292 1.072917 28.239583 1.072917 28.776042 C 1.072917 29.322917 1.552083 29.744792 2.078125 29.744792 Z M 2.078125 29.744792 " transform="matrix(0.75,0,0,0.75,0,0)"/>
<path style="fill-rule:nonzero;fill:rgb(4.313725%,3.529412%,7.45098%);fill-opacity:1;stroke-width:0.232558;stroke-linecap:butt;stroke-linejoin:miter;stroke:rgb(4.313725%,3.529412%,7.45098%);stroke-opacity:1;stroke-miterlimit:4;" d="M 49.734375 29.744792 C 50.270833 29.744792 50.692708 29.3125 50.692708 28.776042 C 50.692708 28.239583 50.270833 27.807292 49.734375 27.807292 C 49.203125 27.807292 48.776042 28.239583 48.776042 28.776042 C 48.776042 29.3125 49.203125 29.744792 49.734375 29.744792 Z M 49.734375 29.744792 " transform="matrix(0.75,0,0,0.75,0,0)"/>
<path style="fill-rule:nonzero;fill:rgb(4.313725%,3.529412%,7.45098%);fill-opacity:1;stroke-width:0.232558;stroke-linecap:butt;stroke-linejoin:miter;stroke:rgb(4.313725%,3.529412%,7.45098%);stroke-opacity:1;stroke-miterlimit:4;" d="M 17.963542 24.161458 C 18.359375 24.161458 18.6875 23.822917 18.6875 23.432292 C 18.6875 23.234375 18.604167 23.041667 18.479167 22.895833 C 18.348958 22.755208 18.166667 22.651042 17.963542 22.651042 C 17.567708 22.651042 17.239583 22.989583 17.239583 23.385417 C 17.239583 23.578125 17.322917 23.770833 17.447917 23.916667 C 17.578125 24.057292 17.760417 24.161458 17.963542 24.161458 Z M 17.963542 24.161458 " transform="matrix(0.75,0,0,0.75,0,0)"/>
<path style="fill-rule:nonzero;fill:rgb(4.313725%,3.529412%,7.45098%);fill-opacity:1;stroke-width:0.232558;stroke-linecap:butt;stroke-linejoin:miter;stroke:rgb(4.313725%,3.529412%,7.45098%);stroke-opacity:1;stroke-miterlimit:4;" d="M 7.375 24.161458 C 7.765625 24.161458 8.098958 23.822917 8.098958 23.432292 C 8.098958 23.234375 8.015625 23.041667 7.885417 22.895833 C 7.760417 22.755208 7.578125 22.651042 7.375 22.651042 C 6.979167 22.651042 6.645833 22.989583 6.645833 23.385417 C 6.645833 23.578125 6.729167 23.770833 6.859375 23.916667 C 6.989583 24.057292 7.166667 24.161458 7.375 24.161458 Z M 7.375 24.161458 " transform="matrix(0.75,0,0,0.75,0,0)"/>
<path style="fill-rule:nonzero;fill:rgb(4.313725%,3.529412%,7.45098%);fill-opacity:1;stroke-width:0.232558;stroke-linecap:butt;stroke-linejoin:miter;stroke:rgb(4.313725%,3.529412%,7.45098%);stroke-opacity:1;stroke-miterlimit:4;" d="M 28.552083 24.161458 C 28.947917 24.161458 29.28125 23.822917 29.28125 23.432292 C 29.28125 23.036458 28.947917 22.697917 28.552083 22.697917 C 28.161458 22.697917 27.828125 23.036458 27.828125 23.432292 C 27.828125 23.822917 28.161458 24.161458 28.552083 24.161458 Z M 28.552083 24.161458 " transform="matrix(0.75,0,0,0.75,0,0)"/>
<path style="fill-rule:nonzero;fill:rgb(4.313725%,3.529412%,7.45098%);fill-opacity:1;stroke-width:0.232558;stroke-linecap:butt;stroke-linejoin:miter;stroke:rgb(4.313725%,3.529412%,7.45098%);stroke-opacity:1;stroke-miterlimit:4;" d="M 23.260417 24.635417 C 23.932292 24.635417 24.453125 24.109375 24.453125 23.432292 C 24.453125 22.75 23.932292 22.223958 23.260417 22.223958 C 22.583333 22.223958 22.0625 22.75 22.0625 23.432292 C 22.0625 24.109375 22.583333 24.635417 23.260417 24.635417 Z M 23.260417 24.635417 " transform="matrix(0.75,0,0,0.75,0,0)"/>
<path style="fill-rule:nonzero;fill:rgb(4.313725%,3.529412%,7.45098%);fill-opacity:1;stroke-width:0.232558;stroke-linecap:butt;stroke-linejoin:miter;stroke:rgb(4.313725%,3.529412%,7.45098%);stroke-opacity:1;stroke-miterlimit:4;" d="M 12.666667 23.927083 C 12.979167 23.927083 13.161458 23.671875 13.161458 23.432292 C 13.161458 23.296875 13.09375 23.177083 13.010417 23.088542 C 12.921875 23 12.802083 22.9375 12.666667 22.9375 C 12.536458 22.9375 12.416667 23 12.328125 23.088542 C 12.239583 23.177083 12.177083 23.296875 12.177083 23.432292 C 12.177083 23.671875 12.359375 23.927083 12.666667 23.927083 Z M 12.666667 23.927083 " transform="matrix(0.75,0,0,0.75,0,0)"/>
<path style="fill-rule:nonzero;fill:rgb(4.313725%,3.529412%,7.45098%);fill-opacity:1;stroke-width:0.232558;stroke-linecap:butt;stroke-linejoin:miter;stroke:rgb(4.313725%,3.529412%,7.45098%);stroke-opacity:1;stroke-miterlimit:4;" d="M 33.848958 23.6875 C 33.916667 23.6875 33.984375 23.671875 34.036458 23.619792 C 34.088542 23.567708 34.104167 23.494792 34.104167 23.432292 C 34.104167 23.364583 34.088542 23.296875 34.036458 23.239583 C 33.984375 23.1875 33.916667 23.171875 33.848958 23.171875 C 33.786458 23.171875 33.713542 23.1875 33.661458 23.239583 C 33.609375 23.296875 33.59375 23.364583 33.59375 23.432292 C 33.59375 23.520833 33.640625 23.588542 33.6875 23.625 C 33.734375 23.666667 33.796875 23.6875 33.848958 23.6875 Z M 33.848958 23.6875 " transform="matrix(0.75,0,0,0.75,0,0)"/>
<path style="fill-rule:nonzero;fill:rgb(4.313725%,3.529412%,7.45098%);fill-opacity:1;stroke-width:0.232558;stroke-linecap:butt;stroke-linejoin:miter;stroke:rgb(4.313725%,3.529412%,7.45098%);stroke-opacity:1;stroke-miterlimit:4;" d="M 44.4375 24.161458 C 44.833333 24.161458 45.166667 23.822917 45.166667 23.432292 C 45.166667 23.036458 44.833333 22.697917 44.4375 22.697917 C 44.046875 22.697917 43.713542 23.036458 43.713542 23.432292 C 43.713542 23.822917 44.046875 24.161458 44.4375 24.161458 Z M 44.4375 24.161458 " transform="matrix(0.75,0,0,0.75,0,0)"/>
<path style="fill-rule:nonzero;fill:rgb(4.313725%,3.529412%,7.45098%);fill-opacity:1;stroke-width:0.232558;stroke-linecap:butt;stroke-linejoin:miter;stroke:rgb(4.313725%,3.529412%,7.45098%);stroke-opacity:1;stroke-miterlimit:4;" d="M 39.145833 23.927083 C 39.453125 23.927083 39.635417 23.671875 39.635417 23.432292 C 39.635417 23.296875 39.572917 23.177083 39.484375 23.088542 C 39.395833 23 39.276042 22.9375 39.145833 22.9375 C 38.833333 22.9375 38.651042 23.1875 38.651042 23.432292 C 38.651042 23.5625 38.71875 23.6875 38.802083 23.770833 C 38.890625 23.859375 39.010417 23.927083 39.145833 23.927083 Z M 39.145833 23.927083 " transform="matrix(0.75,0,0,0.75,0,0)"/>
<path style="fill-rule:nonzero;fill:rgb(4.313725%,3.529412%,7.45098%);fill-opacity:1;stroke-width:0.232558;stroke-linecap:butt;stroke-linejoin:miter;stroke:rgb(4.313725%,3.529412%,7.45098%);stroke-opacity:1;stroke-miterlimit:4;" d="M 2.078125 24.401042 C 2.609375 24.401042 3.036458 23.96875 3.036458 23.432292 C 3.036458 22.895833 2.609375 22.463542 2.078125 22.463542 C 1.541667 22.463542 1.119792 22.895833 1.119792 23.432292 C 1.119792 23.96875 1.541667 24.401042 2.078125 24.401042 Z M 2.078125 24.401042 " transform="matrix(0.75,0,0,0.75,0,0)"/>
<path style="fill-rule:nonzero;fill:rgb(4.313725%,3.529412%,7.45098%);fill-opacity:1;stroke-width:0.232558;stroke-linecap:butt;stroke-linejoin:miter;stroke:rgb(4.313725%,3.529412%,7.45098%);stroke-opacity:1;stroke-miterlimit:4;" d="M 48.776042 23.432292 L 48.776042 23.442708 C 48.828125 23.963542 49.244792 24.401042 49.734375 24.401042 C 50.270833 24.401042 50.692708 23.96875 50.692708 23.432292 C 50.692708 22.895833 50.270833 22.463542 49.734375 22.463542 C 49.203125 22.463542 48.776042 22.895833 48.776042 23.432292 Z M 48.776042 23.432292 " transform="matrix(0.75,0,0,0.75,0,0)"/>
<path style="fill-rule:nonzero;fill:rgb(4.313725%,3.529412%,7.45098%);fill-opacity:1;stroke-width:0.232558;stroke-linecap:butt;stroke-linejoin:miter;stroke:rgb(4.313725%,3.529412%,7.45098%);stroke-opacity:1;stroke-miterlimit:4;" d="M 17.963542 19.286458 C 18.635417 19.286458 19.15625 18.760417 19.15625 18.083333 C 19.15625 17.40625 18.635417 16.880208 17.963542 16.880208 C 17.286458 16.880208 16.770833 17.40625 16.770833 18.083333 C 16.770833 18.760417 17.286458 19.286458 17.963542 19.286458 Z M 17.963542 19.286458 " transform="matrix(0.75,0,0,0.75,0,0)"/>
<path style="fill-rule:nonzero;fill:rgb(4.313725%,3.529412%,7.45098%);fill-opacity:1;stroke-width:0.232558;stroke-linecap:butt;stroke-linejoin:miter;stroke:rgb(4.313725%,3.529412%,7.45098%);stroke-opacity:1;stroke-miterlimit:4;" d="M 7.375 18.8125 C 7.765625 18.8125 8.098958 18.479167 8.098958 18.083333 C 8.098958 17.6875 7.765625 17.354167 7.375 17.354167 C 6.979167 17.354167 6.645833 17.6875 6.645833 18.083333 C 6.645833 18.479167 6.979167 18.8125 7.375 18.8125 Z M 7.375 18.8125 " transform="matrix(0.75,0,0,0.75,0,0)"/>
<path style="fill-rule:nonzero;fill:rgb(4.313725%,3.529412%,7.45098%);fill-opacity:1;stroke-width:0.232558;stroke-linecap:butt;stroke-linejoin:miter;stroke:rgb(4.313725%,3.529412%,7.45098%);stroke-opacity:1;stroke-miterlimit:4;" d="M 23.260417 18.8125 C 23.651042 18.8125 23.984375 18.479167 23.984375 18.083333 C 23.984375 17.6875 23.651042 17.354167 23.260417 17.354167 C 22.864583 17.354167 22.53125 17.6875 22.53125 18.083333 C 22.53125 18.479167 22.864583 18.8125 23.260417 18.8125 Z M 23.260417 18.8125 " transform="matrix(0.75,0,0,0.75,0,0)"/>
<path style="fill-rule:nonzero;fill:rgb(4.313725%,3.529412%,7.45098%);fill-opacity:1;stroke-width:0.232558;stroke-linecap:butt;stroke-linejoin:miter;stroke:rgb(4.313725%,3.529412%,7.45098%);stroke-opacity:1;stroke-miterlimit:4;" d="M 12.666667 18.8125 C 13.0625 18.8125 13.395833 18.479167 13.395833 18.083333 C 13.395833 17.6875 13.0625 17.354167 12.666667 17.354167 C 12.276042 17.354167 11.942708 17.6875 11.942708 18.083333 C 11.942708 18.479167 12.276042 18.8125 12.666667 18.8125 Z M 12.666667 18.8125 " transform="matrix(0.75,0,0,0.75,0,0)"/>
<path style="fill-rule:nonzero;fill:rgb(4.313725%,3.529412%,7.45098%);fill-opacity:1;stroke-width:0.232558;stroke-linecap:butt;stroke-linejoin:miter;stroke:rgb(4.313725%,3.529412%,7.45098%);stroke-opacity:1;stroke-miterlimit:4;" d="M 33.848958 18.34375 C 33.916667 18.34375 33.984375 18.322917 34.036458 18.270833 C 34.088542 18.21875 34.104167 18.145833 34.104167 18.083333 C 34.104167 18.015625 34.088542 17.947917 34.036458 17.895833 C 33.984375 17.84375 33.916667 17.822917 33.848958 17.822917 C 33.786458 17.822917 33.713542 17.84375 33.661458 17.895833 C 33.609375 17.947917 33.59375 18.015625 33.59375 18.083333 C 33.59375 18.125 33.614583 18.166667 33.625 18.1875 C 33.640625 18.208333 33.661458 18.234375 33.677083 18.255208 C 33.697917 18.270833 33.71875 18.291667 33.744792 18.307292 C 33.765625 18.322917 33.802083 18.34375 33.848958 18.34375 Z M 33.848958 18.34375 " transform="matrix(0.75,0,0,0.75,0,0)"/>
<path style="fill-rule:nonzero;fill:rgb(4.313725%,3.529412%,7.45098%);fill-opacity:1;stroke-width:0.232558;stroke-linecap:butt;stroke-linejoin:miter;stroke:rgb(4.313725%,3.529412%,7.45098%);stroke-opacity:1;stroke-miterlimit:4;" d="M 43.807292 18.083333 L 43.807292 18.098958 C 43.833333 18.28125 43.901042 18.4375 44.010417 18.546875 C 44.125 18.661458 44.270833 18.71875 44.4375 18.71875 C 44.786458 18.71875 45.072917 18.432292 45.072917 18.083333 C 45.072917 17.734375 44.786458 17.447917 44.4375 17.447917 C 44.09375 17.447917 43.807292 17.734375 43.807292 18.083333 Z M 43.807292 18.083333 " transform="matrix(0.75,0,0,0.75,0,0)"/>
<path style="fill-rule:nonzero;fill:rgb(4.313725%,3.529412%,7.45098%);fill-opacity:1;stroke-width:0.232558;stroke-linecap:butt;stroke-linejoin:miter;stroke:rgb(4.313725%,3.529412%,7.45098%);stroke-opacity:1;stroke-miterlimit:4;" d="M 39.145833 18.578125 C 39.453125 18.578125 39.635417 18.328125 39.635417 18.083333 C 39.635417 17.953125 39.572917 17.828125 39.484375 17.739583 C 39.395833 17.651042 39.276042 17.588542 39.145833 17.588542 C 38.833333 17.588542 38.651042 17.838542 38.651042 18.083333 C 38.651042 18.213542 38.71875 18.338542 38.802083 18.427083 C 38.890625 18.510417 39.010417 18.578125 39.145833 18.578125 Z M 39.145833 18.578125 " transform="matrix(0.75,0,0,0.75,0,0)"/>
<path style="fill-rule:nonzero;fill:rgb(4.313725%,3.529412%,7.45098%);fill-opacity:1;stroke-width:0.232558;stroke-linecap:butt;stroke-linejoin:miter;stroke:rgb(4.313725%,3.529412%,7.45098%);stroke-opacity:1;stroke-miterlimit:4;" d="M 2.078125 19.098958 C 2.661458 19.098958 3.083333 18.614583 3.083333 18.083333 C 3.083333 17.494792 2.609375 17.067708 2.078125 17.067708 C 1.541667 17.067708 1.072917 17.546875 1.072917 18.083333 C 1.072917 18.666667 1.494792 19.098958 2.078125 19.098958 Z M 2.078125 19.098958 " transform="matrix(0.75,0,0,0.75,0,0)"/>
<path style="fill-rule:nonzero;fill:rgb(4.313725%,3.529412%,7.45098%);fill-opacity:1;stroke-width:0.232558;stroke-linecap:butt;stroke-linejoin:miter;stroke:rgb(4.313725%,3.529412%,7.45098%);stroke-opacity:1;stroke-miterlimit:4;" d="M 49.734375 18.911458 C 50.177083 18.911458 50.552083 18.526042 50.552083 18.083333 C 50.552083 17.640625 50.177083 17.255208 49.734375 17.255208 C 49.296875 17.255208 48.916667 17.640625 48.916667 18.083333 C 48.916667 18.526042 49.296875 18.911458 49.734375 18.911458 Z M 49.734375 18.911458 " transform="matrix(0.75,0,0,0.75,0,0)"/>
<path style="fill-rule:nonzero;fill:rgb(4.313725%,3.529412%,7.45098%);fill-opacity:1;stroke-width:0.232558;stroke-linecap:butt;stroke-linejoin:miter;stroke:rgb(4.313725%,3.529412%,7.45098%);stroke-opacity:1;stroke-miterlimit:4;" d="M 17.963542 13.46875 C 18.359375 13.46875 18.6875 13.130208 18.6875 12.734375 C 18.6875 12.34375 18.359375 12.005208 17.963542 12.005208 C 17.567708 12.005208 17.239583 12.34375 17.239583 12.734375 C 17.239583 13.130208 17.567708 13.46875 17.963542 13.46875 Z M 17.963542 13.46875 " transform="matrix(0.75,0,0,0.75,0,0)"/>
<path style="fill-rule:nonzero;fill:rgb(4.313725%,3.529412%,7.45098%);fill-opacity:1;stroke-width:0.232558;stroke-linecap:butt;stroke-linejoin:miter;stroke:rgb(4.313725%,3.529412%,7.45098%);stroke-opacity:1;stroke-miterlimit:4;" d="M 7.375 13.703125 C 7.90625 13.703125 8.333333 13.270833 8.333333 12.734375 C 8.333333 12.197917 7.90625 11.765625 7.375 11.765625 C 6.838542 11.765625 6.411458 12.197917 6.411458 12.734375 C 6.411458 13.270833 6.838542 13.703125 7.375 13.703125 Z M 7.375 13.703125 " transform="matrix(0.75,0,0,0.75,0,0)"/>
<path style="fill-rule:nonzero;fill:rgb(4.313725%,3.529412%,7.45098%);fill-opacity:1;stroke-width:0.232558;stroke-linecap:butt;stroke-linejoin:miter;stroke:rgb(4.313725%,3.529412%,7.45098%);stroke-opacity:1;stroke-miterlimit:4;" d="M 23.260417 12.994792 C 23.322917 12.994792 23.395833 12.979167 23.447917 12.921875 C 23.5 12.869792 23.515625 12.802083 23.515625 12.734375 C 23.515625 12.671875 23.5 12.598958 23.447917 12.546875 C 23.395833 12.494792 23.322917 12.479167 23.260417 12.479167 C 23.192708 12.479167 23.125 12.494792 23.072917 12.546875 C 23.015625 12.598958 23 12.671875 23 12.734375 C 23 12.802083 23.015625 12.869792 23.072917 12.921875 C 23.125 12.979167 23.192708 12.994792 23.260417 12.994792 Z M 23.260417 12.994792 " transform="matrix(0.75,0,0,0.75,0,0)"/>
<path style="fill-rule:nonzero;fill:rgb(4.313725%,3.529412%,7.45098%);fill-opacity:1;stroke-width:0.232558;stroke-linecap:butt;stroke-linejoin:miter;stroke:rgb(4.313725%,3.529412%,7.45098%);stroke-opacity:1;stroke-miterlimit:4;" d="M 12.666667 13.942708 C 13.34375 13.942708 13.864583 13.416667 13.864583 12.734375 C 13.864583 12.057292 13.34375 11.53125 12.666667 11.53125 C 11.994792 11.53125 11.473958 12.057292 11.473958 12.734375 C 11.473958 13.416667 11.994792 13.942708 12.666667 13.942708 Z M 12.666667 13.942708 " transform="matrix(0.75,0,0,0.75,0,0)"/>
<path style="fill-rule:nonzero;fill:rgb(4.313725%,3.529412%,7.45098%);fill-opacity:1;stroke-width:0.232558;stroke-linecap:butt;stroke-linejoin:miter;stroke:rgb(4.313725%,3.529412%,7.45098%);stroke-opacity:1;stroke-miterlimit:4;" d="M 33.848958 12.994792 C 33.916667 12.994792 33.984375 12.979167 34.036458 12.921875 C 34.088542 12.869792 34.104167 12.802083 34.104167 12.734375 C 34.104167 12.671875 34.088542 12.598958 34.036458 12.546875 C 33.984375 12.494792 33.916667 12.479167 33.848958 12.479167 C 33.786458 12.479167 33.713542 12.494792 33.661458 12.546875 C 33.609375 12.598958 33.59375 12.671875 33.59375 12.734375 C 33.59375 12.828125 33.640625 12.890625 33.6875 12.932292 C 33.734375 12.96875 33.796875 12.994792 33.848958 12.994792 Z M 33.848958 12.994792 " transform="matrix(0.75,0,0,0.75,0,0)"/>
<path style="fill-rule:nonzero;fill:rgb(4.313725%,3.529412%,7.45098%);fill-opacity:1;stroke-width:0.232558;stroke-linecap:butt;stroke-linejoin:miter;stroke:rgb(4.313725%,3.529412%,7.45098%);stroke-opacity:1;stroke-miterlimit:4;" d="M 44.4375 13.229167 C 44.572917 13.229167 44.692708 13.166667 44.78125 13.078125 C 44.864583 12.989583 44.932292 12.869792 44.932292 12.734375 C 44.932292 12.604167 44.864583 12.479167 44.78125 12.395833 C 44.692708 12.307292 44.572917 12.239583 44.4375 12.239583 C 44.307292 12.239583 44.1875 12.307292 44.098958 12.395833 C 44.010417 12.479167 43.947917 12.604167 43.947917 12.734375 C 43.947917 12.869792 44.010417 12.989583 44.098958 13.078125 C 44.1875 13.166667 44.307292 13.229167 44.4375 13.229167 Z M 44.4375 13.229167 " transform="matrix(0.75,0,0,0.75,0,0)"/>
<path style="fill-rule:nonzero;fill:rgb(4.313725%,3.529412%,7.45098%);fill-opacity:1;stroke-width:0.232558;stroke-linecap:butt;stroke-linejoin:miter;stroke:rgb(4.313725%,3.529412%,7.45098%);stroke-opacity:1;stroke-miterlimit:4;" d="M 39.145833 13.088542 C 39.239583 13.088542 39.333333 13.057292 39.395833 12.989583 C 39.463542 12.921875 39.494792 12.833333 39.494792 12.734375 C 39.494792 12.640625 39.463542 12.546875 39.395833 12.484375 C 39.333333 12.416667 39.239583 12.385417 39.145833 12.385417 C 39.046875 12.385417 38.958333 12.416667 38.890625 12.484375 C 38.828125 12.546875 38.791667 12.640625 38.791667 12.734375 C 38.791667 12.833333 38.828125 12.921875 38.890625 12.989583 C 38.958333 13.057292 39.046875 13.088542 39.145833 13.088542 Z M 39.145833 13.088542 " transform="matrix(0.75,0,0,0.75,0,0)"/>
<path style="fill-rule:nonzero;fill:rgb(4.313725%,3.529412%,7.45098%);fill-opacity:1;stroke-width:0.232558;stroke-linecap:butt;stroke-linejoin:miter;stroke:rgb(4.313725%,3.529412%,7.45098%);stroke-opacity:1;stroke-miterlimit:4;" d="M 2.078125 13.84375 C 2.703125 13.84375 3.177083 13.364583 3.177083 12.734375 C 3.177083 12.104167 2.703125 11.625 2.078125 11.625 C 1.447917 11.625 0.979167 12.104167 0.979167 12.734375 C 0.979167 13.364583 1.447917 13.84375 2.078125 13.84375 Z M 2.078125 13.84375 " transform="matrix(0.75,0,0,0.75,0,0)"/>
<path style="fill-rule:nonzero;fill:rgb(4.313725%,3.529412%,7.45098%);fill-opacity:1;stroke-width:0.232558;stroke-linecap:butt;stroke-linejoin:miter;stroke:rgb(4.313725%,3.529412%,7.45098%);stroke-opacity:1;stroke-miterlimit:4;" d="M 49.734375 13.375 C 50.083333 13.375 50.364583 13.083333 50.364583 12.734375 C 50.364583 12.390625 50.083333 12.098958 49.734375 12.098958 C 49.375 12.098958 49.151042 12.40625 49.151042 12.734375 C 49.151042 12.911458 49.223958 13.067708 49.328125 13.182292 C 49.432292 13.296875 49.578125 13.375 49.734375 13.375 Z M 49.734375 13.375 " transform="matrix(0.75,0,0,0.75,0,0)"/>
<path style="fill-rule:nonzero;fill:rgb(4.313725%,3.529412%,7.45098%);fill-opacity:1;stroke-width:0.232558;stroke-linecap:butt;stroke-linejoin:miter;stroke:rgb(4.313725%,3.529412%,7.45098%);stroke-opacity:1;stroke-miterlimit:4;" d="M 17.963542 7.645833 C 18.026042 7.645833 18.098958 7.630208 18.151042 7.578125 C 18.203125 7.526042 18.21875 7.453125 18.21875 7.390625 C 18.21875 7.322917 18.203125 7.255208 18.151042 7.197917 C 18.098958 7.145833 18.026042 7.130208 17.963542 7.130208 C 17.895833 7.130208 17.828125 7.145833 17.776042 7.197917 C 17.723958 7.255208 17.708333 7.322917 17.708333 7.390625 C 17.708333 7.453125 17.723958 7.526042 17.776042 7.578125 C 17.828125 7.630208 17.895833 7.645833 17.963542 7.645833 Z M 17.963542 7.645833 " transform="matrix(0.75,0,0,0.75,0,0)"/>
<path style="fill-rule:nonzero;fill:rgb(4.313725%,3.529412%,7.45098%);fill-opacity:1;stroke-width:0.232558;stroke-linecap:butt;stroke-linejoin:miter;stroke:rgb(4.313725%,3.529412%,7.45098%);stroke-opacity:1;stroke-miterlimit:4;" d="M 7.375 8.59375 C 8.046875 8.59375 8.567708 8.067708 8.567708 7.390625 C 8.567708 6.708333 8.046875 6.182292 7.375 6.182292 C 6.697917 6.182292 6.177083 6.708333 6.177083 7.390625 C 6.177083 8.067708 6.697917 8.59375 7.375 8.59375 Z M 7.375 8.59375 " transform="matrix(0.75,0,0,0.75,0,0)"/>
<path style="fill-rule:nonzero;fill:rgb(4.313725%,3.529412%,7.45098%);fill-opacity:1;stroke-width:0.232558;stroke-linecap:butt;stroke-linejoin:miter;stroke:rgb(4.313725%,3.529412%,7.45098%);stroke-opacity:1;stroke-miterlimit:4;" d="M 12.666667 8.119792 C 13.0625 8.119792 13.395833 7.78125 13.395833 7.390625 C 13.395833 6.994792 13.0625 6.65625 12.666667 6.65625 C 12.276042 6.65625 11.942708 6.994792 11.942708 7.390625 C 11.942708 7.78125 12.276042 8.119792 12.666667 8.119792 Z M 12.666667 8.119792 " transform="matrix(0.75,0,0,0.75,0,0)"/>
<path style="fill-rule:nonzero;fill:rgb(4.313725%,3.529412%,7.45098%);fill-opacity:1;stroke-width:0.232558;stroke-linecap:butt;stroke-linejoin:miter;stroke:rgb(4.313725%,3.529412%,7.45098%);stroke-opacity:1;stroke-miterlimit:4;" d="M 33.848958 7.645833 C 33.916667 7.645833 33.984375 7.630208 34.036458 7.578125 C 34.088542 7.526042 34.104167 7.453125 34.104167 7.390625 C 34.104167 7.322917 34.088542 7.255208 34.036458 7.197917 C 33.984375 7.145833 33.916667 7.130208 33.848958 7.130208 C 33.786458 7.130208 33.713542 7.145833 33.661458 7.197917 C 33.609375 7.255208 33.59375 7.322917 33.59375 7.390625 C 33.59375 7.479167 33.640625 7.546875 33.6875 7.583333 C 33.734375 7.625 33.796875 7.645833 33.848958 7.645833 Z M 33.848958 7.645833 " transform="matrix(0.75,0,0,0.75,0,0)"/>
<path style="fill-rule:nonzero;fill:rgb(4.313725%,3.529412%,7.45098%);fill-opacity:1;stroke-width:0.232558;stroke-linecap:butt;stroke-linejoin:miter;stroke:rgb(4.313725%,3.529412%,7.45098%);stroke-opacity:1;stroke-miterlimit:4;" d="M 44.4375 7.786458 C 44.536458 7.786458 44.625 7.755208 44.692708 7.6875 C 44.755208 7.625 44.791667 7.53125 44.791667 7.4375 C 44.791667 7.338542 44.760417 7.244792 44.703125 7.171875 C 44.640625 7.09375 44.552083 7.036458 44.4375 7.036458 C 44.34375 7.036458 44.255208 7.067708 44.1875 7.135417 C 44.119792 7.203125 44.088542 7.291667 44.088542 7.390625 C 44.088542 7.484375 44.119792 7.578125 44.177083 7.65625 C 44.234375 7.729167 44.328125 7.786458 44.4375 7.786458 Z M 44.4375 7.786458 " transform="matrix(0.75,0,0,0.75,0,0)"/>
<path style="fill-rule:nonzero;fill:rgb(4.313725%,3.529412%,7.45098%);fill-opacity:1;stroke-width:0.232558;stroke-linecap:butt;stroke-linejoin:miter;stroke:rgb(4.313725%,3.529412%,7.45098%);stroke-opacity:1;stroke-miterlimit:4;" d="M 39.145833 7.645833 C 39.208333 7.645833 39.28125 7.630208 39.333333 7.578125 C 39.385417 7.526042 39.401042 7.453125 39.401042 7.390625 C 39.401042 7.322917 39.385417 7.255208 39.333333 7.197917 C 39.28125 7.145833 39.208333 7.130208 39.145833 7.130208 C 39.078125 7.130208 39.010417 7.145833 38.958333 7.197917 C 38.901042 7.255208 38.885417 7.322917 38.885417 7.390625 C 38.885417 7.479167 38.932292 7.546875 38.984375 7.583333 C 39.03125 7.625 39.088542 7.645833 39.145833 7.645833 Z M 39.145833 7.645833 " transform="matrix(0.75,0,0,0.75,0,0)"/>
<path style="fill-rule:nonzero;fill:rgb(4.313725%,3.529412%,7.45098%);fill-opacity:1;stroke-width:0.232558;stroke-linecap:butt;stroke-linejoin:miter;stroke:rgb(4.313725%,3.529412%,7.45098%);stroke-opacity:1;stroke-miterlimit:4;" d="M 2.078125 6.182292 C 1.453125 6.182292 0.885417 6.708333 0.885417 7.390625 C 0.885417 8.067708 1.401042 8.59375 2.078125 8.59375 C 2.75 8.59375 3.270833 8.067708 3.270833 7.390625 C 3.270833 6.708333 2.703125 6.182292 2.078125 6.182292 Z M 2.078125 6.182292 " transform="matrix(0.75,0,0,0.75,0,0)"/>
<path style="fill-rule:nonzero;fill:rgb(4.313725%,3.529412%,7.45098%);fill-opacity:1;stroke-width:0.232558;stroke-linecap:butt;stroke-linejoin:miter;stroke:rgb(4.313725%,3.529412%,7.45098%);stroke-opacity:1;stroke-miterlimit:4;" d="M 49.734375 7.885417 C 49.864583 7.885417 49.989583 7.817708 50.072917 7.729167 C 50.161458 7.640625 50.223958 7.520833 50.223958 7.390625 C 50.223958 7.255208 50.161458 7.135417 50.072917 7.046875 C 49.989583 6.958333 49.864583 6.895833 49.734375 6.895833 C 49.604167 6.895833 49.479167 6.958333 49.395833 7.046875 C 49.307292 7.135417 49.244792 7.255208 49.244792 7.390625 C 49.244792 7.520833 49.307292 7.640625 49.395833 7.729167 C 49.479167 7.817708 49.604167 7.885417 49.734375 7.885417 Z M 49.734375 7.885417 " transform="matrix(0.75,0,0,0.75,0,0)"/>
<path style="fill-rule:nonzero;fill:rgb(4.313725%,3.529412%,7.45098%);fill-opacity:1;stroke-width:0.232558;stroke-linecap:butt;stroke-linejoin:miter;stroke:rgb(4.313725%,3.529412%,7.45098%);stroke-opacity:1;stroke-miterlimit:4;" d="M 7.375 50.380208 C 7.4375 50.380208 7.510417 50.359375 7.5625 50.307292 C 7.614583 50.255208 7.630208 50.182292 7.630208 50.119792 C 7.630208 50.057292 7.614583 49.984375 7.5625 49.932292 C 7.510417 49.880208 7.4375 49.859375 7.375 49.859375 C 7.307292 49.859375 7.239583 49.880208 7.1875 49.932292 C 7.130208 49.984375 7.114583 50.057292 7.114583 50.119792 C 7.114583 50.182292 7.130208 50.255208 7.1875 50.307292 C 7.239583 50.359375 7.307292 50.380208 7.375 50.380208 Z M 7.375 50.380208 " transform="matrix(0.75,0,0,0.75,0,0)"/>
<path style="fill-rule:nonzero;fill:rgb(4.313725%,3.529412%,7.45098%);fill-opacity:1;stroke-width:0.232558;stroke-linecap:butt;stroke-linejoin:miter;stroke:rgb(4.313725%,3.529412%,7.45098%);stroke-opacity:1;stroke-miterlimit:4;" d="M 44.4375 50.848958 C 44.833333 50.848958 45.166667 50.515625 45.166667 50.119792 C 45.166667 49.723958 44.833333 49.390625 44.4375 49.390625 C 44.046875 49.390625 43.713542 49.723958 43.713542 50.119792 C 43.713542 50.515625 44.046875 50.848958 44.4375 50.848958 Z M 44.4375 50.848958 " transform="matrix(0.75,0,0,0.75,0,0)"/>
<path style="fill-rule:nonzero;fill:rgb(4.313725%,3.529412%,7.45098%);fill-opacity:1;stroke-width:0.232558;stroke-linecap:butt;stroke-linejoin:miter;stroke:rgb(4.313725%,3.529412%,7.45098%);stroke-opacity:1;stroke-miterlimit:4;" d="M 39.145833 50.380208 C 39.208333 50.380208 39.28125 50.359375 39.333333 50.307292 C 39.385417 50.255208 39.401042 50.182292 39.401042 50.119792 C 39.401042 50.057292 39.385417 49.984375 39.333333 49.932292 C 39.28125 49.880208 39.208333 49.859375 39.145833 49.859375 C 39.078125 49.859375 39.010417 49.880208 38.958333 49.932292 C 38.901042 49.984375 38.885417 50.057292 38.885417 50.119792 C 38.885417 50.208333 38.932292 50.276042 38.984375 50.317708 C 39.03125 50.354167 39.088542 50.380208 39.145833 50.380208 Z M 39.145833 50.380208 " transform="matrix(0.75,0,0,0.75,0,0)"/>
<path style="fill-rule:nonzero;fill:rgb(4.313725%,3.529412%,7.45098%);fill-opacity:1;stroke-width:0.232558;stroke-linecap:butt;stroke-linejoin:miter;stroke:rgb(4.313725%,3.529412%,7.45098%);stroke-opacity:1;stroke-miterlimit:4;" d="M 2.078125 50.473958 C 2.177083 50.473958 2.265625 50.4375 2.328125 50.375 C 2.395833 50.307292 2.427083 50.21875 2.427083 50.119792 C 2.427083 50.020833 2.395833 49.932292 2.328125 49.864583 C 2.265625 49.802083 2.177083 49.765625 2.078125 49.765625 C 1.979167 49.765625 1.890625 49.802083 1.822917 49.864583 C 1.760417 49.932292 1.729167 50.020833 1.729167 50.119792 C 1.729167 50.21875 1.760417 50.307292 1.822917 50.375 C 1.890625 50.4375 1.979167 50.473958 2.078125 50.473958 Z M 2.078125 50.473958 " transform="matrix(0.75,0,0,0.75,0,0)"/>
<path style="fill-rule:nonzero;fill:rgb(4.313725%,3.529412%,7.45098%);fill-opacity:1;stroke-width:0.232558;stroke-linecap:butt;stroke-linejoin:miter;stroke:rgb(4.313725%,3.529412%,7.45098%);stroke-opacity:1;stroke-miterlimit:4;" d="M 49.734375 48.916667 C 49.109375 48.916667 48.541667 49.4375 48.541667 50.119792 C 48.541667 50.796875 49.0625 51.322917 49.734375 51.322917 C 50.411458 51.322917 50.927083 50.796875 50.927083 50.119792 C 50.927083 49.442708 50.411458 48.916667 49.734375 48.916667 Z M 49.734375 48.916667 " transform="matrix(0.75,0,0,0.75,0,0)"/>
<path style="fill-rule:nonzero;fill:rgb(4.313725%,3.529412%,7.45098%);fill-opacity:1;stroke-width:0.232558;stroke-linecap:butt;stroke-linejoin:miter;stroke:rgb(4.313725%,3.529412%,7.45098%);stroke-opacity:1;stroke-miterlimit:4;" d="M 7.375 45.125 C 7.46875 45.125 7.557292 45.09375 7.625 45.026042 C 7.692708 44.958333 7.723958 44.869792 7.723958 44.770833 C 7.723958 44.677083 7.692708 44.583333 7.625 44.520833 C 7.557292 44.453125 7.46875 44.421875 7.375 44.421875 C 7.276042 44.421875 7.1875 44.453125 7.119792 44.520833 C 7.057292 44.583333 7.020833 44.677083 7.020833 44.770833 C 7.020833 44.869792 7.057292 44.958333 7.119792 45.026042 C 7.1875 45.09375 7.276042 45.125 7.375 45.125 Z M 7.375 45.125 " transform="matrix(0.75,0,0,0.75,0,0)"/>
<path style="fill-rule:nonzero;fill:rgb(4.313725%,3.529412%,7.45098%);fill-opacity:1;stroke-width:0.232558;stroke-linecap:butt;stroke-linejoin:miter;stroke:rgb(4.313725%,3.529412%,7.45098%);stroke-opacity:1;stroke-miterlimit:4;" d="M 12.666667 45.03125 C 12.734375 45.03125 12.802083 45.015625 12.854167 44.958333 C 12.911458 44.90625 12.927083 44.838542 12.927083 44.770833 C 12.927083 44.708333 12.911458 44.635417 12.854167 44.583333 C 12.802083 44.53125 12.734375 44.515625 12.666667 44.515625 C 12.604167 44.515625 12.53125 44.53125 12.479167 44.583333 C 12.427083 44.635417 12.411458 44.708333 12.411458 44.770833 C 12.411458 44.838542 12.427083 44.90625 12.479167 44.958333 C 12.53125 45.015625 12.604167 45.03125 12.666667 45.03125 Z M 12.666667 45.03125 " transform="matrix(0.75,0,0,0.75,0,0)"/>
<path style="fill-rule:nonzero;fill:rgb(4.313725%,3.529412%,7.45098%);fill-opacity:1;stroke-width:0.232558;stroke-linecap:butt;stroke-linejoin:miter;stroke:rgb(4.313725%,3.529412%,7.45098%);stroke-opacity:1;stroke-miterlimit:4;" d="M 33.848958 45.03125 C 33.916667 45.03125 33.984375 45.015625 34.036458 44.958333 C 34.088542 44.90625 34.104167 44.838542 34.104167 44.770833 C 34.104167 44.708333 34.088542 44.635417 34.036458 44.583333 C 33.984375 44.53125 33.916667 44.515625 33.848958 44.515625 C 33.786458 44.515625 33.713542 44.53125 33.661458 44.583333 C 33.609375 44.635417 33.59375 44.708333 33.59375 44.770833 C 33.59375 44.864583 33.640625 44.927083 33.6875 44.96875 C 33.734375 45.005208 33.796875 45.03125 33.848958 45.03125 Z M 33.848958 45.03125 " transform="matrix(0.75,0,0,0.75,0,0)"/>
<path style="fill-rule:nonzero;fill:rgb(4.313725%,3.529412%,7.45098%);fill-opacity:1;stroke-width:0.232558;stroke-linecap:butt;stroke-linejoin:miter;stroke:rgb(4.313725%,3.529412%,7.45098%);stroke-opacity:1;stroke-miterlimit:4;" d="M 44.4375 45.979167 C 45.114583 45.979167 45.635417 45.453125 45.635417 44.770833 C 45.635417 44.09375 45.114583 43.567708 44.4375 43.567708 C 43.765625 43.567708 43.244792 44.09375 43.244792 44.770833 C 43.244792 45.453125 43.817708 45.979167 44.4375 45.979167 Z M 44.4375 45.979167 " transform="matrix(0.75,0,0,0.75,0,0)"/>
<path style="fill-rule:nonzero;fill:rgb(4.313725%,3.529412%,7.45098%);fill-opacity:1;stroke-width:0.232558;stroke-linecap:butt;stroke-linejoin:miter;stroke:rgb(4.313725%,3.529412%,7.45098%);stroke-opacity:1;stroke-miterlimit:4;" d="M 39.145833 45.505208 C 39.536458 45.505208 39.869792 45.166667 39.869792 44.770833 C 39.869792 44.380208 39.536458 44.041667 39.145833 44.041667 C 38.75 44.041667 38.416667 44.380208 38.416667 44.770833 C 38.416667 45.166667 38.75 45.505208 39.145833 45.505208 Z M 39.145833 45.505208 " transform="matrix(0.75,0,0,0.75,0,0)"/>
<path style="fill-rule:nonzero;fill:rgb(4.313725%,3.529412%,7.45098%);fill-opacity:1;stroke-width:0.232558;stroke-linecap:butt;stroke-linejoin:miter;stroke:rgb(4.313725%,3.529412%,7.45098%);stroke-opacity:1;stroke-miterlimit:4;" d="M 2.078125 45.265625 C 2.208333 45.265625 2.333333 45.203125 2.416667 45.114583 C 2.505208 45.026042 2.567708 44.90625 2.567708 44.770833 C 2.567708 44.640625 2.505208 44.515625 2.416667 44.432292 C 2.333333 44.34375 2.208333 44.276042 2.078125 44.276042 C 1.947917 44.276042 1.822917 44.34375 1.739583 44.432292 C 1.651042 44.515625 1.588542 44.640625 1.588542 44.770833 C 1.588542 44.911458 1.630208 45.041667 1.71875 45.130208 C 1.8125 45.223958 1.9375 45.265625 2.078125 45.265625 Z M 2.078125 45.265625 " transform="matrix(0.75,0,0,0.75,0,0)"/>
<path style="fill-rule:nonzero;fill:rgb(4.313725%,3.529412%,7.45098%);fill-opacity:1;stroke-width:0.232558;stroke-linecap:butt;stroke-linejoin:miter;stroke:rgb(4.313725%,3.529412%,7.45098%);stroke-opacity:1;stroke-miterlimit:4;" d="M 49.734375 45.979167 C 50.359375 45.979167 50.927083 45.453125 50.927083 44.770833 C 50.927083 44.09375 50.411458 43.567708 49.734375 43.567708 C 49.0625 43.567708 48.541667 44.09375 48.541667 44.770833 C 48.541667 45.453125 49.109375 45.979167 49.734375 45.979167 Z M 49.734375 45.979167 " transform="matrix(0.75,0,0,0.75,0,0)"/>
<path style="fill-rule:nonzero;fill:rgb(4.313725%,3.529412%,7.45098%);fill-opacity:1;stroke-width:0.232558;stroke-linecap:butt;stroke-linejoin:miter;stroke:rgb(4.313725%,3.529412%,7.45098%);stroke-opacity:1;stroke-miterlimit:4;" d="M 7.375 2.817708 C 7.765625 2.817708 8.098958 2.484375 8.098958 2.088542 C 8.098958 1.692708 7.765625 1.359375 7.375 1.359375 C 6.984375 1.359375 6.645833 1.640625 6.645833 2.088542 C 6.645833 2.484375 6.979167 2.817708 7.375 2.817708 Z M 7.375 2.817708 " transform="matrix(0.75,0,0,0.75,0,0)"/>
<path style="fill-rule:nonzero;fill:rgb(4.313725%,3.529412%,7.45098%);fill-opacity:1;stroke-width:0.232558;stroke-linecap:butt;stroke-linejoin:miter;stroke:rgb(4.313725%,3.529412%,7.45098%);stroke-opacity:1;stroke-miterlimit:4;" d="M 12.666667 2.348958 C 12.734375 2.348958 12.802083 2.328125 12.854167 2.276042 C 12.911458 2.223958 12.927083 2.151042 12.927083 2.088542 C 12.927083 2.020833 12.911458 1.953125 12.854167 1.901042 C 12.802083 1.848958 12.734375 1.828125 12.666667 1.828125 C 12.604167 1.828125 12.53125 1.848958 12.479167 1.901042 C 12.427083 1.953125 12.411458 2.020833 12.411458 2.088542 C 12.411458 2.140625 12.432292 2.203125 12.473958 2.25 C 12.510417 2.302083 12.578125 2.348958 12.666667 2.348958 Z M 12.666667 2.348958 " transform="matrix(0.75,0,0,0.75,0,0)"/>
<path style="fill-rule:nonzero;fill:rgb(4.313725%,3.529412%,7.45098%);fill-opacity:1;stroke-width:0.232558;stroke-linecap:butt;stroke-linejoin:miter;stroke:rgb(4.313725%,3.529412%,7.45098%);stroke-opacity:1;stroke-miterlimit:4;" d="M 44.4375 2.348958 C 44.505208 2.348958 44.572917 2.328125 44.625 2.276042 C 44.682292 2.223958 44.697917 2.151042 44.697917 2.088542 C 44.697917 2.020833 44.682292 1.953125 44.625 1.901042 C 44.572917 1.848958 44.505208 1.828125 44.4375 1.828125 C 44.375 1.828125 44.302083 1.848958 44.25 1.901042 C 44.197917 1.953125 44.182292 2.020833 44.182292 2.088542 C 44.182292 2.135417 44.203125 2.171875 44.213542 2.192708 C 44.229167 2.213542 44.25 2.239583 44.270833 2.260417 C 44.286458 2.28125 44.3125 2.296875 44.338542 2.3125 C 44.359375 2.328125 44.395833 2.348958 44.4375 2.348958 Z M 44.4375 2.348958 " transform="matrix(0.75,0,0,0.75,0,0)"/>
<path style="fill-rule:nonzero;fill:rgb(4.313725%,3.529412%,7.45098%);fill-opacity:1;stroke-width:0.232558;stroke-linecap:butt;stroke-linejoin:miter;stroke:rgb(4.313725%,3.529412%,7.45098%);stroke-opacity:1;stroke-miterlimit:4;" d="M 2.078125 3.244792 C 2.703125 3.244792 3.270833 2.723958 3.270833 2.041667 C 3.270833 1.354167 2.692708 0.885417 2.078125 0.885417 C 1.453125 0.885417 0.885417 1.40625 0.885417 2.088542 C 0.885417 2.776042 1.411458 3.244792 2.078125 3.244792 Z M 2.078125 3.244792 " transform="matrix(0.75,0,0,0.75,0,0)"/>
<path style="fill-rule:nonzero;fill:rgb(4.313725%,3.529412%,7.45098%);fill-opacity:1;stroke-width:0.232558;stroke-linecap:butt;stroke-linejoin:miter;stroke:rgb(4.313725%,3.529412%,7.45098%);stroke-opacity:1;stroke-miterlimit:4;" d="M 49.734375 2.442708 C 49.833333 2.442708 49.921875 2.40625 49.989583 2.34375 C 50.052083 2.276042 50.083333 2.1875 50.083333 2.088542 C 50.083333 1.989583 50.052083 1.901042 49.989583 1.833333 C 49.921875 1.770833 49.833333 1.734375 49.734375 1.734375 C 49.635417 1.734375 49.546875 1.770833 49.484375 1.833333 C 49.416667 1.901042 49.385417 1.989583 49.385417 2.088542 C 49.385417 2.1875 49.416667 2.276042 49.484375 2.34375 C 49.546875 2.40625 49.635417 2.442708 49.734375 2.442708 Z M 49.734375 2.442708 " transform="matrix(0.75,0,0,0.75,0,0)"/>
</g>
</svg>
