<?xml version="1.0" encoding="UTF-8"?>
<svg xmlns="http://www.w3.org/2000/svg" xmlns:xlink="http://www.w3.org/1999/xlink" width="px" height="px" viewBox="0 0 44 39" version="1.1">
<defs>
<linearGradient id="linear0" gradientUnits="userSpaceOnUse" x1="-4.46402" y1="36.0881" x2="69.9566" y2="-2.42078" gradientTransform="matrix(0.758621,0,0,0.764706,0,0)">
<stop offset="0" style="stop-color:rgb(100%,63.529412%,100%);stop-opacity:1;"/>
<stop offset="0.285552" style="stop-color:rgb(84.313725%,70.196078%,100%);stop-opacity:1;"/>
<stop offset="0.367148" style="stop-color:rgb(84.313725%,70.196078%,100%);stop-opacity:1;"/>
<stop offset="0.889732" style="stop-color:rgb(0%,100%,89.803922%);stop-opacity:1;"/>
<stop offset="1" style="stop-color:rgb(0%,100%,89.803922%);stop-opacity:1;"/>
</linearGradient>
<linearGradient id="linear1" gradientUnits="userSpaceOnUse" x1="19.2707" y1="38.5951" x2="33.6721" y2="-4.3821" gradientTransform="matrix(0.758621,0,0,0.764706,0,0)">
<stop offset="0" style="stop-color:rgb(8.627451%,9.019608%,24.313725%);stop-opacity:1;"/>
<stop offset="0.0001" style="stop-color:rgb(8.627451%,9.019608%,24.313725%);stop-opacity:0.458824;"/>
<stop offset="1" style="stop-color:rgb(8.627451%,9.019608%,24.313725%);stop-opacity:0;"/>
</linearGradient>
<linearGradient id="linear2" gradientUnits="userSpaceOnUse" x1="-2.00701" y1="38.2152" x2="64.6735" y2="9.0132" gradientTransform="matrix(0.758621,0,0,0.764706,0,0)">
<stop offset="0" style="stop-color:rgb(100%,63.529412%,100%);stop-opacity:1;"/>
<stop offset="0.285552" style="stop-color:rgb(84.313725%,70.196078%,100%);stop-opacity:1;"/>
<stop offset="0.367148" style="stop-color:rgb(84.313725%,70.196078%,100%);stop-opacity:1;"/>
<stop offset="0.889732" style="stop-color:rgb(0%,100%,89.803922%);stop-opacity:1;"/>
<stop offset="1" style="stop-color:rgb(0%,100%,89.803922%);stop-opacity:1;"/>
</linearGradient>
<linearGradient id="linear3" gradientUnits="userSpaceOnUse" x1="16.095" y1="54.0685" x2="32.5725" y2="12.8659" gradientTransform="matrix(0.758621,0,0,0.764706,0,0)">
<stop offset="0.0610201" style="stop-color:rgb(3.921569%,3.921569%,3.921569%);stop-opacity:0.65098;"/>
<stop offset="1" style="stop-color:rgb(24.313725%,8.627451%,18.823529%);stop-opacity:0;"/>
</linearGradient>
<linearGradient id="linear4" gradientUnits="userSpaceOnUse" x1="-4.85624" y1="42.4885" x2="54.9703" y2="19.7613" gradientTransform="matrix(0.758621,0,0,0.764706,0,0)">
<stop offset="0" style="stop-color:rgb(100%,63.529412%,100%);stop-opacity:1;"/>
<stop offset="0.285552" style="stop-color:rgb(84.313725%,70.196078%,100%);stop-opacity:1;"/>
<stop offset="0.324774" style="stop-color:rgb(84.313725%,70.196078%,100%);stop-opacity:1;"/>
<stop offset="0.889732" style="stop-color:rgb(32.156863%,99.215686%,90.196078%);stop-opacity:1;"/>
<stop offset="1" style="stop-color:rgb(30.588235%,100%,89.803922%);stop-opacity:1;"/>
</linearGradient>
</defs>
<g id="surface1">
<path style=" stroke:none;fill-rule:nonzero;fill:url(#linear0);" d="M 0.015625 0.753906 L 0.015625 14.652344 L 0.0195312 14.101562 C 0.113281 25.976562 9.917969 36.132812 22.007812 36.132812 C 34.097656 36.132812 43.90625 26.53125 43.996094 14.652344 L 44 14.101562 L 44 0.753906 C 44 0.753906 40.949219 -0.761719 37.480469 2.851562 C 35.253906 5.171875 33.472656 13.507812 28.703125 13.582031 C 22.335938 13.683594 18 5.0625 12.820312 1.839844 C 10.519531 0.410156 7.859375 0 5.566406 0 C 2.460938 0 0.015625 0.753906 0.015625 0.753906 Z M 0.015625 0.753906 "/>
<path style=" stroke:none;fill-rule:nonzero;fill:url(#linear1);" d="M 0.015625 0.753906 L 0.015625 14.652344 L 0.0195312 14.101562 C 0.113281 25.976562 9.917969 36.132812 22.007812 36.132812 C 34.097656 36.132812 43.90625 26.53125 43.996094 14.652344 L 44 14.101562 L 44 0.753906 C 44 0.753906 40.949219 -0.761719 37.480469 2.851562 C 35.253906 5.171875 33.472656 13.507812 28.703125 13.582031 C 22.335938 13.683594 18 5.0625 12.820312 1.839844 C 10.519531 0.410156 7.859375 0 5.566406 0 C 2.460938 0 0.015625 0.753906 0.015625 0.753906 Z M 0.015625 0.753906 "/>
<path style=" stroke:none;fill-rule:nonzero;fill:url(#linear2);" d="M 0 6.117188 L 0 16.023438 L 0.00390625 15.433594 C 0.09375 28.140625 9.90625 39 22 39 C 34.09375 39 43.90625 28.730469 43.996094 16.023438 L 44 15.433594 L 44 6.367188 C 42.757812 6.578125 41.230469 7.195312 39.617188 8.714844 C 37.117188 11.0625 35.121094 19.5 29.773438 19.574219 C 22.628906 19.675781 17.769531 10.953125 11.957031 7.691406 C 9.378906 6.246094 6.398438 5.828125 3.824219 5.828125 C 2.371094 5.828125 1.050781 5.960938 0 6.117188 Z M 0 6.117188 "/>
<path style=" stroke:none;fill-rule:nonzero;fill:url(#linear3);" d="M 0 6.136719 L 0 16.042969 L 0.00390625 15.453125 C 0.09375 28.160156 9.90625 39.019531 22 39.019531 C 34.09375 39.019531 43.90625 28.75 43.996094 16.042969 L 44 15.453125 L 44 6.390625 C 42.757812 6.601562 41.230469 7.21875 39.617188 8.734375 C 37.117188 11.082031 35.121094 19.519531 29.773438 19.59375 C 22.628906 19.695312 17.769531 10.972656 11.957031 7.710938 C 9.378906 6.265625 6.398438 5.847656 3.824219 5.847656 C 2.371094 5.847656 1.050781 5.980469 0 6.136719 Z M 0 6.136719 "/>
<path style=" stroke:none;fill-rule:nonzero;fill:url(#linear4);" d="M 0 12.945312 L 0 16.023438 L 0.00390625 15.433594 C 0.09375 28.140625 9.90625 39 22 39 C 34.09375 39 43.90625 28.730469 43.996094 16.023438 L 44 15.433594 L 44 13.832031 C 43.050781 14.203125 42.011719 14.796875 40.941406 15.730469 C 38.253906 18.078125 36.105469 26.511719 30.347656 26.589844 C 22.65625 26.691406 17.425781 17.96875 11.167969 14.707031 C 8.390625 13.261719 5.1875 12.84375 2.414062 12.84375 C 1.558594 12.84375 0.746094 12.882812 0 12.945312 Z M 0 12.945312 "/>
</g>
</svg>
